<svg xmlns="http://www.w3.org/2000/svg" width="204" height="66" viewBox="0 0 204 66"><g transform="translate(0 -35.714)"><path d="M31.1,121.6c-.012.241-.035.482-.035.724q0,29.913,0,59.825v.7l.227.155c1.119-1.188,2.212-2.4,3.362-3.559q13.3-13.373,26.6-26.738c.468-.471.706-.411,1.141.025q14.771,14.839,29.568,29.65c.238.238.489.462.9.851H56.356q-12.381,0-24.762-.018a1.653,1.653,0,0,1-1.062-.42Q15.473,167.734.448,152.636c-.135-.135-.262-.278-.448-.476.826-.827,1.636-1.645,2.453-2.454.184-.182.411-.322.594-.505q13.61-13.634,27.216-27.273c.168-.169.349-.325.524-.487l.316.162" transform="translate(0 -81.949)" fill="#fff"/><path d="M161.29,120.085c.266-.007.531-.019.8-.019q29.76,0,59.519,0c.368,0,.736.071,1.249.125l-31.1,31.115a2.855,2.855,0,0,0-.376-.771q-14.768-14.8-29.556-29.586c-.17-.17-.354-.324-.531-.486q0-.191,0-.382" transform="translate(-130.078 -80.84)" fill="#fff"/><path d="M478.978,121.841l30.735,30.8L478.978,183.4Z" transform="translate(-386.272 -82.272)" fill="#fff"/><path d="M966.814,323.218c.842.329,1.706.591,2.5.992a4.959,4.959,0,0,1,2.759,4.217,6.319,6.319,0,0,1-.744,4.085,7.053,7.053,0,0,1-4.3,3.005,17.468,17.468,0,0,1-5.075.6c-3.121-.034-6.242-.01-9.414-.01V311.274h.759c3.049,0,6.1-.027,9.148.011a13.719,13.719,0,0,1,5.063.855,5.421,5.421,0,0,1,3.7,5.2,4.963,4.963,0,0,1-1.042,3.574,9.71,9.71,0,0,1-1.781,1.386c-.475.329-1,.59-1.564.919m-9.067,9.2c2.017-.078,3.916-.068,5.8-.256a3.043,3.043,0,0,0,2.585-1.534,5.4,5.4,0,0,0,.393-2.115,2.689,2.689,0,0,0-2.37-2.978c-2.12-.275-4.269-.325-6.4-.472Zm.08-17.387v6.637c1.878-.081,3.733-.039,5.55-.276a2.64,2.64,0,0,0,2.42-2.46c.222-1.888-.407-2.951-1.9-3.459-1.975-.674-4.013-.351-6.075-.441" transform="translate(-768.16 -234.888)" fill="#fff"/><path d="M705.164,316.124a3.887,3.887,0,0,0-1.683-2.947c-1.869-1.06-4.818-.737-5.937,1.086a2.339,2.339,0,0,0,.933,3.6c1.942.827,3.98,1.431,5.983,2.112a18.166,18.166,0,0,1,4.621,2.126,4.768,4.768,0,0,1,1.98,3.123,7.163,7.163,0,0,1-1.473,6.3,7.731,7.731,0,0,1-3.05,2.115,15.782,15.782,0,0,1-7.617.987,8.812,8.812,0,0,1-5.938-2.605,6.876,6.876,0,0,1-1.813-4.1c-.041-.421-.122-.837-.194-1.318h5.539a3.965,3.965,0,0,0,1.248,3.1,3.623,3.623,0,0,0,2.49,1.033,6.3,6.3,0,0,0,3.773-.706,3.023,3.023,0,0,0,1.226-4.1,4.031,4.031,0,0,0-2.427-1.44c-1.749-.564-3.532-1.027-5.273-1.616a8.978,8.978,0,0,1-5.056-3.4,5.841,5.841,0,0,1-.783-4.12c.465-3.423,2.678-5,5.746-5.869a13.407,13.407,0,0,1,4.71-.533,12.915,12.915,0,0,1,5.219,1.267,5.813,5.813,0,0,1,2.951,4.134c.133.566.216,1.144.333,1.777Z" transform="translate(-557.229 -232.992)" fill="#fff"/><path d="M818.606,311.472q1.682,4.063,3.364,8.126,1.375,3.322,2.753,6.644c.79,1.9,1.587,3.8,2.376,5.7.568,1.369,1.127,2.743,1.714,4.174h-6.036c-.626-1.686-1.251-3.414-1.923-5.124a.874.874,0,0,0-.633-.469c-3.29-.03-6.582,0-9.872-.039-.663-.008-.566.47-.692.794-.629,1.615-1.228,3.241-1.841,4.874h-5.407q1.51-3.711,3.014-7.41c1.454-3.6,2.895-7.213,4.35-10.816.828-2.049,1.663-4.1,2.532-6.129a.9.9,0,0,1,.662-.444c1.838-.029,3.677-.007,5.515,0l.124.116m-3.3,3.8c-1.365,3.97-2.823,7.672-4.027,11.491h7.972l-3.945-11.491" transform="translate(-647.121 -234.951)" fill="#fff"/><path d="M901.374,141.528H907.1V126.165h4.662v15.3h5.146v-.78q0-9.8,0-19.6c0-.266.015-.531.023-.8l.125-.115h4.448v24.851H901.25v-3.375l.124-.115" transform="translate(-726.812 -80.923)" fill="#fff"/><path d="M691.85,136.517h4.524c.014.248.04.479.039.71-.017,2.176-.114,4.354-.038,6.526a3.54,3.54,0,0,0,3.293,3.658,8.951,8.951,0,0,0,3.294-.179,3.134,3.134,0,0,0,2.37-2.913,22.245,22.245,0,0,0,.2-3.441c.016-6.9.008-13.794.008-20.8,1.48,0,2.943-.005,4.406.012.089,0,.223.163.254.273a1.9,1.9,0,0,1,.016.505c0,7.31.036,14.62-.026,21.93a9.788,9.788,0,0,1-1.24,5.007,5.989,5.989,0,0,1-4.133,2.768,16.126,16.126,0,0,1-4.9.43,11.171,11.171,0,0,1-4.742-1.156,6,6,0,0,1-3.3-5.1c-.117-2.713-.027-5.434-.027-8.227" transform="translate(-557.907 -80.851)" fill="#fff"/><path d="M821.229,172.092c0,4.045,0,8.013,0,11.981a18.689,18.689,0,0,1-.532,4.966,4.336,4.336,0,0,1-3.689,3.3c-2.716.385-5.5.32-8.3.448v-3.562c1.8,0,3.6-.007,5.41,0a2.143,2.143,0,0,0,1.928-1.011,6.218,6.218,0,0,0,.474-1.4c-1.183-.08-2.308-.089-3.411-.251a14.126,14.126,0,0,1-3.249-.755,5.186,5.186,0,0,1-3.166-3.976,9.368,9.368,0,0,1,.676-6.634,6.291,6.291,0,0,1,5.043-3.245,30.014,30.014,0,0,1,4.169-.161c1.525.029,3.047.188,4.648.3m-4.738,3.383a11.034,11.034,0,0,0-2.421-.022,3.922,3.922,0,0,0-2.13,1,4.733,4.733,0,0,0,0,5.808,1.7,1.7,0,0,0,.386.293c1.3.918,2.754.433,4.164.574Z" transform="translate(-650.303 -122.509)" fill="#fefefe"/><rect width="4.589" height="24.908" transform="translate(199.411 39.255)" fill="#fff"/><path d="M932.821,106.665V108.7h-6.765v-2.1h1.124a22.289,22.289,0,0,1,.021-2.559,2.656,2.656,0,0,1,2.182-1.941c.735-.054,1.473-.087,2.207-.15.486-.042.726.111.681.643-.036.431-.007.867-.007,1.395-.441,0-.868.032-1.288-.006-1.231-.112-1.614.715-1.457,1.791.091.625.365.938,1.082.849a16.526,16.526,0,0,1,2.1-.011.571.571,0,0,1,.121.051" transform="translate(-746.812 -66.233)" fill="#fff"/><path d="M159.364,120.167l0,.382-.147.027-.316-.162.464-.246" transform="translate(-128.113 -80.923)" fill="#dadada"/><path d="M982.331,120.166l-.125.115.125-.115" transform="translate(-792.083 -80.922)" fill="#d9d9d9"/><path d="M901.374,230.418l-.124.115.124-.115" transform="translate(-726.812 -169.772)" fill="#dadada"/><path d="M885.5,311.533l-.124-.116.124.116" transform="translate(-714.01 -235.052)" fill="#dadada"/><path d="M979.435,389.834V382.48c2.136.146,4.285.2,6.4.472a2.689,2.689,0,0,1,2.37,2.978,5.406,5.406,0,0,1-.393,2.115,3.044,3.044,0,0,1-2.585,1.534c-1.879.188-3.778.178-5.8.256" transform="translate(-789.849 -292.306)"/><path d="M979.846,330.7c2.062.09,4.1-.233,6.075.441,1.488.508,2.117,1.571,1.9,3.459a2.64,2.64,0,0,1-2.42,2.46c-1.818.238-3.672.2-5.55.276Z" transform="translate(-790.18 -250.581)"/><path d="M852.237,331.621l3.945,11.491h-7.972c1.2-3.818,2.662-7.52,4.027-11.491" transform="translate(-684.048 -251.32)" fill="#010101"/><path d="M835.43,190.448V198.1c-1.41-.141-2.867.344-4.164-.574a1.7,1.7,0,0,1-.386-.293,4.733,4.733,0,0,1,0-5.808,3.922,3.922,0,0,1,2.13-1,11.034,11.034,0,0,1,2.421.022" transform="translate(-669.239 -137.482)" fill="#010101"/></g></svg>