<svg xmlns="http://www.w3.org/2000/svg" xmlns:xlink="http://www.w3.org/1999/xlink" width="206" height="96" viewBox="0 0 206 96"><defs><clipPath id="a"><rect width="206" height="96" fill="#fff"/></clipPath></defs><g clip-path="url(#a)"><path d="M266.414,83.932c-4.242,0-8.484-.031-12.726.024-.96.012-1.34-.194-1.24-1.218.082-.832.251-1.766-.822-2.239a.614.614,0,0,1-.225-.82c.213-.361.633-.2.963-.2,6.735-.008,13.471.051,20.206-.027a43.173,43.173,0,0,1,11.987,1.421c4.733,1.3,8.51,4.111,10.343,8.93,1.492,3.925-.064,8.752-3.462,11.554-3.8,3.137-8.2,4.332-13.034,4.585-7.082.372-14.16.13-21.239.205a4.944,4.944,0,0,1-1.173-.078c-.656-.154-1-.555-.3-1.034a1.875,1.875,0,0,0,.709-1.843c-.008-5.727.026-11.455-.024-17.182-.009-1,.263-1.292,1.231-1.242,1.395.073,2.8.041,4.2-.012.8-.03,1.133.111,1.092,1.075-.213,4.886-.156,9.775-.038,14.666.025,1.02.37,1.217,1.3,1.207,4.5-.046,9.012.082,13.513-.055a13.162,13.162,0,0,0,8.594-3.11,8.226,8.226,0,0,0,2.187-7.631c-1.047-4.1-5.809-6.553-9.19-6.647-4.281-.119-8.567-.029-12.852-.029v-.3" transform="translate(-89.467 -27.952)" fill="#fff"/><path d="M164.965,9.972a6.533,6.533,0,0,0-.134,1.952c0,5.946-.018,11.892.034,17.838.008.943-.238,1.179-1.152,1.157-2.578-.063-5.159.007-7.738-.036-.839-.014-1.191.22-1.1,1.11a4.767,4.767,0,0,0,.824,2.94c.433.488.115.6-.265.839a3.042,3.042,0,0,1-4.48-2.607c-.2-2.271-.2-2.267-2.422-2.267-7.782,0-15.565-.022-23.348.023-1.056.006-1.289-.318-1.283-1.331.044-6.431.014-12.861.024-19.292,0-1.438-.05-2.766-1.629-3.509a.827.827,0,0,1-.084-1.548A20.014,20.014,0,0,0,127.849,0V1.554c0,8.016.027,16.033-.024,24.049-.007,1.134.334,1.365,1.393,1.357,6.646-.049,13.292-.009,19.937-.057.58,0,1.586.583,1.744-.467.166-1.108.345-2.353-.985-3.1a7.326,7.326,0,0,0-3.622-.89c-2.842-.025-5.685-.03-8.526.006-1.311.017-1.816-.986-2.177-1.874a2.9,2.9,0,0,1,.5-2.963.379.379,0,0,1,.574-.09c1.478,1.482,3.413,1.017,5.172,1.195a24.721,24.721,0,0,0,4.448-.176c2.82-.227,5.474.278,7.271,2.725a6.947,6.947,0,0,1,1.325,4.558c-.048.828.184,1.176,1.079,1.131,1.439-.073,2.886-.047,4.328-.008.679.018.92-.21.913-.905-.029-2.422-.036-4.846.008-7.267.024-1.3-1.02-1.756-1.793-2.364-.641-.5-.725-.949-.089-1.309,2.257-1.278,3.873-3.239,5.641-5.129" transform="translate(-43.327)" fill="#fff"/><path d="M153.545,93.215c-2.231,0-4.463.056-6.691-.02a7.138,7.138,0,0,0-4,.918c-.486.283-.683.459-.665,1.049.082,2.641.113,5.284.121,7.926a2.157,2.157,0,0,0,.8,1.837c.256.2.441.463.28.8-.144.295-.457.185-.7.185-2.405.006-4.811,0-7.216,0-.307,0-.645.036-.821-.281-.231-.414.217-.526.4-.7a2.851,2.851,0,0,0,.808-2.344q-.071-10.11-.053-20.221a2.325,2.325,0,0,0-.77-1.856c-.22-.2-.45-.5-.351-.805.126-.39.524-.219.8-.221,2.362-.013,4.723-.017,7.085,0,.3,0,.755-.222.862.3a.657.657,0,0,1-.457.827c-.886.316-.732,1.109-.729,1.779.01,2.378.079,4.757.09,7.135,0,.832-.1,1.664-.138,2.5-.012.288-.143.681.25.793.286.082.414-.229.574-.439.735-.962,1.5-1.9,2.23-2.867a1.962,1.962,0,0,1,1.768-.8c4.9.052,9.8.023,14.7.067.869.008,1.233-.176,1.178-1.146-.087-1.537-.017-3.083-.024-4.625-.005-.975.274-2.056-.98-2.571a.565.565,0,0,1-.27-.686c.1-.342.408-.274.652-.274,2.493-.005,4.986-.008,7.479.01.257,0,.664-.163.716.329a.642.642,0,0,1-.365.758c-.93.415-1,1.219-.938,2.1.258,3.915.144,7.839.255,11.757a3.767,3.767,0,0,1-1.089,2.927c-1.664,1.742-3.29,3.52-4.914,5.3-.2.214-.383.429-.64.291-.274-.147-.131-.463-.093-.71.414-2.716.066-5.452.2-8.174.043-.883-.46-.855-1.081-.851-2.755.019-5.511.008-8.266.008Z" transform="translate(-47.914 -27.951)" fill="#fff"/><path d="M43.066,100.351c-1.394,1.68-2.729,3.32-4.106,4.926a1.61,1.61,0,0,1-1.319.414c-7.216-.069-14.447.161-21.642-.264-5.469-.323-10.608-2.177-14.044-6.9A9.567,9.567,0,0,1,1.08,88.289c1.976-4.2,5.591-6.373,9.724-7.88,3.2-1.167,6.544-1.248,9.882-1.3,3.838-.054,7.678-.013,11.726-.013a40.214,40.214,0,0,1-4.146,5.1c-.3.364-.7.38-.895-.145-.231-.62-.667-.673-1.252-.657-2.924.082-5.862-.039-8.77.208-3.608.307-6.984,1.315-9.2,4.584a7.765,7.765,0,0,0,3.141,11.3,18.957,18.957,0,0,0,8.274,1.787c6.473.029,12.946.011,19.419.034a3.648,3.648,0,0,0,2.094-.545,2.226,2.226,0,0,1,1.984-.419" transform="translate(0 -27.826)" fill="#fff"/><path d="M91.71,79.377c-1.349,1.658-2.456,3.1-3.659,4.448-.356.4-.962,1.545-1.508.05-.171-.468-.6-.268-.911-.27-3.977-.01-7.954.02-11.931-.02-.893-.009-1.066.3-1.061,1.146.03,5.988.014,11.975-.017,17.962a1.928,1.928,0,0,0,.807,1.922c.279.173.614.438.45.856-.142.362-.511.273-.8.274q-3.408,0-6.816-.017c-.379,0-.9.05-1.032-.345s.2-.754.583-.931c.55-.255.535-.71.534-1.212-.009-6.207-.021-12.415.014-18.622,0-.83-.243-1.029-1.039-1.024q-6.621.038-13.241-.039a5.2,5.2,0,0,0-2.456.686c-.362.181-.829.321-1.09-.016-.3-.391.14-.649.363-.974a41.294,41.294,0,0,0,2.682-3.508c.363-.67,1.226-.54,1.909-.542,5.025-.012,10.051-.034,15.077-.006,7.254.04,14.507.12,21.76.182.377,0,.753,0,1.387,0" transform="translate(-17.24 -27.86)" fill="#fff"/><path d="M74.993,13.553c1.012,1.088,1.853,1.932,2.618,2.841a5.138,5.138,0,0,0,1.137,1.048c1.282.837,1.276.979.106,2.057-.189.175-.358.372-.534.562a1.272,1.272,0,0,0-.4,1.318c.209.56.765.295,1.15.3,6.383.017,12.765.006,19.148,0a11.36,11.36,0,0,1,1.18.016c1.6.167,2.393.924,2.4,2.521.022,4.842.066,9.688-.081,14.527-.051,1.67-1.531,2.571-2.9,3.191a7.312,7.312,0,0,1-6.17.07,4.15,4.15,0,0,1-2.722-4.444c.156-1.793.032-1.8-1.811-1.8-4.022-.007-8.044-.038-12.065-.012-.774.005-1.06-.17-1.074-1.01-.053-3.031-.085-3.031,2.961-3.03,4.5,0,9.006.032,13.508-.019.933-.01,1.215.248,1.153,1.172-.079,1.184-.023,2.377-.018,3.565.006,1.543,1.094,2.452,2.979,2.493A2.22,2.22,0,0,0,98.075,36.6c.04-3.082.035-6.165,0-9.248-.014-1.285-.9-1.986-2.391-1.987-6.426-.005-12.853-.036-19.279.026-1.157.011-1.468-.281-1.441-1.443.08-3.364.028-6.732.028-10.392" transform="translate(-26.684 -4.769)" fill="#fff"/><path d="M210,1.047a23.475,23.475,0,0,1,.245,5.021c.053,6.079-.009,12.159.014,18.238a3.455,3.455,0,0,1-1.072,2.7c-1.222,1.194-2.288,2.55-3.516,3.735-.631.609-.447,1.018.015,1.5.96.992,1.9,2.012,2.924,2.933.573.514.439.8-.017,1.26-1.819,1.828-3.608,3.686-5.41,5.532-.366.375-.607.591-1.134.032-1.767-1.869-3.643-3.632-5.455-5.459-.429-.433-.592-.872.024-1.415,1.017-.9,1.924-1.917,2.9-2.864.5-.482.582-.765-.011-1.357-1.016-1.014-1.97-2.1-3.059-3.037a4.328,4.328,0,0,1-1.518-3.644c.07-7.18,0-14.36-.012-21.541a2.509,2.509,0,0,1,.26-1.48c1.106.662,1.464,2.007,2.489,2.737.581.414,1,1.052,1.568,1.492.818.634.917,1.241.068,1.867a2.728,2.728,0,0,0-1.074,2.5c.053,4.625.024,9.251.033,13.877,0,.3-.038.7.128.887q1.875,2.073,3.842,4.062c.352.355.7.056,1-.249.958-1,1.911-2,2.9-2.967a2.678,2.678,0,0,0,.833-2.1c-.039-4.493-.052-8.987,0-13.479a2.814,2.814,0,0,0-1.064-2.516c-.792-.612-.851-1.186.028-1.892A13.794,13.794,0,0,0,209.3,1.683c.123-.21.372-.344.7-.636m-4.458,34.87a14.91,14.91,0,0,0-2.872-3.011c-1.212.384-1.724,1.589-2.626,2.344-.228.192-.534.47-.272.767.829.94,1.535,2.165,2.675,2.587.8.3,1.34-.86,1.908-1.488.228-.253.564-.4.811-.643a2.9,2.9,0,0,0,.378-.555" transform="translate(-69.385 -0.368)" fill="#fff"/><path d="M238.115,106.118c-3.1,0-5.881.016-8.663-.016-.473-.006-1.157.08-1.222-.666-.073-.845.773-.46,1.237-.828a81.417,81.417,0,0,1-5.845-6.211,5.9,5.9,0,0,0-5.738-2.377c-2.519.188-5.067.013-7.6-.05a10,10,0,0,0-2.689.449c-.308.077-.672.106-.819-.2-.115-.239.16-.445.344-.636a22.8,22.8,0,0,0,2.229-2.418,3.577,3.577,0,0,1,3.531-1.5c1.338.105,2.69-.14,4.2-.031-.842-.929-1.664-1.878-2.531-2.782-1.511-1.574-3.063-3.109-4.569-4.687-.453-.475-.575-.891.026-1.543.974-1.056,2.235-1.834,2.946-3.254l25.165,26.746" transform="translate(-73.597 -27.927)" fill="#fff"/><path d="M118.2,79.485q3.859,0,7.719,0c.248,0,.565-.078.71.191a.614.614,0,0,1-.257.808c-.833.408-.66,1.136-.661,1.812,0,6.873.006,13.746-.015,20.619a2.64,2.64,0,0,0,.644,2.035c.5.514.542.959-.349.964q-3.608.022-7.216-.006c-.9-.008-.867-.629-.365-.992.959-.692.906-1.641.9-2.592-.012-5.066-.046-10.132-.073-15.2a14.128,14.128,0,0,0-.01-1.585c-.231-1.972.973-4.217-1.322-5.8l.292-.257" transform="translate(-41.974 -27.965)" fill="#fff"/><path d="M177.778,108.718c.159-.808.779-1.187,1.249-1.676q6.277-6.519,12.56-13.03c1.94-2.014,3.9-4.011,5.8-6.058.607-.653.971-.813,1.572.03a12.821,12.821,0,0,0,2.21,2.413c.7.579.542,1,.045,1.476-4.936,4.754-9.417,9.955-14.3,14.758-.428.421-.721.78.005,1.18a.519.519,0,0,1,.2.693c-.125.329-.444.207-.679.208-2.877.009-5.754.006-8.661.006" transform="translate(-63.285 -30.754)" fill="#fff"/><path d="M41.493,94.476c-1.428,1.812-2.692,3.438-3.988,5.038-.276.341-.91.4-.968,0-.167-1.143-.949-.806-1.573-.809q-11.334-.052-22.67-.067c-.854,0-.889-.253-.452-.883.666-.958,1.289-1.946,1.947-2.911.554-.811,1.436-.52,2.163-.529,3.233-.043,6.467-.01,9.7.016,4.893.038,9.785.093,14.677.139.294,0,.588,0,1.163,0" transform="translate(-4.117 -33.172)" fill="#fff"/><path d="M227.564.145a22.929,22.929,0,0,0,5.256,4.78c1.208.732,1.243,1.237.01,1.939a2.781,2.781,0,0,0-1.45,2.814c.052,6.774.01,13.549.042,20.324,0,.879-.118,1.17-1.119,1.106-2.744-.176-2.741-.107-2.74-2.915,0-9.273,0-18.547,0-28.047" transform="translate(-81.007 -0.051)" fill="#fff"/><path d="M152.746,136.667h10.643c-1.79,1.831-2.063,4.274-3.05,6.392-.131.283,0,.943-.6.832-.422-.078-.284-.579-.4-.891a12.613,12.613,0,0,0-1.384-3.591c-.952,1.464-.862,3.222-1.915,4.582-1.517-2.228-1.063-5.216-3.292-7.323m7.7,4.576c.352-1.206.705-2.206.923-3.236.153-.723-.578-1.014-1.023-1.055s-1.212.268-1.1.907a9.445,9.445,0,0,0,1.2,3.383m-2.872-2.929c.147-.658-.357-.938-.735-1.255a.594.594,0,0,0-.911.046c-.331.358-.68.658-.3,1.207.107.154.006.439.078.636.238.657.1,1.764.853,1.827.639.053.44-1.056.721-1.605a6.066,6.066,0,0,0,.294-.856" transform="translate(-54.374 -48.087)" fill="#fff"/><path d="M129.282,143.45c-2.387.453-2.657.376-3.983-1.6-.354-.529-.612-1.5-1.292-1.2-.614.269-.272,1.262-.234,1.918.05.864,1.012.444,1.6,1h-4.88c2.346-.556,1.656-2.11,1.647-3.313-.009-1.231.659-2.764-1.075-3.646a40.16,40.16,0,0,1,4.592.038c1.522.176,1.92,1.394,1.027,2.641-.777,1.085-.114,2.716,1.487,3.622.359.2.743.361,1.115.539m-3.915-5.131c.039-.725-.345-1.015-1.041-.941-1.154.123-.41,1.009-.562,1.522-.107.36-.179.971.557.839a1.206,1.206,0,0,0,1.046-1.42" transform="translate(-42.891 -48.049)" fill="#fff"/><path d="M64.893,143.411c1.171-.612.573-1.555.36-2.228-.237-.749-1.057-.551-1.7-.589-.909-.055-.871.725-1.085,1.236-.38.9.463,1.052,1.175,1.462a10.6,10.6,0,0,1-3.343.174c1.841-1.926,2.324-4.352,3.2-6.6.181-.467.6-.938,1.007-.9.29.027.667.633.761,1.038.374,1.614,1.327,3,1.682,4.626.156.716.77,1.217,1.6,1.779Zm-.328-4.122c-.006-.494-.255-.824-.765-.8-.432.022-.305.423-.331.7-.044.484.146.719.656.671.359-.034.575-.148.441-.574" transform="translate(-21.467 -47.84)" fill="#fff"/><path d="M187.69,143.619a3.907,3.907,0,0,0,1.228-1.841c.566-1.542,1.294-3.022,1.924-4.542a1.249,1.249,0,0,1,1.022-.9c.5-.021.392.591.551.915.763,1.543,1.206,3.218,1.884,4.8.3.7.756.99,1.642,1.6a19.685,19.685,0,0,1-4.116-.053c.842-.5,1.236-.961.9-1.742-.366-.851-1.02-.875-1.8-.885a1.158,1.158,0,0,0-1.2.973c-.155.495-.26,1.094.562,1.174.28.027.558.11.446.463-.08.249-.361.18-.571.169-.823-.043-1.645-.091-2.469-.137m4.059-4.048c-.022-.4-.061-.887-.533-.913-.542-.03-.493.487-.518.872s.028.7.519.717.573-.276.532-.677" transform="translate(-66.814 -47.971)" fill="#fff"/><path d="M224.839,143.872a20.443,20.443,0,0,1-4.62-.036c.079-.214.082-.272.109-.289,1.77-1.07,1.789-1.254.992-3.3a7.569,7.569,0,0,0-2.333-3.535h3.374c.164.59-.844.706-.517,1.353.288.572.332,1.446.974,1.6s.529-.759.856-1.136c.554-.64.16-1.094-.433-1.454-.088-.053-.117-.207-.245-.452,1,0,1.892-.006,2.787.005.151,0,.368-.053.408.2a.437.437,0,0,1-.312.506c-2.056.785-2.287,2.727-2.762,4.486-.319,1.182.853,1.37,1.721,2.048" transform="translate(-77.955 -48.072)" fill="#fff"/><path d="M251.2,141.047c.72.278.521,1.047,1,1.389.3.215.423.594.825.786.748.358,1.387.353,1.837-.35.475-.74-.073-1.258-.6-1.657a13.909,13.909,0,0,1-1.881-1.143,1.86,1.86,0,0,1,.33-3.163,2.986,2.986,0,0,1,2.649-.246c1.114.428.788,1.358.421,2.266-.663-.459-.46-1.685-1.545-1.593-.362.03-.884-.171-.986.371-.08.425-.252.89.273,1.294a13.842,13.842,0,0,1,2.337,1.63c.958,1.1.94,1.808-.178,2.771a3.893,3.893,0,0,1-3.588.295,2.6,2.6,0,0,1-.886-2.65" transform="translate(-89.405 -48.015)" fill="#fff"/><path d="M182.143,5.5c.437.215.667.638.989.972,1.862,1.925,1.766,1.827.032,3.86-.855,1-1.152.83-1.958.034-2.046-2.019-2.109-1.982.091-3.938.323-.288.345-.83.847-.928" transform="translate(-63.954 -1.934)" fill="#fff"/><path d="M175.134,8.78c-.418.353-.844.678-1.231,1.045-.566.538-1.094,1.529-1.656,1.542s-1.138-.945-1.7-1.486c-1.258-1.209-1.255-1.211-.032-2.392,1.715-1.655,1.716-1.656,3.534.129.357.35.85.572,1.085,1.161" transform="translate(-60.374 -2.204)" fill="#fff"/><path d="M97.419,136.694c-1.777,1.582-1.692,5.886.2,6.97H93.442c1.716-.668,1.256-2.167,1.237-3.414s.4-2.695-1.365-3.555Z" transform="translate(-33.218 -48.096)" fill="#fff"/></g></svg>