<svg xmlns="http://www.w3.org/2000/svg" xmlns:xlink="http://www.w3.org/1999/xlink" width="145.142" height="180" viewBox="0 0 145.142 180"><defs><clipPath id="a"><rect width="145.142" height="180" fill="#fff"/></clipPath></defs><g clip-path="url(#a)"><path d="M0,180.432V99.127c2.429.942,5.035,1.224,7.512,2.006,1.906.6,3.876,1.011,5.828,1.456a24.357,24.357,0,0,0,4.109.914,3.23,3.23,0,0,0-1.057-1.4,47.541,47.541,0,0,1-4.953-5.066A44.949,44.949,0,0,1,4.466,85.828,37.821,37.821,0,0,1,1.43,73.337a45.911,45.911,0,0,1,.321-10.1A50.687,50.687,0,0,1,5.113,51.183a51.841,51.841,0,0,1,6.632-11.264A59.576,59.576,0,0,1,23.56,28.37a77.3,77.3,0,0,1,10.863-6.724,1.352,1.352,0,0,1-.766-1.369,20.694,20.694,0,0,1,.814-5.857,19.9,19.9,0,0,1,4.267-7.978c2.69-3.058,5.838-5.268,10.112-5.366,2.658-.061,5.325-.24,7.76,1.174a14.014,14.014,0,0,1,4.57,3.717A1.209,1.209,0,0,1,61.1,7.61c-.372.434-.738.852-1.427.569a16.021,16.021,0,0,0-4.423-1.045,18.446,18.446,0,0,0-12.573,3.013A17.652,17.652,0,0,0,35.162,21.17c2.746-1.173,5.327-2.448,7.988-3.549A85.5,85.5,0,0,1,53.31,14.074a95.3,95.3,0,0,1,10.842-2.448,87.512,87.512,0,0,1,9.1-1.159,99.451,99.451,0,0,1,13.757.125,87.337,87.337,0,0,1,9.743,1.43,71.041,71.041,0,0,1,11.379,3.393,75.672,75.672,0,0,1,16.41,8.951,58.547,58.547,0,0,1,11.2,10.284c4.849,5.875,8.239,12.439,9.064,20.146a48.4,48.4,0,0,1-.086,12.116,45.621,45.621,0,0,1-2.791,10.038,56.1,56.1,0,0,1-13.882,20.3,61.921,61.921,0,0,1-9.9,7.559,4.714,4.714,0,0,0-1.913,1.48c2.524-.4,4.782-1.139,7.083-1.684,2.491-.589,4.966-1.242,7.451-1.855q3.776-.931,7.558-1.838c1.875-.451,3.769-.832,5.624-1.352.948-.265,1.049.061,1.047.881q-.032,36.584-.034,73.167c0,1.993-.054,3.987-.1,5.98-.008.367.138.837-.624.647-4.174-1.042-8.367-2.007-12.543-3.038-4.646-1.147-9.279-2.349-13.924-3.5-2.626-.653-5.267-1.245-7.9-1.89-2.306-.565-4.6-1.171-6.9-1.748-2.448-.614-4.9-1.226-7.352-1.82-2.415-.584-4.842-1.127-7.255-1.72-2.488-.612-4.964-1.273-7.45-1.894-2.594-.647-5.205-1.227-7.785-1.923a6.606,6.606,0,0,0-3.6.077c-2.938.807-5.9,1.545-8.849,2.3-2.3.585-4.617,1.13-6.918,1.723-2.371.611-4.727,1.279-7.1,1.884s-4.763,1.149-7.139,1.747c-3.025.762-6.042,1.56-9.067,2.328-2.266.576-4.541,1.114-6.805,1.7-2.986.772-5.96,1.584-8.945,2.357-2.48.642-4.966,1.262-7.454,1.874-2.415.594-4.834,1.167-7.252,1.75m66.147-62.84a110.264,110.264,0,0,0,12.817-1c3.052-.458,6.059-1.08,9.055-1.752a72.591,72.591,0,0,0,7.757-2.354,80.2,80.2,0,0,0,10.809-4.675,77.667,77.667,0,0,0,8.891-5.419A68.917,68.917,0,0,0,124.337,95a59.6,59.6,0,0,0,4.809-5.392,53.424,53.424,0,0,0,5.7-8.622,45.85,45.85,0,0,0,4.227-11.2,50.258,50.258,0,0,0,1.183-7.5,39.459,39.459,0,0,0-1.453-12.976,42.138,42.138,0,0,0-3.9-9.275,44.118,44.118,0,0,0-9.562-11.725,54.994,54.994,0,0,0-13.422-8.726A67.852,67.852,0,0,0,100.063,15.3c-2.562-.646-5.126-1.192-7.735-1.632A72.014,72.014,0,0,0,81.95,12.657a78.459,78.459,0,0,0-12.815.593c-2.729.387-5.486.655-8.16,1.3-2.881.691-5.767,1.392-8.588,2.345a98.373,98.373,0,0,0-9.413,3.67A75.966,75.966,0,0,0,29.631,28.32,65.8,65.8,0,0,0,18.311,38.69a57.721,57.721,0,0,0-6.789,9.6A47.487,47.487,0,0,0,5.459,69.838,40.175,40.175,0,0,0,6.888,80.557a39.158,39.158,0,0,0,4.693,10.914A48.017,48.017,0,0,0,25.6,105.887a63.3,63.3,0,0,0,8.543,4.895,54.874,54.874,0,0,0,7.5,2.973,84.531,84.531,0,0,0,12.238,2.869,121.494,121.494,0,0,0,12.271.968m70.073,5.2c-.286-2.145.354-4.882-.384-7.612-.751-2.781-1.912-3.1-4.356-3.027a32.389,32.389,0,0,0-6.918,1.192,6.6,6.6,0,0,0-5.065,5.989c-.09,2.142-.108,4.287-.146,6.431A22.269,22.269,0,0,0,122,136.821a85.61,85.61,0,0,0,5,7.568,15.637,15.637,0,0,1,2.616,5.6c.583,2.883.221,5.843.258,8.771a1.78,1.78,0,0,1-.832,1.731,2.631,2.631,0,0,1-3.885-2.415c-.027-3.312-.055-6.623-.054-9.935,0-.947-.393-1.384-1.346-1.364a28.3,28.3,0,0,1-3.161-.019c-1.143-.1-1.42.384-1.384,1.429.145,4.167-.245,8.346.286,12.505.3,2.376,1.123,4.42,3.449,5.548a22.049,22.049,0,0,0,8.546,1.943,3.872,3.872,0,0,0,3.39-1.429,7.091,7.091,0,0,0,1.323-3.608,83.273,83.273,0,0,0,.236-9.694,24.4,24.4,0,0,0-.744-6.222c-1.076-3.975-3.341-7.324-5.755-10.589a27.1,27.1,0,0,1-3.467-5.767c-1.3-3.157-.788-6.433-.825-9.667-.013-1.2,1.276-1.978,2.813-1.965,1.062.009,1.529.5,1.672,1.923a70.8,70.8,0,0,1,.077,8.455c-.016.857.273,1.158,1.089,1.141,1.279-.026,2.562-.049,3.839.009.833.038,1.121-.23,1.1-1.086-.055-2.106-.018-4.215-.018-6.895M24.85,130.2h0c0-3.011-.087-6.026.026-9.033.1-2.642-2.317-5.864-5.062-6.685-1.988-.594-4-1.13-6.036-1.525-1.348-.262-2.682-.6-4.055-.784-1.12-.147-1.16.305-1.156,1.147.02,4.742.007,9.485.006,14.228q0,19.817-.012,39.634c0,.791.153,1.131,1.031.826a26,26,0,0,1,4.029-.822c1.12-.2,1.308-.578,1.3-1.568-.036-5.909,0-11.819-.034-17.729,0-.907.161-1.3,1.188-1.412a16.215,16.215,0,0,0,3.758-.545,7.577,7.577,0,0,0,5.045-7.041c-.161-2.889-.036-5.795-.036-8.692m3.38,9.908c0,7.526.021,15.052-.024,22.577-.006,1.023.418,1.154,1.214.989a18.759,18.759,0,0,1,2.832-.588c1.132-.055,1.441-.492,1.43-1.591-.057-6.1-.04-12.191-.059-18.286,0-.508.055-.849.677-.938,2.457-.349,3.547.564,3.561,3.05.029,5.155.08,10.31.057,15.465,0,.92.386,1.021,1.075.877a19.676,19.676,0,0,1,2.824-.617c1.023-.058,1.293-.536,1.294-1.422.006-4.854.061-9.708.018-14.562-.018-2.088-.434-4.08-2.4-5.336-.543-.347-.185-.586.127-.815a5.39,5.39,0,0,0,2.042-4.52q.134-5.359,0-10.724c-.055-2.29-.97-4.164-3.334-4.942-.768-.252-1.606-.286-2.393-.495-2.51-.67-5.032-1.288-7.592-1.734-1.354-.235-1.356-.227-1.356,1.146q0,11.232,0,22.465m75.907-.087c0,6.921.009,13.842-.012,20.763,0,.841.2,1.2,1.139,1.4,3.3.694,6.577,1.546,9.857,2.356.788.195,1.239.058,1.225-.873-.024-1.692-.057-3.387.015-5.076.034-.8-.334-1.166-.991-1.154a31.462,31.462,0,0,1-3.431-.558c-.631-.057-1.769.075-1.783-1.081-.052-4.212-.052-8.425-.059-12.637,0-.6.24-.933.957-.909a12.243,12.243,0,0,0,3.146-.142.853.853,0,0,0,.794-.995c-.023-1.542-.04-3.086.006-4.626.02-.681-.259-.832-.861-.808-1.015.039-2.036-.035-3.046.05-.8.067-.976-.33-.979-.975-.015-3.385-.035-6.769-.034-10.154,0-.682.282-1.026,1.08-1.116,1.51-.17,2.994-.557,4.5-.808.5-.085.7-.272.7-.8q-.04-2.708-.006-5.416c.005-.5-.2-.612-.666-.652a8.822,8.822,0,0,0-2.408.5c-2.7.5-5.389,1.076-8.078,1.644-.8.17-1.085.658-1.079,1.529.041,6.846.023,13.692.024,20.537m-43.28-.786a1.92,1.92,0,0,1,.576,1.123q.54,2.208,1.078,4.418c.731,3.025,1.532,6.035,2.282,9.055.652,2.624.191,1.9,2.516,1.646.109-.012.218-.106.319-.095,1.332.146,1.523-.588,1.519-1.721-.033-8.54-.014-17.079-.015-25.618,0-2.913-.009-2.9-2.806-3.548-.907-.212-1.3-.037-1.284,1,.047,3.686.018,7.373.017,11.06,0,.564,0,1.128,0,1.693,0,.224.019.485-.255.562-.34.1-.449-.2-.572-.421a2,2,0,0,1-.2-.525c-.56-2.5-1.1-5-1.673-7.491-.48-2.1-1-4.186-1.49-6.281-.108-.462-.276-.955-.788-.97a15.071,15.071,0,0,1-2.728-.584c-1.169-.25-1.119.27-1.118,1.064q.021,15.631.016,31.261c0,2.9,0,2.9,2.794,2.528.074-.01.147-.025.221-.037.982-.161,1.425-.6,1.4-1.73-.088-5-.065-10-.071-15.008a1.941,1.941,0,0,1,.263-1.383m11.883.638q0,6.151,0,12.3a3.383,3.383,0,0,0,2.562,3.439c2.134.67,4.393.861,6.5,1.563a3.685,3.685,0,0,0,4.907-3.517c.115-4.512.032-9.029.051-13.544,0-.567-.143-.811-.756-.8q-2.37.048-4.741,0c-.644-.013-.863.246-.852.864.022,1.279.015,2.558-.009,3.837-.009.511.164.789.7.78s.686.281.679.789c-.023,1.693-.018,3.386,0,5.079,0,.488-.149.831-.668.845a10.6,10.6,0,0,1-2.249-.048,1.316,1.316,0,0,1-1.158-1.4q.025-10.159.012-20.317a1.189,1.189,0,0,1,.995-1.279c2.184-.648,2.826-.221,2.831,1.984v.339c0,3.76,0,3.748,3.819,3.315.812-.092,1.206-.386,1.17-1.272-.088-2.177.031-4.354-.207-6.535-.283-2.591-1.9-3.731-4.427-3.072-1.834.478-3.7.833-5.565,1.185-2.225.421-3.718,1.273-3.623,4.179.122,3.758.03,7.524.03,11.286m18.026.242h-.01c0,6.059.02,12.118-.023,18.177a.961.961,0,0,0,1.005,1.076c2.933.311,5.724,1.309,8.63,1.755.666.1.826-.067.829-.628.006-1.543-.006-3.086.013-4.629.006-.495-.23-.91-.653-.9-1.036.016-1.96-.518-2.979-.505-1,.013-1.375-.441-1.359-1.456.049-3.048.021-6.1.02-9.145,0-7.452-.012-14.9,0-22.356,0-.942-.21-1.44-1.291-1.177-.684.167-1.408.158-2.1.29-2.073.394-2.081.406-2.082,2.567q-.009,8.468,0,16.936m-43.779-.059q0,9.2,0,18.4c0,1.257.2,1.426,1.443,1.166.908-.19,1.8-.473,2.712-.625A1.083,1.083,0,0,0,52.2,157.73q-.03-17.5.013-35a1.367,1.367,0,0,0-1.176-1.571c-.9-.218-1.837-.316-2.717-.6-1.229-.39-1.353.177-1.347,1.2.034,6.1.017,12.193.016,18.29" transform="translate(0 -0.432)" fill="#fff"/><path d="M164.827,0c-.192.592.375.506.6.565,4.073,1.06,6.586,3.951,8.638,7.357a16.3,16.3,0,0,1,1.758,4.4c.112.435.3.963-.353,1.246-.69.3-.964-.149-1.214-.629a13.224,13.224,0,0,0-7.839-6.751,11.6,11.6,0,0,0-9.4.848,13.3,13.3,0,0,0-1.619.987,1.225,1.225,0,0,1-1.7.013,1.272,1.272,0,0,1-.483-1.732c1.3-2.615,3.014-4.774,5.966-5.655.4-.119.906-.169,1.121-.654Z" transform="translate(-63.848)" fill="#fff"/><path d="M102.288,101.69a52.784,52.784,0,0,1-1.209,6.335,28.394,28.394,0,0,1-3.847,8.187,32.356,32.356,0,0,1-8.888,8.761,47.213,47.213,0,0,1-10.394,5.111c-6.668,2.4-13.549,2.705-20.484,2.359a40.668,40.668,0,0,1-7.914-1.4,43.555,43.555,0,0,1-12.695-5.526,34.233,34.233,0,0,1-7.117-6.155,26.817,26.817,0,0,1-6.078-11.206,26.638,26.638,0,0,1,1.494-16.906,14.618,14.618,0,0,1,3.572-4.677,1.073,1.073,0,0,1,1.225-.319c.47.227.21.641.163.993a8.767,8.767,0,0,0,.544,5.466,5.766,5.766,0,0,0,4.527,3.213C39.358,96.494,43,95,46.5,92.993a127.587,127.587,0,0,0,12.1-8.481A47.83,47.83,0,0,1,68.6,78.49c4.12-1.7,8.373-2.719,12.973-1.878a27.706,27.706,0,0,1,10.207,3.8,23.562,23.562,0,0,1,5.758,5.383c.212.27.38.782.8.634.333-.118.178-.6.227-.928a15.47,15.47,0,0,1,2.489-6.49,13,13,0,0,1,7.178-5.321,17.745,17.745,0,0,1,10.548.466,94.64,94.64,0,0,1,8.76,3.71A12.7,12.7,0,0,0,133.1,79.25c2.694-.119,3.692-2.1,3.536-4.3a15.1,15.1,0,0,0-.711-2.8c-.065-.239-.266-.438.035-.689a.576.576,0,0,1,.711-.041,9.382,9.382,0,0,1,3.574,3.367,22.856,22.856,0,0,1,3.85,8.97,24.323,24.323,0,0,1,.161,7.95,20.865,20.865,0,0,1-3.962,10,21.467,21.467,0,0,1-8.769,7.07,20.391,20.391,0,0,1-6.367,1.908,27.774,27.774,0,0,1-9.587-.415,24.455,24.455,0,0,1-10.559-5.786,32.815,32.815,0,0,0-2.725-2.8" transform="translate(-9.556 -29.752)" fill="#fff"/><path d="M96.5,55.179A6.7,6.7,0,0,1,95.372,59.9c-1.737,2.427-4.311,2.51-6.466.891a10.147,10.147,0,0,1-2.816-12c1.789-3.556,5.234-3.729,7.763-.97A9.33,9.33,0,0,1,96.5,55.179" transform="translate(-35.534 -19.154)" fill="#fff"/><path d="M167.829,44.108a6.55,6.55,0,0,1,1.122-3.847c1.476-1.99,3.749-2.176,5.739-.435,2.677,2.344,4.062,7.6,1.978,11.039-1.4,2.3-3.806,2.438-5.834.7-2.18-1.873-2.951-4.469-3-7.453" transform="translate(-70.013 -16.117)" fill="#fff"/><path d="M25.592,215.1q0-4.46,0-8.921c0-1.444.357-1.748,1.683-1.233,1.828.709,2.991,1.679,3.027,4.217.061,4.328.022,8.657.016,12.985a3.565,3.565,0,0,1-4.232,3.4c-.591-.135-.5-.566-.5-.969q0-4.742,0-9.485Z" transform="translate(-10.673 -85.4)" fill="#fff"/><path d="M61.788,218.079c-.072,1.8.038,3.6-.135,5.4a1.727,1.727,0,0,1-1.411,1.6,3.727,3.727,0,0,1-1.452.079c-.726-.03-1.093-.262-1.081-1.141.057-4.129.043-8.26.011-12.39-.006-.846.242-1.051,1.053-.818,2.561.733,3.008,1.3,3.014,4,0,1.089,0,2.177,0,3.266" transform="translate(-24.075 -87.907)" fill="#fff"/></g></svg>