<svg xmlns="http://www.w3.org/2000/svg" xmlns:xlink="http://www.w3.org/1999/xlink" width="107" height="167" viewBox="0 0 107 167"><defs><clipPath id="a"><rect width="107" height="167" fill="#fff"/></clipPath></defs><g clip-path="url(#a)"><path d="M89.394,178.517a4.024,4.024,0,0,0,1.412,1.45,13.455,13.455,0,0,1,6.888,9.8,5.252,5.252,0,0,1-2.867,5.819,3.7,3.7,0,0,1-4.265-1.3,4.282,4.282,0,0,1,.286-4.552c.474.206.465.682.6,1.074a1.689,1.689,0,0,0,1.856,1.17c.873-.046,1.169-.74,1.259-1.44.351-2.721-.106-5.189-2.419-7.013-.417-.329-.791-.711-1.407-1.27-.371,2.215-2.282,3.825-1.273,6.248.261.626-.712,1.2-.715,2.1q-.084,26.275-.335,52.549c-.015,1.62,1.533,2.076,1.958,3.316.142.415.8.692.47,1.232-.26.431-.791.263-1.193.226a33.212,33.212,0,0,0-8.955-.044c-.436.077-1.031.206-1.3-.354-.257-.542.122-.955.522-1.215,2.29-1.485,2.409-3.706,2.4-6.148-.042-16.553.043-33.107-.015-49.661-.009-2.554.336-5.257-1.417-7.561-.378-.5-.455-.714-1-.229-2.032,1.816-3.562,3.851-3.361,6.766.068.98.059,1.958,1.338,2.208s1.715-.5,1.952-1.556a2.657,2.657,0,0,1,.4-.684,3.954,3.954,0,0,1-.141,5.233c-1.1,1.05-4,1.313-4.89.182a7.122,7.122,0,0,1-1.41-5.11c.453-5.133,3.616-8.271,7.86-10.613.171-.094.331-.21.91-.581-4.234-.55-7.96-.777-11.71.5a14.785,14.785,0,0,0-7.094,5.205,20.105,20.105,0,0,0-3.667,8.582c-.977,5.457.615,10.31,3.213,15,1.02,1.841,2.842,2.853,4.147,4.387.545.639.967.242,1.434-.253A7.777,7.777,0,0,1,77.406,210a3.377,3.377,0,0,1,2.366,3.412,4.009,4.009,0,0,1-2.526,3.574,9.108,9.108,0,0,1-5.841,0c-1.328-.45-1.726.09-1.978,1.141-.855,3.568-1.642,7.153-2.552,10.706-1.536,6-4.733,10.671-10.759,12.994a10.975,10.975,0,0,1-6,.618c-1.882-.338-3.428-1.935-3.4-3.494.026-1.614,1.023-2.361,3.025-2.182a13.811,13.811,0,0,0-.514,1.465,1.764,1.764,0,0,0,1.691,2.306,5.286,5.286,0,0,0,5.007-1.993c2.856-3.286,3.72-7.394,5.4-11.159,1.66-3.72,2.334-7.865,4.839-11.224.616-.825.373-1.283-.514-1.687a16.718,16.718,0,0,1-6.922-6.311,21.968,21.968,0,0,1-2.615-4.206,25.894,25.894,0,0,1-1.371-13.919,17.124,17.124,0,0,1,5-9.081,19.273,19.273,0,0,1,13.021-5.7,46.294,46.294,0,0,1,12.4,1.384c1.558.328,3.037-.23,4.528-.5a29.973,29.973,0,0,1,12.9.238c11.648,2.923,17.759,15.887,12.835,26.989a27.924,27.924,0,0,1-7.394,10.032c-.941.81-2.2,1.038-3.158,1.85-.518.44-.6.666-.3,1.283a65.843,65.843,0,0,1,5.019,12.881,35.556,35.556,0,0,0,3.306,7.594c.952,1.835,1.957,3.339,3.886,4.169a4.364,4.364,0,0,0,1.7.4c1.9.027,2.489-.641,2.307-2.522-.054-.553-.392-1.329.163-1.621.581-.305,1.228.221,1.72.622a2.293,2.293,0,0,1,.55,3.282,4.794,4.794,0,0,1-4.06,2.231,12.522,12.522,0,0,1-7.285-2.044c-5.325-3.272-7.571-8.418-8.846-14.15-.657-2.952-1.08-5.955-1.622-8.933-.206-1.132-.69-1.517-1.969-1.133A8.02,8.02,0,0,1,93.174,217c-1.491-.787-2.6-2.387-2.365-3.7a3.828,3.828,0,0,1,2.9-3.177c2.2-.758,4.108-.081,6.092.407a2.554,2.554,0,0,1,1.631,1.214c.807,2.129,1.8,1.128,2.782.281,5.02-4.346,7.086-9.949,6.916-16.46a19.018,19.018,0,0,0-2.708-9.44,15.311,15.311,0,0,0-12.7-7.71c-2.035-.136-4.049.025-6.333.1m.77,3.449a3.18,3.18,0,0,0-.216-.5c-1.4-2.051-6.647-2.084-8.282-.084-.276.337-.2.5-.005.806a9.926,9.926,0,0,0,3.892,3.178c.875.478,1.348-1.142,2.262-1.391.829-.226,1.264-.954,1.908-1.413a2.351,2.351,0,0,0,.441-.6M74.342,215.2c.461-.1.928-.193,1.386-.315.8-.212,1.6-.489,1.618-1.481.02-1.056-.657-1.563-1.618-1.882a3.9,3.9,0,0,0-3.442.732c-.627.388-1.409.956-1.253,1.687.134.627,1.057.759,1.734.905.516.112,1.031.232,1.575.355m22.111.254a5.522,5.522,0,0,0,2.765-.7c.385-.164.6-.351.367-.848a4.293,4.293,0,0,0-4.782-2.046,1.608,1.608,0,0,0-1.167,1.694,1.54,1.54,0,0,0,1.1,1.586,4.364,4.364,0,0,0,1.721.31" transform="translate(-32.807 -123.302)" fill="#fff"/><path d="M116.1,47.991c.694-.9,1.466-1.334,2.457-.9,1.2.527,1.077,1.661,1.062,2.813.794-.5,1.35-1.269,2.357-.725a2.124,2.124,0,0,1,1.008,2.62c2.4-.932,3.122-.532,3.313,1.872.056.71.334.729.878.767,1.785.123,2.15.577,1.8,2.381-.143.729-.132,1.055.738,1.15,1.8.2,2.276,1.317,1.288,2.834-.107.165-.225.323-.412.588,1.007.176,2.2-.172,2.447,1.147a2.317,2.317,0,0,1-1.293,2.759c1.161.616,1.9,1.4,1.326,2.767a1.581,1.581,0,0,1-1.685,1.155c-1.715-.065-3.435-.023-5.152,0a2.153,2.153,0,0,1-1.538-.611,98.272,98.272,0,0,0-8.241-6.346c-2.38-1.642-4.771-3.632-7.884-4.032-.495-.064-1.169-.292-1.063-.978.323-2.085-1.034-2.881-2.706-3.6-.657,1.818-.363,3.749-.7,5.591-.163.9-.307,1.412-1.318,1.284a7.094,7.094,0,0,0-.965,0c-3.8.044-3.8.044-3.89-3.775-.025-1.1,0-2.2,0-3.489-1.62.907-3.208,1.513-2.809,3.659.151.809-.425,1.1-1.073,1.325a36.7,36.7,0,0,0-11.918,6.891c-1.47,1.252-3.168,2.3-4.628,3.623a1.83,1.83,0,0,1-1.328.452c-1.717-.02-3.435-.018-5.153-.027a1.849,1.849,0,0,1-2.1-1.557c-.182-1.126.189-1.995,1.88-2.118-1.2-.884-2.253-1.586-1.812-2.977.356-1.124,1.454-.87,2.405-1.178a2.822,2.822,0,0,1-.5-2.645c.33-1.4,1.622-.5,2.5-.884.233-.444-.319-.758-.356-1.215-.118-1.493.287-2.042,1.8-2.162.5-.04.983.161.922-.794-.139-2.191,1.264-2.979,3.233-1.954-.158-2.168.627-2.933,2.753-2.542.5.092.577.076.723-.413.609-2.046,1.8-2.391,3.694-1.136.379-1.907,2.129-2.586,3.978-.95.56-.167.26-.742.5-1.074a2,2,0,0,1,1.923-.935c.716.106,1.524.351,1.483,1.367-.032.829.584.792,1.1.795q5.713.03,11.425.015a1.557,1.557,0,0,0,1.716-1.052,1.674,1.674,0,0,1,3.126-.087c.467.911.657,1.252,1.634.448,1.157-.952,2.291-.257,3.057,1.86" transform="translate(-48.368 -31.406)" fill="#fff"/><path d="M97.771,108.669c.2-.633-.235-1.151-.616-1.743a1.747,1.747,0,0,1,.077-1.839c.275-.453.855-.377,1.33-.276a1.357,1.357,0,0,1,1.126,1.2,5.2,5.2,0,0,0,5.6,4.274c2.711-.181,4.309-1.89,5.636-4,.351-.559-.049-.9-.307-1.285a1.43,1.43,0,0,1,.24-2.014,1.182,1.182,0,0,1,1.478-.265,1.466,1.466,0,0,1,.685,1.924c-.675,1.279.268,2.027.874,2.833a6.166,6.166,0,0,0,9.038,1.428c.776-.551,1.411-1.136,1.26-2.224a1.205,1.205,0,0,1,.948-1.463,1.531,1.531,0,0,1,1.634.414,1.237,1.237,0,0,1-.018,1.751,2.008,2.008,0,0,0-.384,1.946c.8,5,5.851,6.486,9.664,4.519.633-.327.336-.805.443-1.227a1.51,1.51,0,0,1,1.67-1.366,1.447,1.447,0,0,1,1.45,1.236c.141.5.025,1.13-.484,1.227-2.5.481-2.992,2.677-3.872,4.481-.514,1.054-1.277,2.168.255,3.339.824.63-.04,1.376-.858,1.73a1.542,1.542,0,0,1-1.245-.119,58.249,58.249,0,0,0-23.237-3.81,66.242,66.242,0,0,0-13.319,1.944,65.007,65.007,0,0,0-6.727,1.986,1.113,1.113,0,0,1-1.493-.511.937.937,0,0,1,.177-1.414c.629-.443.594-1.08.575-1.728a7.373,7.373,0,0,0-4.325-5.753,1,1,0,0,1-.791-1.194,1.379,1.379,0,0,1,2.605-.651c.391.581-.092,1.488.929,1.869,1.559.581,3.045,1.259,4.786.966,3.3-.555,5.158-2.688,5.191-6.18" transform="translate(-59.161 -72.172)" fill="#fff"/><path d="M75.28,495.4a11.484,11.484,0,0,1,5.757,1.053,9.046,9.046,0,0,1,4.948,7.518c.49,4.071-2.06,9.069-5.814,10.507-3.724,1.427-7.785,1.778-11.246-.537a10.132,10.132,0,0,1-2.532-14.587c2.293-3.178,5.377-3.882,8.888-3.955m6.98,10.835c-.054-2.836-.636-5.436-2.755-7.59a6.408,6.408,0,0,0-6.68-1.989,6.236,6.236,0,0,0-4.495,4.961c-.965,4.245-.138,8.011,3.187,11.086,1.582,1.463,5.979,2.525,8.192.216a9.2,9.2,0,0,0,2.551-6.683" transform="translate(-45.189 -348.614)" fill="#fff"/><path d="M19.625,515.68c-3.893,1.1-6.563-.54-8.49-3.865-.615-1.06-1.435-2-2.125-3.019a1.4,1.4,0,0,0-1.175-.671c-2.263-.175-2.327-.134-2.247,2.167.035,1.016.125,2.034.089,3.048-.048,1.34.324,2.289,1.838,2.47a5.546,5.546,0,0,1-.6.064c-2.091,0-4.182,0-6.341-.087,1.335-.12,1.715-.934,1.778-2.085.278-5.027.1-10.056.1-15.083,0-1.587-1.136-1.836-2.453-1.895,3.79-.031,7.526-.444,11.224.211a3.85,3.85,0,0,1,2.907,2.919,4.608,4.608,0,0,1-.917,4.654c-2.2,2.6-2.255,2.567-.109,5.182,1.018,1.241,2.06,2.464,3.11,3.679a8.126,8.126,0,0,0,3.409,2.311M5.573,501.968h.065c0,1.177-.014,2.355.008,3.532.007.35-.1.877.346.969,1.309.268,2.664.582,3.851-.376,1.233-1,1.819-3.585,1.2-5.346a4.448,4.448,0,0,0-3.865-3.172c-1.01-.129-1.679.131-1.62,1.343.05,1.014.01,2.033.01,3.05" transform="translate(0 -349.452)" fill="#fff"/><path d="M195.1,514.621a3.058,3.058,0,0,0,2.839-2.586c.746-2.688,2.135-5.1,3.131-7.68.935-2.42,1.915-4.824,2.881-7.233a6.423,6.423,0,0,1,.6-1.3c.251-.36.3-1.048.927-.942.523.089.371.708.539,1.078a72.815,72.815,0,0,1,3.578,8.2,71.77,71.77,0,0,0,3.654,8.648,2.757,2.757,0,0,0,2.428,1.86h-5.4c-.346,0-.568-.033-.548-.52.086-2.073-1.007-3.845-1.956-5.484-.926-1.6-2.93-.477-4.44-.673-.652-.085-1.553-.388-1.946.606-.548,1.387-1.1,2.772-1.642,4.161-.328.842-.354,1.569.766,1.865Zm9.5-14.588c-.883,2.174-1.637,4.033-2.394,5.89-.241.59-.286,1.038.582,1.022,1.122-.021,2.244,0,3.366,0,.547,0,.863-.243.629-.78-.824-1.892-1.006-4.005-2.183-6.134" transform="translate(-137.01 -348.257)" fill="#fff"/><path d="M331.644,499.856c-.553-1.913-1.492-3.369-3.677-3.461-1.1-.047-2.229.124-2.737,1.239a3.2,3.2,0,0,0,.618,3.814c1.466,1.484,3.319,2.5,4.78,4.01,1.74,1.794,2.555,3.816,1.737,6.253-.812,2.416-2.683,3.5-5.136,3.647a19.8,19.8,0,0,1-4.953-.3c-.728-.14-.859-.538-.878-1.1a11.135,11.135,0,0,1,.363-3.865c.723.363.573,1.121.791,1.661a3.731,3.731,0,0,0,3.334,2.605c2.012.113,3.041-.323,3.677-2.5a4.5,4.5,0,0,0-2.236-4.537,11.917,11.917,0,0,1-4.433-4.264c-2.128-3.3-.529-7,3.975-7.614a8.737,8.737,0,0,1,1.609-.028c4.389.219,3.8.118,3.168,4.437" transform="translate(-225.684 -348.628)" fill="#fff"/><path d="M145.488,515.971c1.162-.283,1.4-1.157,1.459-2.167.227-3.625.123-7.113-2.588-10.045a26.334,26.334,0,0,1-2.384-3.9,7.332,7.332,0,0,0-3.249-2.994h5.554c.988,3.32,2.987,6.033,4.694,9.067a7.932,7.932,0,0,0,1.962-3.027,29.8,29.8,0,0,1,2.15-3.9c.375-.709.785-1.5-.484-2.209h5.58c-2.41.45-2.967,2.687-4.218,4.286-3.04,3.888-4.48,8.16-3.576,13.107.165.9.369,1.655,1.463,1.787Z" transform="translate(-97.42 -349.61)" fill="#fff"/><path d="M170.145.632c.657.3.451.91.455,1.406.016,1.871.014,3.743-.029,5.614-.045,1.986-.585,2.546-2.486,2.405a29.986,29.986,0,0,0-4.969-.049,2.218,2.218,0,0,1-2.6-2.5,43.8,43.8,0,0,0,.034-5.609A1.544,1.544,0,0,1,162.043.073c2.4-.132,4.819-.046,7.23-.037.425,0,.622.378.9.613a7.782,7.782,0,0,0-3.9,3.618A16.65,16.65,0,0,0,170.145.632m-7.69,7.09.261.308c.739-.6,1.488-1.181,2.213-1.794.257-.217.129-.462-.063-.679-.246-.278-.45-.175-.643.054q-.887,1.054-1.769,2.111m.081-5.918a4.175,4.175,0,0,0,1.826,2.372c.183.119.351.251.545.027s.1-.383-.087-.534q-1.141-.934-2.284-1.865m3.945,3.558-.373.319a2.667,2.667,0,0,0,2.346,1.9Z" transform="translate(-112.717 0)" fill="#fff"/><path d="M268.769,496.8h7.691c-.8.494-1.789-.01-2.219.846a5.486,5.486,0,0,0-.228,2.363c-.185,4.118-.191,8.236.024,12.355.1,1.857.524,2.3,2.425,2.4.161.009.321.018.482.025,2.01.087,4.125.373,4.562-2.629a5.155,5.155,0,0,1-.014,3.35c-.2.779-.853.542-1.324.546-3.593.029-7.186.016-11.047.016a2.509,2.509,0,0,0,1.409-2.3c0-4.977,0-9.955.023-14.932a1.832,1.832,0,0,0-1.784-2.04" transform="translate(-188.74 -349.618)" fill="#fff"/><path d="M43.363,446.677c-1.957.789-2.513-.5-2.91-1.943-.289-1.054-.641-1.8-2.024-1.719-1.978.119-2.432.358-2.518,2.412-.045,1.069-.337,1.359-1.452,1.459a4.115,4.115,0,0,1-4.276-2.128,8.574,8.574,0,0,0-1.4-1.725,1.186,1.186,0,0,0-1.34-.3c-.487.247-.269.755-.279,1.154-.023.937-.007,1.876-.007,2.88a1.222,1.222,0,0,1-.286.06c-1.187.1-2,.233-1.7-1.641a51.213,51.213,0,0,0,.1-7.371,1.631,1.631,0,0,0-1.077-1.629c1.93,0,3.478-.02,5.026.007a2.563,2.563,0,0,1,2.427,1.571,2.525,2.525,0,0,1-.544,2.973c-1.2,1.107-1,1.817.211,2.726.836.626,1.039,1.82,1.9,2.53.648.536,1.033.454,1.334-.244a22.2,22.2,0,0,0,1.349-3.406c.514-2.1,1.69-3.9,2.387-5.912.077-.22.2-.586.519-.478a.89.89,0,0,1,.49.566c.787,3.616,2.864,6.718,4.082,10.159m-16.212-7.344c0,.374-.018.748,0,1.12.03.49-.241,1.128.565,1.277a1.652,1.652,0,0,0,1.745-.5,2.929,2.929,0,0,0-.134-3.681,1.824,1.824,0,0,0-1.716-.672c-.839.219-.353.978-.455,1.493a4.94,4.94,0,0,0-.01.958m11.225-.645c-.492,1.21-.783,1.991-1.126,2.748-.412.912-.135,1.188.847,1.224,1.3.048,1.659-.409,1.177-1.593-.253-.622-.476-1.256-.9-2.38" transform="translate(-16.984 -306.781)" fill="#fff"/><path d="M216.892,436.495a13.222,13.222,0,0,1,3.335-.088c-.546,1.278-.274,2.579-.307,3.852a49.671,49.671,0,0,0,.027,5.452c.1,1.234-.234,1.633-1.416,1.411a5.944,5.944,0,0,0-.938-.007,14.031,14.031,0,0,0,.406-4.162c.04-.841-.286-1.188-1.1-1.15-.16.007-.321-.025-.481-.033-4.417-.221-5.235.873-3.883,5.194-.326.264-.714.105-1.071.154-1.01.138-1.095-.152-1.011-1.21.212-2.657.082-5.341.111-8.014.007-.613-.35-.96-1-1.394h3.269c-1.065,1.2-.549,2.606-.606,3.922-.026.594.532.547.962.549,1.233.006,2.467-.014,3.7.029.85.03,1.2-.35,1.087-1.152-.161-1.149.561-2.558-1.085-3.355" transform="translate(-147.165 -307.07)" fill="#fff"/><path d="M299.291,436.246h2.727c-1.026.829-.915,1.81-.924,2.763-.021,2.14-.032,4.28-.063,6.42-.007.514.225,1.227-.255,1.48-.6.319-.864-.456-1.216-.8-2.194-2.112-4.358-4.254-6.856-6.7.1,2.651-.228,5.026.314,7.5-.928.244-1.452.329-1.309-1.173.249-2.6.133-5.236.212-7.856a2.961,2.961,0,0,1,.27-1.689c2.579,2.6,4.942,5.39,7.975,7.579-.388-2.507.8-5.167-.876-7.53" transform="translate(-204.833 -306.967)" fill="#fff"/><path d="M262.051,445.843c-1.611.454-2.385.039-2.739-1.456-.259-1.1-.474-2.248-2.289-2.3-2.251-.064-2.351,1.47-2.718,2.822-.263.966-.618,1.331-1.512.982,1.565-3.59,2.626-7.4,4.722-11.162,1.171,4,3.174,7.4,4.536,11.114m-4.994-7.961c-.508,1.293-.841,2.159-1.189,3.018-.2.507-.086.752.488.876,1.345.291,1.933-.225,1.6-1.549a23.69,23.69,0,0,0-.9-2.346" transform="translate(-177.521 -305.934)" fill="#fff"/><path d="M120.387,446.4c-1.493.337-2.4-.076-2.717-1.7-.208-1.056-.585-1.958-2.141-2.058-2.163-.139-2.473,1.219-2.788,2.68-.207.959-.565,1.435-1.5,1.086a94.76,94.76,0,0,1,4.545-11c1.429,3.837,3.349,7.253,4.6,11m-5-7.778c-.4,1.006-.74,1.835-1.072,2.665-.117.293-.313.657.074.837a2.683,2.683,0,0,0,1.731.041.446.446,0,0,0,.238-.665c-.469-.842-.057-1.935-.97-2.878" transform="translate(-78.119 -306.406)" fill="#fff"/><path d="M171.918,437.993c-.235-1.591.274-2.01,1.849-1.818a25.57,25.57,0,0,0,6.094.039c1.762-.212,1.882.473,1.548,1.85-.681-1.014-1.771-.862-2.744-1-.748-.1-.874.434-.873,1.027a64.1,64.1,0,0,0,.073,7.208c.18,1.576-.267,1.873-1.606,1.667-.208-.032-.421-.038-.516-.046,0-3-.016-5.958.011-8.914.007-.8-.359-1.037-1.079-.981a3.932,3.932,0,0,0-2.757.964" transform="translate(-120.689 -306.921)" fill="#fff"/><path d="M147.475,443.977c.2.557.291.915.448,1.242a1.876,1.876,0,0,0,2.106,1.1,1.652,1.652,0,0,0,1.528-1.229,1.834,1.834,0,0,0-.833-2.231,7.372,7.372,0,0,1-2.653-2.7,2.789,2.789,0,0,1,2.331-4.426c2.558-.111,2.558-.111,2.315,2.241-.367-.525-.613-1.048-1.16-1.318a1.757,1.757,0,0,0-2.336.344,1.517,1.517,0,0,0,.47,2.317,16.669,16.669,0,0,1,1.878,1.5,4.313,4.313,0,0,1,1.2,4.637,1.728,1.728,0,0,1-1.4,1.184,8.063,8.063,0,0,1-1.918.145c-2.5-.279-2.736.278-1.982-2.809" transform="translate(-103.297 -306.615)" fill="#fff"/><path d="M93.089,436.533H97.2a1.775,1.775,0,0,0-1.183,1.928c.035,2.515.054,5.033-.02,7.547-.061,2.093-1.179,4.592-3.172,4.664,1.938-2.466,2.323-12.706.259-14.14" transform="translate(-65.189 -307.203)" fill="#fff"/><path d="M171.531,39c-1.314.228-2.014-.013-2.075-1.668-.074-2.015,1.086-1.742,2.333-1.791,1.276-.05,2.043.046,2.069,1.724.031,1.941-1,1.9-2.327,1.734" transform="translate(-118.996 -25.002)" fill="#fff"/></g></svg>