<svg xmlns="http://www.w3.org/2000/svg" width="209" height="70.531" viewBox="0 0 209 70.531"><g transform="translate(-926.65 -1871.72)"><path d="M205.7,136.738V69.43H10.41v67.308Z" transform="translate(916.24 1805.513)" fill="#fff"/><path d="M107.831,134.712c53.157,0,96.241-14.282,96.241-31.906S160.988,70.9,107.831,70.9,11.59,85.182,11.59,102.806s43.084,31.906,96.241,31.906h0Z" transform="translate(916.464 1805.791)"/><path d="M50.549,112.922c.452,0,.642-.178.392-.452a8.255,8.255,0,0,1-.511-3.223V91.125a8.255,8.255,0,0,1,.511-3.223c.238-.274.059-.452-.392-.452H34.15c-.452,0-.642.178-.392.452a8.255,8.255,0,0,1,.511,3.223v18.123a8.255,8.255,0,0,1-.511,3.223c-.238.274-.059.452.392.452Z" transform="translate(920.636 1808.922)" fill="#fff"/><path d="M71.211,96.537l5.97-8.1c.238-.238.119-.583.119-.725s0-.274.119-.274H93.6c.214,0,.119.155.036.274l-6.659,9.311a.848.848,0,0,0,.059,1.154L96.2,112.651c.1.119.178.274-.036.274H76.4c-.119,0-.119-.119-.119-.274s.309-1.463.059-1.7l-5.114-7.825v6.112a8.255,8.255,0,0,0,.511,3.223c.238.274.059.452-.392.452H55.43c-.452,0-.642-.178-.392-.452a8.255,8.255,0,0,0,.511-3.223V91.115a8.255,8.255,0,0,0-.511-3.223c-.238-.274-.059-.452.392-.452H71.341c.452,0,.642.178.392.452a8.255,8.255,0,0,0-.511,3.223v5.423h0Z" transform="translate(924.662 1808.92)" fill="#fff"/><path d="M109.742,103.47a.421.421,0,0,1,.452-.452h6.291a15.364,15.364,0,0,1,3.187.119c.2.2.452.071.452-.309V96.716c0-.381-.25-.511-.452-.309a15.4,15.4,0,0,1-3.187.119h-6.291a.426.426,0,0,1-.452-.452V94.837a.425.425,0,0,1,.464-.452h9.05a8.071,8.071,0,0,1,3.187.511c.274.238.452.059.452-.392V87.44h-28.5c-.452,0-.63.226-.392.5a8.071,8.071,0,0,1,.511,3.187v17.933A8.071,8.071,0,0,1,94,112.247c-.238.274-.059.452.392.452h28.493v-7.5c0-.452-.178-.63-.452-.392a8.071,8.071,0,0,1-3.187.511h-9.05a.426.426,0,0,1-.452-.452v-1.4h0Z" transform="translate(932.034 1808.92)" fill="#fff"/><path d="M162.785,112.7s-9.466-22.5-9.6-22.868a2.322,2.322,0,0,1-.036-1.594c.238-.583.036-.714-.369-.714H130.629c-.4,0-.606.131-.369.714a2.251,2.251,0,0,1-.036,1.594c-.131.369-8.515,22.868-8.515,22.868h13.628c.321,0,.392-.155.285-.369a1.632,1.632,0,0,1,.048-1.106l.725-2.426a1.006,1.006,0,0,1,1.154-.785h5.994a1,1,0,0,1,1.154.785l.725,2.426a1.631,1.631,0,0,1,.048,1.106c-.107.226-.036.369.285.369Zm-24.152-9.656c-.214-.012-.238-.238-.178-.392l1.475-3.5c.059-.107.1-.2.226-.2s.166.107.226.2l1.475,3.5c.059.155.036.369-.178.392h-3.032Z" transform="translate(937.297 1808.935)" fill="#fff"/><path d="M182.009,72.309c.892,0,1.689-.059,1.689-1.13,0-.856-.785-1.023-1.51-1.023H180.76v2.152h1.261ZM180.748,76.2H179.7V69.265h2.64c1.641,0,2.45.606,2.45,1.974a1.8,1.8,0,0,1-1.8,1.9L184.97,76.2h-1.177l-1.831-3.009h-1.213V76.2Zm1.272,1.546a5.014,5.014,0,1,0-4.9-5.03,4.9,4.9,0,0,0,4.9,5.03Zm-6.1-5.03a6.089,6.089,0,1,1,6.1,6.029,6,6,0,0,1-6.1-6.029Z" transform="translate(947.553 1805)" fill="#fff"/></g></svg>