<svg xmlns="http://www.w3.org/2000/svg" xmlns:xlink="http://www.w3.org/1999/xlink" width="203.357" height="141.21" viewBox="0 0 203.357 141.21"><defs><clipPath id="a"><rect width="203.357" height="141.21" fill="#fff"/></clipPath></defs><g clip-path="url(#a)"><path d="M47.336,21.646c2.832-.287,3.768-.47,4.314,2.964.685,4.3.261,8.626.258,12.939a8.934,8.934,0,0,0,3.078,7.043A6.449,6.449,0,0,0,59.273,46c10.825,0,21.648,0,32.473.042.8,0,1.147-.276,1.282-.948.837-4.126,3.8-6.723,6.722-9.35,1.379-1.241,2.785-2.45,4.174-3.679a2.554,2.554,0,0,1,2.222-.825c-.327,1.381-1.54,2.064-2.4,2.708-2.963,2.213-3.52,5.263-3.489,8.543.039,3.951-.944,3.427,3.44,3.532a9.723,9.723,0,0,0,4.389-1.21,2.649,2.649,0,0,0,1.687-2.7c-.073-.909-.014-1.83-.014-2.723.528-.159.506.216.665.467.818,1.295,2.089,1.46,2.929.294a14.9,14.9,0,0,1,3.434-3.119,6.11,6.11,0,0,1,4.148-1.274c2.466.123,3.582,1.287,3.725,3.8.173,3.072-1.221,5.3-3.4,7.219-1.446,1.277-2.91,2.536-4.3,3.868a3.94,3.94,0,0,1-6.544-1.786c-.356-1.152-.689-2.311-1.052-3.537-2.746,2.525-5.514,4.872-8.074,7.448a3.49,3.49,0,0,0-1.126,2.713q.083,5.789.007,11.583a13.035,13.035,0,0,1-4.863,10.1c-1.881,1.617-3.614,3.4-5.46,5.063-.872.786-1.745.837-2.924,1.295.836-1.653,2.161-2.4,3.147-3.43,1.619-1.687,2.8-3.365,2.766-5.844-.094-6.333-.085-12.666-.035-19,.011-1.255-.595-1.264-1.515-1.263-9.122.021-18.246-.014-27.37.026-6.251.026-10.348-3.343-12.466-9.128A23.125,23.125,0,0,1,50.074,36c.075-2.16-.079-4.33.042-6.485.165-2.932-.259-5.62-2.78-7.866m72.679,23.441a3.885,3.885,0,0,0-.32-1.781c-.976-1.547-4.446-2.306-5.892-1.2a.784.784,0,0,0-.122,1.217,24.211,24.211,0,0,0,2.85,2.949c.733.584,1.6,1.278,2.762.761.972-.434.683-1.241.722-1.949" transform="translate(18.289 8.309)" fill="#fff"/><path d="M23.33,79.277c2.229.308,4.167-.151,6.114.358a4.133,4.133,0,0,1,3.006,3.039c.1.291.168.591.259.883.115.365-.022.955.527.973.481.017.555-.548.707-.9a7.673,7.673,0,0,1,8.774-4.4,9.083,9.083,0,0,1,6.867,5.344c1.088-1.22,1.61-2.687,2.782-3.746a7.08,7.08,0,0,1,5.665-1.7c2.647.219,5.146.961,6.824,3.276A9.928,9.928,0,0,1,66.4,88.348c.062,5.146.042,10.3.04,15.441a8.12,8.12,0,0,0,2.172,5.746c.205.22.541.387.37.747-.164.342-.528.248-.826.247-1.9,0-3.813.035-5.716-.028-1.862-.061-2.834-1.128-3.089-2.974-.7-5.071-.189-10.166-.374-15.247-.049-1.335-.087-2.676-.237-4-.29-2.588-2.258-3.865-5.561-3.681-1.976.11-3.408,1.854-3.408,4.151,0,4.736.087,9.473-.033,14.206a9.449,9.449,0,0,0,2.922,7.223c-.24.48-.7.354-1.081.358-1.544.015-3.092-.026-4.636.008-2.78.064-3.657-.383-4.213-3.749-.808-4.886-.086-9.863-.309-14.8-.049-1.08-.017-2.163-.068-3.241a4.267,4.267,0,0,0-2.795-4.022,4.641,4.641,0,0,0-5.139,1,3.377,3.377,0,0,0-1.065,2.451c.036,5.3.025,10.6.021,15.906a9.231,9.231,0,0,0,2.651,6.261c-2.667.13-5.318.641-7.819-.108-1.786-.534-2.235-2.386-2.242-4.151q-.033-10.346,0-20.692a8.441,8.441,0,0,0-2.631-6.121" transform="translate(9.014 30.548)" fill="#fff"/><path d="M53.79,39.868a5.338,5.338,0,0,0,7.568-.3c1.805-1.969,3.607-3.939,5.451-5.87,1.829-1.917,3.711-3.783,5.561-5.683.369-.38,1.011-.767.317-1.373a88.515,88.515,0,0,0-8.453-6.806,3.034,3.034,0,0,0-4.617,1.995,25.83,25.83,0,0,0-.433,7.823c.1.919.169,1.841.273,2.759.024.219.05.4-.176.519-.241.123-.392-.017-.5-.2-.987-1.665-2.683-2.683-3.808-4.251a4.649,4.649,0,0,1-.452-5.2c2.141-3.86,5.357-6.24,10.014-6.161,1.442.025,2.891.076,4.328-.011,2.577-.157,4.7,1.037,6.738,2.306a7.036,7.036,0,0,1,2.365,1.863c.469.689,1.11.38,1.127-.359.069-2.985.165-5.979-.035-8.952-.072-1.069-1.281-1.847-1.854-2.867C75.6,6.255,75.8,4.855,78.3,2.773A32.178,32.178,0,0,1,80.85.233a14.671,14.671,0,0,0,4.4,7.708,7.612,7.612,0,0,1,1.562,2.9c.549,1.571-1.151,2.07-1.762,3.092-.19.317-.685.557-.966.93-.553.735-1.1,1.232-1.592-.082a.994.994,0,0,0-1.206-.726c-.534.155-.273.707-.28,1.073-.03,1.647-.026,3.3-.008,4.944a2.963,2.963,0,0,1-.582,2.147c-.933,1.117.435,1.859.854,2.353A14.874,14.874,0,0,1,84.625,33.9c.11,2.491.373,5-.444,7.5-.359,1.1-1.22,1.626-1.842,2.35a44.549,44.549,0,0,1-4.655,4.382A4.68,4.68,0,0,1,74.6,49.254c-5.155.017-10.309.029-15.462-.008A6.921,6.921,0,0,1,54.278,47a1.677,1.677,0,0,1-.491-1.253c.008-1.9,0-3.8,0-5.881m17.456,2c2.828,0,5.658.055,8.485-.015,2.938-.075,3.6-1.856,2.351-4.367-1.578-3.175-4.276-5.523-6.523-8.2-.789-.943-1.226-.821-2.017,0-3.767,3.908-7.6,7.757-11.424,11.607-.277.279-.538.571-.427.905.166.507.689.352,1.074.336,2.825-.129,5.651-.276,8.48-.261" transform="translate(20.782 0.09)" fill="#fff"/><path d="M29.967,80.08c-3.613-2.109-7.529-2.362-11.5-2.361-2.113,0-4.224-.035-6.337-.036-.771,0-1.252-.01-1.072,1.189a52.621,52.621,0,0,1,.358,6.767c.018.865.288,1.2,1.163,1.162,1.131-.051,2.274.075,3.4-.026,3.158-.283,5.4,1.374,7.5,3.39a.915.915,0,0,1,.3,1.112c-.207.345-.706.2-1,.1-3.32-1.1-6.738-.426-10.107-.6-.908-.047-1.267.177-1.249,1.17.073,4.115-.262,8.231.033,12.346.226,3.16,1.259,4.187,4.413,4.111,3.336-.08,6.685.351,10.005-.276a11.881,11.881,0,0,0,4.66-1.849c.724,4.123-2.349,6.4-5.767,6.429-6.079.047-12.158,0-18.238-.028a2.817,2.817,0,0,1-3.092-2.9c-.817-8.625-.1-17.269-.333-25.9a17.98,17.98,0,0,0-.9-5.749,8.167,8.167,0,0,0-1.847-3.6c-.227-.207-.439-.482-.294-.81.165-.37.539-.207.818-.207,6.286,0,12.574-.08,18.857.078,2.577.064,5.209.344,7.4,2.091a8.676,8.676,0,0,1,2.839,4.4" transform="translate(0 28.388)" fill="#fff"/><path d="M107.009,110.387c-2.651,0-5.066.175-7.441-.06-1.626-.161-2.134-1.836-2.848-3.3a8.676,8.676,0,0,1-4.539,3.086c-3.191.764-6.094.337-8.243-2.228a8.411,8.411,0,0,1-1.537-7.644c1.07-4.424,4.686-6.266,8.4-7.948,1.478-.67,3.046-1.171,4.449-1.967,2.631-1.493,2.53-4.346,1.7-6.4a2.178,2.178,0,0,0-1.567-1.147,6.638,6.638,0,0,0-7.837,2.967c-.107.165-.226.322-.416.589a9.538,9.538,0,0,1-.055-4.382c.41-1.611,2.118-1.994,3.5-2.278a15.879,15.879,0,0,1,6.99-.118c3.123.74,6.591,3.743,6.535,7.334-.075,4.834.017,9.673-.036,14.507a20.714,20.714,0,0,0,.645,5.765c.338,1.23,1.465,1.92,2.3,3.218M96.867,98.68H96.76c0-1.54.037-3.083-.019-4.622-.019-.535.272-1.31-.229-1.569-.555-.286-.946.416-1.341.792-.347.33-.891.354-1.2.6a19.614,19.614,0,0,0-3.715,3.151c-1.659,2.124-1.4,4.5-1.323,6.886a2.744,2.744,0,0,0,2.87,2.907,9.133,9.133,0,0,0,2.275-.283c2.041-.362,2.77-1.148,2.785-3.236.012-1.54,0-3.082,0-4.622" transform="translate(31.718 30.61)" fill="#fff"/><path d="M136.758,103.62a13.475,13.475,0,0,0,.022,2.386c.372,1.967-.839,2.85-2.34,3.4a15.374,15.374,0,0,1-11.7.051,13.367,13.367,0,0,1-6.986-7.179c-1.722-3.9-1.526-7.815-.871-11.752a14.961,14.961,0,0,1,2.965-6.628A11.68,11.68,0,0,1,130.4,79.467a8.873,8.873,0,0,1,5.256,3.214,6.294,6.294,0,0,1,.445,6.477,17.485,17.485,0,0,1-8.159,7.18,18.425,18.425,0,0,0-4.169,2.529c-.74.639-1.155,1.284-.629,2.242.685,1.248.781,2.794,1.909,3.814a7.305,7.305,0,0,0,10.861-.761c.183-.211.3-.55.846-.541m-14.241-7.776a13.517,13.517,0,0,0,5.426-3.876,9.7,9.7,0,0,0,2.272-7.9,3.086,3.086,0,0,0-4.9-1.879c-1.371.922-1.684,2.362-2.135,3.72-1.044,3.146-.545,6.413-.663,9.935" transform="translate(44.205 30.545)" fill="#fff"/><path d="M72.522,70.732q4.1,0,8.195,0c4.1-.006,6.487-3.184,5.227-7.066A4.525,4.525,0,0,0,84.1,61.65a6.229,6.229,0,0,1-2.77-6.239,40.277,40.277,0,0,0,.032-4.63c0-.29-.086-.66.319-.763a.625.625,0,0,1,.654.312c1.316,1.829,3.458,2.892,4.513,4.991a4.812,4.812,0,0,1,.674,2.3c-.028,2.264-.136,4.539.029,6.792.272,3.695-1.867,6.1-4.2,8.437-1.131,1.13-2.3,2.218-3.534,3.254a11.012,11.012,0,0,1-6.628,2.48c-3.943.23-7.931.5-11.835-.482a17.238,17.238,0,0,1-10.557-7.522,19.977,19.977,0,0,1-3.18-11.776c.06-4.068.024-8.137.007-12.2a7.328,7.328,0,0,0-2.272-5.643c-.215-.2-.555-.427-.406-.751.169-.376.6-.337.958-.34a2.985,2.985,0,0,1,2.9,2.082,8.168,8.168,0,0,1,.689,3.29c-.036,3.81-.125,7.625.014,11.431.177,4.881,2.547,8.546,6.541,11.338A15.636,15.636,0,0,0,66.493,70.75c2-.136,4.019-.024,6.029-.024Z" transform="translate(17.351 15.404)" fill="#fff"/><path d="M132.774,103.4c1.112.168,1.257,1.135,1.8,1.687,1.938,1.958,4.249,2.208,6.778,1.583,2.78-.688,4.309-2.837,3.767-5.544-.392-1.962-1.966-3.148-3.55-4.022-2.5-1.378-5.053-2.795-6.657-5.1-2.543-3.65-3.431-8.132,1.6-11.3a11.034,11.034,0,0,1,9.273-1.162,9.851,9.851,0,0,1,3.5,1.429c.846.643,1.562,3.966.944,4.847-.3.42-.545.37-.78-.087-1.737-3.365-4.679-3.527-7.9-2.946a2.814,2.814,0,0,0-1.7,3.648c1.038,2.236,3.2,3.15,5.132,4.217a13.91,13.91,0,0,1,6.455,6.589,8.115,8.115,0,0,1-.076,6.427c-2.149,5.254-9.369,8.125-14.031,6.308a7.9,7.9,0,0,0-1.494-.326c-2.161-.383-3.049-1.433-3.054-3.634,0-.854,0-1.709,0-2.615" transform="translate(51.299 30.533)" fill="#fff"/><path d="M70.009,77.36c4.131,0,8.027-.085,11.916.022a16.842,16.842,0,0,0,11.841-4.418,25.715,25.715,0,0,0,7.575-9.815,7.006,7.006,0,0,0-2.181-7.894c-1.274-1.034-2.414-2.2-2.2-4.2.212-1.933.039-3.905.06-5.86,0-.312-.2-.772.327-.885a.658.658,0,0,1,.746.433c.457,1.151,1.657,1.568,2.429,2.426a8.755,8.755,0,0,1,2.67,6.192c-.057,4.732.007,9.466-.018,14.2a16.255,16.255,0,0,1-2.647,8.185c-2.332,3.964-6.046,6.35-10.158,7.865-3.713,1.368-7.758,1.284-11.722,1.138-.815-.03-1.306-.724-1.727-1.119-2.056-1.933-4.353-3.574-6.4-5.511a5.627,5.627,0,0,1-.519-.761" transform="translate(27.049 17.116)" fill="#fff"/><path d="M100.4,84.114a31.079,31.079,0,0,0,12.074-9.784c0,2.045.089,3.62-.028,5.179-.1,1.356.469,1.687,1.7,1.639,1.49-.06,2.988.061,4.481.044.711-.008,1.076.19.958.955a2.879,2.879,0,0,0,.006.463c.061,2.929.061,2.931-2.723,2.15a14.758,14.758,0,0,0-3.682-.151c-.934-.026-.7.722-.707,1.227q-.046,6.948-.046,13.9c0,2.213-.08,4.431.06,6.635a6.768,6.768,0,0,0,2.376,5.128c.219.175.423.3.319.6s-.4.279-.653.277c-2.163-.011-4.341.111-6.484-.108a2.582,2.582,0,0,1-2.434-2.166,21.658,21.658,0,0,1-.56-4.7c.017-6.485-.026-12.971.019-19.455.008-1.113-.359-1.442-1.409-1.367-1.011.073-2.03.017-3.046.017l-.216-.474" transform="translate(38.791 28.719)" fill="#fff"/><path d="M78.135,84.841a11.433,11.433,0,0,1,3.313-4.6c1.823-1.506,5.557-1.023,6.874.8.573.79.284,1.572.342,2.354.071.961.017,1.93.017,3.184-.837-.519-1.456-.934-2.1-1.3a6,6,0,0,0-7.631,1.335,4.7,4.7,0,0,0-.756,3.222q-.067,7.023-.018,14.044c.018,2.687.732,4.255,2.856,6.445-2.885.2-5.656.62-8.2-.286-1.686-.6-2.044-2.631-2.063-4.35q-.1-8.641-.012-17.284c.018-1.91-.236-3.79-.347-5.684-.083-1.411-1.3-2.222-2.073-3.423a37.787,37.787,0,0,1,5.948.073,3.492,3.492,0,0,1,3.129,2.939c.18.735.416,1.454.728,2.526" transform="translate(26.401 30.609)" fill="#fff"/><path d="M76.087,48.562c.685-1.318,1.931-1.926,2.832-2.855,1.632-1.678,2.838-3.415,2.832-5.856-.019-7.2.079-14.4-.022-21.6a19.036,19.036,0,0,1,1.665-8.2c.721-1.6,2.164-2.723,3.431-3.9,1.938-1.8,4-3.471,6.009-5.2.076-.067.116-.189.2-.229C93.612.437,94.4-.326,94.77.155c.489.635-.453.977-.95,1.373C90.947,3.813,89.112,6.6,89.138,10.47q.079,10.957-.064,21.916a12.468,12.468,0,0,1-3.693,8.891c-2.33,2.387-4.942,4.435-7.381,6.686a1.663,1.663,0,0,1-1.913.6" transform="translate(29.398 0)" fill="#fff"/><path d="M57.619,79.3a46.319,46.319,0,0,1,5.435.037c3.272.4,4.2,1.84,4.343,5.853.2,5.493.037,11,.033,16.5,0,4.307.288,5.2,3.017,8.8-2.731-.374-5.112.365-7.689-.629-1.98-.764-2.325-1.83-2.507-3.571-.3-2.929-.134-5.855-.173-8.78-.053-4.112-.017-8.225,0-12.339A8.347,8.347,0,0,0,57.619,79.3" transform="translate(22.262 30.614)" fill="#fff"/><path d="M66.521,47.636c.715.4,1.176,1.288,1.873,1.9a14.171,14.171,0,0,1,2.667,3.026,2.382,2.382,0,0,1-.094,3.158c-1.16,1.536-2.66,2.723-3.857,4.2-.581.718-1.038.507-1.331-.255-.915-2.382-2.78-4.016-4.515-5.752-.548-.548-.771-.86.036-1.539a51.017,51.017,0,0,0,4.237-4.228c.256-.273.412-.563.984-.517" transform="translate(23.48 18.403)" fill="#fff"/><path d="M62.978,54.153a3.134,3.134,0,0,1-1.08,2.437c-.993,1.128-2.1,2.153-3.147,3.237-.595.616-.954.531-1.37-.237a18.792,18.792,0,0,0-4.569-5.645c-.532-.438-.653-.857.012-1.475,1.461-1.357,2.8-2.843,4.156-4.316.462-.5.929-.76,1.409-.2,1.373,1.617,3.194,2.823,4.24,4.75a3.1,3.1,0,0,1,.349,1.445" transform="translate(20.233 18.406)" fill="#fff"/><path d="M63.007,79.312a3.543,3.543,0,0,1-3.634-3.606,3.9,3.9,0,0,1,3.65-3.715,4.166,4.166,0,0,1,3.739,3.7c-.017,1.884-1.844,3.944-3.756,3.625" transform="translate(22.94 27.815)" fill="#fff"/></g></svg>