<svg xmlns="http://www.w3.org/2000/svg" width="203.357" height="42.23" viewBox="0 0 203.357 42.23"><g transform="translate(0 0.004)"><g transform="translate(0 -0.004)"><path d="M150.33,42.224V2.5c0-2.347,0-2.4,2.441-2.347,4.338.1,8.723-.1,13,.484,8.434,1.146,14.131,5.994,16.487,14.2,3.426,11.932-2.691,23.49-14.271,26.619a20.644,20.644,0,0,1-4.852.734c-4.177.1-8.358.034-12.8.034Zm7.318-6.715c6.588.391,12.6-.56,16.206-6.63a14.318,14.318,0,0,0-.391-16.049c-3.752-5.616-9.678-6.134-15.816-5.866V35.509Z" transform="translate(-86.519 -0.081)" fill="#fff"/><path d="M423.539,8.8c-1.6,1.528-3.167,3.022-4.818,4.6-.548-.637-1.048-1.227-1.558-1.808-4.61-5.217-11.325-5.739-16.711-3.392-5.467,2.386-8.4,8.018-7.836,14.7.815,9.742,11.2,15.867,19.509,11.44a10.417,10.417,0,0,0,5.667-7.836h-9.708V20.012h16.932c1.715,14.763-9.445,23.694-21.58,22.2-8.031-.989-15.935-7.742-17.645-17.064A21.194,21.194,0,0,1,406.807.248C413.811.325,419.15,3.457,423.539,8.8Z" transform="translate(-221.834 -0.14)" fill="#fff"/><path d="M0,.049c5.548.072,11.079-.577,16.406,1.29,6.817,2.39,8.855,10.124,6.783,15.731a11.962,11.962,0,0,1-8.035,7.449c4.232,5.841,8.4,11.6,12.806,17.675-3.022,0-5.692.051-8.358-.051-.42-.017-.883-.671-1.206-1.116-3.175-4.419-6.316-8.863-9.483-13.286A6.619,6.619,0,0,0,7.05,25.907V42.114H0ZM7.055,18.874A13.051,13.051,0,0,0,13.927,18c2.144-1.023,2.9-2.831,3.052-4.992a5.025,5.025,0,0,0-2.572-5.072c-2.3-1.295-4.818-1.206-7.356-1.014V18.87Z" transform="translate(0 0.004)" fill="#fff"/><path d="M84.893,16.111h15.752v6.753H84.868V35.684h16.338v6.668H77.83V.41h23.5c0,2.029.059,3.926-.064,5.815-.021.3-.866.764-1.333.773-4.347.068-8.7.055-13.044.068h-2v9.05Z" transform="translate(-44.793 -0.234)" fill="#fff"/><path d="M306.607,1.418c6.872,13.965,13.545,27.527,20.319,41.3-2.521,0-4.741.059-6.957-.051a1.95,1.95,0,0,1-1.252-1.07q-1.725-3.75-3.268-7.581a1.712,1.712,0,0,0-1.893-1.222q-7.233.076-14.47,0a1.706,1.706,0,0,0-1.906,1.189c-1.065,2.534-2.318,4.992-3.421,7.513a1.723,1.723,0,0,1-1.889,1.244c-2.008-.089-4.02-.025-6.329-.025,7.034-13.787,13.965-27.379,21.067-41.3Zm-5.841,24.611h11.172c-1.791-3.943-3.5-7.7-5.361-11.8C304.544,18.359,302.706,22.09,300.766,26.029Z" transform="translate(-164.336 -0.81)" fill="#fff"/><path d="M240.317,7.009H230.97V.54H256.6V7h-9.266v35.41h-7.021Z" transform="translate(-132.93 -0.309)" fill="#fff"/></g></g></svg>