<svg xmlns="http://www.w3.org/2000/svg" xmlns:xlink="http://www.w3.org/1999/xlink" width="204" height="94" viewBox="0 0 204 94"><defs><clipPath id="a"><rect width="204" height="94" fill="#fff"/></clipPath></defs><g transform="translate(0 0)" clip-path="url(#a)"><path d="M197.6,0a12.418,12.418,0,0,1,2.433.243C205.9,1.261,210.925,4.438,212.5,9.758a15.6,15.6,0,0,1,.707,4.659c-.051,3.732-.07,7.467,0,11.2.1,5.885-2.264,10.33-7.417,13.213a11.663,11.663,0,0,1-5.671,1.559c-8.669.039-17.338,0-26.007.033-.87,0-1.2-.2-1.165-1.13.08-2.27-.219-4.589.148-6.8.441-2.666,2.681-4.849,6.2-4.949,4.78-.135,9.564-.282,14.344-.225,3.2.038,6.369-3.651,6.538-6.584a7.754,7.754,0,0,0-5-7.761,15.745,15.745,0,0,0-4.946-.378c-.892.031-1.2-.266-1.132-1.168.158-2-.07-4,.191-6.02.386-2.984,2.3-4.329,4.842-5.147A11.706,11.706,0,0,1,195.317,0Z" transform="translate(-29.695 0)" fill="#fff"/><path d="M243.54,61.326a11.188,11.188,0,0,1-1.714,3.724,7.079,7.079,0,0,1-5.212,2.425c-1.786.116-3.585,0-5.376.043-.732.018-1.014-.263-.983-.967.017-.384-.016-.772-.016-1.158q0-29.4,0-58.805c0-2.121.552-3.946,2.423-5.173A6.851,6.851,0,0,1,236.5.386c2.346,0,4.692.112,7.038.177Z" transform="translate(-39.54 -0.064)" fill="#fff"/><path d="M108.318,27.065c6.695,0,12.2-.084,17.711.033,3.211.068,7.188-3.862,6.467-7.822a7.127,7.127,0,0,0-6.527-5.851c-.6-.01-.811-.2-.808-.814q.031-5.792,0-11.584c0-.544.144-.758.72-.743a18.9,18.9,0,0,1,5.053.975,19.547,19.547,0,0,1,11.592,9.509,19.051,19.051,0,0,1,2.444,12.474,20.949,20.949,0,0,1-5.112,10.974,21,21,0,0,1-7.078,5.057c-4.9,2.287-10.052,1.65-15.162,1.614q-9.8-.066-19.6-.19c-1.035-.014-1.049.551-1.046,1.306.014,4.5-.012,9.01.01,13.514a12.247,12.247,0,0,1-9.537,11.656,17.587,17.587,0,0,1-3.943.3c-4.4.035-8.8.051-13.194,0a12.642,12.642,0,0,1-7.872-2.293c-3.19-2.45-5.153-5.588-5.165-9.722-.028-8.924.018-17.848-.041-26.772-.007-1.18.343-1.436,1.421-1.388,1.918.086,3.844-.014,5.763.055a6.312,6.312,0,0,1,5.6,3.561,3.272,3.272,0,0,1,.321,1.612c-.016,4.762-.034,9.524,0,14.286.02,2.983.878,5.579,3.606,7.224a7.168,7.168,0,0,0,3.592,1.078c1.878.039,3.76-.053,5.635.037,1.054.051,1.276-.337,1.271-1.315-.036-6.65-.061-13.3,0-19.95a6.926,6.926,0,0,1,6.122-6.57c6.3-.6,12.627-.041,17.751-.255" transform="translate(-9.829 -0.047)" fill="#fff"/><path d="M.036,33.911q0-16.154,0-32.308C.038,1-.2.347.922.407,6.936.728,12.957.5,18.976.555c2.946.026,5.893-.006,8.839.026A11.763,11.763,0,0,1,39.008,8.754,17.65,17.65,0,0,1,40,14.362c.007,13.129.053,26.259-.017,39.388-.025,4.78-1.616,8.91-5.8,11.67a10.81,10.81,0,0,1-5.425,1.85c-9.085.535-18.178.078-27.266.262C.365,67.555-.006,67.314,0,66.091c.054-10.727.031-21.453.035-32.18m12.038-.062c0,6.607.025,13.214-.027,19.821-.007,1.034.316,1.345,1.285,1.32,2.176-.057,4.355-.006,6.531-.078a7.287,7.287,0,0,0,6.976-5.762A28.766,28.766,0,0,0,27,44.146q-.012-12.226-.064-24.452c-.012-2.985-2.893-5.978-5.64-6.522-2.626-.52-5.276-.033-7.9-.261-1.093-.1-1.348.327-1.341,1.374.045,6.521.023,13.043.022,19.564" transform="translate(0 -0.067)" fill="#fff"/><path d="M140.548,50.258c1.571-.56,3.152-.474,4.642-1.027a16.446,16.446,0,0,0,6.2-4.4c.925-.974,1-.958,1.491.3,1.093,2.824,2.067,5.706,1.872,8.766a21.8,21.8,0,0,1-22.2,21.144,102.473,102.473,0,0,1-12.764-.529,5.866,5.866,0,0,1-4.971-5.724c-.034-5.576,0-11.154-.022-16.73,0-.688.152-.97.91-.963q5.637.054,11.273,0c.718-.006.938.216.962.943a22.21,22.21,0,0,0,.437,5.344c1.116,3.979,6.308,6.615,10.357,4.046,3.668-2.326,3.818-4.609,3.448-8.061a7.311,7.311,0,0,0-1.639-3.111" transform="translate(-19.716 -7.354)" fill="#fff"/><path d="M115.094,12.01c0-3.6.022-7.2-.02-10.8-.008-.733.183-.959.912-.955q7.293.044,14.584.01c.692,0,.953.148.948.915-.023,4.112.014,8.225.037,12.338a1.29,1.29,0,0,1-.764,1.372,6.078,6.078,0,0,0-3.147,5.937c.054,2.885.015,2.886-2.883,2.886s-5.8-.024-8.7.014c-.8.01-1.09-.139-1.071-1.053.07-3.555.028-7.112.028-10.668Z" transform="translate(-19.748 -0.043)" fill="#fff"/><path d="M218.276,45.745c0,9.542,0,18.978,0,28.414,0,.393.154.929-.552.9-2.253-.1-4.519.254-6.76-.2a6.445,6.445,0,0,1-5.437-6.394c-.08-5.232-.012-10.467-.027-15.7,0-.783.234-1.062,1.091-1.153,3.966-.423,7.667-1.521,10.507-4.6.361-.393.514-.968,1.182-1.263" transform="translate(-35.289 -7.621)" fill="#fff"/><path d="M70.366,25.851a11.638,11.638,0,0,0-7.738-2.389,23.9,23.9,0,0,0-4.714.175c-.569.137-.649-.146-.648-.607,0-5.656-.071-11.314.04-16.969.047-2.4,2.41-4.572,4.738-5.31,2.537-.8,5.071-.338,7.6-.467.6-.031.716.291.708.786-.013.9-.017,1.8-.015,2.7q.011,10.027.026,20.055c0,.59,0,1.18,0,2.027" transform="translate(-9.831 -0.044)" fill="#fff"/><path d="M90.256,25.907a2.282,2.282,0,0,1-.192-1.357c-.007-7.676.019-15.351-.032-23.027C90.025.48,90.364.153,91.308.24c2.153.2,4.323-.007,6.468.528a6.619,6.619,0,0,1,4.835,5.9c.007,5.445-.023,10.892.025,16.337.009,1.007-.258,1.178-1.227,1.09a33.925,33.925,0,0,0-7.531.141,8.016,8.016,0,0,0-3.622,1.668" transform="translate(-15.462 -0.038)" fill="#fff"/><path d="M185.669,62.091c-.1,2.233.135,5.059-.1,7.883a6.654,6.654,0,0,1-7.079,6.266c-1.492-.021-2.986-.047-4.476.015-.821.034-1.071-.2-1.085-1.056-.11-6.424-.071-12.848,0-19.272,0-.171.008-.343.007-.513-.015-2.6-.015-2.6,2.645-2.6,2.984,0,5.968.035,8.952-.018.976-.017,1.2.286,1.17,1.254-.087,2.481-.029,4.967-.029,8.041" transform="translate(-29.686 -8.796)" fill="#fff"/><path d="M172.968,26.452c0-5.05-.156-9.856.055-14.644.137-3.12,1.9-5.648,4.143-7.732A10.605,10.605,0,0,1,185.4.89c.847.063,1.7.01,2.559.01.152.387-.2.431-.355.548A4.492,4.492,0,0,0,185.778,5.2c-.017,5.917-.031,11.834.02,17.751.01,1.153-.263,1.423-1.45,1.3a27.849,27.849,0,0,0-7.754.081,8.01,8.01,0,0,0-3.626,2.128" transform="translate(-29.696 -0.143)" fill="#fff"/><path d="M233.634,102.747a3.944,3.944,0,0,1,3.609-1.467A1.815,1.815,0,0,1,239,102.7c.507,2.4.257,4.861.29,7.3.007.483-.282.7-.737.678-.485-.019-.763-.2-.752-.781.033-1.758.029-3.516.006-5.274-.02-1.472-.724-2.326-1.823-2.287a2.382,2.382,0,0,0-2.294,2.361c0,1.673-.021,3.345,0,5.017.009.572-.144.886-.763.908-.639.023-.787-.3-.78-.87.019-1.758.012-3.517,0-5.275a1.938,1.938,0,0,0-1.752-2.105,2.411,2.411,0,0,0-2.354,2.182c-.019,1.673-.019,3.345-.016,5.017,0,.551-.022,1.072-.76,1.058-.764-.014-.568-.624-.577-1.047q-.072-3.535-.09-7.073c0-.43-.189-1,.451-1.185.538-.152.75.231.924.655.258.633.637.233.914.051,1.888-1.247,3.242-1.067,4.74.718" transform="translate(-38.912 -16.865)" fill="#fff"/><path d="M137.548,52.5a3.9,3.9,0,0,1,4.013,1.645,3.051,3.051,0,0,1,.163,3.369,3.447,3.447,0,0,1-6.3-.263,9.7,9.7,0,0,1-.488-4.163c-.007-.46.192-.6.61-.593.6.014,1.2,0,2,0" transform="translate(-23.173 -8.741)" fill="#fff"/><path d="M72.955,84.634c1.6-.022,3.131.019,4.185,1.568a3.236,3.236,0,0,1,.035,3.859,3.465,3.465,0,0,1-3.447,1.613c-1.821-.566-2.8-1.656-2.841-3.166-.015-.6,0-1.2,0-1.8,0-2.08,0-2.08,2.071-2.075" transform="translate(-12.173 -14.1)" fill="#fff"/><path d="M83.566,86.88c0-2.251,0-2.251,2.282-2.248,2.651,0,3.827.686,4.446,2.5a3.112,3.112,0,0,1-.912,3.6,3.057,3.057,0,0,1-3.252.841,3.718,3.718,0,0,1-2.551-3.148,12.74,12.74,0,0,1-.013-1.541" transform="translate(-14.348 -14.1)" fill="#fff"/><path d="M174.413,101.294a4.412,4.412,0,0,1,4.694,4.087c.047,3.317-1.736,5.435-4.594,5.456a4.563,4.563,0,0,1-4.628-4.544c-.024-3.119,1.647-4.963,4.529-5m.033,8.295c1.866,0,3.066-1.38,3.084-3.552.017-2.011-1.341-3.688-3.041-3.694-1.384-.005-3.172,1.08-3.122,3.735.034,1.8.9,3.718,3.078,3.51" transform="translate(-29.176 -16.876)" fill="#fff"/><path d="M161.655,104.2c0-1.585-.036-3.172.016-4.755.025-.755-.253-.98-.957-.93-.679.048-1.365-.005-2.046.021-.546.021-.867-.076-.864-.756,0-.636.234-.8.824-.8,2.686.021,5.373.016,8.059,0,.569,0,.856.173.868.8.014.69-.363.778-.894.741a.826.826,0,0,0-.128,0c-1.05.087-2.487-.474-3.048.245-.517.663-.125,2.04-.133,3.1q-.025,3.47-.05,6.939c0,.571.022,1.074-.844,1.083-.9.01-.8-.5-.8-1.072.007-1.542,0-3.084,0-4.627Z" transform="translate(-27.101 -16.158)" fill="#fff"/><path d="M217.379,101.321a3.535,3.535,0,0,1,2.481.522c.34.26.8.533.537,1.021-.29.543-.761.233-1.088-.005a3.836,3.836,0,0,0-2.684-.51,1.505,1.505,0,0,0-1.381,1.3c-.138.663.455.813.978,1.089,1.094.578,2.385.5,3.428,1.246a2.408,2.408,0,0,1,1.294,2.548,2.642,2.642,0,0,1-1.985,2.083,5.271,5.271,0,0,1-4.79-.756c-.349-.244-.482-.517-.331-.847.211-.461.571-.216.86-.057a4.579,4.579,0,0,0,3.634.608,1.42,1.42,0,0,0,1.116-1.216c.113-.67-.261-.985-.783-1.293-.966-.572-2.124-.447-3.111-1-1.549-.862-2-1.483-1.732-2.87a2.762,2.762,0,0,1,2.848-1.864h.71" transform="translate(-36.709 -16.878)" fill="#fff"/><path d="M192.739,106.161q0,1.929,0,3.858c0,.324-.1.64-.427.7s-.771,0-.828-.394c-.143-.988-.581-.564-1.025-.277a4.434,4.434,0,0,1-3.385.65,2.332,2.332,0,0,1-2-2.43c-.12-2.051-.027-4.114-.041-6.172,0-.5.067-.8.685-.789.661.011.637.428.637.858,0,1.543-.025,3.086-.017,4.629.006,1.071-.009,2.3,1.192,2.691a3.93,3.93,0,0,0,3.687-.863c.312-.242.221-.629.222-.963.007-1.543-.05-3.09.031-4.63.031-.571-.518-1.612.555-1.648,1.178-.039.66,1.088.726,1.7a29.188,29.188,0,0,1,.03,3.083h-.044" transform="translate(-31.774 -16.878)" fill="#fff"/><path d="M199.078,106.251c0-1.328.013-2.657-.008-3.984-.007-.4-.109-.83.416-.915.407-.067.9-.12,1.01.485.171.953.644.471.941.157a2.005,2.005,0,0,1,1.433-.671c.313-.012.728-.12.722.444,0,.353.019.694-.442.8a7.747,7.747,0,0,0-1.227.321,1.951,1.951,0,0,0-1.42,2.027c.05,1.586.015,3.174.011,4.762,0,.449.142.943-.645.933s-.761-.456-.75-1.01c.021-1.114.006-2.228.006-3.344h-.045" transform="translate(-34.186 -16.878)" fill="#fff"/><path d="M207.966,105.817c0-1.238.018-2.477-.008-3.715-.012-.531.141-.781.711-.789s.828.15.82.793c-.031,2.563-.019,5.127-.007,7.691,0,.488-.056.8-.675.8-.591-.007-.852-.186-.84-.806.025-1.323.007-2.648.007-3.972h-.008" transform="translate(-35.714 -16.879)" fill="#fff"/><path d="M209.693,98.373c-.117.6-.412,1-1.018,1-.576,0-.827-.394-.809-.934.018-.556.292-.837.895-.833.58,0,.869.24.933.773" transform="translate(-35.698 -16.261)" fill="#fff"/></g></svg>