<svg xmlns="http://www.w3.org/2000/svg" xmlns:xlink="http://www.w3.org/1999/xlink" width="209" height="43" viewBox="0 0 209 43"><defs><clipPath id="a"><rect width="209" height="43" fill="#fff"/></clipPath></defs><g transform="translate(0 0)"><g transform="translate(0 0)" clip-path="url(#a)"><path d="M214.459,41.889a1.419,1.419,0,0,1-1.277.494c-1.352-.018-2.71-.064-4.056.033-1.011.074-1.238-.291-1.232-1.249.044-5.041,0-10.083.033-15.124a14.586,14.586,0,0,0-.793-4.084c-.614-2.178-3.385-3.075-5.623-2.834-3.825.413-5.184,3.691-5.139,6.783.073,5.041-.017,10.084.046,15.124.015,1.128-.339,1.425-1.4,1.367-1.436-.078-2.879-.045-4.318.012-.727.028-1.009-.187-1-.946.018-2.1-.03-4.207-.044-6.311-.026-3.857-.03-7.715-.076-11.572a4.649,4.649,0,0,0-4.192-4.353c-2.178-.251-4.066.081-5.6,1.765a5.951,5.951,0,0,0-1.45,4.159c-.023,5.3-.031,10.61.01,15.914.009.968-.15,1.416-1.26,1.34-1.519-.105-3.053-.032-4.579-.006-.6.01-.809-.15-.807-.825q.054-13.413.019-26.827c0-.828.223-1.054,1.021-1.021,1.437.061,2.881.066,4.317,0,.82-.038,1.085.227,1.012,1.034-.065.727-.013,1.465-.013,2.381a14.309,14.309,0,0,1,3.307-2.8c3.72-2.1,10.412-1.7,13.143,2.8.43.708.633.517,1.056.007a10.608,10.608,0,0,1,5.231-3.642c4.578-1.319,10.847.133,12.706,5.712.413,1.24.468,2.535.958,3.73Z" transform="translate(-5.458 -0.323)" fill="#fff"/><path d="M26.774,0a26.872,26.872,0,0,1,7.02,3.386,18.679,18.679,0,0,1,4.614,5.3c.21.35.188.573-.212.844-1.6,1.083-3.157,2.228-4.741,3.338-.465.326-.675.178-.941-.362a11.124,11.124,0,0,0-7.368-5.894c-.638-.178-.658-.263-.545-.906C24.935,3.8,25.794,1.989,25.725,0Z" transform="translate(-0.78 0)" fill="#fff"/><path d="M66.01,17.206a2.93,2.93,0,0,0,.138-.4c0-2.9,0-2.931,2.878-2.938,1.166,0,2.663-.521,3.414.211s.231,2.24.237,3.406c.027,5.653.067,11.306-.014,16.958-.034,2.371.267,4.706.4,7.057.044.765-.162,1.024-.9,1.018-1.48-.011-2.963.019-4.444.045-.923.017-1.355-.4-1.314-1.347.033-.773.007-1.55.007-2.725a10.123,10.123,0,0,1-3.182,3.183,11.172,11.172,0,0,1-10.564.57C47.56,40.148,45.33,35.908,44.4,30.69a17.3,17.3,0,0,1,.857-8.684,13.048,13.048,0,0,1,12.225-8.878,9.926,9.926,0,0,1,8.524,4.077M50.954,28.038a11.031,11.031,0,0,0,1.981,6.435,7,7,0,0,0,10.671.7c2.9-3.252,3.209-6.933,2.062-10.994a7.373,7.373,0,0,0-11.364-3.9c-2.526,1.893-3.3,4.7-3.35,7.754" transform="translate(-1.404 -0.325)" fill="#fff"/><path d="M153.439,30.041c-3.1,0-6.194.037-9.289-.021-1.042-.02-1.147.423-.945,1.248a7.9,7.9,0,0,0,12.552,4.546,8.565,8.565,0,0,0,1.806-2.324,1.285,1.285,0,0,1,1.827-.634c1.165.444,2.357.817,3.549,1.178.59.177.8.471.537,1.05a13.009,13.009,0,0,1-8.475,7.6,14.481,14.481,0,0,1-17.315-7.866,16.165,16.165,0,0,1-1.257-9.193c.692-4.54,2.715-8.488,6.925-10.8a14.024,14.024,0,0,1,15.1.572,11.473,11.473,0,0,1,4.649,6.6,17.263,17.263,0,0,1,.767,7.168c-.086.8-.346.891-1.016.886-3.14-.029-6.28-.013-9.42-.012m-3.3-5.165v.061c2.006,0,4.014-.047,6.017.021.954.032,1.005-.4.835-1.113-1.133-4.739-5.219-5.839-9.234-4.808-2.585.664-3.739,2.715-4.525,5.052-.245.729.195.795.755.791,2.051-.013,4.1,0,6.152,0" transform="translate(-4.331 -0.319)" fill="#fff"/><path d="M120.221,30.042h-8.9c-1.526,0-1.514,0-1.158,1.478a7.618,7.618,0,0,0,5.106,5.569,7.493,7.493,0,0,0,9.261-3.7c.384-.705.774-.831,1.433-.62,1.349.432,2.693.879,4.05,1.282.487.144.582.238.346.786a12.681,12.681,0,0,1-9.171,7.9,14.086,14.086,0,0,1-13.8-3.748,14.481,14.481,0,0,1-4.25-10.337,15.269,15.269,0,0,1,4.651-11.987A13.941,13.941,0,0,1,128,17.967a13.583,13.583,0,0,1,2.61,7.075c.147,1.3.241,2.6.263,3.9.014.848-.221,1.128-1.1,1.114-3.183-.054-6.367-.021-9.55-.019m-4.865-5.13a27.114,27.114,0,0,0,5.866-.1c.937-.149,2.308.531,2.713-.414.358-.836-.568-1.913-.927-2.884a1.682,1.682,0,0,0-.278-.42c-1.542-1.955-3.639-2.419-6-2.368a6.781,6.781,0,0,0-6.5,5.107c-.176.707-.145,1.154.813,1.1,1.432-.076,2.872-.02,4.308-.02" transform="translate(-3.278 -0.32)" fill="#fff"/><path d="M3.722,25.381c1.134,0,2.448-.356,3.347.105.807.414.7,1.888,1.044,2.877a11.97,11.97,0,0,0,7.161,7.43,13.39,13.39,0,0,0,13.055-1.277,11.22,11.22,0,0,0,4.37-5.959c.222-.68.34-.879,1.128-.656,1.7.481,3.343,1.118,5.02,1.658a.6.6,0,0,1,.449.886,18.465,18.465,0,0,1-8.937,10.818,19.814,19.814,0,0,1-12.2,2.169c-5.473-.753-10.269-2.976-13.813-7.578a24.622,24.622,0,0,1-4.2-8.9c-.351-1.317-.159-1.578,1.214-1.6.784-.012,1.569,0,2.355,0v.032" transform="translate(0 -0.625)" fill="#fff"/><path d="M89.154,17.649a11.1,11.1,0,0,1,9-4.249c.944,0,1.283.256,1.2,1.284a32.814,32.814,0,0,0-.021,4.6c.053.922-.27,1.1-1.093,1.056a13.379,13.379,0,0,0-3.737.335,6.559,6.559,0,0,0-4.87,6.381q-.183,7.095-.257,14.193c-.01.883-.2,1.243-1.162,1.193-1.566-.083-3.139-.048-4.708-.016-.683.014-.883-.221-.882-.917q.017-13.409-.04-26.817c0-.775.224-.969.95-.949q2.418.067,4.84,0c.722-.02.864.227.806.916-.083.99-.021,1.993-.021,2.991" transform="translate(-2.625 -0.332)" fill="#fff"/><path d="M10.6,10.559a4.386,4.386,0,0,1-4.441-4.4C6.137,3.783,8.662,1.813,10.58,1.841a4.423,4.423,0,0,1,4.531,4.342A4.169,4.169,0,0,1,10.6,10.559" transform="translate(-0.196 -0.046)" fill="#fff"/></g></g></svg>