<svg xmlns="http://www.w3.org/2000/svg" width="254.893" height="64.607" viewBox="0 0 254.893 64.607"><g transform="translate(0 0)"><path d="M193.993,4.826h6.85v32.73c0,2.883-2.744,3.318-3.68,3.318a3.765,3.765,0,0,1-2.883-1.585L175.39,15.282V40.374h-6.85V7.134a3.453,3.453,0,0,1,3.745-3.244,3.71,3.71,0,0,1,3.105,1.372l18.6,23.359Z" transform="translate(-12.315 -0.284)" fill="#fff"/><path d="M16.583,4.9c7.573,0,11.179,3.244,11.179,10.743,0,5.478-2.308,9.01-6.489,9.946l8,14.849H21.7L14.488,26.09H6.7V40.439H0V4.9ZM6.7,11.24v8.936h8.287c3.967,0,5.988-.862,5.988-4.468s-2.021-4.468-5.988-4.468H6.7Z" transform="translate(0 -0.358)" fill="#fff"/><rect width="6.989" height="35.539" transform="translate(96.605 4.542)" fill="#fff"/><path d="M214.716,23.643c0,7.935,2.095,10.669,7.712,10.669H235.84v6.127h-13.7c-3.819,0-6.776-.287-9.881-3.1-3.244-2.883-4.829-7.573-4.829-13.987,0-12.616,4.69-18.455,14.849-18.455h13.552v6.053H222.418c-5.626,0-7.712,3.819-7.712,12.69Z" transform="translate(-15.157 -0.358)" fill="#fff"/><path d="M138.75,7.573c-.361-.862-.5-.862-.8-.862s-.436,0-.862.862L121.306,40.09H114.02L130.964,5.339C132.837,1.594,134.932,0,137.953,0s5.117,1.585,6.924,5.339L161.9,40.09H154.62L138.76,7.573Z" transform="translate(-8.331 0)" fill="#fff"/><path d="M138.994,19.06,128.26,41.473h21.477Z" transform="translate(-9.372 -1.393)" fill="#fff"/><path d="M98.387,34.312h-19.9V4.9H71.71V34.6a5.991,5.991,0,0,0,5.914,5.914H94.855l3.532-6.2Z" transform="translate(-5.24 -0.358)" fill="#fff"/><path d="M48.772,4.359c-11.1.074-16.657,8.074-16.722,18.316.074,10.233,6.7,18.094,17.806,18.094a21.6,21.6,0,0,0,14.275-5.191l-3.244-5.265C59.441,31.685,56.781,34.345,50,34.345c-4.978,0-10.53-3.606-10.53-7.935v-.362H64.706c1.947-14.2-4.394-21.7-15.934-21.7Zm-9.3,15.786c.862-5.766,3.967-9.3,9.584-9.3,6.989,0,8.936,5.552,9.01,9.3h-18.6Z" transform="translate(-2.342 -0.318)" fill="#fff"/><path d="M256.127,4.359c-11.03.074-16.657,8.074-16.657,18.316s6.637,18.094,17.732,18.094a21.261,21.261,0,0,0,14.275-5.191l-3.17-5.265c-1.511,1.372-4.106,4.032-10.891,4.032-4.978,0-10.53-3.606-10.53-7.935l-.074-.362h25.231c1.947-14.2-4.394-21.7-15.934-21.7Zm-9.3,15.786c.936-5.766,3.967-9.3,9.659-9.3,6.924,0,8.871,5.552,8.945,9.3Z" transform="translate(-17.498 -0.318)" fill="#fff"/><g transform="translate(20.578 47.7)"><path d="M31.961,55.705a3.417,3.417,0,0,0-3.291-1.974,3.252,3.252,0,0,0-2.948,1.613,8.63,8.63,0,0,0-.992,4.56c0,4.153,1.353,6.22,4.041,6.22a7.469,7.469,0,0,0,3.161-.64l.667,2.021a9.572,9.572,0,0,1-3.865.862c-4.366,0-6.535-2.818-6.535-8.463,0-2.836.621-4.968,1.891-6.442a5.721,5.721,0,0,1,4.579-2,6,6,0,0,1,3.1.7,5.169,5.169,0,0,1,1.808,1.993L31.961,55.7Z" transform="translate(-22.2 -51.46)" fill="#fff"/><path d="M39.945,58.814c-1.789,0-2.67,1.288-2.67,3.9s.881,3.93,2.67,3.93,2.67-1.316,2.67-3.93S41.734,58.814,39.945,58.814Zm0,9.937c-3.328,0-5.005-2.021-5.005-6.034s1.678-6.007,5.005-6.007,5.033,1.993,5.033,6.007S43.3,68.751,39.945,68.751Z" transform="translate(-23.131 -51.844)" fill="#fff"/><path d="M62.5,68.408V62.42a5,5,0,0,0-.473-2.54,2.008,2.008,0,0,0-1.891-.908,4.75,4.75,0,0,0-2.558.751,5.535,5.535,0,0,1,.26,1.817v6.878H55.519V62.429a5.41,5.41,0,0,0-.454-2.54,2.008,2.008,0,0,0-1.891-.908c-.361,0-.751.028-1.14.046-.389.046-.8.111-1.205.176v9.214h-2.3V57.368a19.329,19.329,0,0,1,4.9-.658,4.246,4.246,0,0,1,2.985.992,8.215,8.215,0,0,1,3.977-.992c2.948,0,4.431,1.613,4.431,4.829v6.878H62.508Z" transform="translate(-24.124 -51.844)" fill="#fff"/><path d="M83.319,68.408V62.42a5,5,0,0,0-.473-2.54,2.008,2.008,0,0,0-1.891-.908,4.75,4.75,0,0,0-2.558.751,5.535,5.535,0,0,1,.26,1.817v6.878H76.339V62.429a5.41,5.41,0,0,0-.454-2.54,2.008,2.008,0,0,0-1.891-.908c-.361,0-.751.028-1.14.046-.389.046-.8.111-1.205.176v9.214h-2.3V57.368a19.329,19.329,0,0,1,4.9-.658,4.246,4.246,0,0,1,2.985.992,8.215,8.215,0,0,1,3.977-.992c2.948,0,4.431,1.613,4.431,4.829v6.878H83.328Z" transform="translate(-25.645 -51.844)" fill="#fff"/><path d="M97.134,68.641a22.453,22.453,0,0,1-2.54.139c-3.013,0-4.514-1.659-4.514-4.95V57.11h2.327v5.942a5,5,0,0,0,.473,2.54,2.058,2.058,0,0,0,1.937.908,13.28,13.28,0,0,0,2.391-.2V57.11h2.317v11.1a16.623,16.623,0,0,1-2.382.436Z" transform="translate(-27.16 -51.873)" fill="#fff"/><path d="M110.7,68.407V62.419a5,5,0,0,0-.473-2.54,2.058,2.058,0,0,0-1.937-.908c-.408,0-.816.028-1.205.065-.408.046-.8.111-1.205.185v9.186h-2.3V57.358a19.885,19.885,0,0,1,4.968-.658Q113,56.7,113,61.529v6.878h-2.3Z" transform="translate(-28.146 -51.843)" fill="#fff"/><path d="M116.99,68.032V56.714h2.3V68.032Zm0-13.57v-2.9h2.3v2.9Z" transform="translate(-29.126 -51.467)" fill="#fff"/><path d="M129.777,60.4a2.616,2.616,0,0,0-2.447-1.613c-1.826,0-2.725,1.316-2.725,3.921a5.081,5.081,0,0,0,.6,2.7,2.514,2.514,0,0,0,2.327,1.27,5.9,5.9,0,0,0,2.512-.584l.556,1.743a6.461,6.461,0,0,1-3.291.908,4.674,4.674,0,0,1-3.652-1.427,6.678,6.678,0,0,1-1.4-4.607,6.346,6.346,0,0,1,1.437-4.542,4.619,4.619,0,0,1,3.587-1.474,3.962,3.962,0,0,1,3.912,2.336l-1.418,1.363Z" transform="translate(-29.511 -51.842)" fill="#fff"/><path d="M139.4,62.938c-2.688.074-4.041.769-4.041,2.086s.667,1.928,2,1.928a2.626,2.626,0,0,0,2.039-.844V62.929Zm.519,5.534c-.019-.065-.037-.176-.065-.3a3.8,3.8,0,0,0-.111-.38,5.256,5.256,0,0,1-3.114.955,3.543,3.543,0,0,1-2.6-1,3.665,3.665,0,0,1-1.01-2.679c0-2.382,2.123-3.652,6.387-3.791v-.232a2.741,2.741,0,0,0-.5-1.882,1.884,1.884,0,0,0-1.418-.454,7.433,7.433,0,0,0-2.41.454l-.538-1.743a9.411,9.411,0,0,1,3.42-.723c2.475,0,3.717,1.335,3.717,3.986v5.469c0,.3.019.612.046.973.019.389.065.8.13,1.251l-1.937.093Z" transform="translate(-30.298 -51.843)" fill="#fff"/><path d="M150.235,68.525q-3.935,0-3.939-4.153V58.635H144.47V57.3l1.826-.25V53.713l1.826-.093.371,3.291,3.439-.046v1.789l-3.309-.019v5.45c0,1.613.64,2.4,1.909,2.4a5.619,5.619,0,0,0,1.594-.232l.389,1.882a7.412,7.412,0,0,1-2.28.389Z" transform="translate(-31.134 -51.618)" fill="#fff"/><path d="M155.02,68.032V56.714h2.3V68.032Zm0-13.57v-2.9h2.3v2.9Z" transform="translate(-31.905 -51.467)" fill="#fff"/><path d="M165.3,58.814c-1.789,0-2.67,1.288-2.67,3.9s.881,3.93,2.67,3.93,2.66-1.316,2.66-3.93S167.075,58.814,165.3,58.814Zm0,9.937c-3.328,0-5.005-2.021-5.005-6.034s1.678-6.007,5.005-6.007,5.033,1.993,5.033,6.007S168.651,68.751,165.3,68.751Z" transform="translate(-32.29 -51.844)" fill="#fff"/><path d="M180.989,68.407V62.419a5,5,0,0,0-.473-2.54,2.058,2.058,0,0,0-1.937-.908c-.408,0-.816.028-1.205.065-.408.046-.8.111-1.205.185v9.186h-2.3V57.358a19.885,19.885,0,0,1,4.968-.658q4.449,0,4.449,4.829v6.878h-2.3Z" transform="translate(-33.282 -51.843)" fill="#fff"/><path d="M192.6,67.981a5.319,5.319,0,0,1-2.985.769,7.741,7.741,0,0,1-3.161-.64l.241-1.909a6.1,6.1,0,0,0,2.8.658c1.529,0,2.28-.547,2.28-1.631a1.309,1.309,0,0,0-.714-1.066,9.711,9.711,0,0,0-1.372-.677,9.906,9.906,0,0,1-1.483-.816,3.008,3.008,0,0,1-1.251-2.6A3.124,3.124,0,0,1,188,57.618a3.5,3.5,0,0,1,2.475-.908,6.038,6.038,0,0,1,2.577.547l-.213,1.724a4.891,4.891,0,0,0-2-.361c-1.094,0-1.631.454-1.631,1.335,0,.547.454,1.029,1.372,1.455.454.2.881.408,1.307.612a6.909,6.909,0,0,1,1.112.658,2.759,2.759,0,0,1,1.159,2.364,3.241,3.241,0,0,1-1.567,2.948Z" transform="translate(-34.202 -51.844)" fill="#fff"/></g></g></svg>