<svg xmlns="http://www.w3.org/2000/svg" xmlns:xlink="http://www.w3.org/1999/xlink" width="255" height="60" viewBox="0 0 255 60"><defs><clipPath id="a"><rect width="255" height="60" fill="#fff"/></clipPath></defs><g transform="translate(0 0)"><g transform="translate(0 0)" clip-path="url(#a)"><path d="M157.686,59.979q-50.807,0-101.614.064c-2.641.007-3.294-.684-3.277-3.308q.178-26.758.015-53.518C52.8,1.042,53.242.3,55.6.3Q157.5.415,259.4.323c2.575,0,3.368.579,3.347,3.3q-.21,27.045-.032,54.093c.014,2.456-1.221,2.28-2.844,2.279q-51.095-.027-102.19-.019m36.839-35.21a28.333,28.333,0,0,1,2.306,3.657,85.56,85.56,0,0,0,6.134,11.488c1.4,2.156,3.479.937,5.17.887,1.4-.042.751-1.709.76-2.642.059-5.875-.009-11.75.056-17.625.017-1.5-.182-2.3-1.987-2.23-1.622.062-2.208.579-2.115,2.2.111,1.92.036,3.851.037,5.778q0,4.028,0,8.058l-.776.048c-2.042-4.044-4.254-8.012-6.067-12.158-1.235-2.824-2.67-4.5-6.061-3.953-1.568.253-2.12.637-2.1,2.24.072,6.163.1,12.329-.006,18.492-.031,1.831.8,1.976,2.246,1.982,1.534.007,2.515-.067,2.449-2.1-.145-4.508-.045-9.024-.045-14.124m36.276,4.6h-.017c0,1.925-.016,3.85,0,5.776.056,5.814.061,5.818,5.808,5.815a21.21,21.21,0,0,0,8.09-1.229c6.49-2.557,6.592-9.695,5.018-14.888a7.661,7.661,0,0,0-4.914-5.26,36.789,36.789,0,0,0-12.183-1.246c-1.339.035-1.868.382-1.831,1.79.082,3.079.026,6.161.026,9.242M81.706,32.624h-.049c0,1.832-.065,3.666.021,5.493.061,1.3-.5,2.883,1.96,2.928,2.234.041,2.486-1.035,2.583-2.758.156-2.784-.3-5.583.236-8.354a2.662,2.662,0,0,1,3.089-2.248,2.44,2.44,0,0,1,2.484,2.867c-.087,2.7,0,5.4-.028,8.1-.012,1.307-.148,2.431,1.847,2.381,1.724-.044,2.358-.452,2.29-2.278a56.7,56.7,0,0,1,.414-8.348c.234-2.1,1.418-2.617,3-2.682,2.05-.085,2.349,1.3,2.276,3.061-.114,2.791.047,5.594-.077,8.384-.09,2.022,1.184,1.808,2.443,1.8,1.141-.005,2.341.257,2.287-1.623-.093-3.274.117-6.562-.071-9.829-.216-3.772-3.239-6.408-6.459-5.162-2.92,1.13-5.313,1.519-8.132-.076-1.315-.744-3.113-.061-4.356.767-1.017.676-1.138.889-2.17-.2-1.367-1.437-3.529-.109-3.58,1.991-.048,1.926-.01,3.855-.01,5.784m143.057-3.483a10.058,10.058,0,0,1,.909-.711c2.243-1.36,1.9-3.482,1.748-5.618s-1.464-3.022-3.241-3.731c-2.981-1.191-6.064-.447-9.088-.723-1.857-.169-2.267.719-2.247,2.368q.1,8.959.039,17.919c-.014,1.635.294,2.485,2.2,2.349,2.385-.17,4.8.087,7.185-.078a6.123,6.123,0,0,0,5.847-4.228c1.343-3.626-.857-5.53-3.349-7.547m-158.69.238c0,3.274.036,6.549-.02,9.822-.02,1.14.154,1.807,1.517,1.781,3.353-.062,6.708-.034,10.061,0,1.086.009,1.525-.44,1.574-1.535.052-1.187-.342-1.858-1.571-1.882a24.532,24.532,0,0,0-4.018-.012c-2.477.362-2.97-.65-3.042-3-.085-2.753.62-3.928,3.453-3.455.933.155,1.916-.033,2.87.031,1.248.084,1.947-.175,1.921-1.695-.024-1.407-.5-1.855-1.858-1.772-1.527.094-3.065.021-4.6-.014-.742-.017-1.467.075-1.73-1.027-.805-3.366.164-4.689,3.612-4.7,1.15,0,2.3-.03,3.449.007,1.31.042,1.553-.7,1.585-1.829.036-1.2-.3-1.757-1.6-1.736-3.352.056-6.708.065-10.06,0-1.36-.028-1.572.662-1.561,1.778.032,3.081.011,6.162.012,9.244m100.592,7.355c-2.139,1.714-4.385,1.3-6.539,1.239a2.7,2.7,0,0,1-2.918-2.85c.093-1.828,1.784-.9,2.723-.967,2.284-.167,4.588-.055,6.882-.1.7-.013,1.555.269,1.739-.928.273-1.785-2.062-7.182-3.588-8.084-2.414-1.428-7.148-1.161-9.205.518-2.769,2.26-4.218,6.865-3.163,10.051,1.168,3.528,4.474,5.744,8.583,5.753,5.283.011,5.887-.45,5.486-4.634m-35.532,4.416c1.293-.271,3.022.288,4.266-1.242.405-.5.968-.791,1.432.289.671,1.563,2.217.787,3.3.668,1.418-.157.8-1.521.769-2.361-.09-2.783-.287-5.564-.469-8.344-.217-3.3-1.5-4.8-4.553-5.694-2.11-.615-4.124-.088-6.209.07-2.148.162-2.438,1.384-2.122,2.851.421,1.956,1.764.7,2.668.395,1.7-.58,3.309-.883,4.935.191.66.436,1.266.8,1.2,1.755-.089,1.2-1,.956-1.691,1.034q-1.852.207-3.715.3a5.6,5.6,0,0,0-5.487,5.111c-.088,2.551,2.43,4.848,5.685,4.973m46.7-13.635c.648-.433,1.988,1.407,2.308-.729.247-1.645-.573-2.237-1.961-2.475a13.41,13.41,0,0,0-5.365.3,4.634,4.634,0,0,0-3.761,4.153c-.369,2.147.758,3.647,2.732,4.5a26.258,26.258,0,0,0,3.147,1.321c1.087.307,1.777.875,1.636,1.988-.15,1.172-1.113,1.451-2.156,1.434a21.187,21.187,0,0,1-3.437-.126c-.847-.156-1.721-.855-1.727.714,0,.985-.394,2.242,1.286,2.37,1.143.088,2.277.358,3.42.386,5.547.137,8.659-3.435,6.744-7.646a4.584,4.584,0,0,0-3.751-2.681c-1.374-.252-3.279-.762-2.964-2.43.247-1.311,2.094-1.346,3.475-1.143.095.015.189.033.375.064m-33.658,6.817c.026.283.12,1.144.177,2.006.273,4.143,3.124,6.006,7.023,4.737a1.369,1.369,0,0,0,1.129-1.622c-.018-.9-.258-1.5-1.308-1.4-2.532.241-2.705-1.528-2.752-3.336-.042-1.633.084-3.273-.019-4.9-.1-1.549.327-2.333,2.027-2.17.95.091,1.934.05,1.985-1.405.053-1.541-.882-1.816-2.024-1.7-1.716.18-2.134-.6-2.034-2.165.056-.882.511-2.272-.446-2.569-.824-.257-1.959.44-2.941.764-.9.3-.973,1.119-1,1.89-.041,1.179-.279,2.157-1.754,2.026-1.31-.117-1.291.7-1.324,1.648-.04,1.112.385,1.613,1.49,1.531,1.5-.112,1.718.933,1.759,2.048.049,1.343.011,2.689.011,4.614m-28.471-1.609h-.014c0,2.115.078,4.235-.026,6.345-.077,1.589.628,1.946,2.052,1.926,1.363-.02,2.417.016,2.354-1.873a43.374,43.374,0,0,1,.212-6.618c.273-2.257.928-4.417,3.936-4.279,2.2.1,1.445-1.525,1.431-2.633-.02-1.547-1.04-1.739-2.169-1.265-.822.345-1.823.3-2.409,1.324-.454.792-1.156,1.359-1.476-.35-.274-1.467-1.731-.717-2.646-.763-1.177-.059-1.25.925-1.247,1.84.006,2.115,0,4.232,0,6.347m-2.384.107c0-2.025-.093-4.056.029-6.074.1-1.663-.519-2.187-2.133-2.139-1.54.045-2.525.2-2.456,2.178.133,3.852.137,7.717-.019,11.568-.078,1.961.382,2.653,2.482,2.689,2.311.039,2.147-1.2,2.1-2.726-.053-1.83-.013-3.664-.006-5.5m-2.27-11.586c1.565.247,2.3-.138,2.339-1.916.04-1.932-.8-2.317-2.39-2.11-1.008.131-2.391-.473-2.169,1.608.169,1.569.1,2.964,2.22,2.418" transform="translate(-7.751 -0.042)" fill="#fff"/><path d="M44,29.942c0,8.964-.084,17.93.055,26.891.037,2.37-.731,2.927-2.948,2.832a98.5,98.5,0,0,0-12.363.025,4.635,4.635,0,0,1-5.271-3.184,47.663,47.663,0,0,1-3.337-22.2A46.007,46.007,0,0,1,23.22,21.285c3.3-8.342,8.891-14.9,15.958-20.249A4.067,4.067,0,0,1,43.241.269c1.5.653.709,2.227.718,3.36C44.025,12.4,44,21.171,44,29.942M23.188,47.289c13.316-5.656,16.679-25,9.746-33.155.574,6.079.989,11.84-.566,18.064-1.026-3.483-1.738-6.437-3.675-8.965,2.935,9.02.182,16.645-5.506,24.057" transform="translate(-2.929 0)" fill="#fff"/><path d="M18.213.451A46.768,46.768,0,0,0,6.737,30.237C6.318,41.291,10.213,50.871,17.92,59.7c-5.912,0-11.222-.027-16.531.017C-.11,59.731,0,58.813,0,57.8Q.1,32.918.157,8.035c0-1.929.018-3.864-.137-5.784C-.1.743.387.169,1.917.172c5.175.014,10.354-.215,16.3.279" transform="translate(0 -0.018)" fill="#fff"/><path d="M16.628,50.408c-3.534-7.471-5.318-15.174-3.7-23.538A52.31,52.31,0,0,1,25.478,1.815,4.124,4.124,0,0,1,30.466.471C15.644,14.386,11.42,31.054,16.628,50.408" transform="translate(-1.81 -0.019)" fill="#fff"/><path d="M267.536,33.025c0-2.019.077-4.043-.028-6.057-.07-1.338.5-1.61,1.671-1.566,4.132.155,8.322,3.835,8.154,7.963a8.067,8.067,0,0,1-7.94,7.778c-1.27-.019-1.952-.308-1.886-1.773.1-2.111.025-4.23.029-6.345" transform="translate(-39.274 -3.594)" fill="#fff"/><path d="M245.319,39.22c-.612-2.544.474-3.14,2.848-3.126,2.482.015,4,.921,3.914,3.347-.1,2.776-2.374,3.037-4.582,3.23-3.086.268-2-2.008-2.18-3.451" transform="translate(-35.993 -5.107)" fill="#fff"/><path d="M245.32,28.146c-.017-1.415-.4-2.994,2-2.758,2.044.2,4.075.586,4.07,3.024-.006,2.4-2.184,2.5-3.992,2.727-2.593.33-2.037-1.545-2.073-2.993" transform="translate(-36.013 -3.589)" fill="#fff"/><path d="M178.425,35.738c-1-.906-3.189,1.129-3.281-1.38-.08-2.185,2.083-2.357,3.507-2.4,1.38-.041,3.333.471,3.173,2.44-.2,2.413-2.339.452-3.4,1.339" transform="translate(-25.714 -4.522)" fill="#fff"/><path d="M145.977,43.485c-1.538.079-3.389-.1-3.029-1.969.435-2.263,2.709-2.533,4.745-2.688,1.2-.092,2.082.039,1.883,1.6a3.153,3.153,0,0,1-3.6,3.061" transform="translate(-20.981 -5.491)" fill="#fff"/></g></g></svg>