<svg xmlns="http://www.w3.org/2000/svg" xmlns:xlink="http://www.w3.org/1999/xlink" width="255" height="91.781" viewBox="0 0 255 91.781"><defs><clipPath id="a"><rect width="255" height="91.781" fill="#fff"/></clipPath></defs><g clip-path="url(#a)"><path d="M69.806,0c1.688.863,3.521.281,5.291.609,4.872.9,9.653,2.013,14.055,4.509A20.854,20.854,0,0,1,99.639,19.3a32.2,32.2,0,0,1-.246,13.739c-2.886,13.438-9.593,24.749-17.7,35.173-5.138,6.605-10.8,12.714-17.624,17.413-4.808,3.312-9.966,5.668-15.818,5.842a11,11,0,0,0-1.711.317H45.262c-1.389-.542-2.864-.115-4.257-.394A40.506,40.506,0,0,1,26.57,85.561c-7.087-4.648-12.547-11-17.144-18.288a11.714,11.714,0,0,1-.612-1.362,26.194,26.194,0,0,0,5.9,2.812,31.458,31.458,0,0,0,11.181.917,11.764,11.764,0,0,0,7.039-2.52,7.734,7.734,0,0,0,2.706-6.689,5.847,5.847,0,0,0-4.159-5.475A23.772,23.772,0,0,0,23.377,53.7a10.664,10.664,0,0,1-3.325-.2c-1.089-.354-2.358-.523-2.49-2.117s1.07-2.2,2.036-2.937c.458-.352,1.033-.173,1.555-.176a16.076,16.076,0,0,0,5.639-.654c3.239-1.193,6.184-4.812,6.1-8.521A13.11,13.11,0,0,0,31,32.706a12.244,12.244,0,0,1,3.593.136c.432.108,1.077.4,1.234-.271a4.252,4.252,0,0,0-.049-2.671c-.27-.618-.82-.216-1.272-.17a16.78,16.78,0,0,1-6.93-.285,15.9,15.9,0,0,0-9.959-.239c-4.408,1.427-7.311,6.92-6.055,11.593a9.608,9.608,0,0,0,5.292,6.569c-.54.378-.988.664-1.409.991A5.176,5.176,0,0,0,13.127,52.9a5.032,5.032,0,0,0,2.914,4.281c1.862.93,3.848.542,5.746.962,2.555.567,5.21-.039,7.745.677,2.03.573,2.874,1.634,2.846,3.28a4.424,4.424,0,0,1-2.892,3.791,21.4,21.4,0,0,1-14.9-.863C6.531,61.292,2.833,53.959.913,45.241.388,42.856.592,40.416,0,38.072V35.013A1.556,1.556,0,0,0,.289,33.9a23.05,23.05,0,0,1,2.821-10c4.68-8.633,11.979-13.86,20.478-17.446a77.976,77.976,0,0,1,12.65-3.93,70.911,70.911,0,0,1,8.716-1.47A70.709,70.709,0,0,1,55.232.321.944.944,0,0,0,56.1,0ZM65.664,40.675c0-5.991,0-11.646,0-17.3,0-2.038-.01-4.076,0-6.114,0-.688-.1-1.056-.911-.809-1.309.4-2.658.64-3.981.989-.557.147-.822.381-.627,1.2a24.949,24.949,0,0,1,.7,5.852c-.024,8.944-.007,17.889-.006,26.833a16.953,16.953,0,0,1-.531,4.689c-.272.954-.111,1.524,1,1.442.845-.062,1.7,0,2.547,0,2.359-.007,2.373-.1,2.042-2.588-.505-3.8-.126-7.624-.226-11.718a7.215,7.215,0,0,1,.8.705c2.375,3.041,4.736,6.1,7.113,9.135,1.874,2.4,3.859,4.7,7,4.99a6.3,6.3,0,0,0,4.958-1.136,11.651,11.651,0,0,1-5.043-3.022c-3.542-3.555-6.548-7.616-9.76-11.482-.519-.625-.474-.991.14-1.645,2.607-2.777,5.361-5.381,8.078-8.029,1-.977,2.055-1.9,3.273-3.019a28.144,28.144,0,0,0-5.205-.271,1.042,1.042,0,0,0-.925.52c-1.838,2.594-4.28,4.538-6.456,6.769-1.25,1.282-2.518,2.545-3.975,4.016M48.1,28.586a10.673,10.673,0,0,0-4.57.6,7.79,7.79,0,0,0-5.513,6.455c-.45,2.862.9,5.075,2.978,6.81a22.737,22.737,0,0,0,3.893,2.416C47,46.01,49.286,46.82,50.9,48.842c1.513,1.9,1.346,4.256-.532,5.293a6.863,6.863,0,0,1-3.159.959,18.548,18.548,0,0,1-7.763-1.853c-.407-.173-1.218-1.125-1.482-.084a7.657,7.657,0,0,0,.059,3.351c.167.775,1.215.473,1.776.875.742.531,1.633.393,2.445.616A14.434,14.434,0,0,0,52.6,57.035a7.273,7.273,0,0,0,1.5-12.3,38.571,38.571,0,0,0-4-2.6c-2.092-1.215-4.388-2.076-6.119-3.924A3.623,3.623,0,0,1,43,34.106,3.479,3.479,0,0,1,46.26,31.95,10.669,10.669,0,0,1,54.212,33.9c.212.165.534.463.843.141.527-.549-.055-3.81-.75-4.1-2.009-.85-4.027-1.678-6.208-1.348" fill="#fff"/><path d="M1240.76,308.457c-2.276-.02-4.552-.008-6.826-.075-1.068-.031-1.081.445-.793,1.324.819,2.5,2.844,3.466,5.161,2.417.432-.2.868-.378,1.329-.578.568,1.633.054,2.4-1.476,2.67-5.389.947-8.07-2.422-7.425-7.9.571-4.84,5.044-5.988,7.815-4.36,1.319.775,1.692,2.138,2.215,3.441Zm-5.131-2.038v.011c.737,0,1.475-.013,2.212,0,.561.013.819-.293.659-.828-.287-.961-.629-1.98-1.683-2.229-1.142-.27-2.358-.359-3.132.835a2.8,2.8,0,0,0-.519,1.854c.173.736.992.223,1.517.339a4.465,4.465,0,0,0,.946.012" transform="translate(-985.76 -237.411)" fill="#fff"/><path d="M817.017,303.065c2.7-2.236,4.52-2.633,6.054-1.277.983.869,1.382,1.271,2.714.153,2.327-1.953,5.96-.891,6.366,2.894.29,2.709.05,5.42.114,8.13.025,1.069-.766.67-1.27.734-.63.081-1.128.027-1.11-.92.043-2.319.008-4.638.009-6.958,0-1.216-.052-2.449-1.471-2.725a2.448,2.448,0,0,0-3.119,1.773c-.977,2.547-.346,5.136-.488,7.7-.057,1.037-.4,1.194-1.226,1.179s-.917-.491-.92-1.2c-.01-2.375.02-4.755-.123-7.122-.062-1.02-.285-2.143-1.61-2.373a2.438,2.438,0,0,0-2.8,1.359,6.246,6.246,0,0,0-.752,3.025c0,1.584-.013,3.168-.007,4.752,0,.8.156,1.554-1.044,1.571-1.155.016-1.111-.652-1.106-1.5.018-3.168-.007-6.336.02-9.5.005-.584-.339-1.439.759-1.471.947-.028,1.446.3,1.014,1.777" transform="translate(-652.986 -237.191)" fill="#fff"/><path d="M483.774,282.256c-2.675-1.132-5.363-1.753-7.968.118a7.043,7.043,0,0,0-1.918,8.694c1.492,3.095,4.568,3.873,7.393,3.243.645-.144.72-.49.709-1.056-.023-1.132.029-2.268-.021-3.4-.04-.912.05-1.428,1.152-1.429,1.158,0,1.122.627,1.107,1.482-.028,1.7,0,3.4,0,5.1,0,.5.1,1.116-.544,1.232-2.715.486-5.458.977-8.111-.233-3.957-1.8-5.256-5.76-4.628-9.865,1-6.515,7.471-8.467,12.494-6.5.562.22.55.255.338,2.612" transform="translate(-377.111 -219.799)" fill="#fff"/><path d="M1054.671,288.067c1.44-1.9,2.988-3.719,4.282-5.725a2.8,2.8,0,0,1,3.589-1.317c-1.181,1.607-2.276,3.2-3.468,4.7-2.52,3.178-2.544,3.162-.165,6.4.676.921,1.39,1.809,2.072,2.725s1.33,1.824,2.045,2.807a3.109,3.109,0,0,1-4.113-1.615,35.317,35.317,0,0,0-4.6-5.971c0,2.111-.019,4.222.009,6.333.012.868.023,1.5-1.123,1.481-1.121-.019-.975-.7-.974-1.44.01-4.643.005-9.286.015-13.929,0-.8-.282-1.734,1.079-1.68,1.377.054.975,1.034.986,1.8.026,1.79.008,3.581.008,5.372l.355.065" transform="translate(-842.844 -221.309)" fill="#fff"/><path d="M759.829,278.622a5.446,5.446,0,0,1,2.907.6c.941.459,1.224.087.855,1.234-.346,1.076-.768,1-1.484.636a4.446,4.446,0,0,0-2.8-.316,2.561,2.561,0,0,0-2.453,2.207c-.14,1.278.779,1.992,1.732,2.514,1.287.7,2.645,1.238,3.884,2.068a4.739,4.739,0,0,1-1.551,8.522,10.711,10.711,0,0,1-5.621-.034c-.693-.159-.713-.5-.647-1.046.068-.57.072-1.179.892-1.01a23.512,23.512,0,0,0,2.647.479c2.4.21,3.913-1.173,3.738-3.345-.135-1.678-1.454-2.068-2.58-2.56a13.789,13.789,0,0,1-3.375-1.785c-2.706-2.23-2.138-5.6.647-7.261a12.368,12.368,0,0,1,3.212-.9" transform="translate(-604.135 -219.56)" fill="#fff"/><path d="M986.364,285.77c2.586-2.66,5.573-2.665,7.241-.228a6.3,6.3,0,0,1,.856,3.343c.114,2.141,0,4.3.058,6.442.025.98-.426,1.1-1.171,1.082-.7-.017-1.221-.038-1.205-1.056.037-2.317-.021-4.637-.033-6.955-.007-1.273-.233-2.355-1.664-2.615-1.72-.312-2.822.187-3.428,1.641a7.681,7.681,0,0,0-.675,3.43c.079,1.466-.027,2.942.035,4.409.037.881-.225,1.2-1.062,1.174-.732-.021-1.041-.253-1.036-1.077.028-5.09.048-10.18,0-15.269-.008-1,.413-1.037,1.143-1.075.828-.043.966.321.949,1.085-.041,1.8-.013,3.609-.013,5.667" transform="translate(-788.424 -219.879)" fill="#fff"/><path d="M577.469,304.058c-.881-2.167.719-2.381,1.754-2.718a5.73,5.73,0,0,1,3.747.048c2,.738,2.515,2.526,2.552,4.538.041,2.2.03,4.41,0,6.615-.005.4.282,1.018-.276,1.172-.534.147-1.374.36-1.614-.213-.409-.978-.681-.44-1.133-.145-2.472,1.611-5.31.856-6.336-1.491a4.037,4.037,0,0,1,3.271-5.591c.73-.105,1.493.031,2.219-.093.586-.1,1.684.711,1.641-.729-.033-1.089-.39-2.1-1.673-2.287a5.65,5.65,0,0,0-4.155.895m4.4,3.745c-2.287.005-3.684.953-3.65,2.475a2.118,2.118,0,0,0,2.2,2.1,3.249,3.249,0,0,0,2.939-3.273c.081-1.34-.692-1.258-1.485-1.3" transform="translate(-461.245 -237.243)" fill="#fff"/><path d="M695.415,301.523c3.159-.136,5.529,2.608,5.515,6.492-.014,3.761-2.461,6.643-5.61,6.556-2.8-.078-5.667-2.053-5.654-6.62.012-4,2.413-6.655,5.749-6.428m-3.471,6.613a5.578,5.578,0,0,0,.48,2.469,2.963,2.963,0,0,0,2.561,2.132,2.7,2.7,0,0,0,2.9-1.569c.672-1.531,1.232-3.212.477-5.025-.5-1.206-.9-2.343-2.319-2.63-2.618-.529-3.934,1.255-4.1,4.622" transform="translate(-552.434 -237.607)" fill="#fff"/><path d="M1168.407,307.751q0-2.543,0-5.087c0-.511-.073-1.119.629-1.107.518.009,1.263-.409,1.483.468.234.932.427.665,1.019.245,2.57-1.822,5.474-1.119,6.7,1.465a6.066,6.066,0,0,1,.292,2.487c.1,2.2.03,4.406.07,6.609.014.783-.227,1.081-.992,1.113-.887.037-1.068-.37-1.052-1.2.037-1.977.025-3.956,0-5.934-.027-2.424-.9-3.586-2.658-3.592-1.887-.006-3.015,1.287-3.076,3.6-.052,1.976-.084,3.955-.053,5.932.013.847-.177,1.262-1.048,1.214-.734-.041-1.363-.007-1.324-1.127.059-1.693.016-3.39.016-5.086h-.008" transform="translate(-935.905 -237.403)" fill="#fff"/><path d="M639.5,310.22a7.687,7.687,0,0,0-1.538,2.687c-.629,1.642-1.6,2.411-3.474,1.8,1-1.792,1.939-3.612,3.018-5.331a1.637,1.637,0,0,0-.01-2.1c-.96-1.453-1.784-3.008-2.682-4.551,2.921-.7,2.485-.242,4.732,4.244a19.086,19.086,0,0,0,1.412-2.724c.556-1.666,1.535-2.161,3.231-1.571-.9,1.567-1.735,3.144-2.683,4.641a1.673,1.673,0,0,0-.012,2.112,33.306,33.306,0,0,1,2.177,3.851c.21.437,1.137,1.058.361,1.458a1.608,1.608,0,0,1-2.264-.376c-.772-1.305-1.467-2.663-2.269-4.134" transform="translate(-508.234 -238.332)" fill="#fff"/><path d="M938.559,295.721c0-.792-.029-1.586.007-2.377.052-1.123.149-2.2-1.455-1.952-.621.1-.562-.5-.577-.951-.018-.568.239-.882.756-.822,1.273.148,1.348-.666,1.279-1.679a1.262,1.262,0,0,1,.664-1.466c1.285-.716,1.636-.347,1.455,1.021-.207,1.561.247,2.371,1.857,2.136.591-.086,1.141-.059,1.126.919-.015,1-.607.951-1.171.856-1.513-.257-1.938.484-1.851,1.973.1,1.692,0,3.4.1,5.089.093,1.57.946,2.262,2.282,2.125.281-.029.8-.837.908.16.06.545.17,1.187-.5,1.449-2.054.806-4.93-.446-4.886-3.087.019-1.131,0-2.264,0-3.4" transform="translate(-750.179 -225.476)" fill="#fff"/><path d="M1117.965,296.438c-2.241.641-3.055.056-3.061-1.971-.014-4.747.022-9.494-.018-14.241-.008-.944.224-1.243,1.135-1.25.96-.008,1.113.4,1.106,1.293-.035,4.577-.016,9.155-.02,13.732a2.549,2.549,0,0,0,.859,2.436" transform="translate(-893.041 -219.848)" fill="#fff"/><path d="M552.373,287.522c0-2.377.007-4.753,0-7.13,0-.761-.087-1.423,1.011-1.4,1.028.018,1.063.548,1.057,1.384-.031,4.413-.029,8.827-.021,13.24a10.324,10.324,0,0,0,.169,1.671c.076.455.731.86.266,1.334a1.265,1.265,0,0,1-1.374.095c-.523-.209-1.084-.377-1.073-1.212.027-1.98-.007-3.96-.014-5.941,0-.679,0-1.358,0-2.037Z" transform="translate(-442.455 -219.858)" fill="#fff"/><path d="M914.809,308.7c0-1.691.044-3.384-.017-5.072-.035-.963.4-1.12,1.148-1.118.73,0,1.214.126,1.206,1.081-.031,3.438-.048,6.876-.014,10.314.01,1.029-.536.992-1.217,1.023-.814.037-1.134-.264-1.11-1.154.046-1.69.013-3.382.013-5.073Z" transform="translate(-732.762 -238.393)" fill="#fff"/><path d="M1144.275,308.735c0,1.7-.048,3.4.018,5.091.039,1-.446,1.068-1.172,1.088-.753.021-1.026-.253-1.019-1.068.029-3.451.02-6.9,0-10.354,0-.664.107-1.088.865-1.014.642.062,1.317-.055,1.3,1-.024,1.753-.007,3.508-.007,5.262Z" transform="translate(-914.843 -238.363)" fill="#fff"/><path d="M916.214,279.23a1.1,1.1,0,0,1-1.285-1.119,1.237,1.237,0,0,1,1.234-1.406,1.194,1.194,0,0,1,1.247,1.337c-.029.838-.434,1.206-1.2,1.188" transform="translate(-732.868 -218.059)" fill="#fff"/><path d="M1143.088,279.216c-.93.072-1.031-.52-1.018-1.282a1.125,1.125,0,0,1,1.154-1.259,1.238,1.238,0,0,1,1.141,1.5,1.023,1.023,0,0,1-1.277,1.043" transform="translate(-914.816 -218.035)" fill="#fff"/><path d="M80.475,154.638c.185-4.27,2.068-6.273,5.791-6.475,3.586-.195,6.349,3.122,6.439,7.326.083,3.893-2.381,6.948-5.766,6.7-3.94-.288-6.2-2.539-6.464-7.552" transform="translate(-64.462 -116.754)" fill="#fff"/></g></svg>