<svg xmlns="http://www.w3.org/2000/svg" xmlns:xlink="http://www.w3.org/1999/xlink" width="145" height="167" viewBox="0 0 145 167"><defs><clipPath id="a"><rect width="145" height="167" fill="#fff"/></clipPath></defs><g clip-path="url(#a)"><path d="M13.147,2.486A7.186,7.186,0,0,1,14.75,4.5a43.294,43.294,0,0,0,3.08,4.345,19.415,19.415,0,0,0,5.756,4.489,14.654,14.654,0,0,0,4.5,1.6c1.457.2,2.892.511,4.379.612,1.885.127,3.735-.183,5.6-.082.3.016.744.064.794-.318.046-.346-.277-.605-.631-.728a2.987,2.987,0,0,1-.881-.319c-.3-.242-.836-.541-.062-.956.636-.34.436-.758-.034-1.149a22.807,22.807,0,0,1-3.1-2.588A18.324,18.324,0,0,1,32.31,7.181c-.29-.478-.3-.816.413-.718a26.366,26.366,0,0,0,3.884.2c2.624-.031,3.328-1,4.23-2.916.533-1.13.424-2.4.848-3.746a16.231,16.231,0,0,0,3.074,4.445,7.143,7.143,0,0,0,3.674,2.192c.539.1.985.423,1.551.52a.981.981,0,0,1,.7,1.369c-.32,1.054-.16,1.48.949,1.674,2.224.388,4.392,1.021,6.6,1.473,4.643.949,9.307.941,13.989,1.06,3.055.078,6.082-.277,9.114-.465,1.726-.107,3.441-.662,5.184-.849,1.988-.214,3.848-1,5.84-1.214A5.75,5.75,0,0,0,94.215,9.5c.811-.411.608-1.084.683-1.719.115-.98,1.113-.874,1.629-1,3.4-.817,5.185-3.353,6.828-6.086a2.368,2.368,0,0,1,.4-.551c.083.909.492,1.725.625,2.6.364,2.412,1.635,3.924,4.33,3.91a34.776,34.776,0,0,0,3.991-.21c.185-.022.443-.123.552.14.09.216-.045.383-.171.566a15.614,15.614,0,0,1-4.026,4.136c-.495.34-.953.674-.761,1.528.236,1.048-.972.93-1.509,1.352-.319.25-1.179.192-1.088.553.136.542.818.743,1.458.763a26.432,26.432,0,0,0,3.824.217c1.546-.211,3.2.217,4.7-.558.454-.234,1.125,0,1.66-.136a18.885,18.885,0,0,0,11.6-7.854c.934-1.38,1.894-2.74,2.78-4.153.157-.25.405-.663.862-.663q0,5.363,0,10.7,0,22.263.009,44.526c0,1.546.1,3.094.048,4.638-.047,1.386,1.181,1.528,1.925,2.113.678.533,2.05.523,1.236,2.008-.08.146.524.574.918.64,2.437.407,4.455,1.8,6.608,2.85.647.316.594,1.307.464,2a1.838,1.838,0,0,0,.6,1.872.953.953,0,0,1,.363.6c.284,1.782.539,3.551-.407,5.241a1.421,1.421,0,0,0-.084,1.02,7.666,7.666,0,0,1-.352,3.321c-.341,1.341-.728,2.753.67,3.953.784.673.371,3.795-.3,4.643a8.422,8.422,0,0,1-4.028,2.926c-.417.137-.947.273-1.128-.37-.129-.459-.19-.966-.86-.718-.638.235-1.531.16-1.576,1.188-.009.211-.031.422-.02.632a9.559,9.559,0,0,1-2.645,6.7c-.305.367-.457,1.02-1.241.848-.32-.07-.289.4-.292.675-.008.809-.014,1.618-.008,2.427a16.394,16.394,0,0,1-.773,5.072,9.4,9.4,0,0,0-.155,2.084,33.347,33.347,0,0,1-1.244,5.442,39.457,39.457,0,0,1-2.342,6.823c-.708,1.552-1.286,3.2-2.132,4.67a47.7,47.7,0,0,1-3.278,5.1c-.954,1.254-1.874,2.529-2.905,3.725-1.15,1.335-2.412,2.549-3.675,3.775a60.983,60.983,0,0,1-4.618,3.986,74.883,74.883,0,0,1-6.458,4.483c-2.118,1.345-4.314,2.555-6.515,3.763a75.058,75.058,0,0,1-6.7,3.406c-2.414,1.026-4.78,2.172-7.2,3.189-2.076.873-4.193,1.711-6.248,2.669-1.541.718-3.232,1.18-4.8,1.907-.889.411-1.652-.182-2.433-.475-1.463-.549-2.934-1.086-4.363-1.716-2.407-1.062-4.849-2.044-7.267-3.08-2.233-.957-4.4-2.06-6.654-2.977a60.778,60.778,0,0,1-6.552-3.426c-2.194-1.222-4.385-2.459-6.5-3.809-1.787-1.139-3.493-2.414-5.185-3.693a45.518,45.518,0,0,1-4.123-3.377,46.122,46.122,0,0,1-6.925-7.746c-1.091-1.658-2.316-3.232-3.27-4.98-.934-1.711-1.755-3.478-2.587-5.241-1.034-2.189-1.371-4.606-2.418-6.78a7.989,7.989,0,0,1-.283-1.637,64.524,64.524,0,0,1-1.186-6.4,51.892,51.892,0,0,1-.584-7.02,3.212,3.212,0,0,0-.107-.933c-.068-.218-.411-.54-.51-.412-.878,1.142-1-.173-1.231-.441a10.93,10.93,0,0,1-2.585-5.231c-.107-.608-.338-1.036-.021-1.688.369-.757-.346-1.2-.938-1.313-.41-.077-1.113-.9-1.427.359s-1.445.543-2.016.295A6.208,6.208,0,0,1,.553,91.5a4.554,4.554,0,0,1,.61-4.167,3.548,3.548,0,0,0,.3-3.46,4.931,4.931,0,0,1-.326-2.3,9.747,9.747,0,0,0-.983-4.445,2.991,2.991,0,0,1,.434-2.679,4.928,4.928,0,0,0,.943-3.484c-.105-.838.418-1.164,1.089-1.491A23.329,23.329,0,0,1,7.891,67.13c.97-.2,1.521-.513,1.457-1.6-.048-.81.809-.942,1.275-1.165.754-.36,1.357-.91,2.073-1.3.526-.288.4-.855.4-1.332q0-11.237-.019-22.475,0-17.938.018-35.876c0-.244.026-.489.05-.9M47.1,90.286a16.219,16.219,0,0,1-11.275,7.723c.342.46.774.443,1.183.529,1.259.264,2.4-.34,3.616-.431.226-.017.48-.256.625.072a.613.613,0,0,1-.179.67c-1.6,1.739-3.4,3.045-5.974,2.8.7,1.878,2.373,2.74,3.828,3.826-3.615.109-5.622-2.318-7.548-4.766a.631.631,0,0,0-.287.684,12.7,12.7,0,0,0,1.364,4.135,2.164,2.164,0,0,0,.987,1.172,6.017,6.017,0,0,0,4.848.262c.941-.349,1.941-.587,3.064-1.079a10.7,10.7,0,0,1-1.5,3.22,7.5,7.5,0,0,1-4.033,2.958,7.8,7.8,0,0,1-5.856-.088,13.542,13.542,0,0,1-5.993-5.375c-.182-.276-.241-.913-.713-.754-.437.147-.221.685-.166,1.041.182,1.191.407,2.376.65,3.76-1.5-.649-2.4-1.854-3.633-2.6-.261.481.408,1.107-.162,1.3-1.29.442-1.017,1.4-.824,2.258.49,2.186.774,4.41,1.379,6.58a44.881,44.881,0,0,0,2.464,6.955,50.178,50.178,0,0,0,2.445,4.691,43.769,43.769,0,0,0,5.85,7.748,55.292,55.292,0,0,0,7.008,6.156c1.734,1.289,3.531,2.468,5.347,3.62,1.538.975,3.145,1.848,4.724,2.755,1.687.969,3.435,1.82,5.138,2.747,2.517,1.369,5.185,2.468,7.809,3.634,1.814.806,3.7,1.465,5.489,2.313,1.722.815,3.565,1.3,5.284,2.1.365.17.668.572,1.134.23a14.907,14.907,0,0,1,3.843-1.591c2.588-.959,5.067-2.162,7.592-3.257,2.319-1.006,4.557-2.195,6.859-3.24,2.388-1.084,4.655-2.394,6.967-3.621,1.779-.944,3.436-2.09,5.143-3.153a53.291,53.291,0,0,0,5.516-3.952,52.089,52.089,0,0,0,6.9-6.76,47.187,47.187,0,0,0,6.006-9.131,43.234,43.234,0,0,0,2.412-6.239,58.458,58.458,0,0,0,2.149-9.816c.2-1.385.075-1.451-1.277-1.161-.161-.5.316-.74.445-1.118.085-.248.1-.526-.146-.662-.275-.153-.4.072-.562.294a9.626,9.626,0,0,1-1.989,2,2.348,2.348,0,0,1-1.591.765c.164-.487.3-.875.424-1.269a5.454,5.454,0,0,0,.3-2.483c-.031-.189.044-.465-.221-.534a.468.468,0,0,0-.512.3,5.716,5.716,0,0,1-1.193,1.571c-1.911,2.285-4.03,4.186-7.259,4.4-4.458.294-7.507-2.3-8.948-6.092-.118-.312.059-.527.377-.322a12.18,12.18,0,0,0,3.163,1.054,4.459,4.459,0,0,0,4.786-.913,5.23,5.23,0,0,0,1.388-5.135c-2.051,2.286-4,4.511-7.285,4.347,1.468-.972,2.988-1.847,3.67-3.684-2.659.032-5.4-1.659-6.077-3.668.208-.107.408,0,.614.016,1.1.089,2.116.742,3.264.507.426-.087,1.1.019,1.124-.513.016-.435-.657-.39-1.046-.492a20.3,20.3,0,0,1-3.015-1,17.244,17.244,0,0,1-5.11-3.895,7.046,7.046,0,0,1-1.72-2.7,12.359,12.359,0,0,0,8.853,2.927,14.471,14.471,0,0,0,6.236-1.439c.305-.166.754-.21.728-.638-.032-.516-.533-.492-.895-.53a18.787,18.787,0,0,1-9.317-3.659c-.219-.162-.5-.349-.355-.686.123-.291.4-.22.641-.168a14.4,14.4,0,0,0,7.659-.459,11.217,11.217,0,0,0,3.855-1.958c.193-.161.6-.244.475-.607a.856.856,0,0,0-.741-.522,5.956,5.956,0,0,1-1.83-.429c-2.217-1.077-4.373-2.3-6.651-3.224-1.826-.741-3.787-1.4-5.7-.018-.654.472-.688-.051-.682-.518a3.733,3.733,0,0,1,2.512-3.644c.791-.327,1.589-.6.58-1.594a.671.671,0,0,1-.145-.869c.245-.324.491.039.739.1a6.152,6.152,0,0,0,3.56.354,3.59,3.59,0,0,0-.906-.812c-.544-.349-1.257-.557-1.539-1.18a.971.971,0,0,1,.136-1.178,1.874,1.874,0,0,1,2-.208c1.1.515,2.326.8,3.186,1.767.19.215.449.711.843.41.354-.27.147-.711.024-1.077a3.533,3.533,0,0,0-3.48-2.4,13.9,13.9,0,0,0-7.425,1.047c-.012-.606.2-.9.66-1.031,1.534-.451,2.84-1.46,4.416-1.809a.739.739,0,0,0,.544-.586c.074-.3-.245-.366-.44-.506a3.387,3.387,0,0,0-1.766-.613,15.562,15.562,0,0,0-8.107,1.564c-.3.144-.675.454-.924.116-.236-.32.108-.647.341-.906a18.855,18.855,0,0,1,3.615-3.332,17.707,17.707,0,0,1,5.161-2.259c.414-.109,1.2.246,1.159-.422-.042-.714-.843-.365-1.323-.437a.966.966,0,0,0-.418.037,58.508,58.508,0,0,0-5.883,2.3,4.41,4.41,0,0,1-5.143-1.2c-.115-.13-.269-.256-.16-.452s.261-.148.447-.082c2.534.9,4.856-.107,7.085-1.021a5.8,5.8,0,0,1,5.673.291,3.1,3.1,0,0,0,1.845.5,21.325,21.325,0,0,1,4.521.108,14.529,14.529,0,0,1,3.788.8c.169.086.48.149.591-.154-2.819-2.365-6.2-2.746-9.81-2.825a9.242,9.242,0,0,1,3.932-1.1c1.848-.019,3.716-.309,5.51.416.185.075.47.163.587-.037.163-.28-.126-.394-.312-.557a13.751,13.751,0,0,0-3.2-2.276,8.479,8.479,0,0,0-7.865,0c-1.036.519-1.694,1.479-2.9,2.229a8.235,8.235,0,0,1,6.06-4.314c4.778-1.008,8.8.6,12.139,4.091a13.211,13.211,0,0,0,2.119,1.856c.773.521,1.507.108,1.482-.7-.009-.295-.359-.677,0-.86s.756.087,1.062.318a7.275,7.275,0,0,1,1,.911c.217.239.437.546.752.486.375-.072.277-.515.37-.8a2.06,2.06,0,0,0,.044-.628q.022-18.993.029-37.986c0-.423.185-.984-.338-1.235-.548-.262-.954.146-1.281.5-1.434,1.55-3.462,1.957-5.3,2.652a21.3,21.3,0,0,1-6.078,1.091,44.132,44.132,0,0,1-9.369-.274,40.607,40.607,0,0,1-9.2-2.451,1.916,1.916,0,0,0-1.339-.075,49.587,49.587,0,0,1-7.076,1.51,85.487,85.487,0,0,1-10.767,1.071,116.667,116.667,0,0,1-21.352-.922,27.319,27.319,0,0,1-2.958-.623A9.16,9.16,0,0,0,46.92,19.1a37.3,37.3,0,0,1-6.63,1.59,44.7,44.7,0,0,1-10.423.079A27.157,27.157,0,0,1,19.979,17.5c-.4-.218-.795-.616-1.226-.409-.4.191-.321.737-.36,1.152-.013.14-.009.281-.01.422q-.014,13.98-.027,27.961,0,4.748.02,9.5c0,.325-.083.781.337.912.33.1.563-.223.791-.438a4.259,4.259,0,0,1,1.454-1.026c.4-.143.766-.147.59.431-.16.526-.2,1.013.322,1.3s.963-.056,1.33-.38c1-.879,2-1.756,2.933-2.7a11,11,0,0,1,5.444-2.961,11.234,11.234,0,0,1,9.244,1.59,4.32,4.32,0,0,1,2.1,2.423c-.3.063-.361-.125-.473-.245a7.842,7.842,0,0,0-6.347-2.7,10.375,10.375,0,0,0-6.754,3.115c-.141.133-.416.25-.235.491a.568.568,0,0,0,.676.16c1.333-.642,2.754-.363,4.138-.408a13.638,13.638,0,0,1,5.22,1.2c-3.683-.019-7.043.385-9.81,2.811a.481.481,0,0,0,.421.155,23.211,23.211,0,0,1,7.236-.948c.457.021.915.006,1.372.023a1.769,1.769,0,0,0,1.147-.358,4.993,4.993,0,0,1,3.719-1.036,25.427,25.427,0,0,1,4.024,1.259,8.107,8.107,0,0,0,5.411.342c.168-.053.327-.194.438.02.093.179-.071.3-.175.446a4.174,4.174,0,0,1-4.867,1.4c-1.968-.853-3.95-1.65-5.975-2.341a4.609,4.609,0,0,0-1.565-.073c-.229.006-.361.252-.377.454-.022.271.231.311.438.338A14.613,14.613,0,0,1,47.347,62.4a17.174,17.174,0,0,1,3.416,3.552,1.115,1.115,0,0,1-1.054-.061,12.2,12.2,0,0,0-4.83-1.538c-1.77-.266-3.654-.532-5.343.524-.2.125-.53.206-.459.5.051.205.28.5.453.519,1.213.12,2.156.892,3.232,1.328.743.3,1.782.335,2.151,1.5a19.009,19.009,0,0,0-2.621-.854,19.1,19.1,0,0,0-5.78-.057c-1.654.22-3.279,2.205-2.616,3.806.618-.526,1.189-1.09,1.839-1.544A5.917,5.917,0,0,1,38.8,68.9a1.342,1.342,0,0,1,1.368.758c.233.566-.166.912-.656,1.255a16.683,16.683,0,0,1-1.619.97c-.2.109-.489.245-.37.543.088.218.357.19.565.182a7.977,7.977,0,0,0,3.379-.7c.238-.119.575-.256.748.049.134.236-.123.448-.277.635a4.614,4.614,0,0,1-.36.385c-.649.624-.537,1.046.327,1.291a6,6,0,0,1,.689.263,4.021,4.021,0,0,1,2.311,3.449c0,.515.078,1.027-.8.559a4.021,4.021,0,0,0-2.784-.773,25.431,25.431,0,0,0-4.942,1.694c-2.153.992-4.085,2.5-6.539,2.8a1.9,1.9,0,0,0-.67.3c-.309.18-.251.418,0,.573A17.687,17.687,0,0,0,34.645,85.7a17.055,17.055,0,0,0,6.494.229c.262-.048.581-.272.736.093s-.25.48-.442.622a16.146,16.146,0,0,1-5.847,2.934,24.763,24.763,0,0,1-4.118.851c-.221.014-.549.006-.522.365a.527.527,0,0,0,.473.488,6.121,6.121,0,0,1,1.2.323,14.162,14.162,0,0,0,7.809,1.2,12.337,12.337,0,0,0,4.687-1.371c.652-.388,1.134-1.042,1.983-1.146m61.361-13.958a2.045,2.045,0,0,0,1.277.617c2.732.355,5.113,1.706,7.612,2.708a10.643,10.643,0,0,0,4.588.768c.648-.034,1.538-.457,1.875.084.452.726-.5,1.256-.828,1.881a.2.2,0,0,1-.06.085c-1.993,1.07-2.02,2.9-1.86,4.8.026.314-.007.633-.009.949-.014,2.131.444,2.628,2.574,2.609,1.365-.013,2.735-.09,4.093-.23.8-.082.99.24,1.108.957.3,1.836-.869,3.151-1.517,4.651-.531,1.23-1.472,2.28-1.659,3.775A42.958,42.958,0,0,1,128.9,96.53a.657.657,0,0,1,.655-.171c.291.059.179.334.191.522a10.43,10.43,0,0,1-.378,4.869c-.091.217-.143.479.2.643a13.713,13.713,0,0,0,1.217-3.031,2.91,2.91,0,0,0-.016-2.105c-.31-.86-1.01-1.808-.131-2.729a3.807,3.807,0,0,0,.752-1.242c.178-.438.372-.657.856-.444a1.149,1.149,0,0,0,.723,0,20.672,20.672,0,0,0,4.958-1.422c.253-.125.618-.229.565-.532-.059-.331-.453-.268-.722-.265a12.355,12.355,0,0,1-3.448-.374c-.292-.08-.713-.3-.579-.461.631-.766-.235-.853-.5-1.1a7.681,7.681,0,0,1-1.832-2.469c-.243-.546-.249-1.286-.959-1.719a3.766,3.766,0,0,0,.9,3.158c.172.209.35.4.159.63-.267.318-.413-.055-.582-.176a1.685,1.685,0,0,1-.446-.436,11.48,11.48,0,0,1-1.6-4.774,10.861,10.861,0,0,1,.41-2.838c.217-1.763,1.272-2.7,2.964-2.312a30.37,30.37,0,0,1,3.823,1.111,6.671,6.671,0,0,0,2.8.3c1.017-.057,1.364-.592,1.043-1.585a5.672,5.672,0,0,0-.877-1.885,2.6,2.6,0,0,0-1.692-1.14c-.768-.082-1.049.4-1.355.924a.6.6,0,0,1-.305.27c-.452.124-1.664-1.138-1.763-1.992-.074-.64.536-.722,1.038-.855,1.211-.318,2.521-.066,3.687-.714.459-.256.926-.5.944-1.008.017-.481-.478-.747-.874-.957a18.837,18.837,0,0,0-6.125-1.937c-.277-.041-.625.018-.749-.273s.16-.536.338-.708c.57-.55.322-.963-.219-1.233a17.751,17.751,0,0,0-2.4-.993c-.48-.157-1.157-.474-1.489-.043-.311.4.36.791.54,1.214.016.039-.055.115-.118.237-1.631-.762-3.442-.551-5.172-.87a6.617,6.617,0,0,0-5.094,1.685c-.512.392-.765.376-1.224-.041a5.779,5.779,0,0,0-4.84-1.622,13.8,13.8,0,0,1,2.473,1.911,7.326,7.326,0,0,1,1.834,4.646,4.4,4.4,0,0,0,1.793,3.391c.854.727,1.962,1.1,2.751,2.016a1.829,1.829,0,0,1-1.079.143c-2.034-.194-3.884-1.09-5.853-1.544-1.875-.433-3.719-1.035-5.635.131M32.8,65.758c-1.932-.483-3.27.488-4.517,1.533-.41.344-.731.473-1.065.177a7.073,7.073,0,0,0-1.648-1.07,6.02,6.02,0,0,0-3.782-.77,18.89,18.89,0,0,1-2.267.33c-.7.06-1.392.144-2.087.23-.211.026-.419.381-.625.042-.133-.218.054-.382.2-.539a.515.515,0,0,0,.1-.673c-.165-.215-.454-.117-.695-.075a11.293,11.293,0,0,0-2.56.838c-.769.336-1.264.788-.582,1.671.249.322.419.784-.255.806a19.727,19.727,0,0,0-3.277.7,9.753,9.753,0,0,0-3.573,1.68c-.682.476-.591.949.129,1.368,1.205.7,2.577.593,3.879.819a.462.462,0,0,0,.371-.132c1.146-1.422,2.851-1.352,4.412-1.654a.572.572,0,0,1,.71.351c-1.341.286-2.454,1.108-3.752,1.425-.544.133-.616.143-.586.752a2.259,2.259,0,0,1-1.013,1.858c-.458.338-.741.539-1.118-.138a1.228,1.228,0,0,0-1.692-.614A3.736,3.736,0,0,0,5.662,77.2c-.356,1.44.21,2.028,1.69,1.991a6.534,6.534,0,0,0,1.653-.3c1.173-.338,2.338-.713,3.523-1.005,1.895-.467,3.614.032,3.564,2.572-.026,1.335-.006,2.67-.011,4.005-.007,1.722-.938,2.928-2.264,4.113a4.544,4.544,0,0,1,.81-2.148,2.259,2.259,0,0,0,0-2.266c-.625,2.085-1.379,3.819-2.991,5-.072.053-.163.207-.138.247.494.786-.22.695-.6.84a12.348,12.348,0,0,1-3.861.379c-.165.009-.385-.038-.448.174-.076.257.155.354.319.478.374.282.91-.093,1.209.206.962.963,2.188.882,3.39,1.059,1.063.156,2.5-.159,2.8,1.506a.314.314,0,0,0,.093.186,1.8,1.8,0,0,1,.326,2.462c-.87,1.768.091,3.269.524,4.847.054.2.271.694.672.5.343-.164.077-.51,0-.746a11.3,11.3,0,0,1-.471-3.677,1.669,1.669,0,0,1,.625-1.226c.277-.247.484.363.746.533a13.948,13.948,0,0,1,2.326,2.45c.126.133.218.448.469.254.176-.136.119-.385-.008-.577-.832-1.268-1.338-2.727-2.182-3.966a5.586,5.586,0,0,1-.865-3.757c.042-.6.28-.752.933-.766,1.786-.04,3.55.5,5.352.105a1.456,1.456,0,0,0,1.321-1.361A19.965,19.965,0,0,0,24.2,84.7a1.477,1.477,0,0,0-.625-1.244A10.517,10.517,0,0,1,22.009,82a1.363,1.363,0,0,1-.531-1.394c.172-.6.793-.311,1.193-.253,2.58.375,4.9-.452,7.184-1.476a18.157,18.157,0,0,1,4.292-1.624,3.836,3.836,0,0,0,2.505-1,5.039,5.039,0,0,0-2.165-.647,17.984,17.984,0,0,0-5.475,1.205c-1.062.35-2.169.5-3.219.892a1.5,1.5,0,0,1-1.461-.2,9.262,9.262,0,0,1,1.269-.951,5.529,5.529,0,0,0,3.393-5.411,4.161,4.161,0,0,1,.461-1.82C30.12,67.8,31.449,66.9,32.8,65.758m76.091,43.655c1.5,1.619,4.859,1.7,6.587.34a10.164,10.164,0,0,0,3.4-5.059c.143-.445.726-.939.235-1.31-.525-.4-.788.5-1.288.59-.076.013-.128.158-.193.242-2.193,2.846-4.882,4.882-8.744,5.2M33.059,110.7a4.877,4.877,0,0,0,2.614-.63c.189-.114.4-.194.355-.441-.049-.271-.318-.2-.51-.259a15.822,15.822,0,0,1-3.669-1.3,18.969,18.969,0,0,1-4.887-4.7c-.186-.224-.3-.515-.644-.361s-.189.456-.19.732a6.228,6.228,0,0,0,.942,2.407c1.024,2.474,3.074,4.7,5.988,4.545m86.832-16.826a9.864,9.864,0,0,0-2.869,5.039c-.391,1.654.069,3.466-.959,4.983a.2.2,0,0,0,.117.328.464.464,0,0,0,.34-.174c1.126-1.395,2.155-2.88,2.008-4.76-.155-1.985.636-3.657,1.364-5.417M29.3,104.465c-.217-1.043-.579-2.032-.73-3.1-.28-1.974-.274-4.06-1.555-5.754-.354-.469-.542-1.184-1.431-1.324a11.46,11.46,0,0,1,1.331,4.868,6.982,6.982,0,0,0,2.385,5.308M140.544,80.79c-1.842.387-3.494-.36-5.2-.652-.263-.045-.593-.3-.759,0a.68.68,0,0,0,.283.831,3.857,3.857,0,0,0,1.767.73c.91-.338.927.254,1.145.74a.574.574,0,0,0,.554.407c.248-.02.265-.291.377-.46.17-.258.128-.872.367-.787.872.308.972-.609,1.468-.811M28.682,92.463c.649,1.955,4.135,3.342,5.713,2.379-2.114-.253-3.759-1.39-5.713-2.379m111.429-4.839a1.139,1.139,0,0,1-1.208-.361.619.619,0,0,0-1,0c-.273.319-.524.275-.9.107-.485-.214-.731.251-.957.6-.117.18-.174.369.1.518a4.752,4.752,0,0,0,3.979-.864M9.963,80.2a10.815,10.815,0,0,0-2.97.76.578.578,0,0,0-.354.664c.019.343.3.473.546.569.3.113.432-.091.507-.365a1.149,1.149,0,0,1,.219-.314c.767.737,1.241-.536,1.991-.285.418.14.552-.317.565-.69.011-.315-.147-.448-.5-.34M6.21,87.981a.633.633,0,0,0,.688.538c.623.03,1.249.028,1.873.019.236,0,.512,0,.573-.324a.57.57,0,0,0-.379-.657c-.7-.356-1.495.021-2.228-.338-.257-.126-.4.472-.528.761m105.668,6.981a5.888,5.888,0,0,0,3.927-1.123.6.6,0,0,0,.278-.533c-.016-.158-.169-.214-.321-.157-1.335.507-2.537,1.3-3.884,1.813" transform="translate(0)" fill="#fff"/><path d="M224.746,258.348c1.036-1.125.956-2.534,1.433-3.741a31.146,31.146,0,0,0,1.091-3.794c.107-.42.366-.478.691-.479q3.274-.006,6.547,0c.4,0,.548.07.357.562a48.654,48.654,0,0,0-1.527,4.774c-.354,1.288-.864,2.553-1.286,3.834-.548,1.664-1.105,3.326-1.581,5.01-.092.327-.316.519-.42.8a3.541,3.541,0,0,0,.246,2.57c.425,1.191.771,2.431,1.182,3.642.563,1.657,1.05,3.34,1.568,5.012a32.4,32.4,0,0,1,1.144,3.825c.172.963.885,1.678.96,2.647a.367.367,0,0,0,.4.28c.215-.02.272-.222.292-.383a7.36,7.36,0,0,0,.059-1.049c-.156-8.335,0-16.671,0-25.006,0-2,0-4-.064-6-.016-.5.2-.524.543-.524,2.323,0,4.647.008,6.97-.006.572,0,.592.33.59.757-.011,1.97-.008,3.94-.008,5.909q0,13.349,0,26.7c0,1.44,0,1.441-1.4,1.441-4.927,0-9.854-.012-14.781.025-.727.006-.926-.282-1.109-.913-.722-2.492-1.5-4.967-2.294-7.439-.1-.307-.211-.8-.6-.775s-.589.549-.63.857c-.344,2.627-1.551,5.026-1.966,7.629a.683.683,0,0,1-.8.638c-2.253-.012-4.506-.012-6.758-.017-.6,0-.853-.1-.481-.8.478-.9.443-1.967.84-2.926,1.013-2.448,1.361-5.117,2.473-7.548a13.111,13.111,0,0,0,.609-2.395,26.248,26.248,0,0,1,1.241-3.955c.922-2.231-.053-4.184-.576-6.225-.379-1.479-.8-2.959-1.266-4.4a43.36,43.36,0,0,0-1.63-5.166c-.49-1.048-.306-1.4.8-1.4,1.936-.005,3.874.045,5.807-.022.837-.029,1.287.294,1.37,1.051.181,1.649.974,3.142,1.164,4.787a5.939,5.939,0,0,0,.8,2.2" transform="translate(-155.411 -182.7)" fill="#fff"/><path d="M189.311,464.644c-.113,1.355-.216,2.677-.317,4-.073.953-.477,1.826-.461,2.785.008.5-.432.462-.787.453-1.551-.035-3.037-.525-4.574-.653-.325-.027-.46-.24-.4-.5.219-.889.059-1.8.3-2.706a33.729,33.729,0,0,0,.506-4.909c.185-1.586.383-3.173.679-4.749a34.683,34.683,0,0,0,.375-4.405,7.574,7.574,0,0,1,.163-1.455c.052-.2.28-.512-.079-.626-.287-.092-.487.066-.641.38-.439.9-.6,1.88-1,2.8-1.275,2.927-2.133,6.018-3.5,8.917-1.255,2.664-3.046,3.87-5.441,3.8a7.631,7.631,0,0,1-3.383-1.019,8.328,8.328,0,0,1-3.406-2.816,6.344,6.344,0,0,1-.382-5.366c.772-2.515,1.829-4.941,2.754-7.41.691-1.845,1.38-3.692,2.04-5.548.267-.749.486-1.1,1.385-.557a15.252,15.252,0,0,0,3.175,1.315c1.366.451,1.537.549,1.019,1.747-.638,1.476-1.025,3.031-1.62,4.518q-1.618,4.039-3.128,8.121a1.446,1.446,0,0,0,.04,1.505.705.705,0,0,0,.793.1,1.337,1.337,0,0,0,.76-.952c.785-2.194,1.689-4.346,2.452-6.541a33.783,33.783,0,0,0,1.374-3.855c.227-1.044,1.014-1.905,1.1-3.022.015-.206.222-.248.413-.186a25.185,25.185,0,0,1,5.186,2.261c.143.085.257.266.435.231,1.312-.259,2.49.534,3.791.455.855-.053,1.615.558,2.517.485.355-.029.314.4.312.67-.01,1.708.583,3.341.629,5.042.008.269-.015.645.368.638.334-.006.2-.375.274-.584a8.575,8.575,0,0,0,.381-3.532c-.037-.663.428-1.166.477-1.815.038-.5.646-.369.858-.251,1.274.713,2.686.317,4.015.553.645.114.832.279.779.891-.165,1.9-.5,3.768-.755,5.65-.194,1.449-.265,2.925-.426,4.387a3.924,3.924,0,0,1-.273,1.746.744.744,0,0,0,.082.889c.27.276.554.045.86-.038,1.3-.354,2.608-.648,3.915-.958.688-.163.723.461.879.824a6.484,6.484,0,0,1,.36,1.488c.056.337.227.52.544.527.414.009.474-.292.537-.634a6.218,6.218,0,0,0-.524-2.829c-.25-.91-.373-1.829-.56-2.743a28.251,28.251,0,0,1-.925-3.608c-.139-1.956-1.182-3.715-1.186-5.706,0-.724.222-.888.917-1.17,1.179-.477,2.5-.178,3.615-.925.713-.477,1.139-.008,1.426.767a10.522,10.522,0,0,0,.705,2.377c.233.359.054.963.145,1.441.362,1.914.956,3.77,1.3,5.7a44.018,44.018,0,0,1,1.094,5.925,5.186,5.186,0,0,1-2.74,5.219c-2.332,1.172-4.765,1.818-7.278.6a4.893,4.893,0,0,1-2.513-3.435c-.112-.443-.186-.93-.681-.878-.449.047-.443.591-.4.954a21.4,21.4,0,0,1-.406,3.963c-.052.66-.55.63-.923.53-1.6-.429-3.276-.143-4.874-.605a1.156,1.156,0,0,1-.926-1.075,30.667,30.667,0,0,1-.555-5.324,2.427,2.427,0,0,0-.655-1.274" transform="translate(-121.556 -324.658)" fill="#fff"/><path d="M161.717,112.721q0,5.009,0,10.018c0,1.645-.032,1.655-1.625,1.66-3.264.01-6.528.049-9.791.058-1.6,0-2.171-.421-2.487-1.994-.215-1.072-1.086-1.869-1.146-2.994-.011-.2-.28-.35-.493-.316-.314.05-.306.352-.309.59-.015,1.16-.072,2.323,0,3.477.06,1-.362,1.33-1.29,1.265a29.9,29.9,0,0,0-4.217.009c-.723.052-1.012-.306-1.009-1.01q.026-9.121.026-18.243a.942.942,0,0,1,.9-1.066,22.964,22.964,0,0,0,4.358-1.052c.926-.351,1.188-.086,1.192.889,0,.773,0,1.546.025,2.319.006.227-.092.549.216.634s.473-.255.521-.422c.284-1.005.9-1.87,1.191-2.858a1.518,1.518,0,0,1,1.43-1.275c1.618-.18,3.223-.555,4.843-.62,2.185-.086,4.314-.61,6.5-.663.843-.02,1.111.233,1.105,1.051-.026,3.514-.011,7.028-.011,10.542h.073m-6.631-10.488c-.581.163-.686.637-.835,1.05-.331.913-.883,1.714-1.268,2.607-.851,1.973-1.858,3.88-2.809,5.809-.075.153-.186.259-.127.468a29.175,29.175,0,0,0,2.006,4.327c.72,1.542,1.3,3.149,2.161,4.632.247.427.233,1.208.829,1.1.516-.094.323-.841.324-1.3.016-5.195.033-10.39-.015-15.584a9.4,9.4,0,0,0-.266-3.11" transform="translate(-101.697 -73.813)" fill="#fff"/><path d="M234.955,114.9c0,1.891-.074,3.718.019,5.536.116,2.273.068,2.382-2.169,2.36-.879-.009-1.76-.028-2.637.025-.834.051-1.117-.3-1.115-1.108.017-6.292.011-12.585.014-18.877,0-.316.028-.632.024-.948-.033-2.5-.036-2.529,2.48-2.7,1.191-.081,2.391-.02,3.587-.049a.586.586,0,0,1,.671.5,29.85,29.85,0,0,1,1.11,4.961,5.178,5.178,0,0,0,.679,1.856,4.234,4.234,0,0,0,.188-2.549,16.143,16.143,0,0,1-.137-4.186c0-.571.3-.785.775-.725a40.157,40.157,0,0,0,4.423.085c.6.01.785.183.777.794-.1,7.346-.109,14.692.029,22.038.012.623-.216.9-.846.908-1.582.017-3.163.055-4.745.094a1.015,1.015,0,0,1-1.17-.957c-.129-2.174-1.333-4.12-1.292-6.324.007-.384-.238-.633-.664-.735" transform="translate(-167.169 -72.25)" fill="#fff"/><path d="M289.976,111.372a30.162,30.162,0,0,1,.748-7.528,6.139,6.139,0,0,1,4.138-4.862,7.67,7.67,0,0,1,8.168,2.982,10.163,10.163,0,0,1,1.4,5.221c.025.6-.22.8-.811.768-1.508-.086-3.019-.137-4.529-.185-.6-.019-.76-.382-.806-.893-.06-.664-.154-1.325-.215-1.988-.036-.4-.207-.7-.62-.712a.62.62,0,0,0-.629.6c0,1.272-.538,2.469-.47,3.753.031.582.206.757.8.78,2.139.083,4.274.27,6.414.349.688.025.9.228.891.917-.028,3.547-.02,7.1,0,10.643.006.915-.29,1.4-1.291,1.3-1.19-.111-2.4.323-3.583-.364-.547-.317-1.109.433-1.732.579-4.02.94-6.855-.947-7.34-4.956-.262-2.165-.431-3.994-.537-6.408m8.456,3.91c.008-.226.033-.571-.209-.631-.559-.138-1.193-.527-1.7-.2-.4.265-.063.825.049,1.257.1.4.13.825.216,1.233a.848.848,0,0,0,.616.641c.294.076.539-.194.613-.455.17-.6.275-1.218.41-1.848" transform="translate(-211.615 -72.039)" fill="#fff"/><path d="M375.766,426.817c.167,1.658-.969,3.126-2.235,4.4-1.741,1.755-3.7,3.3-5.5,4.989-.505.473-.775.434-1.168-.049-1.115-1.367-2.208-2.756-3.386-4.068-1.657-1.845-3.176-3.807-4.766-5.7-1.242-1.483-2.509-2.976-3.627-4.573a1.027,1.027,0,0,1,.261-1.553c2.185-1.767,4.075-3.87,6.327-5.558a4.729,4.729,0,0,1,6.306.993,5.888,5.888,0,0,1,1.6,4.149c-.048.511.257.55.647.59,3.159.326,5.41,2.788,5.544,6.384m-7.522-1.193c-.64-.083-.908.046-1.146.376-.26.36-.054.6.12.841.376.532.822,1.018,1.157,1.573.366.606.765.347.961-.005.166-.3.736-.508.371-1.051-.47-.7-.76-1.554-1.463-1.733m-3.72-3.986c-.368-.405-.368-1.03-.9-1.337a.807.807,0,0,0-1.046.067c-.374.349-.194.69.092.991.231.244.494.458.714.71.173.2.274.593.609.358a2.8,2.8,0,0,0,.535-.789" transform="translate(-258.965 -302.112)" fill="#fff"/><path d="M350.844,119.834a6.686,6.686,0,0,1,2.8.361c.413.167.558.307.517.729a1.7,1.7,0,0,0,.337,1.386c.222.25.319.7.772.56a.988.988,0,0,0,.606-.918c.145-1.04-.644-1.989-1.883-2.592-1.633-.795-3.334-1.581-4.374-3.157a7.871,7.871,0,0,1-1.213-5.338,16.148,16.148,0,0,1,.627-2.563c.45-1.607,2.7-3.082,4.748-2.929a9,9,0,0,1,6.148,2.466,7.241,7.241,0,0,1,1.964,5.642c-.022.434-.295.495-.656.448a33.133,33.133,0,0,1-4.673-.659c-.7-.194-.645-.8-.657-1.286a1.43,1.43,0,0,0-.689-1.413c-.2-.107-.409.043-.515.252a1.575,1.575,0,0,0,.09,1.7,4.3,4.3,0,0,0,1.414,1.193,15.293,15.293,0,0,1,4.217,2.742,6.1,6.1,0,0,1,1.964,5.044,6.255,6.255,0,0,1-.921,3.576,5.952,5.952,0,0,1-3.476,2.406,10.873,10.873,0,0,1-6.49-.253,5.744,5.744,0,0,1-3.34-4.465,4.025,4.025,0,0,1,0-.527c-.013-2.385-.013-2.385,2.69-2.4" transform="translate(-254.085 -76.904)" fill="#fff"/><path d="M325.261,449.827c-.157-1.139.892-1.1,1.408-1.451,1.2-.816,2.6-1.333,3.766-2.186.756-.555,1.141-.16,1.48.252,1.333,1.616,2.659,3.235,4.02,4.828,1.531,1.791,3.043,3.6,4.552,5.411,1.3,1.554,2.451,3.226,3.886,4.674.279.282.119.651-.287.84-1.57.731-3.01,1.692-4.522,2.524-.989.544-1.2-.589-1.588-1.061a6.425,6.425,0,0,1-.677-1.016c-.218-.41-.572-.328-.915-.181-.094.04-.222.1-.248.185-.236.718-1.832.235-1.38,1.417a10.466,10.466,0,0,0,.69,2.052c.367.569.119.757-.376,1.015-1.379.719-2.746,1.467-4.08,2.265-.9.54-1.119.463-1.338-.558-.537-2.509-.99-5.046-1.717-7.5-.417-1.409-.475-2.87-.965-4.263a43.2,43.2,0,0,1-1.309-5.975c-.091-.458-.636-.781-.4-1.272m7.036,5.935c-.163.926.359,1.553.624,2.267.131.353.173.653.567.419.265-.157.662-.491.363-.84-.5-.586-.776-1.377-1.554-1.846" transform="translate(-237.341 -325.476)" fill="#fff"/><path d="M121.122,426.391a6.526,6.526,0,0,1-3.914-1.48c-.594-.521-1.137-.656-1.681.23-.993,1.617-2.132,3.144-3.175,4.732-.246.375-.349.406-.678.079a21.228,21.228,0,0,0-3.566-2.65c-.7-.455-.868-.888-.324-1.683,1.887-2.764,3.669-5.6,5.518-8.389,1.511-2.28,3.13-4.488,4.5-6.866.3-.514.746-.812,1.45-.238,1.659,1.354,3.372,2.651,5.143,3.854a6.936,6.936,0,0,1,2.8,3.38c.844,2.353-.063,4.383-1.37,6.312a5.442,5.442,0,0,1-4.7,2.72m.317-7.869a.875.875,0,0,0-.361-.819c-.4-.227-.535.154-.751.353a15.331,15.331,0,0,0-1.189,1.677c-.362.431-.116.51.2.63,1.187.449,1.953-.908,2.1-1.842" transform="translate(-78.427 -299.124)" fill="#fff"/><path d="M372.057,310.259a13.719,13.719,0,0,0-4.971.477.84.84,0,0,1-.41.08c-.429-.075-.658.839-1.04.329-.346-.463.34-.78.574-1.1a4.77,4.77,0,0,1,3.6-1.89c1.464-.127,2.947-.018,4.421-.033.808-.009,1.476.645,2.33.439.458-.11.985.141,1.4-.277a.28.28,0,0,1,.453.043c.121.189-.044.289-.171.421a5.413,5.413,0,0,1-3.447,1.5,23.633,23.633,0,0,1-2.736.021" transform="translate(-266.781 -224.875)" fill="#fff"/><path d="M124.6,308.373c2.255.461,4.377-.671,6.58-.391,1.148.146,2.3-.079,3.46.408a6.788,6.788,0,0,1,2.728,2.27.449.449,0,0,1,.04.381c-.062.15-.213.126-.353.049a10.517,10.517,0,0,0-5.8-.95,12.18,12.18,0,0,1-5.155-.5c-.636-.245-.993-.808-1.505-1.263" transform="translate(-90.935 -224.765)" fill="#fff"/><path d="M447.175,255.276a8.065,8.065,0,0,1,4.513.459c.578.233,1.15.48,1.726.719a.627.627,0,0,1,.4.759,2.529,2.529,0,0,1-2.183,1.639,10.285,10.285,0,0,0-5.234.592c-.346.149-.868.271-1.071-.05-.251-.4.325-.52.537-.763a5.4,5.4,0,0,1,3.366-1.758c.319-.051.862-.055.861-.436,0-.469-.522-.464-.91-.489a5.347,5.347,0,0,1-2.007-.674" transform="translate(-324.966 -186.23)" fill="#fff"/><path d="M481.142,262.863c1.1.288,2.28.586,3.453.921.213.061.47.244.436.523-.039.322-.346.294-.584.32a1.807,1.807,0,0,1-1.31-.247,5.251,5.251,0,0,0-2.2-.877c-.266-.044-.663-.031-.6-.414.066-.4.464-.119.8-.227" transform="translate(-350.56 -191.865)" fill="#fff"/><path d="M67.668,255.2c-1.026.687-2.16.486-3,1.2.814.781,1.934.521,2.764,1.085a5.63,5.63,0,0,1,1.687,1.352c.108.158.394.227.294.481a.44.44,0,0,1-.638.166,10.563,10.563,0,0,0-3.671-.72,4.735,4.735,0,0,0-1.657.026c-.447.087-.973.317-1.37-.167-.431-.526-1.22-.922-1.067-1.7.15-.761,1.01-.733,1.6-1.007a8.855,8.855,0,0,1,5.061-.72" transform="translate(-44.511 -186.204)" fill="#fff"/></g></svg>