<svg xmlns="http://www.w3.org/2000/svg" xmlns:xlink="http://www.w3.org/1999/xlink" width="210" height="88" viewBox="0 0 210 88"><defs><clipPath id="a"><rect width="210" height="88" fill="#fff"/></clipPath></defs><g clip-path="url(#a)"><path d="M54.729,0c1.46.54,3.009.271,4.51.5A25.572,25.572,0,0,1,70.631,4.819a12.606,12.606,0,0,1,4.689,5.809,19.189,19.189,0,0,1,1.054,9.5c-.68,5.006-3.063,9.293-6.078,13.174a46.912,46.912,0,0,1-7.248,7.247,58.055,58.055,0,0,1-11.941,7.222,31.822,31.822,0,0,1-16.971,3.039A13.17,13.17,0,0,1,22.97,43.577a13.563,13.563,0,0,1-.851-9.106C23.611,27.2,27.757,21.7,33.73,17.378a41.181,41.181,0,0,1,9.393-5.044A33.874,33.874,0,0,1,55.414,10.3c1.8,0,2.37.666,2.224,2.4a1.628,1.628,0,0,1-1.3,1.57c-1.692.547-3.46.389-5.176.715-7.545,1.431-14.243,4.366-18.919,10.787a13.519,13.519,0,0,0-2.471,11,8.744,8.744,0,0,0,6.668,6.178c5.646.88,10.884-.38,16.076-2.521a38.359,38.359,0,0,0,9.638-5.814A23.139,23.139,0,0,0,70,23.329c.626-2.076,1.571-4.094,1.281-6.332-.537-4.147-2.1-7.491-6.211-9.468C60,5.094,54.763,5.391,49.467,5.744A37.324,37.324,0,0,0,39.176,8.308a40.909,40.909,0,0,0-10.217,5.684A49.031,49.031,0,0,0,19.009,23.4,41.724,41.724,0,0,0,11.86,36.114a33.915,33.915,0,0,0-1.929,9.945c-.039,4.062.453,7.921,3.035,11.4a18.6,18.6,0,0,0,13.015,7.6,35.663,35.663,0,0,0,8.365.006,42.109,42.109,0,0,0,13.171-3.742,54.661,54.661,0,0,0,8.063-4.342,2.466,2.466,0,0,0,.791-.945c1.43-2.568,2.85-5.139,4.516-7.577a34.248,34.248,0,0,1,5.664-6.476c3.252-2.853,6.555-5.746,11.3-5.62,3,.08,4.255,2.4,3.667,4.972-.995,4.347-2.478,8.581-3.522,12.919-.787,3.267-1.164,6.589.177,9.9.791,1.954,2.876,2.334,4.962,1.46a12.241,12.241,0,0,0,4.4-3.754c.658-.775.618-2,.739-2.969.372-2.965,1.891-5.391,3.305-7.84a19.9,19.9,0,0,1,7.61-7.553,18.037,18.037,0,0,1,2.8-1.34,1.4,1.4,0,0,0,1.1-1.638,21.6,21.6,0,0,0-2.407-9.109c-.8-1.467-1.553-2.982-2.276-4.5a3.2,3.2,0,0,1,1.707-4.259c1.3-.694,2.74-.347,3.983,1.289,3.226,4.242,7.559,5.508,12.655,4.913a17.6,17.6,0,0,0,4.77-1.214,4.717,4.717,0,0,0,2.136-1.838,12.754,12.754,0,0,1,3.946-3.847,2.876,2.876,0,0,1,4.066,3.993c-1.113,2.079-2.959,3.544-4.369,5.368a32.954,32.954,0,0,0-4.751,8.811c-.27.73-.483,1.481-.719,2.224-.153.484-.295.794.535.674,4.5-.652,7.43,1.8,7.779,6.4.059.782.3,1.552.336,2.334.052,1.235.512,1.423,1.671,1.063a16.193,16.193,0,0,0,7.044-4.934c.872-.945,1.818-1.831,2.613-2.837.886-1.121,3.478-1.048,4.431-.248a3.028,3.028,0,0,1,.251,3.915,71.1,71.1,0,0,0-5.286,7.982,14.948,14.948,0,0,0-2.129,6.632c-.037,1.8,1.028,2.688,2.589,1.9a8.138,8.138,0,0,0,4.821-6.15A22.269,22.269,0,0,1,152.644,47a4.611,4.611,0,0,1,3.854-1.588c1.492.19,2.458,1.856,2.156,3.763a19.631,19.631,0,0,1-3.027,7.43,60.157,60.157,0,0,1-4.209,5.254,1.866,1.866,0,0,0-.111,2.064,1.62,1.62,0,0,0,2.029.791c1.652-.473,2.75-1.721,3.915-2.9a35.44,35.44,0,0,0,6.072-8.458A4.689,4.689,0,0,0,163.8,50.7c-.236-3.311.573-6.232,3.453-8.23a3.167,3.167,0,0,1,2.564-.683c1.583.365,2.207,1.518,2.012,3.583a5.378,5.378,0,0,1-.9,2.568c-.456.661-.161.926.578.9a8.823,8.823,0,0,0,3.6-1.04,2.158,2.158,0,0,1,2.7.54,2.351,2.351,0,0,1,.462,2.548c-.63,1.825-2.049,3.079-3.075,4.613a16.066,16.066,0,0,0-3.161,8.637c-.028,1.259.827,1.81,2.006,1.286a16.709,16.709,0,0,0,4.843-3.883C182.4,58,185.438,54.044,188.609,50.2c1.181-1.431,2.278-3.1,4.4-3.415,1.892-.278,3.052,1.048,2.641,2.937-.422,1.939-1.806,3.321-2.712,4.97-1.445,2.628-3.172,5.094-3.405,8.218-.06.8-.268,1.72.388,2.225s1.445.126,2.177-.292a20.489,20.489,0,0,0,6.32-6.26c1.891-2.65,3.549-5.458,5.452-8.1.761-1.057,1.234-2.248,2.648-2.711,1.561-.512,2.636-.1,3.232,1.474.04.106.165.179.251.267v2.634c-.54,1.3-1.139,2.579-1.675,3.858-1.614,3.857-3.849,7.382-5.594,11.168-1.914,4.15-4.29,8.083-6.363,12.162a66.643,66.643,0,0,0-3.261,7.776c-.128.358-.209.806-.685.881s-.679-.334-.9-.646c-.626-.886-1.159-1.849-1.862-2.667a3.2,3.2,0,0,1-.231-3.888c2.226-4.354,4.495-8.686,6.731-13.034.154-.3.532-.621.079-1.132A12.257,12.257,0,0,1,193.18,69.4c-1.46,1.108-2.866,2.31-4.77,2.68-2.032.4-4.393-.643-4.89-2.4a8.88,8.88,0,0,1-.387-4.776,2.628,2.628,0,0,0-.087-1.712,6.056,6.056,0,0,0-.67.566,35.387,35.387,0,0,1-8.987,7.732c-2.591,1.512-6.455,1.2-7.317-2.878a12.14,12.14,0,0,1,.711-6.917c.884-2.354,1.5-4.9,3.4-6.757a.5.5,0,0,0,.117-.6c-.1-.229-.322-.387-.519-.3-1.347.562-3.172.11-3.9,2.011a25.78,25.78,0,0,1-2.444,4.285c-2.5,4.024-5.147,7.908-9.032,10.792-2.232,1.657-6.256,1.727-7.986-1.689-.73-1.441-.724-1.373-2.055-.338a14.424,14.424,0,0,1-6.177,3.179c-3.339.63-4.954-1.308-5.577-3.743a13.141,13.141,0,0,1,.513-7.488c.322-.944.64-1.889.931-2.843.071-.232.154-.548-.129-.707-.209-.118-.409.045-.593.172a17.609,17.609,0,0,1-3.3,1.541c-.283.119-.628.133-.675.514a16.046,16.046,0,0,1-1.961,5.205c-1.24,2.465-2.529,4.932-4.815,6.687a5.785,5.785,0,0,1-6.322.594c-2.993-1.718-4.019-4.565-4.223-7.759a40.432,40.432,0,0,1,.223-8.266,64.025,64.025,0,0,1,2.774-11.914,89.755,89.755,0,0,1,3.587-9.483,6.407,6.407,0,0,0-1.332.012,16.1,16.1,0,0,1-7.8.028c-.676-.167-.728.115-.7.776.25,6.08.323,12.141-1.21,18.119-1.061,4.139-2.26,8.208-4.691,11.763-1.5,2.2-2.757,4.6-5.115,6.132-3.458,2.242-7.716,1.582-9.43-2.5-.352-.838-.811-.885-1.483-.369-.718.551-1.476,1.049-2.2,1.6-3.833,2.907-9.881,2.784-12.726-1.639a13.015,13.015,0,0,1-1.56-3.424c-.076-.262-.183-.634-.558-.64-.112,0-.261.212-.336.358A15.149,15.149,0,0,1,61.8,72.372c-2.9,1.22-5.928.377-6.831-3.636a24.91,24.91,0,0,1-.231-4.581c-.025-.613-.143-.821-.751-.437a74.031,74.031,0,0,1-8.978,4.338,59.983,59.983,0,0,1-13.782,4.1,29.2,29.2,0,0,1-9.371.261c-5.5-.715-10.486-2.448-14.737-6.178A20.075,20.075,0,0,1,.422,53.46,39.461,39.461,0,0,1,2.163,34.617a45.151,45.151,0,0,1,8.005-14.074,64.639,64.639,0,0,1,9.22-8.93A56.514,56.514,0,0,1,35.4,3.18,40.916,40.916,0,0,1,46.558.406C47.512.339,48.571.586,49.475,0ZM75.214,44.817c.023-1.211-.846-1.88-1.841-1.563a4.171,4.171,0,0,0-1.241.683c-5.745,4.344-8.393,10.494-10.05,17.228a4.147,4.147,0,0,0-.017,2.691,1.173,1.173,0,0,0,2.063.444,53,53,0,0,0,5.132-7.062,94.734,94.734,0,0,0,4.969-9.645,22.043,22.043,0,0,0,.984-2.777m49.466,8.76c-.084-1.147-.086-2.071-.23-2.973a2.032,2.032,0,0,0-3.4-1.336,5.422,5.422,0,0,0-1.717,2.35c-1.383,3.632-2.15,7.31-1.319,11.218.23,1.083.572,1.9,1.7,2.166A1.981,1.981,0,0,0,122,63.713a26.675,26.675,0,0,0,2.681-10.136M93.864,61.755c0,.525-.022,1.051,0,1.575.077,1.542,1.163,2.134,2.493,1.351a8,8,0,0,0,1.919-1.933c1.54-1.828,2.194-4.115,3.043-6.261a21.717,21.717,0,0,0,1.746-7.424c.016-.638-.1-1.127-.85-.8a9.063,9.063,0,0,0-2.377,1.322c-3.642,3.224-5.9,7.168-5.978,12.167" transform="translate(0)" fill="#fff"/></g></svg>