<svg xmlns="http://www.w3.org/2000/svg" xmlns:xlink="http://www.w3.org/1999/xlink" width="210" height="43" viewBox="0 0 210 43"><defs><clipPath id="a"><rect width="210" height="43" fill="none"/></clipPath></defs><g transform="translate(0 0)"><g transform="translate(0 0)" clip-path="url(#a)"><path d="M240.638,5a15.5,15.5,0,0,0-4.1-.545c-.474,0-.955.021-1.439.064A15.217,15.217,0,0,0,224.863,9.63a11.594,11.594,0,0,0,5.131,7.343c.148-.008.3-.018.448-.032a14.55,14.55,0,0,0,12.2-8.228,11,11,0,0,0-2-3.709Z" transform="translate(-33.277 -0.69)"/><path d="M234.66,3.744a12.659,12.659,0,0,1,6.273.71A11.221,11.221,0,0,0,225.8,2.045a10.617,10.617,0,0,0-1.146,4.806,10.733,10.733,0,0,0,.2,2.056c2.108-2.913,5.539-4.671,9.8-5.165Z" transform="translate(-33.247 -0.019)" fill="#fff"/><path d="M234.66,3.744a12.659,12.659,0,0,1,6.273.71A11.221,11.221,0,0,0,225.8,2.045a10.617,10.617,0,0,0-1.146,4.806,10.733,10.733,0,0,0,.2,2.056c2.108-2.913,5.539-4.671,9.8-5.165Z" transform="translate(-33.247 -0.019)" fill="none" stroke="#000" stroke-miterlimit="10" stroke-width="0.25"/><path d="M244.718,16.145a9.054,9.054,0,0,0-.962,3.214,11,11,0,0,0,1.776-10.165c-.156.369-.333.724-.521,1.073a13.358,13.358,0,0,1-.293,5.882Z" transform="translate(-36.073 -1.423)" fill="#fff"/><path d="M240.343,16.56a6.3,6.3,0,0,1-.763-1.205,15.682,15.682,0,0,1-8.671,3.361,13.614,13.614,0,0,0,6.964,2.209,16.706,16.706,0,0,0,1.8-.028c.459-.5,1.241-1.357,1.569-1.765.481-.6-.3-1.854-.9-2.572" transform="translate(-34.172 -2.376)" fill="#fff"/><path d="M240.343,16.56a6.3,6.3,0,0,1-.763-1.205,15.682,15.682,0,0,1-8.671,3.361,13.614,13.614,0,0,0,6.964,2.209,16.706,16.706,0,0,0,1.8-.028c.459-.5,1.241-1.357,1.569-1.765C241.728,18.533,240.948,17.278,240.343,16.56Z" transform="translate(-34.172 -2.376)" fill="none" stroke="#000" stroke-miterlimit="10" stroke-width="0.25"/><path d="M236.3,18.92c-6.884-.273-12.293-5.452-12.293-11.718A10.562,10.562,0,0,1,225.153,2.4a11.056,11.056,0,0,0,6.284,20.226,11.188,11.188,0,0,0,8.587-4,15.017,15.017,0,0,1-3.721.291Z" transform="translate(-32.598 -0.37)" fill="#fff"/><path d="M235.186,5.8c-1.36.244-1.88,1.431-2.346,1.779a7.539,7.539,0,0,1-.648.4,46.828,46.828,0,0,0-10.919,7.837,11.272,11.272,0,0,0,.679,1.464,48.964,48.964,0,0,1,8.541-6.636c.321-.194.216-.183.745-.513a17.29,17.29,0,0,0,2.43-1.729s1.992-1.682,2.263-1.392a3.163,3.163,0,0,1,.445.639c.037.072.314.09.348.161s-.17.208-.138.287c.192.492.253.99-.014,1.226-.332.291-.885.409-2.231.438a7.855,7.855,0,0,0-3.319,1.122,47.888,47.888,0,0,0-8.731,6.955,10.843,10.843,0,0,0,.922,1.234,43.719,43.719,0,0,1,9.115-7.181c.322-.19.159-.71.727-.689a9.616,9.616,0,0,0,1.724-.2,3.527,3.527,0,0,0,2.875-1.04c.872-.954.438-1.675.246-2.317a2.808,2.808,0,0,0-2.361-1.88,2,2,0,0,0-.351.032" transform="translate(-32.746 -0.893)" fill="#fff"/><path d="M238.527,6.557c-1.16.4-1.938,1.216-3.6,2.6a14.882,14.882,0,0,1,4.219-1.5c1.189-.305,2.712-.646,4.154-.9a11.461,11.461,0,0,0-.8-1.226,28.133,28.133,0,0,0-3.977,1.03Z" transform="translate(-34.767 -0.855)" fill="#fff"/><path d="M235.994,9.965s.485-.057,1.005-.093a3.788,3.788,0,0,0,1.7-.27A20.566,20.566,0,0,1,244,8.071a10.378,10.378,0,0,0-.593-1.241c-3.276.638-5.192,1.266-7.412,3.135Z" transform="translate(-34.925 -1.057)" fill="#fff"/><path d="M232.707,10.493c-.521-1.248.231-1.725,1.059-2.281a4.556,4.556,0,0,0,1.138-1.1c-.365.351-.69.419-1.9.512a1.88,1.88,0,0,0-1.616.929c-1.164,2.084.672,4.9,3.03,3.957.619-.248.941-.832,1.321-1.073a2.621,2.621,0,0,1,1.056-.28l-.821.008c-.759.007-2.642.807-3.264-.675" transform="translate(-34.19 -1.101)" fill="#fff"/><path d="M230.489,11.665a2.8,2.8,0,0,1-.694-1.848,2.691,2.691,0,0,1,.34-1.319,1.743,1.743,0,0,1,1.5-.854,8.642,8.642,0,0,0,1.265-.158,4.332,4.332,0,0,1-.6.481L232.264,8c-.8.538-1.627,1.091-1.067,2.428.527,1.259,1.876,1.012,2.773.85.1-.018.184-.032.271-.046a2.835,2.835,0,0,0-.416.377,2.469,2.469,0,0,1-.835.645,2.153,2.153,0,0,1-2.495-.581M232.47,8.2a4.547,4.547,0,0,0,1.12-1.065l.152-.183a2.736,2.736,0,0,1,1.569-.962,1.919,1.919,0,0,1,1.413.316c-.087.029-.177.057-.263.09A8.731,8.731,0,0,0,233.7,8.275L232.853,9a17.2,17.2,0,0,1-1.5,1c-.235-.893.343-1.288,1.066-1.768l.043-.029Zm2.777,1.715a3.021,3.021,0,0,0,1.4-.273,14.911,14.911,0,0,1,1.465-.592,1.688,1.688,0,0,1-.467.868,3.01,3.01,0,0,1-2.234.969l-.82.007a3.969,3.969,0,0,0-.677.094c-.738.133-1.627.294-2.158-.233a8.215,8.215,0,0,1,1.992-.714l.148-.018s.484-.057.994-.093l.354-.011Zm-3.793.366A17.926,17.926,0,0,0,233,9.251a12.928,12.928,0,0,1,3.735-1.37,12.128,12.128,0,0,0-2.9,1.843,8.458,8.458,0,0,0-2.26.793,1.417,1.417,0,0,1-.108-.212c0-.007-.008-.018-.011-.025m2.91-.614c2.029-1.6,3.887-2.192,7-2.8-.051-.093-.1-.183-.152-.276-1.389.248-2.86.574-4.115.893l-.311.079a22.117,22.117,0,0,0-2.824.861,8.141,8.141,0,0,1,2.6-1.761,27.957,27.957,0,0,1,4.024-1.036c-.061-.086-.126-.172-.192-.259a29.537,29.537,0,0,0-3.33.825,2.236,2.236,0,0,0-1.8-.491,3.116,3.116,0,0,0-1.855,1.187c-.315.294-.583.363-1.793.456a2.03,2.03,0,0,0-1.736,1,2.929,2.929,0,0,0-.343,1.03,49.187,49.187,0,0,0-8.219,6.334c.037.1.072.2.113.294a49.021,49.021,0,0,1,8.077-6.273,3.135,3.135,0,0,0,.245,1.295,49.325,49.325,0,0,0-7.769,6.158c.047.086.1.176.145.262a49.238,49.238,0,0,1,7.752-6.159c.032.061.072.126.108.187a47.176,47.176,0,0,0-7.683,6.27c.054.086.108.172.163.254a47.589,47.589,0,0,1,7.686-6.291c.037.046.072.09.109.133a2.55,2.55,0,0,0,.922.67A44.115,44.115,0,0,0,223.207,19c.061.075.126.147.191.218a43.631,43.631,0,0,1,8.143-6.585,2.534,2.534,0,0,0,1.544-.129,2.749,2.749,0,0,0,.94-.717,2.622,2.622,0,0,1,.406-.369,2.4,2.4,0,0,1,.983-.255,3.3,3.3,0,0,0,2.44-1.062,1.893,1.893,0,0,0,.557-1.166,23.849,23.849,0,0,1,3.518-.828c-.037-.094-.072-.183-.108-.276a20.724,20.724,0,0,0-5.3,1.535,2.741,2.741,0,0,1-1.276.248l-.372.011c-.184.011-.369.029-.524.043l.014-.011Z" transform="translate(-32.753 -0.831)" fill="#fff"/><path d="M230.489,11.665a2.8,2.8,0,0,1-.694-1.848,2.691,2.691,0,0,1,.34-1.319,1.743,1.743,0,0,1,1.5-.854,8.642,8.642,0,0,0,1.265-.158,4.332,4.332,0,0,1-.6.481L232.264,8c-.8.538-1.627,1.091-1.067,2.428.527,1.259,1.876,1.012,2.773.85.1-.018.184-.032.271-.046a2.835,2.835,0,0,0-.416.377,2.469,2.469,0,0,1-.835.645,2.153,2.153,0,0,1-2.495-.581M232.47,8.2a4.547,4.547,0,0,0,1.12-1.065l.152-.183a2.736,2.736,0,0,1,1.569-.962,1.919,1.919,0,0,1,1.413.316c-.087.029-.177.057-.263.09A8.731,8.731,0,0,0,233.7,8.275L232.853,9a17.2,17.2,0,0,1-1.5,1c-.235-.893.343-1.288,1.066-1.768l.043-.029Zm2.777,1.715a3.021,3.021,0,0,0,1.4-.273,14.911,14.911,0,0,1,1.465-.592,1.688,1.688,0,0,1-.467.868,3.01,3.01,0,0,1-2.234.969l-.82.007a3.969,3.969,0,0,0-.677.094c-.738.133-1.627.294-2.158-.233a8.215,8.215,0,0,1,1.992-.714l.148-.018s.484-.057.994-.093l.354-.011Zm-3.793.366A17.926,17.926,0,0,0,233,9.251a12.928,12.928,0,0,1,3.735-1.37,12.128,12.128,0,0,0-2.9,1.843,8.458,8.458,0,0,0-2.26.793,1.417,1.417,0,0,1-.108-.212c0-.007-.008-.018-.011-.025m2.91-.614c2.029-1.6,3.887-2.192,7-2.8-.051-.093-.1-.183-.152-.276-1.389.248-2.86.574-4.115.893l-.311.079a22.117,22.117,0,0,0-2.824.861,8.141,8.141,0,0,1,2.6-1.761,27.957,27.957,0,0,1,4.024-1.036c-.061-.086-.126-.172-.192-.259a29.537,29.537,0,0,0-3.33.825,2.236,2.236,0,0,0-1.8-.491,3.116,3.116,0,0,0-1.855,1.187c-.315.294-.583.363-1.793.456a2.03,2.03,0,0,0-1.736,1,2.929,2.929,0,0,0-.343,1.03,49.187,49.187,0,0,0-8.219,6.334c.037.1.072.2.113.294a49.021,49.021,0,0,1,8.077-6.273,3.135,3.135,0,0,0,.245,1.295,49.325,49.325,0,0,0-7.769,6.158c.047.086.1.176.145.262a49.238,49.238,0,0,1,7.752-6.159c.032.061.072.126.108.187a47.176,47.176,0,0,0-7.683,6.27c.054.086.108.172.163.254a47.589,47.589,0,0,1,7.686-6.291c.037.046.072.09.109.133a2.55,2.55,0,0,0,.922.67A44.115,44.115,0,0,0,223.207,19c.061.075.126.147.191.218a43.631,43.631,0,0,1,8.143-6.585,2.534,2.534,0,0,0,1.544-.129,2.749,2.749,0,0,0,.94-.717,2.622,2.622,0,0,1,.406-.369,2.4,2.4,0,0,1,.983-.255,3.3,3.3,0,0,0,2.44-1.062,1.893,1.893,0,0,0,.557-1.166,23.849,23.849,0,0,1,3.518-.828c-.037-.094-.072-.183-.108-.276a20.724,20.724,0,0,0-5.3,1.535,2.741,2.741,0,0,1-1.276.248l-.372.011c-.184.011-.369.029-.524.043l.014-.011Z" transform="translate(-32.753 -0.831)" fill="none" stroke="#000" stroke-miterlimit="10" stroke-width="0.15"/><path d="M244.333,10.417a11.869,11.869,0,0,1-3.53,4.136c-2.41,1.73-1.435,3.378-1.435,3.378l1.388,2.172s2.252-.049,2.321-.593,2.331-4.8,1.685-8.25v-1.09Z" transform="translate(-35.395 -1.573)" fill="#fff"/><path d="M240.858,21.77s2.065-.172,2.319-.257" transform="translate(-35.645 -3.329)" fill="#fff"/><path d="M240.858,21.77s2.065-.172,2.319-.257" transform="translate(-35.645 -3.329)" fill="none" stroke="#000" stroke-miterlimit="10" stroke-width="0.1"/><path d="M90.535,36.153c1.191-3.6,2.808-6.915,3.811-10.415.4-1.381.841-2.741,1.351-4.07a3.855,3.855,0,0,1,4.718-1.8c.6.267.53.639.375,1.065-1.68,4.625-3.342,9.257-5.071,13.865-1.233,3.287-2.672,6.5-3.787,9.825-.44,1.31-1.169,1.321-2.2,1.319a1.809,1.809,0,0,1-2-1.29c-1.556-3.547-1.816-7.528-3.968-11.175-1.379,3.73-2.847,7.221-3.932,10.825-.587,1.95-1.857,1.537-3.164,1.613-1.589.093-1.211-1.066-1.5-1.979q-2.095-6.538-4.43-13c-1.282-3.542-1.868-7.309-3.8-10.652,4.81-1.157,5.15-.915,6.767,3.03,1.776,4.333,2.41,9.035,4.6,13.244,3-5.169,4.55-10.521,1.355-16.276,5.063-1.269,5.334-.847,6.687,3.616,1.24,4.088,2.547,8.178,4.193,12.259" transform="translate(-9.905 -3.036)" fill="#fff"/><path d="M120.729,45.917c-7.955.715-13.624-5.766-13.555-13.087.078-8.37,6.163-13.575,13.794-13.567,8.318.009,13.581,5.568,13.761,13.426.146,6.332-5.273,14.077-14,13.228m8.176-12.979c-.573-5.783-2.773-9.393-8.024-9.407-5.021-.014-7.712,3.089-7.8,9.2s3.065,9.377,7.859,9.377c5,0,7.354-3.618,7.961-9.171" transform="translate(-15.861 -2.981)" fill="#fff"/><path d="M.051,32.893c0-3.719.008-7.437-.006-11.155,0-1.037-.1-2.022,1.469-1.953,4.709.205,9.376-.2,14.053,1.446,6.448,2.264,9.758,10.62,6.948,16.043C19.544,43,14.746,45.683,8.41,45.921,6.4,46,4.377,45.8,2.38,45.974.368,46.147-.064,45.334.007,43.5c.136-3.532.04-7.073.044-10.609m5.534-.005H5.538c0,1.721,0,3.442,0,5.163.01,3.662.986,4.409,4.576,3.433a22.808,22.808,0,0,0,2.28-.9A8.577,8.577,0,0,0,17.134,30C15.5,25.338,10.927,22.843,6.57,24.159c-.965.292-.982.929-.983,1.665-.005,2.354,0,4.709,0,7.064" transform="translate(0 -3.061)" fill="#fff"/><path d="M193.238,33c0-3.714.055-7.429-.028-11.141-.033-1.48.354-2.11,1.972-2.055,4.614.156,9.21-.3,13.718,1.559,3.547,1.461,7.333,5.87,7.353,9.7.046,9.108-5.78,14.832-15.124,14.857-1.918.005-3.842-.092-5.751.032-1.632.107-2.254-.336-2.185-2.086.142-3.618.043-7.245.045-10.868m5.533-.116h.016c0,2.353.046,4.708-.019,7.059-.036,1.308.488,1.72,1.776,1.713,3.325-.019,6.091-.851,8.253-3.689a8.529,8.529,0,0,0,.676-10.019,8.987,8.987,0,0,0-9.736-3.811c-.956.293-.964.951-.964,1.686q-.006,3.53,0,7.06" transform="translate(-28.59 -3.064)" fill="#fff"/><path d="M165.423,45.949c-2.169,0-3.883-.083-5.586.025-1.376.088-1.611-.959-2.1-1.766-1.575-2.6-3.152-5.2-4.665-7.84a2.379,2.379,0,0,0-2.645-1.443c-1.558.26-1.018,1.525-1.057,2.393a52.7,52.7,0,0,0-.01,6.521c.16,2.022-.869,2.308-2.451,2.078-1.322-.192-3.257.847-3.223-1.917.091-7.431.037-14.865,0-22.3-.005-1.155.149-1.958,1.592-1.876,4.32.247,8.654-.5,12.909,1.445a6.244,6.244,0,0,1,3.852,5.3,5.839,5.839,0,0,1-3.155,5.769c-1.509.889-1.627,1.321-.552,2.79,2.458,3.359,4.589,6.953,7.088,10.816M151.5,30.78c2.98.019,5.052-1.383,5.121-3.415.074-2.186-1.931-3.531-5.113-3.649-2.826-.1-2.221,2-2.108,3.392.115,1.407-1.235,4.057,2.1,3.672" transform="translate(-21.264 -3.067)" fill="#fff"/><path d="M32.271,32.844c0-3.62.066-7.242-.031-10.86-.043-1.6.348-2.309,2.116-2.191,4.218.283,8.513-.594,12.564,1.595,2.753,1.488,4.606,5.375,3.2,8.183a9.229,9.229,0,0,1-8.7,5.481c-3.971.037-3.575-.533-3.624,3.67a34.033,34.033,0,0,0,.043,4.881c.32,2.39-1.034,2.386-2.757,2.34-1.6-.043-3.016.248-2.861-2.243.225-3.607.058-7.237.058-10.857Zm5.394-5.468c.8,1.3-1.356,3.972,2.116,3.935,2.6-.027,5.011-1.871,5-3.946-.016-2.215-2.162-3.734-5.1-3.744-3.287-.01-1.241,2.51-2.01,3.755" transform="translate(-4.767 -3.061)" fill="#fff"/><path d="M172.142,32.766c0-3.623.143-7.254-.05-10.866-.13-2.428,1.374-2.082,2.8-2.051s3.158-.593,3.094,2.045c-.138,5.794.038,11.6-.092,17.388-.044,1.947.561,2.575,2.467,2.38,1.445-.148,2.924.057,4.378-.04,1.721-.114,2.607.178,2.63,2.286.023,2.133-1.025,2.063-2.513,2.04-3.469-.057-6.944-.132-10.406.019-1.879.082-2.363-.623-2.323-2.331.084-3.622.026-7.246.026-10.869h-.015" transform="translate(-25.467 -3.065)" fill="#fff"/></g></g></svg>