<svg xmlns="http://www.w3.org/2000/svg" width="208.999" height="92.501" viewBox="0 0 208.999 92.501"><g transform="translate(-165.745 -2262.556)"><path d="M206.758,13.715c-1.072,3.08-2.051,5.9-3.033,8.71-1.315,3.771-2.649,7.535-3.944,11.312q-1.612,4.7-3.145,9.433a39.723,39.723,0,0,0-1.782,5.355c-.1.562-.555.361-.938.384-1.831.108-3.557-.514-5.329-.783a62.719,62.719,0,0,1-7.336-1.634c-6.767-1.881-13.137-4.556-17.743-10.18a17.58,17.58,0,0,1-4.364-11.751,16.783,16.783,0,0,1,5.613-11.783c4.124-3.96,9.073-6.462,14.375-8.416a59.846,59.846,0,0,1,14.04-3.39c7.017-.78,14.068-1.446,21.186-.532,3.023.388,6.119.466,9.121,1.037A70.086,70.086,0,0,1,235.073,4.6,43.279,43.279,0,0,1,244.7,9.436c4.09,2.847,7.6,6.222,9.013,11.242,1.633,5.814.032,10.926-3.589,15.494-3.692,4.657-8.724,7.253-14.225,9.2-4.684,1.659-9.562,2.372-14.371,3.428-2.163.475-2.449.175-3.127-1.792-1.774-5.145-3.648-10.256-5.434-15.4-1.17-3.369-2.226-6.778-3.386-10.151-.86-2.5-1.806-4.971-2.821-7.747m-.009-5.79c3.446,4.522,6.836,8.932,10.183,13.373,2.788,3.7,5.6,7.381,8.256,11.176,1.379,1.973,2.8,2.844,5.2,1.78a19.313,19.313,0,0,1,2.492-.7,22.416,22.416,0,0,0,10.037-5.447,8.165,8.165,0,0,0,2.767-6.888c-.468-3.719-2.611-6.558-5.488-8.879-5.415-4.367-11.827-6.428-18.448-7.925A64.953,64.953,0,0,0,208.7,3.009a69.54,69.54,0,0,0-21.464,2.753,41.236,41.236,0,0,0-13.7,6.681,13.948,13.948,0,0,0-5.605,8.431c-.583,3.018,1.162,6.3,4.164,8.583a30.841,30.841,0,0,0,12.278,5.176c.841.188,1.9.577,2.678-.462q5.982-8.024,12.007-16.017c2.524-3.362,5.051-6.721,7.689-10.23" transform="translate(58.152 2262.556)" fill="#fff"/><path d="M336.177,225.4q0,3.866,0,7.732c0,2.258-.039,4.517.006,6.774.016.774-.217.99-.988,1.015-3.058.1-3.058.126-3.058-2.908,0-5.6.025-11.193-.019-16.789-.007-.959.238-1.292,1.216-1.234,1.367.081,2.742.031,4.113.019a1.664,1.664,0,0,1,1.805,1.275c1.765,4.727,3.692,9.392,5.288,14.182.077.231.123.594.675.618,0-4.852.06-9.692-.038-14.528-.028-1.372.418-1.753,1.648-1.548a2.734,2.734,0,0,0,.44,0c2.336,0,1.9-.065,1.906,1.85.02,5.94-.01,11.88.026,17.82.005.918-.174,1.335-1.2,1.248-1.119-.1-2.251-.018-3.378-.023-2.379-.009-2.294-.041-3.152-2.406-1.6-4.406-3.309-8.772-4.972-13.155l-.324.057" transform="translate(-58.8 2113.842)" fill="#fff"/><path d="M72.976,225.324v11.865c0,.2,0,.393,0,.589.014,3.284.016,3.261-3.256,3-.658-.052-.814-.277-.813-.885q.021-9.577-.009-19.153c0-.754.306-.9.961-.889,1.518.033,3.038.017,4.557.017a1.53,1.53,0,0,1,1.571,1.192c1.793,4.722,3.7,9.4,5.306,14.194a1.092,1.092,0,0,0,.755.839c0-4.564,0-9.011,0-13.457,0-3.064,0-3.045,3.065-2.78.617.053.861.24.859.871q-.023,9.651-.006,19.3c0,.592-.246.75-.791.742-1.715-.025-3.43-.019-5.145-.019-.667,0-.943-.277-1.2-.967-1.8-4.849-3.686-9.664-5.546-14.489l-.312.025" transform="translate(119.161 2113.982)" fill="#fff"/><path d="M173.042,230.5c0-3.045.038-6.09-.021-9.133-.019-1.011.253-1.341,1.3-1.322q5.216.1,10.435-.008c1.032-.019,1.327.275,1.307,1.311-.049,2.6,0,2.6-2.516,2.6q-2.425,0-4.85,0c-.391,0-.853-.088-.872.5-.035,1.128-.072,2.26-.022,3.386.03.684.645.453,1.035.457,2.008.02,4.018.042,6.026,0,.825-.018,1.205.113,1.2,1.1-.01,2.74.044,2.741-2.668,2.742-1.47,0-2.944.064-4.408-.025-1.012-.062-1.231.346-1.212,1.256.045,2.159-.037,4.322.027,6.481.028.932-.29,1.135-1.17,1.145-3.607.04-3.606.071-3.606-3.555q0-3.462,0-6.924Z" transform="translate(48.766 2113.792)" fill="#fff"/><path d="M506.768,232.721c0-2.455-.03-4.911.017-7.365.016-.818-.211-1.166-1.062-1.123-1.026.051-2.057,0-3.085.017-.594.013-.947-.169-.884-.83a.978.978,0,0,0,0-.147c-.206-3.2-.206-3.2,3.027-3.2,3.527,0,7.055.021,10.582-.019.936-.011,1.4.141,1.4,1.259,0,2.919.06,2.919-2.886,2.932-2.137.009-2.13.009-2.13,2.126,0,4.468-.036,8.936.01,13.4.01.979-.291,1.216-1.24,1.219-3.742.008-3.742.043-3.741-3.7q0-2.283,0-4.566Z" transform="translate(-173.439 2113.779)" fill="#fff"/><path d="M.017,230.354c0-3.042.026-6.085-.016-9.126-.012-.869.205-1.268,1.145-1.2a16.694,16.694,0,0,0,2.788,0c1.087-.1,1.3.4,1.294,1.366q-.05,9.126,0,18.253c.006,1-.236,1.424-1.3,1.318a15.9,15.9,0,0,0-2.788-.006c-.937.072-1.137-.307-1.122-1.188.053-3.139.021-6.28.021-9.421H.017" transform="translate(165.744 2113.801)" fill="#fff"/><path d="M601.5,230.659c0,2.988-.049,5.978.025,8.964.028,1.112-.307,1.483-1.4,1.365a13.628,13.628,0,0,0-2.636,0c-.95.083-1.143-.335-1.139-1.192q.037-9.333-.01-18.667c0-.863.3-1.109,1.1-1.065a23.726,23.726,0,0,0,2.931-.006c.932-.065,1.16.335,1.15,1.2-.037,3.135-.015,6.271-.015,9.406Z" transform="translate(-237.435 2113.781)" fill="#fff"/><path d="M268.095,230.59c0,3.043-.025,6.087.016,9.13.012.877-.113,1.282-1.165,1.284-3.83.01-3.83.057-3.83-3.745,0-5.252.04-10.505-.032-15.757-.017-1.207.364-1.456,1.482-1.442,3.537.044,3.538,0,3.538,3.608v6.921Z" transform="translate(-12.125 2113.773)" fill="#fff"/><path d="M442.517,230.668c0,2.943-.039,5.888.02,8.83.021,1.072-.162,1.536-1.41,1.513-3.685-.068-3.686,0-3.687-3.755,0-5.3.029-10.6-.025-15.895-.011-1.056.314-1.3,1.323-1.3,3.793.008,3.791-.029,3.782,3.834,0,2.257,0,4.513,0,6.77" transform="translate(-129.992 2113.771)" fill="#fff"/><path d="M178.758,69.325c.416,0,.787-.028.787-.527,0-.4-.366-.477-.7-.477h-.665v1h.587Zm-.587,1.812h-.488V67.906h1.23c.765,0,1.142.283,1.142.92a.838.838,0,0,1-.837.887l.92,1.424h-.549l-.854-1.4h-.565v1.4Zm.593.72a2.337,2.337,0,1,0-2.283-2.344,2.284,2.284,0,0,0,2.283,2.344Zm-2.843-2.344a2.838,2.838,0,1,1,2.843,2.81,2.8,2.8,0,0,1-2.843-2.81Z" transform="translate(193.149 2282.734)" fill="#fff"/></g></svg>