<svg xmlns="http://www.w3.org/2000/svg" xmlns:xlink="http://www.w3.org/1999/xlink" width="145" height="180" viewBox="0 0 145 180"><defs><clipPath id="a"><rect width="145" height="180" fill="#fff"/></clipPath></defs><g clip-path="url(#a)"><path d="M0,12.413a58.794,58.794,0,0,0,7.58,9.726A45.143,45.143,0,0,0,13.8,27.223a51.548,51.548,0,0,0,7.916,4.23,122.219,122.219,0,0,0,12.1,4.349c4.233,1.384,8.571,2.406,12.889,3.407,3.383.785,6.68,1.906,10.1,2.522a75.114,75.114,0,0,1,9.861,2.9,31.94,31.94,0,0,1,6.764,3.064c.382.232.8.408,1.453.737-.438-1.638-1.628-2.863-1.283-4.465.649-.048.861.46,1.127.842s.566.615,1.038.428a.9.9,0,0,0,.526-1.028,3.577,3.577,0,0,0-1.007-1.861c-.483-.628-1.033-1.2-1.512-1.835-.33-.434-.311-.779.382-.723,2.06.169,3.186-1,3.931-2.7a4.833,4.833,0,0,0-.359-4.82c-.182-.282-.438-.528-.289-1.015A5.288,5.288,0,0,1,80.6,34.243a6.213,6.213,0,0,1,1.124-3.293c.319-.56.547-.569.929.012,1.02,1.55,1.353,1.713,2.723.926A43.615,43.615,0,0,1,95.719,28a6.152,6.152,0,0,0,2.819-1.781c1.172-1.209,4.244-.792,4.368.767.111,1.418.636,2.892.3,4.3a4.18,4.18,0,0,1-3.556,3.339,8.343,8.343,0,0,0-3.142,1.757A18.447,18.447,0,0,0,91.931,41.7c-.019.031-.066.049-.077.082-.778,2.279-2.661,2.807-5.049,2.876a7.734,7.734,0,0,0,3.5.723c.4.037.826-.034,1.062.464,1,2.117,2.857,3.55,4.379,5.247,2.571,2.869,5.164,5.726,5.813,9.717a14.335,14.335,0,0,1-.438,6.244c-.244.873-.643,1.674-.909,2.529-.069.221-.351.5.041.666.293.122.519.074.713-.3A14.8,14.8,0,0,0,102.95,62.3c-.011-.211-.152-.454.116-.609.3-.17.382.145.551.253a11.5,11.5,0,0,0,6.972,1.5,31.7,31.7,0,0,0,10.1-2.352c3.089-1.184,5.9-.039,8.8,1.142a48,48,0,0,0,10.3,3.344c.576.094,1.321.242,1.078.977-.539,1.62.474,2.56,1.516,3.266s1.538,1.918,2.628,2.532v.905a25.88,25.88,0,0,1-9.7-2.037c-1.5-.586-1.636-1.063-.852-2.474.564-1.015.431-1.6-.624-2.179a7.37,7.37,0,0,0-2.1-.842c-2.366-.443-4.488-1.578-6.778-2.229a3.532,3.532,0,0,0-3.776,1.116c-.3.382-.123.643.167.971a36.661,36.661,0,0,0,7.476,6.045c1.893,1.251,4.022,2.033,5.967,3.177.591.348.736.639.511,1.235-.267.711.017,1.147.56,1.731,1.149,1.234,2.837,1.88,3.682,3.41.162.291.457.6.308.922-.174.381-.608.177-.927.2-3.226.221-6.181-.919-9.178-1.827a1.142,1.142,0,0,1-.942-1.347c.53-2.977-1.269-4.723-3.236-6.565a31.066,31.066,0,0,0-5.64-3.749,4.31,4.31,0,0,0-5.08.112,96.431,96.431,0,0,1-9.514,5.866,47.9,47.9,0,0,1-14.17,4.918,23.025,23.025,0,0,0-5.123,1.624,38.182,38.182,0,0,1-9.772,2.31c-5.224.709-10.367-.032-15.49-.981a5.926,5.926,0,0,0-5.331,1.16c-.9.781-1.767,1.579-2.62,2.414A34.229,34.229,0,0,1,42.69,92.762c-2.2.991-4.541,1.4-6.768,2.217a45.569,45.569,0,0,0-4.839,1.862,10.38,10.38,0,0,0-4.836,5.133,39.358,39.358,0,0,1-4.389,7.79c-.152.2-.377.453-.111.691.226.2.491.063.74-.055a16.658,16.658,0,0,0,6.369-4.686A16.346,16.346,0,0,0,32.249,99.2,3.245,3.245,0,0,1,34.6,96.638c2.269-.527,4.342-1.542,6.532-2.248a30.718,30.718,0,0,0,8.617-4.615,37.336,37.336,0,0,0,4.66-3.975,7.214,7.214,0,0,1,7.221-1.9c.51.114.76.191.26.84a26.389,26.389,0,0,1-3.736,4.023,17.682,17.682,0,0,1-3.982,2.929c-.662.3-1.2.746-1.828,1.07C49.4,94.283,46.421,95.712,43.36,97a46.339,46.339,0,0,0-5.346,2.721,16.017,16.017,0,0,0-4.456,4.491,40.334,40.334,0,0,1-7.917,7.726,36.256,36.256,0,0,1-5.926,3.421,60.771,60.771,0,0,1-11.93,4.185,3.294,3.294,0,0,1-.9.091c-.343-.011-.817.206-.929-.36a.954.954,0,0,1,.7-1.146,11.715,11.715,0,0,0,4.881-3.832,6.3,6.3,0,0,0,1.693-2.723,1.67,1.67,0,0,1,1.972-1.18c2.549.268,4.082-1.02,5.227-3.111a18.089,18.089,0,0,0,2.448-7.753,4.185,4.185,0,0,1,2.67-3.7c2.432-1.169,4.94-2.2,7.012-4.012a16.9,16.9,0,0,0,4.271-5.388c.681-1.423,1.428-2.827,1.978-4.3.639-1.709,1.3-3.407,2.172-5.223A2.679,2.679,0,0,0,39.34,77.9a12.454,12.454,0,0,1-3.663,3.43c-2.408,1.734-5.138,1.561-7.944,1.17-2.171-.3-4.331-1.035-6.611-.247-1.519.525-1.888,1.752-2.306,2.937-.359,1.019.3,1.807,1.19,2.307a2.4,2.4,0,0,0,2.812-.384c.2-.147.481-.663.836-.289.251.265-.128.538-.248.789-1.186,2.472-4.7,2.5-6.327,1.432a3.575,3.575,0,0,1-.346-5.667c1.249-1.26,3.113-1.545,4.267-2.928-.437-.374-.9-.062-1.307.06-2.861.854-5.541,2.328-6.383,5.2-1.212,4.147-.448,8.158,4.347,9.777a4.846,4.846,0,0,0,5.149-1.157,7.374,7.374,0,0,1,1.232-.78,5.981,5.981,0,0,1-3.269,3.152,8.752,8.752,0,0,1-7.394-.338c-3.414-1.562-6.4-5.716-4.6-10.4.13-.34.48-.758.24-1.035-.34-.392-.757.07-1.134.175a10.112,10.112,0,0,1-3.116.571,2.755,2.755,0,0,1-2.354-1.376,2.007,2.007,0,0,1,.588-2.363c.659-.671.809-1.806,1.923-2.1.231.515-.232.936-.069,1.449.358,1.125,1.926,1.7,3.311,1.39,2.359-.531,3.411-2.507,4.707-4.124.609-.759,1.323-1.4,1.932-2.148a8.069,8.069,0,0,1,6.877-2.931A1.866,1.866,0,0,0,23.32,73a4.277,4.277,0,0,0-2.651-.289,12.386,12.386,0,0,1-2.96.077,4.54,4.54,0,0,1-4.016-3.928A2.913,2.913,0,0,1,15.6,66.05a3.077,3.077,0,0,1,3.33.083,1.037,1.037,0,0,1-.773.261c-1.022.118-1.869.507-2.092,1.592-.177.853.766,1.994,1.808,2.343a12.277,12.277,0,0,0,5.078.39,14.685,14.685,0,0,1,7,1.1,33.38,33.38,0,0,0,6.71,1.96,9.228,9.228,0,0,0,4.682-.582c2.806-.949,5.139-2.752,7.649-4.244a25.243,25.243,0,0,1,8.286-2.9c3.458-.657,6.968-.426,10.46-.457,1.668-.014,2.356-.49,2.578-1.747a2.8,2.8,0,0,0-1.686-3.129,8.584,8.584,0,0,0-5.758-.416,40.235,40.235,0,0,0-7.411,2.383,110.969,110.969,0,0,1-11.483,4.4C39,68.47,34.217,68.476,29.462,65.9a33.462,33.462,0,0,1-6.593-5.183,3.641,3.641,0,0,1-.559-1.076c.316-.257.538.021.718.107,5.1,2.435,10.354,2.517,15.844,1.493,3.66-.683,7.152-1.874,10.749-2.71,5.079-1.179,10.137-2.528,15.46-2.029,3.027.284,5.737,1.134,7.862,3.4a1.988,1.988,0,0,0,.429.249,1.661,1.661,0,0,0-.474-1.591,8.322,8.322,0,0,0-3.17-2.643,20.7,20.7,0,0,0-5.369-2.1,57.269,57.269,0,0,0-10.048-1c-5.028-.045-10.027.428-15.038.643a52.307,52.307,0,0,1-16.147-1.5,26.03,26.03,0,0,1-10.251-5.257,29.886,29.886,0,0,1-5.582-6.414,49.925,49.925,0,0,1-3.318-6.239,46.415,46.415,0,0,1-1.842-5.62,4.789,4.789,0,0,1,1.481,1.55,33.535,33.535,0,0,0,6.149,5.958c1.3.949,2.551,1.986,3.927,2.818a54.51,54.51,0,0,0,7.769,4.016A57.2,57.2,0,0,0,34.851,46.51c4.988.705,10,1.271,15.033,1.659a89.2,89.2,0,0,1,12.523,1.38c3.426.76,6.821,1.626,9.78,3.674a10.42,10.42,0,0,1,3.741,4.238,3.166,3.166,0,0,0,1.282,1.505,4.493,4.493,0,0,0-.257-2.033,12.734,12.734,0,0,0-4.917-5.3,29.5,29.5,0,0,0-7.546-2.915,95.391,95.391,0,0,0-9.647-1.556c-2.368-.3-4.748-.545-7.148-.621a72.625,72.625,0,0,1-10.059-1.167A77.857,77.857,0,0,1,25.7,42.753a51.608,51.608,0,0,1-7.833-3.2,50.677,50.677,0,0,1-5.716-3.5,31.779,31.779,0,0,1-8.22-8.865,33.9,33.9,0,0,1-2.442-5.046,11.7,11.7,0,0,1-.572-3.877A11.706,11.706,0,0,0,.691,16.38C.3,17.062.42,17.875,0,18.52Zm92.574,46.51a2.534,2.534,0,0,0,.858,1.309,10.581,10.581,0,0,1,2.993,8.442c-.058.533-.457,1.486.408,1.572.843.082.742-.943.791-1.493a9.893,9.893,0,0,0-2.183-7.463,7.86,7.86,0,0,0-2.867-2.366M86.922,34.911A4.635,4.635,0,0,0,90.7,32.2c-1.738.123-1.738.123-3.776,2.714" transform="translate(0 1.326)" fill="#fff"/><path d="M43.171,164.228c-.039-5.225-.052-10.452-.143-15.676-.013-.757.2-.914.866-.9,1.518.042,3.039.1,4.554.054a6.621,6.621,0,0,1,4.016,1.336c1.363.947,1.283,2.542,1.143,4a3.4,3.4,0,0,1-2.318,2.931,17.73,17.73,0,0,1,2.843,8.247H50.707c.139-.186.293-.391.054-.588a3.424,3.424,0,0,1-.9-2.122,22.159,22.159,0,0,0-1.153-3.376,1.276,1.276,0,0,0-1.386-.88c-.724.06-.474.733-.5,1.174-.093,1.929.188,3.874-.234,5.791ZM49.806,152.5c0-1.138-1.633-2.365-2.584-1.793-.913.55-.239,1.649-.393,2.489-.063.342-.238.851.322,1.065a2.043,2.043,0,0,0,2.656-1.761" transform="translate(4.781 15.772)" fill="#fff"/><path d="M67.151,164.253c-.148-.372-.5-.444-.827-.518-2.35-.527-3.444-2.282-4.157-4.312a10.167,10.167,0,0,1,.91-9.146,6.027,6.027,0,0,1,7.141-2.478,7.281,7.281,0,0,1,4.223,5.79,10.993,10.993,0,0,1-1.687,8.259,3.322,3.322,0,0,1-1.511,1.317c-.581.243-1.323.35-1.581,1.088Zm-1.6-8.094c0,.351-.038.955.007,1.554.162,2.2.573,2.851,2.2,3.07,1.467.2,2.432-.48,2.6-1.676a23.77,23.77,0,0,0,0-6.5,2.346,2.346,0,0,0-4.572-.163,16.326,16.326,0,0,0-.237,3.716" transform="translate(6.832 15.747)" fill="#fff"/><path d="M86.132,164.225c.051-.583-.433-.51-.767-.6a4.246,4.246,0,0,1-3.552-4.432c-.052-3.576,0-7.153-.026-10.731,0-.6.189-.743.778-.76,2.881-.085,2.88-.105,2.881,2.708,0,2.749-.008,5.5,0,8.247.006,1.612.639,2.309,2.173,2.173,1.159-.1,1.988-.366,1.956-2.18-.06-3.35.008-6.7-.028-10.054-.007-.683.151-.994.872-.882a3.746,3.746,0,0,0,.569,0c2.337,0,2.339,0,2.312,2.379-.031,2.823-.1,5.647-.086,8.471a6.974,6.974,0,0,1-1.576,4.133c-.378.529-1.113.58-1.678.863-.283.142-.857.033-.637.66Z" transform="translate(9.088 15.775)" fill="#fff"/><path d="M27.276,164.252c.343-.555-.077-.59-.452-.65-2.4-.381-3.59-1.927-4.431-4.082a10.516,10.516,0,0,1,.138-7.982A6.677,6.677,0,0,1,25.71,148.3c2.539-1.4,4.933-1,7.3.4a.809.809,0,0,1,.424.831c-.011.714,0,1.428,0,2.28-.9-.33-1.688-.737-2.546-.957-3.171-.815-5.436.876-5.438,4.133,0,1.5-.161,3.006.578,4.422a3.066,3.066,0,0,0,2.833,1.679c1.28-.044,1.229-1,1.332-1.846.1-.819-.271-1.194-1.119-1.11-.6.06-.781-.29-.808-.828-.1-2.027-.021-2.118,2.052-2.121.912,0,1.828.048,2.736-.01.774-.05,1.093.16,1.05.991-.087,1.69-.08,3.386-.113,5.079-.033,1.667-.841,1.674-2.953,2.337-.312.1-.689-.024-.974.271l.637.408Z" transform="translate(2.408 15.748)" fill="#fff"/><path d="M101.525,164.227c0-5.087.041-10.175-.024-15.262-.016-1.148.343-1.384,1.414-1.291a35.846,35.846,0,0,0,3.992.035,6.373,6.373,0,0,1,2.549.5,4.4,4.4,0,0,1,2.863,4.272,4.458,4.458,0,0,1-2.878,4.451,8.347,8.347,0,0,1-2.887.555c-.813.033-1.271.341-1.187,1.315.11,1.272-.062,2.57.07,3.838.063.6-.679.994-.26,1.589Zm3.876-11.711c0,2.077.09,2.2,1.508,2a1.9,1.9,0,0,0,1.706-2.238c-.077-1.147-1.089-1.612-2.331-1.615-1.5-.006-.648,1.2-.882,1.856" transform="translate(11.278 15.773)" fill="#fff"/><path d="M44.332,88.919c-.188,1.537-1.1,2.646-1.541,3.938a18.6,18.6,0,0,0-1.008,5.856c-.071,7.162-.054,14.326-.019,21.488a13.659,13.659,0,0,0,2.5,8.136,10.154,10.154,0,0,0,6.51,3.721,15.092,15.092,0,0,0,9.12-1.045,8.278,8.278,0,0,0,4.233-4.887,13.607,13.607,0,0,0,.937-4.827q-.025-12.1-.008-24.2A24.053,24.053,0,0,0,63.746,89.7c-.172-.535-.393-1.046.646-1.043q13.927.042,27.852-.022a64.064,64.064,0,0,1,14.55,1.6,28.531,28.531,0,0,1,7.063,2.645,14.344,14.344,0,0,1,5.38,4.5,8.877,8.877,0,0,1,1.174,7.28,8.371,8.371,0,0,1-3.091,4.567,11.744,11.744,0,0,1-5.984,2.963,4.916,4.916,0,0,0-1.078.342c-.342.13-.953-.007-.977.41-.032.543.6.58,1.016.713a24.367,24.367,0,0,1,8.594,4.187c3.57,3,5.292,6.925,3.96,11.8a11.071,11.071,0,0,1-4.79,6.358c-.493.334-.931.753-1.454,1.065a27.352,27.352,0,0,1-9.287,3.449,75.438,75.438,0,0,1-13.2,1.513q-13.072-.037-26.142,0c-.917,0-1.092-.315-.817-1.026a4.525,4.525,0,0,0,.22-1.66c.009-1.021-.254-1.192-1.209-.717-7.568,3.76-15.652,4.76-23.97,4.259a39.756,39.756,0,0,1-7.522-1.609,21.969,21.969,0,0,1-6.61-3.047,15.659,15.659,0,0,1-3.418-3.358,20.986,20.986,0,0,1-3.663-11.378q-.023-7.011-.026-14.023a1.967,1.967,0,0,1,0-.45c.193-.817-.771-1.843.374-2.465.767-.415,1.311-1.141,2.18-1.408a2.8,2.8,0,0,0,.958-.579,49.764,49.764,0,0,0,5.171-4.614,38.337,38.337,0,0,0,2.884-3.688,12.705,12.705,0,0,1,5.106-4.446c2.163-1.011,4.383-1.9,6.689-2.893m41.5,36.692c0,1.882.068,3.767-.027,5.644-.054,1.1.36,1.324,1.366,1.307a28.7,28.7,0,0,0,3.166-.261c3.3-.421,6.533-.963,9.024-3.505a4.855,4.855,0,0,0,1.054-5.191,7.791,7.791,0,0,0-5.66-4.105,43.969,43.969,0,0,0-8.012-.785c-.7-.017-.932.227-.921.912.032,1.995.011,3.989.01,5.985m0-21.621v4.061c0,2.078,0,2.075,2.041,1.916a5.964,5.964,0,0,1,.91-.032,11.567,11.567,0,0,0,8.1-2.568,4.552,4.552,0,0,0,.408-6.915,10.565,10.565,0,0,0-4.061-2.1c-2.147-.639-4.364-.321-6.54-.546-.719-.074-.876.359-.866.992.028,1.73.01,3.46.009,5.19" transform="translate(2.308 9.469)" fill="#fff"/><path d="M63.236,51.979a29.51,29.51,0,0,0-5.434.1A92.985,92.985,0,0,0,45.384,54.5c-5.239,1.241-10.489,2.768-15.99,2.3A26.469,26.469,0,0,1,23.253,55.3a24.312,24.312,0,0,1-5.623-2.97,11.914,11.914,0,0,1-3.582-3.349c-.591-.914-1.558-1.548-2.009-2.578-.146-.332-.466-.623-.186-1.112.667.5,1.333.978,1.976,1.488a17.3,17.3,0,0,0,6.556,3.16,54.24,54.24,0,0,0,11.36,1.53c5.034.17,10.026-.467,15.041-.6,4.746-.122,9.494-.526,14.234.116a4.124,4.124,0,0,1,2.217,1" transform="translate(1.305 4.838)" fill="#fff"/><path d="M28.979,0a27.507,27.507,0,0,1,.479,3.234c.376,1.61.914,3.164,1.352,4.749A30.228,30.228,0,0,0,34.3,15.731a43.655,43.655,0,0,0,7.5,9.257,87.591,87.591,0,0,0,6.609,5.965c2.657,2,5.362,3.959,8.208,5.713q3.778,2.328,7.4,4.9a18.279,18.279,0,0,1,4.411,3.786c.229.31.587.657.4.973-.283.478-.661-.015-.972-.123-2.812-.973-5.567-2.157-8.437-2.907-3.209-.839-6.373-1.879-9.614-2.537a21.315,21.315,0,0,1-7.622-3.419,31.24,31.24,0,0,1-6.138-5.666,41.172,41.172,0,0,1-3.981-5.44,27.771,27.771,0,0,1-3.014-6.1A43.118,43.118,0,0,1,27.1,12.313a26.2,26.2,0,0,1,.809-9.808A5.228,5.228,0,0,1,28.979,0" transform="translate(2.994)" fill="#fff"/><path d="M40.52,36.473a2.362,2.362,0,0,1-1.721,0,57.124,57.124,0,0,0-5.952-1.8c-2.62-.528-3.891-2.275-4.942-4.444A17.079,17.079,0,0,1,26.573,24.7a56.656,56.656,0,0,1-.408-7.53,5.369,5.369,0,0,1,.216-.851A44.141,44.141,0,0,0,40.52,36.473" transform="translate(2.907 1.744)" fill="#fff"/></g></svg>