<svg xmlns="http://www.w3.org/2000/svg" xmlns:xlink="http://www.w3.org/1999/xlink" width="203.357" height="81.427" viewBox="0 0 203.357 81.427"><defs><clipPath id="a"><rect width="203.357" height="81.427" fill="#fff"/></clipPath></defs><g clip-path="url(#a)"><path d="M33.344,42.841q-7.132-7.029-14.262-14.059c-1.733-1.711-3.421-3.468-5.181-5.151-.667-.638-.795-1.048-.062-1.772q6.638-6.55,13.191-13.185c2.109-2.127,4.166-4.306,6.525-6.75-3.34,0-6.31,0-9.279,0-.454,0-.664.338-.922.6q-9.753,9.751-19.5,19.5c-.5.5-.566.781-.011,1.33q9.74,9.643,19.429,19.337a1.471,1.471,0,0,0,1.081.594c2.928-.018,5.856-.009,8.784-.009l.21-.432" transform="translate(-2.791 -1.555)" fill="#fff"/><path d="M946.147,21.939c.41.747,1.181.694,1.739.976,3.338,1.686,4.933,6.862,4.323,10.614-.737,4.533-3.035,7.738-7.372,9.3a23.948,23.948,0,0,1-8.946,1.24c-3.186-.1-6.378-.05-9.567-.007-.862.012-1.112-.207-1.11-1.113q.053-19.4,0-38.808c0-1.216.344-1.511,1.515-1.463,4.131.17,8.278-.258,12.4.271,3.348.43,6.484,1.32,8.755,4.1a10.4,10.4,0,0,1,2,9.042,8.633,8.633,0,0,1-3.73,5.853m-13.48,9.73c0,1.471,0,2.942,0,4.412,0,.367-.077.866.482.843,3-.123,6.086.616,8.976-.708a4.471,4.471,0,0,0,2.592-4.591c-.06-1.989-.726-3.623-2.774-4.468-2.829-1.166-5.778-.738-8.691-.814-.639-.017-.585.491-.586.914-.005,1.471,0,2.942,0,4.412m.05-17.056h.008q0,1.85,0,3.7c0,.364-.115.884.442.862,2.43-.095,4.946.572,7.25-.71a4.409,4.409,0,0,0,2.232-4.286,3.757,3.757,0,0,0-2.5-3.746c-2.242-.791-4.583-.5-6.891-.5-.591,0-.54.549-.54.976q0,1.85,0,3.7" transform="translate(-748.979 -2.162)" fill="#fff"/><path d="M409.242,42.725c-2.486,0-4.818-.028-7.148.017a1.209,1.209,0,0,1-1.282-.883c-1.182-3.067-2.365-6.133-3.515-9.212a1.647,1.647,0,0,0-1.757-1.285c-3.951.049-7.9.024-11.854.019-.646,0-1.033.066-1.329.874-1.209,3.293-2.613,6.513-3.876,9.788-.189.49-.34.7-.849.694-2.142-.016-4.285-.029-6.427,0-.958.012-.849-.462-.6-1.082q3.645-9.069,7.284-18.141Q380.91,16,383.944,8.494c.855-2.129,1.706-4.26,2.5-6.41a1.294,1.294,0,0,1,1.457-1.03c.805.055,1.618,0,2.427,0,2.673,0,2.586.028,3.534,2.54,1.6,4.231,3.331,8.409,4.978,12.621,1.783,4.559,3.516,9.138,5.3,13.7,1.652,4.217,3.346,8.417,5.1,12.811M385.32,24.7c-.01.442.49.246.817.252,1.708.03,3.417.046,5.125.042.991,0,2.423.324,2.861-.183.539-.624-.419-1.74-.791-2.623-.036-.084-.009-.194-.042-.28-1-2.567-1.987-5.137-3.013-7.693-.1-.257-.2-.718-.638-.62-.312.071-.265.451-.363.711-.692,1.834-1.417,3.656-2.116,5.488-.6,1.57-1.18,3.147-1.839,4.907" transform="translate(-299.874 -0.849)" fill="#fff"/><path d="M583.372,23.235c0-6.373.026-12.747-.024-19.12-.009-1.123.2-1.541,1.449-1.529,6.855.068,13.711.054,20.566.014,1.063-.006,1.545.186,1.458,1.385a38.833,38.833,0,0,0-.007,4.706c.048.96-.282,1.193-1.207,1.183-4.474-.05-8.951.017-13.424-.064-1.177-.021-1.447.355-1.411,1.445.074,2.233.065,4.472,0,6.705-.026.925.229,1.216,1.182,1.2,3.951-.051,7.9.029,11.854-.048,1.138-.022,1.345.373,1.29,1.378a39.144,39.144,0,0,0,0,4.421c.061,1.038-.2,1.37-1.314,1.347-3.9-.079-7.808.021-11.71-.049-1.143-.021-1.329.4-1.305,1.4.063,2.614.074,5.233-.007,7.847-.034,1.1.233,1.462,1.393,1.445,4.617-.065,9.236.007,13.853-.042,1.041-.011,1.444.242,1.376,1.341a44.8,44.8,0,0,0-.009,4.564c.036.881-.151,1.234-1.147,1.227q-10.854-.069-21.709-.007c-.952,0-1.176-.3-1.171-1.207.036-6.516.019-13.032.021-19.548" transform="translate(-472.234 -2.093)" fill="#fff"/><path d="M753.747,13.5a14.655,14.655,0,0,0-7.467-5.642,11.791,11.791,0,0,0-14.621,6.067c-2.819,5.722-1.873,13.952,2.569,18.112a12.621,12.621,0,0,0,16.438.593,32.917,32.917,0,0,0,3.532-3.463c.693,2.351,1.376,4.614,2.016,6.889.138.49-.341.763-.632,1.047-4.718,4.6-10.274,6.149-16.768,4.91a18.685,18.685,0,0,1-11.6-6.577,21.1,21.1,0,0,1-4.409-10.2,24.365,24.365,0,0,1,.107-8.769A19.937,19.937,0,0,1,746.479.42a17.919,17.919,0,0,1,7.84,3.53c2.269,1.814,2.233,1.963,1.123,4.688-.617,1.517-1.085,3.094-1.694,4.858" transform="translate(-584.849 -0.001)" fill="#fff"/><path d="M211.662,43.644q7.132-7.029,14.262-14.059c1.733-1.711,3.421-3.468,5.181-5.151.667-.638.795-1.048.062-1.772q-6.638-6.549-13.191-13.185c-2.109-2.127-4.166-4.306-6.525-6.75,3.34,0,6.31,0,9.279,0,.454,0,.664.338.922.6q9.753,9.751,19.5,19.5c.5.5.566.781.011,1.33q-9.74,9.643-19.429,19.337a1.471,1.471,0,0,1-1.081.594c-2.928-.018-5.856-.009-8.784-.009l-.21-.432" transform="translate(-171.175 -2.205)" fill="#fff"/><path d="M560.938,279.108c-.7-1.51-1.574-2.639-.752-4.211.893-1.707,3.967-2.48,5.916-1.444.6.32.263,1,.218,1.637-.285-.086-.5-.143-.713-.215a2.259,2.259,0,0,0-2.7.65,1.9,1.9,0,0,0-.158,2.131,2.083,2.083,0,0,0,2.294,1.477,25.9,25.9,0,0,1,3.281-.017c.609.014.813-.21.83-.832.035-1.276.174-2.548.265-3.823.023-.322-.068-.738.422-.749,1.647-.035,3.324-.223,4.866.577a3.66,3.66,0,0,1,2.131,3.53c-.01.631-.217,1.437.907,1.283.968-.133,2.351.565,2.487-1.233.025-.331.015-.665.016-1,0-2.377.031-4.755-.012-7.131-.016-.881.052-1.375,1.182-1.366s1.346.4,1.314,1.416c-.072,2.327-.035,4.658-.033,6.987,0,2.153,1.369,3.075,3.366,2.31.582-.223.412-.687.415-1.075.023-2.8.054-5.61.013-8.415-.013-.894.183-1.275,1.176-1.24.907.033,1.332.142,1.3,1.234-.089,3.326-.078,6.656-.018,9.982.018,1.019-.3,1.331-1.286,1.255a16.551,16.551,0,0,1-3.124-.073,11.968,11.968,0,0,0-3.826-.034c-7.276.186-14.56.059-21.841.126-.953.009-1.334-1.1-1.862-.94-.617.188-1.012,1.05-1.909.915a7.246,7.246,0,0,0-1.283-.01c-1.247.038-2.527-.481-3,1.606-.383,1.7-3.247,2.44-5.018,1.728-.342-.138-.739-.331-.646-.818.1-.507.457-.461.879-.421,1.1.1,2.082-.062,2.506-1.306.187-.55.072-.8-.545-.788a16.748,16.748,0,0,0-2.422.021c-1.141.2-1.533-.508-1.8-1.319a4.3,4.3,0,0,1,3.66-5.827c3.58-.5,3.764-.333,3.763,3.294,0,.38.031.763,0,1.141-.06.728.224,1.074.978.986a2.1,2.1,0,0,1,.57,0c1.385.222,1.935-.231,1.856-1.749-.136-2.608.039-5.231-.073-7.841-.065-1.51.909-1.034,1.667-1.145.992-.146,1.048.373,1.04,1.164-.026,2.613.045,5.227.031,7.841-.007,1.325.534,1.919,1.891,1.738a15.035,15.035,0,0,1,1.778-.011m-12.16-1.664c.045-1.723-.079-2.019-.837-2a2.023,2.023,0,0,0-1.784,2.159c.025.81.11,1.5,1.316,1.551,1.488.069,1.292-.823,1.305-1.709m22.861-.186c.279.7-.587,1.907,1.116,1.893,1.181-.01,1.466-.57,1.495-1.522.039-1.258-.644-2.173-1.7-2.161-1.422.016-.583,1.2-.914,1.79" transform="translate(-439.989 -217.237)" fill="#fff"/><path d="M137.983,279.347a2.156,2.156,0,0,1-2.323,1.3c-5.04-.032-10.081-.04-15.122.009-.992.01-1.262-.227-1.236-1.256.083-3.276.038-6.555.018-9.833,0-.816-.057-1.469,1.143-1.439,1.04.026,1.376.274,1.34,1.366-.091,2.752.006,5.51-.054,8.265-.022,1,.4,1.2,1.271,1.176.778-.025,1.4,0,1.3-1.11a11.439,11.439,0,0,1,.206-2.261c.238-2.088.241-2.106,2.435-2.062,1.954.039,3.741.381,4.737,2.407a3.131,3.131,0,0,1,.27,1.783c-.107,1.044.333,1.3,1.3,1.248,2.433-.12,2.146.366,2.191-2.234a8.926,8.926,0,0,0-.017-1.707c-.241-1.342.375-1.578,1.567-1.541.952.03,1.377.2,1.265,1.249a22.263,22.263,0,0,0-.014,2.848c.039,1.763,1.384,1.256,2.4,1.39,1.116.147,1.239-.455,1.2-1.334-.05-1.09.02-2.187-.042-3.276-.06-1.051.66-.843,1.238-.827.55.015,1.286-.281,1.256.8-.051,1.851-.027,3.706,0,5.558.011.652-.283.793-.863.779-1.283-.031-2.569-.047-3.851,0-.821.031-1.117-.558-1.611-1.3m-9.932-.43c1.066.246,1.306-.5,1.362-1.385.078-1.242-.685-2.271-1.671-2.212-1.084.065-.929.969-.869,1.615.071.77-.665,2.1,1.178,1.982" transform="translate(-96.576 -217.057)" fill="#fff"/><path d="M863.565,275.23c.329-.607-.932-1.4.7-1.761,4-.879,5.77.1,6.514,4.3.235,1.328.708,1.634,1.865,1.494a7.4,7.4,0,0,1,1.426-.014c.685.051.922-.236.9-.909-.034-1.235.05-2.475-.017-3.707-.052-.94.532-.87,1.094-.794s1.451-.436,1.45.751c0,1.854-.01,3.709.027,5.562.013.649-.27.806-.853.805q-9.709-.016-19.417.005c-.719,0-.857-.281-.852-.93.025-3.518.042-7.037-.02-10.554-.017-.96.451-1.018,1.132-.914.591.091,1.494-.422,1.466.879-.059,2.851.022,5.706-.045,8.557-.023,1,.274,1.31,1.275,1.279,2.282-.071,4.569-.059,6.852-.015.843.016,1.115-.176,1.077-1.1-.121-2.908-1.4-3.819-4.573-2.937" transform="translate(-693.261 -217.379)" fill="#fff"/><path d="M20.253,299.446c-.15.935.548,2.485-.276,3.167-.69.571-2.179.241-3.31.194-.89-.038-1.932.431-2.61-.615-.171-.265-.455-.126-.613.038-.766.8-1.75.6-2.682.6-2.665.011-5.33.015-7.994-.013-.7-.007-1.775.343-2.02-.206a5.8,5.8,0,0,1-.726-3,4.234,4.234,0,0,1,4.164-3.89c3.649.023,3.266-.882,3.589,2.98.012.142.037.283.046.425.134,2,.67,2.377,2.667,1.991.755-.146.855-.7.881-1.26a24.817,24.817,0,0,0,0-3.136c-.079-.972.385-1.106,1.177-1.04.682.057,1.482-.209,1.39.994a17.032,17.032,0,0,0,.028,2.988c.141,1.4.512,1.485,2.765,1.469,1.366-.01.911-.922.958-1.572.058-.8.008-1.615.01-2.424,0-1.351.87-1.9,2.172-1.429.456.165.379.486.383.8.012.9,0,1.807,0,2.939m-15.042-.194c-.384-.561.541-1.64-.716-1.813-.979-.135-1.666.911-1.7,2.289-.022.917.079,1.432,1.273,1.43,1.711,0,.829-1.209,1.142-1.906" transform="translate(0 -239.251)" fill="#fff"/><path d="M464.494,280.808c-2,0-4-.03-6,.015-.81.018-1.177-.124-1.16-1.072.062-3.424.079-6.851,0-10.275-.029-1.22.63-1.07,1.42-1.122.975-.065,1.19.3,1.17,1.226-.062,2.805.014,5.614-.042,8.419-.018.9.277,1.1,1.135,1.124,3.75.085,3.741.114,3.772-3.578.018-2.134-.211-1.832,1.943-1.876,2.052-.042,4.03.109,5.088,2.231a5.234,5.234,0,0,1-.015,4.374c-.231.6-.7.536-1.167.536q-3.071,0-6.143,0m2.588-3.415c.064.942,0,1.763,1.323,1.751,1.165-.011,1.343-.682,1.385-1.514.054-1.071-.889-2.275-1.753-2.16-1.229.163-.7,1.3-.955,1.923" transform="translate(-370.222 -217.234)" fill="#fff"/><path d="M989.292,274.975c0,1.664-.035,3.329.015,4.991.024.785-.186,1.081-1.025,1.07-3.14-.043-6.281-.034-9.421,0-.722.008-.993-.172-.992-.946,0-.83.467-.749,1.01-.766,2.434-.076,2.434-.084,2.434-2.5,0-1.474.077-2.953-.024-4.419-.075-1.089.486-1.115,1.279-1.089.73.024,1.39-.121,1.324,1.049-.108,1.943.023,3.9-.06,5.845-.044,1.034.42,1.19,1.27,1.131.736-.051,1.521.217,1.487-1.059-.075-2.8.015-5.609-.038-8.413-.017-.9.17-1.344,1.167-1.231.8.091,1.735-.254,1.618,1.213-.135,1.7-.032,3.42-.032,5.132Z" transform="translate(-791.609 -217.449)" fill="#fff"/><path d="M272.444,274.708c0,1.663-.035,3.328.016,4.99.023.752-.1,1.123-.98,1.112-3.188-.043-6.376-.022-9.565-.014-.566,0-1,0-1.011-.8-.015-.811.35-.911,1.028-.933,2.436-.078,2.435-.1,2.433-2.5,0-1.521.057-3.046-.028-4.563-.063-1.128.667-.919,1.294-.918s1.342-.234,1.3.9c-.079,1.993.037,4-.048,5.988-.046,1.067.473,1.163,1.288,1.1.748-.06,1.654.308,1.622-1.078-.066-2.851.039-5.706-.036-8.556-.028-1.07.466-1.135,1.285-1.122.8.014,1.509-.1,1.453,1.111-.08,1.755-.021,3.517-.021,5.276h-.028" transform="translate(-211.208 -217.211)" fill="#fff"/><path d="M748.624,375.73c0-1.422.016-2.843-.008-4.265-.009-.53.019-1.006.7-.93,1.544.172,3.1-.112,4.65.358a2.539,2.539,0,0,1,1.613,4c-.226.376-.554.766,0,1.069,1.433.78,1.179,2.149.889,3.242a3,3,0,0,1-2.728,1.954c-1.451.17-2.936.035-4.406.063-.719.014-.7-.435-.7-.939.01-1.516,0-3.033,0-4.549Zm2.287,2.373c-.28,1.028.057,1.554,1.262,1.413.988-.116,2.122-.015,2.141-1.427s-1.057-1.366-2.081-1.457c-1.133-.1-1.6.274-1.323,1.471m-.017-4.346c-.147.725-.053,1.306,1.037,1.194.9-.093,1.743-.206,1.8-1.326.07-1.4-1.09-.984-1.828-1.136-.982-.2-1.115.407-1.008,1.268" transform="translate(-606.022 -299.951)" fill="#fff"/><path d="M361.436,376.011q0-2.212,0-4.424c0-.439-.04-.9.612-.882,2.254.051,4.55-.269,6.646.965a5.26,5.26,0,0,1-.54,9.073c-1.988.96-4.1.528-6.174.607-.7.027-.54-.526-.544-.916-.015-1.474-.006-2.949-.006-4.424Zm2.277,0c0,.945,0,1.891,0,2.836,0,.379-.018.712.532.812a4.677,4.677,0,0,0,4.029-1.845c1.432-2.668-.176-5.163-3.362-5.27-.9-.03-1.308.24-1.216,1.2.072.749.014,1.511.016,2.267" transform="translate(-292.58 -300.093)" fill="#fff"/><path d="M601.476,375.991c0-1.474-.008-2.948.005-4.422,0-.4-.139-.942.532-.943,2.309,0,4.676-.3,6.773,1.022,1.8,1.134,2.277,2.9,2.125,4.889a4.668,4.668,0,0,1-3.055,4.2c-1.895.83-3.839.407-5.762.529-.667.042-.618-.42-.619-.852q0-2.211,0-4.422m3.33-3.537c-.733-.135-1.126.175-1.084,1.159.07,1.658.012,3.322.029,4.983,0,.388-.152.844.512.972a4.654,4.654,0,0,0,4.034-1.874c1.348-2.626-.2-5.066-3.491-5.241" transform="translate(-486.906 -300.006)" fill="#fff"/><path d="M249.473,376.006c0,1.282-.009,2.564,0,3.846.007.721.15,1.344-1.026,1.343s-1.357-.448-1.26-1.416c.061-.611-.07-1.246.024-1.848.187-1.206-.375-1.392-1.432-1.381-3.419.034-3.437,0-3.447,3.341,0,.805-.029,1.306-1.1,1.294-1-.012-1.163-.382-1.15-1.253q.066-4.272,0-8.546c-.014-.791.256-1.023.979-.931.6.077,1.449-.2,1.269.932a1.138,1.138,0,0,0,0,.285c.1,1.023-.451,2.645.242,2.947,1.163.506,2.682.206,4.05.229.524.009.589-.367.586-.781,0-.76.006-1.52-.005-2.279-.011-.725-.129-1.384,1.036-1.352,1,.028,1.314.309,1.26,1.3-.078,1.42-.02,2.848-.021,4.272" transform="translate(-194.348 -299.876)" fill="#fff"/><path d="M512.492,380.995c-1.721.528-2.776.036-3.454-1.436a20.265,20.265,0,0,0-1.228-1.883c-.3-.488-.734-.88-1.246-.746-.6.157-.279.808-.322,1.239a11.8,11.8,0,0,0-.011,1.709c.035.768.044,1.317-1.07,1.318-1.131,0-1.2-.5-1.185-1.373.034-2.756.044-5.513-.02-8.268-.021-.894.227-1.2,1.116-1.092,1.355.168,2.725-.107,4.092.347a2.742,2.742,0,0,1,2.049,2.215,2.523,2.523,0,0,1-.982,2.874c-.861.51-.445.885-.172,1.325.78,1.258,1.6,2.49,2.432,3.771m-6.246-7.316c-.045.72-.143,1.434.9,1.357.931-.069,1.885-.19,1.909-1.394.022-1.138-.914-1.088-1.707-1.173-.982-.105-1.252.389-1.1,1.209" transform="translate(-407.964 -299.882)" fill="#fff"/><path d="M862.089,376.018c0-1.472.011-2.943-.005-4.415-.006-.551.1-.932.772-.884,1.5.108,3.022-.158,4.512.361a2.5,2.5,0,0,1,1.872,1.833c.194,1.143.331,2.5-.943,3.162-.925.481-.561.843-.2,1.382.706,1.042,1.368,2.113,2.08,3.15.357.519.3.73-.361.774-1.045.069-1.91-.019-2.442-1.163a17.04,17.04,0,0,0-1.695-2.589,1.058,1.058,0,0,0-1.238-.485c-.476.171-.263.651-.281,1a16.647,16.647,0,0,0,0,1.993c.054.814-.03,1.292-1.1,1.28s-.984-.562-.973-1.264c.023-1.376.007-2.753.007-4.13Zm2.08-2.138c-.063.779-.116,1.523,1,1.379.889-.115,1.857-.124,1.875-1.4.019-1.345-1.065-1.057-1.818-1.194-1.014-.184-1.2.424-1.06,1.219" transform="translate(-697.876 -300.103)" fill="#fff"/><path d="M1025.2,374.559a15.977,15.977,0,0,1-.038,3.273c-.5,2.356-1.8,3.525-4.895,3.445s-4.414-1.643-4.379-4.621c.02-1.712.068-3.428-.025-5.135-.057-1.05.522-.956,1.226-1.023.887-.084,1.008.307.99,1.056-.044,1.806-.054,3.615,0,5.421a2.423,2.423,0,0,0,3.38,2.435,2,2,0,0,0,1.476-2.03c-.026-2,.025-4-.022-5.992-.019-.794.283-1,1.008-.89.6.093,1.393-.219,1.306.924-.08,1.04-.017,2.092-.017,3.138Z" transform="translate(-822.363 -299.903)" fill="#fff"/><path d="M1.128,380.37q1.729-3.836,3.451-7.659c.305-.678.632-1.349.9-2.042a1.235,1.235,0,0,1,1.2-.982,1.255,1.255,0,0,1,1.377.872c1.366,3.075,2.745,6.145,4.112,9.22.109.244.29.66-.1.688-.664.048-1.4.355-2-.2a1.824,1.824,0,0,1-.371-.6c-.3-.673-.4-1.721-1.067-1.871a14.53,14.53,0,0,0-3.55-.085c-.7.019-.7.685-.85,1.151-.475,1.512-1.429,2.065-3.1,1.507m4.278-4.488c.951.063,1.908.415,2.418-.138.358-.387-.35-1.166-.606-1.763-.106-.248-.022-.584-.4-.736-.7.706-.765,1.732-1.415,2.637" transform="translate(-0.913 -299.268)" fill="#fff"/><path d="M306.63,380.514c-1.744.606-2.791-.065-3.172-1.721-.212-.922-.744-1.083-1.536-1a3.277,3.277,0,0,1-.853,0,2.325,2.325,0,0,0-3.026,1.973c-.357,1.378-1.653.811-2.754.841,1.573-3.51,3.111-6.911,4.617-10.327.276-.626.772-.408,1.208-.447a.9.9,0,0,1,1.074.642c1.444,3.374,2.962,6.717,4.441,10.039m-5.543-4.384c.265-.289,1.167.275.975-.482-.182-.719-.231-1.959-1.156-1.979-.588-.012-.778,1.19-.949,1.849-.235.9.674.4,1.131.612" transform="translate(-239.045 -299.381)" fill="#fff"/><path d="M962.979,380.447c-1.47.241-2.64.314-2.99-1.5a1.488,1.488,0,0,0-1.947-1.27,3.815,3.815,0,0,1-1.42,0c-1.058-.173-1.74.172-1.96,1.255-.341,1.679-1.472,1.839-3.008,1.483,1.2-2.649,2.387-5.267,3.572-7.885.289-.639.62-1.265.85-1.925a1.156,1.156,0,0,1,1.213-.915c.753-.031,1.015.257,1.294.9,1.421,3.281,2.909,6.533,4.4,9.848m-5.629-7.106c-.6.483-.6,1.276-.995,1.848-.466.672-.1.828.506.783.506-.038,1.167.262,1.481-.17.327-.449-.084-.975-.382-1.4-.212-.306-.079-.777-.611-1.058" transform="translate(-770.387 -299.278)" fill="#fff"/><path d="M127.442,375.583c0-1.424.032-2.85-.014-4.272-.023-.713.159-1.03.937-1.013,1.71.038,3.422.038,5.131-.021.921-.032.971.487.991,1.168.024.807-.387.938-1.08.881-.755-.063-1.528.046-2.277-.047-1.23-.153-1.543.423-1.533,1.528.007.7.214.938.893.908.854-.038,1.711.012,2.565-.018.645-.023.937.165.919.885-.018.691-.263.915-.929.873-.71-.045-1.431.053-2.136-.021-.99-.1-1.238.287-1.329,1.25-.128,1.348.294,1.8,1.617,1.633.8-.1,1.614-.006,2.421-.03.585-.018.975.028.974.811s-.27.955-1,.935c-1.757-.049-3.517-.043-5.274,0-.68.015-.911-.2-.892-.887.042-1.518.013-3.038.013-4.557" transform="translate(-103.155 -299.747)" fill="#fff"/><path d="M810.2,374.849c0,1,.014,2,0,3a3.443,3.443,0,0,1-3.16,3.369,15.636,15.636,0,0,1-2.129.013c-2.4-.157-3.711-1.477-3.773-3.844-.051-1.948.022-3.9-.048-5.848-.032-.9.378-1.025,1.111-1,.659.024,1.2-.015,1.159.947-.07,1.8-.033,3.613-.017,5.42.017,1.909.73,2.629,2.535,2.609,1.557-.017,2.33-.907,2.332-2.689,0-1.76.047-3.521-.016-5.278-.032-.88.367-1,1.1-1.014.8-.018.955.346.93,1.036-.039,1.092-.01,2.187-.01,3.281Z" transform="translate(-648.5 -299.955)" fill="#fff"/><path d="M553.452,375.972c0-1.472.036-2.946-.015-4.416-.026-.746.222-1,.966-.985q2.565.061,5.133.005c.774-.017.813.412.821.99.009.6-.06,1.024-.829.979-.853-.05-1.716.033-2.565-.043-1.03-.093-1.271.344-1.275,1.308,0,.949.275,1.267,1.218,1.152.7-.086,1.425.01,2.137-.019.616-.025.974.095.957.844-.015.669-.215.951-.905.9-.663-.044-1.339.054-1.994-.027-1.153-.142-1.4.344-1.423,1.431-.031,1.206.341,1.592,1.51,1.455.8-.094,1.616.012,2.422-.03.7-.037,1.02.139,1.007.935-.013.776-.4.813-.984.806-1.711-.021-3.423-.041-5.133.009-.783.022-1.1-.184-1.063-1.025.065-1.422.018-2.849.017-4.273" transform="translate(-448.017 -299.986)" fill="#fff"/><path d="M911.857,375.8c0-1.423.027-2.848-.012-4.27-.019-.7.157-1.034.944-1.01q2.562.077,5.128.009c.8-.022.79.421.792.988s.033,1.028-.78.984c-.994-.054-1.993.009-2.99,0-1.268,0-.7.965-.819,1.551-.146.713.242.9.895.862.758-.042,1.521.025,2.279-.02.7-.042.87.249.879.912.01.737-.313.884-.943.835-.52-.04-1.053.048-1.565-.028-1.247-.185-1.641.284-1.6,1.545.035,1.019.223,1.492,1.337,1.353.748-.093,1.518,0,2.277-.027.663-.023,1.221-.03,1.218.9,0,1.024-.7.809-1.283.813-1.52.009-3.042-.048-4.558.023-.906.042-1.27-.2-1.222-1.16.072-1.42.018-2.846.022-4.269" transform="translate(-738.15 -299.947)" fill="#fff"/><path d="M450.256,373.161c-2.538-2.292-4.858-1.63-6.02-.453a3.748,3.748,0,0,0,.027,5.017c1.223,1.252,3.412,1.893,5.988-.247.988,1.843,1.05,2-.909,2.756-2.381.913-5.764.541-7.382-1.885a5.706,5.706,0,0,1,.016-6.24,6.5,6.5,0,0,1,6.3-2.279c.229.062.455.135.678.215,2.218.8,2.226.815,1.3,3.117" transform="translate(-357.033 -299.262)" fill="#fff"/><path d="M377.071,303.216q-2.424,0-4.849,0a2.824,2.824,0,0,1-2.838-1.682,4.01,4.01,0,0,1,.623-3.995.572.572,0,0,1,.743-.226c.334.13.356.411.3.707-.048.278-.127.551-.179.829a2.13,2.13,0,0,0,1.874,2.623c2.277.1,4.562.026,6.844.047.67.006.762-.35.746-.907-.034-1.234.021-2.471-.04-3.7-.053-1.062.685-.871,1.24-.8s1.549-.54,1.524.794c-.034,1.8-.044,3.61.013,5.413.025.81-.328.931-1.015.916-1.663-.037-3.327-.012-4.991-.016" transform="translate(-298.787 -239.644)" fill="#fff"/><path d="M172.073,370.348c1.189,0,2.38.03,3.568-.011.754-.026.852.349.823.972-.026.564-.009.964-.795,1.021-2.532.182-2.53.219-2.527,2.746,0,1.616-.031,3.234.024,4.848.028.844-.2,1.155-1.111,1.145-.871-.01-1.016-.345-1-1.095.037-2-.076-4,.04-5.988.084-1.435-.469-1.848-1.8-1.69-.49.058-1.12.306-1.5-.13a1.761,1.761,0,0,1-.118-1.508c.109-.512.618-.324.965-.33,1.141-.021,2.283-.008,3.425-.008v.027" transform="translate(-135.655 -299.767)" fill="#fff"/><path d="M680.228,377.163c0,1-.031,1.994.01,2.989.032.758-.025,1.23-1.028,1.2-.9-.027-1.1-.314-1.072-1.165.07-1.9.033-3.795.031-5.693,0-1.913-.007-1.913-1.913-1.917-.75,0-1.584.171-1.477-1.081.05-.586.194-.858.819-.851,2.422.026,4.844.045,7.265.015.78-.01.817.4.8.984-.014.543.053.944-.785.962-2.649.058-2.648.109-2.649,2.707q0,.925,0,1.85" transform="translate(-546.241 -300.046)" fill="#fff"/><path d="M334.349,274.585c0-1.755.057-3.513-.021-5.264-.047-1.069.559-1.021,1.258-.944.612.068,1.445-.368,1.415.918-.081,3.508-.084,7.02-.028,10.529.019,1.2-.719.964-1.4.978-.663.013-1.312.149-1.252-.953.1-1.75.026-3.509.025-5.264" transform="translate(-270.64 -217.229)" fill="#fff"/><path d="M808.9,300.2c-.809,0-1.618,0-2.427,0-.555,0-1.106.132-1.124-.806-.02-1.018.58-.886,1.194-.886a14.439,14.439,0,0,1,2.139.013c1.348.2,1.582-.42,1.543-1.6-.075-2.259-.509-2.806-2.719-2.876-.632-.02-1.1-.037-1.08-.891.024-.872.556-.85,1.155-.835a12.744,12.744,0,0,1,1.284.017c2.77.353,3.842.982,3.693,3.571a2.072,2.072,0,0,0,.037.282c.336,4.017.336,4.017-3.693,4.015" transform="translate(-651.95 -236.626)" fill="#fff"/><path d="M1053.692,274.7c0,1.759-.054,3.52.019,5.276.047,1.128-.673.923-1.3.9-.588-.026-1.37.32-1.354-.849.048-3.517.057-7.037,0-10.554-.021-1.336.881-.882,1.547-.993.9-.15,1.145.215,1.112,1.09-.066,1.709-.019,3.422-.022,5.134" transform="translate(-850.853 -217.311)" fill="#fff"/><path d="M65.884,375.758c0-1.473.044-2.949-.017-4.419-.037-.886.458-.9,1.076-.846.557.05,1.264-.238,1.232.834-.065,2.184.068,4.377-.055,6.556-.078,1.367.417,1.754,1.674,1.581.56-.077,1.142.014,1.71-.021.645-.04.929.15.928.869s-.28.889-.929.877c-1.569-.03-3.141-.053-4.709.007-.816.031-.938-.342-.924-1.018.03-1.473.009-2.946.014-4.42" transform="translate(-53.32 -299.908)" fill="#fff"/><path d="M221.006,375.808c0,1.47-.049,2.942.017,4.409.044.984-.543.9-1.184.9-.605,0-1.077.041-1.062-.859.049-2.986.03-5.975-.02-8.961-.014-.817.33-.966,1.024-.889.639.071,1.333-.118,1.253.992-.105,1.462-.026,2.938-.027,4.408" transform="translate(-177.088 -299.84)" fill="#fff"/><path d="M662.046,376.08c0,1.377-.038,2.756.014,4.131.031.8-.234,1.062-1.048,1.029-.713-.029-1.134-.066-1.118-.971.051-2.9.043-5.8,0-8.694-.012-.806.22-1.067,1.042-1.048.839.019,1.184.22,1.131,1.139-.084,1.467-.022,2.942-.022,4.414" transform="translate(-534.2 -299.95)" fill="#fff"/><path d="M233,262.377c-.616,0-1.233-.007-1.849,0-.451.007-.726-.162-.726-.647,0-.387-.026-.81.541-.79.863.03.745-.606.68-1.081-.254-1.839,1.032-2.812,2.764-2.647.425.041.981-.218,1.031.579.045.708-.238.919-.9.865a1.057,1.057,0,0,0-1.2.951c-.175.811-.127,1.392.977,1.351.478-.018,1.341-.453,1.315.682-.024,1.064-.821.659-1.349.724a10.75,10.75,0,0,1-1.279.012" transform="translate(-186.531 -208.206)" fill="#fff"/><path d="M410.76,275.52a1.247,1.247,0,0,1-1.225,1.2,1.105,1.105,0,0,1-1.288-1.171,1.166,1.166,0,0,1,1.145-1.234,1.424,1.424,0,0,1,1.367,1.209" transform="translate(-330.487 -222.062)" fill="#fff"/><path d="M53.726,340.784c-.159.7-.413,1.258-1.287,1.191a1.146,1.146,0,0,1-1.156-1.152c-.015-.742.493-1.111,1.284-1.143.829-.033,1.034.466,1.16,1.1" transform="translate(-41.514 -274.978)" fill="#fff"/><path d="M94.155,271.55a1.308,1.308,0,0,1,1.291,1.252,1.128,1.128,0,0,1-1.154,1.167,1.11,1.11,0,0,1-1.334-1.1c-.071-.869.577-1.074,1.2-1.315" transform="translate(-75.247 -219.826)" fill="#fff"/><path d="M68.1,339.709c.887-.122,1.186.433,1.177,1.166a1.036,1.036,0,0,1-1.16,1.114,1.135,1.135,0,0,1-1.213-1.233.978.978,0,0,1,1.2-1.047" transform="translate(-54.162 -274.989)" fill="#fff"/><path d="M199.816,272.969a1.062,1.062,0,0,1-1.135,1.181,1.083,1.083,0,0,1-1.229-1.2,1.063,1.063,0,0,1,1.117-1.184,1.146,1.146,0,0,1,1.247,1.2" transform="translate(-159.843 -220.004)" fill="#fff"/><path d="M395.066,275.533a1.209,1.209,0,0,1-1.16,1.176,1.149,1.149,0,0,1-1.285-1.194,1.165,1.165,0,0,1,1.143-1.215,1.229,1.229,0,0,1,1.3,1.233" transform="translate(-317.836 -222.051)" fill="#fff"/><path d="M962.149,273.243c.086.8-.4,1.131-1.1,1.108-.65-.022-1.173-.288-1.192-1.1-.02-.891.549-1.194,1.248-1.2a.959.959,0,0,1,1.042,1.193" transform="translate(-777.03 -220.231)" fill="#fff"/><path d="M944.884,273.275a.958.958,0,0,1,1.093-1.157,1.1,1.1,0,0,1,1.184,1.252c-.037.832-.582,1.066-1.221,1.031s-1.2-.322-1.057-1.126" transform="translate(-764.888 -220.285)" fill="#fff"/><path d="M215.041,273.217c.055.909-.558,1.153-1.267,1.12a1.017,1.017,0,0,1-1.056-1.2,1.05,1.05,0,0,1,1.146-1.127c.663,0,1.292.311,1.178,1.207" transform="translate(-172.2 -220.199)" fill="#fff"/><path d="M26.127,273.174c.124.7-.328,1.094-1.01,1.122s-1.267-.2-1.3-1.1a1.076,1.076,0,0,1,1.191-1.222,1.037,1.037,0,0,1,1.117,1.2" transform="translate(-19.281 -220.168)" fill="#fff"/><path d="M9.9,271.914c.694.163,1.226.459,1.15,1.316a1.054,1.054,0,0,1-1.261,1.025c-.715-.037-1.062-.434-1.05-1.206.013-.813.468-1.053,1.161-1.135" transform="translate(-7.076 -220.121)" fill="#fff"/></g></svg>