<svg xmlns="http://www.w3.org/2000/svg" xmlns:xlink="http://www.w3.org/1999/xlink" width="211" height="36" viewBox="0 0 211 36"><defs><clipPath id="a"><rect width="211" height="36" fill="#fff"/></clipPath></defs><g clip-path="url(#a)"><path d="M189.627,19.1c2.908,0,5.817-.018,8.725,0,4.263.033,7.431,3.431,7.446,7.99.016,4.893-.022,9.787.025,14.679.01,1.041-.172,1.438-1.253,1.409-2.9-.08-2.893-.018-2.9-3.091q0-6.168-.023-12.337c-.013-3.014-.962-4.022-3.757-4.033-1.745-.007-3.492.041-5.235-.031-.92-.038-1.24.176-1.228,1.274.061,5.465-.01,10.931.041,16.4.013,1.38-.32,1.893-1.7,1.82-2.579-.136-2.58-.042-2.578-2.846,0-5.049-.038-10.1.027-15.147.016-1.191-.325-1.531-1.386-1.483-1.742.078-3.49,0-5.234.032-2.043.04-3.039,1.077-3.052,3.258-.03,4.84-.046,9.682.01,14.522.015,1.245-.249,1.717-1.51,1.672-2.771-.1-2.766-.024-2.766-2.971,0-4.164-.023-8.329-.015-12.493.011-5.377,3.057-8.623,8.069-8.624q4.144,0,8.289,0" transform="translate(-122.844 -13.124)" fill="#fff"/><path d="M9.13,33.03c-2.665,0-5.331-.039-7.995.022C.235,33.073,0,32.785,0,31.828c0-3.264-.041-3.265,3.047-3.264,4.458,0,8.916.023,13.374-.006,2.554-.017,3.953-2,3.073-4.257a3.2,3.2,0,0,0-2.2-1.853C13.109,21.033,8.924,19.635,4.75,18.2a6.88,6.88,0,0,1-4.72-6.72A6.884,6.884,0,0,1,4.617,4.81,8.635,8.635,0,0,1,7.624,4.4c4.216-.013,8.432.051,12.647-.022,1.294-.022,1.633.428,1.6,1.78-.078,2.832-.006,2.835-2.708,2.835-4.07,0-8.141-.023-12.211.012a2.444,2.444,0,0,0-2.6,3.172C4.6,13.3,5.414,13.693,6.318,14c4,1.357,7.993,2.728,11.993,4.082A7.705,7.705,0,0,1,23.435,28.1a7.034,7.034,0,0,1-6.31,4.917c-2.664.053-5.33.012-8,.013" transform="translate(0 -3.006)" fill="#fff"/><path d="M111.59,34.054c0,2.652-.032,5.305.018,7.957.017.884-.226,1.157-1.056,1.149-4.262-.037-8.525.029-12.787-.026-3.879-.051-6.9-3.452-6.923-7.657a7.382,7.382,0,0,1,6.828-7.606q4.283-.143,8.571.006c1.224.043,1.393-.512,1.23-1.558a2.842,2.842,0,0,0-2.986-2.563c-3.391-.018-6.782-.04-10.171.02-1.021.018-1.429-.186-1.4-1.428.075-3.254.011-3.256,3-3.257,2.809,0,5.619-.028,8.428.008,4.186.053,7.17,3.267,7.231,7.778.032,2.392.006,4.785.006,7.177h.012m-9.321-1.648v.014c-1.352,0-2.7-.017-4.057,0a2.937,2.937,0,0,0-3.228,2.961,3.065,3.065,0,0,0,3.143,3.277c2.8.081,5.6.005,8.4.042.773.01,1.005-.313.98-1.1-.044-1.347-.06-2.7.006-4.044.043-.88-.229-1.193-1.045-1.165-1.4.048-2.8.013-4.2.013" transform="translate(-64.406 -13.118)" fill="#fff"/><path d="M668.056,32.89c-2.277,0-4.555.032-6.831-.016-.842-.017-1.188.2-1.212,1.2-.077,3.349.934,4.525,4.09,4.533,2.859.007,5.718.041,8.576-.027,1.028-.025,1.313.35,1.319,1.421.019,3.064.061,3.066-2.748,3.07-2.713,0-5.427.02-8.14,0-4.084-.031-7.144-3.345-7.145-7.705,0-2.705.129-5.42-.036-8.114a7.47,7.47,0,0,1,6.65-8.1,28.672,28.672,0,0,1,7.535.147,7.369,7.369,0,0,1,5.906,7.213c.042,1.768-.026,3.538.015,5.306.019.815-.245,1.1-1,1.067-1.161-.047-2.325.01-3.487.015s-2.325,0-3.488,0ZM665.894,28.4c1.69,0,3.379.008,5.069-.006.4,0,.852.119.978-.59a3.416,3.416,0,0,0-3.14-4.11c-1.834-.019-3.669-.015-5.5,0-2.06.021-3.189,1.267-3.278,3.462-.037.909.152,1.308,1.1,1.259,1.589-.082,3.185-.022,4.778-.02" transform="translate(-465.036 -13.043)" fill="#fff"/><path d="M303.708,43.041c-2.181,0-4.363-.029-6.543.015-.816.017-1.185-.134-1.19-1.171-.015-3.3-.063-3.3,3.015-3.3q4.944,0,9.888,0a10.214,10.214,0,0,0,1.305-.049,2.039,2.039,0,0,0,.4-3.968q-4.615-1.577-9.239-3.123c-1.783-.593-3.453-1.3-4.471-3.176-2.117-3.891.253-9.006,4.472-9.227,3.917-.205,7.85-.05,11.776-.045.373,0,.856-.07.868.539a34.671,34.671,0,0,1-.037,3.586c-.064.761-.751.486-1.184.488-3.586.023-7.173,0-10.759.034-1.318.012-1.871.713-1.664,1.905.14.806.72,1.036,1.332,1.246,3.351,1.149,6.7,2.312,10.054,3.446,3.133,1.06,4.811,3.936,4.327,7.474a6.163,6.163,0,0,1-5.954,5.328c-.1,0-.194,0-.291,0h-6.107Z" transform="translate(-209.841 -13.019)" fill="#fff"/><path d="M493.063,33.993c0-2.4-.013-4.791,0-7.187.029-4.392,3.176-7.883,7.246-7.894,2.756-.008,5.545-.387,8.264.211,3.623.8,5.859,3.657,5.927,7.577.088,5.05,0,10.1.024,15.155,0,.783-.188,1.074-.976,1.106-3.307.136-3.308.167-3.31-3.412q0-6.172,0-12.343c0-2.565-.968-3.642-3.3-3.654q-3.2-.017-6.4,0c-2.242.016-3.375,1.284-3.367,3.675.017,4.739-.011,9.478.041,14.216.012,1.085-.149,1.561-1.327,1.525-2.816-.087-2.817-.013-2.815-3.038q0-2.969,0-5.937Z" transform="translate(-349.573 -12.916)" fill="#fff"/><path d="M603.029,15.638c0-3.331.023-6.663-.016-9.994-.01-.85.2-1.289,1.038-1.2a.941.941,0,0,0,.145,0c2.951-.154,3.017-.153,2.969,2.966-.02,1.341.394,1.707,1.578,1.6C610,8.9,611.263,8.992,612.523,9c.29,0,.731-.113.847.043.891,1.2.269,2.627.4,3.949.087.857-.6.624-1.031.629-1.5.017-3.006.034-4.508-.013-.743-.023-1.013.215-1.006,1.06.03,3.434-.07,6.87,0,10.3.052,2.512,1.1,3.528,3.464,3.6q2.107.067,4.216,0c.754-.025.989.271,1.032,1.073.181,3.4.2,3.419-2.916,3.4-2.163-.012-4.374.3-6.364-1.021a7.812,7.812,0,0,1-3.618-6.7c-.066-3.226-.015-6.454-.015-9.681" transform="translate(-427.528 -3.02)" fill="#fff"/><path d="M375.957,29.7c-.169,4.131.909,7.632,3.645,10.4,2.7,2.733,6.029,3.477,9.681,3.119a9.294,9.294,0,0,1-9.324,5.927c-4.73-.534-8.162-4.143-8.9-9.361-.545-3.839,1.7-8.586,4.9-10.087" transform="translate(-263.017 -20.42)" fill="#fff"/><path d="M411.959,5.271c-9.185,1.026-12.006,4.312-12.488,14.551-3.272-1.177-5.742-5.83-5.433-10.23a10.422,10.422,0,0,1,8.51-9.485,9.16,9.16,0,0,1,9.411,5.165" transform="translate(-279.35 0)" fill="#fff"/><path d="M435.893,42.567c.306-8.4-5.334-14.4-13.355-13.616,1.131-3.48,5.459-6.224,9.217-5.843,4.526.458,8.083,4.054,8.93,9.027.674,3.958-1.587,8.879-4.793,10.432" transform="translate(-299.575 -15.862)" fill="#fff"/><path d="M400.381,66.145c8.526-.2,12.285-4.589,12.56-14.519,3.623,1.748,5.935,6.383,5.363,10.752a10.275,10.275,0,0,1-8.435,9c-3.65.671-7.7-1.527-9.488-5.228" transform="translate(-283.866 -35.493)" fill="#fff"/><path d="M581.873,31.061c0,3.587-.035,7.175.022,10.761.016,1.024-.265,1.3-1.209,1.3-2.987-.008-2.98.036-2.977-3.157.006-6.5.035-13-.02-19.5-.01-1.188.311-1.478,1.381-1.456,2.8.058,2.8,0,2.8,3q0,4.523,0,9.046" transform="translate(-409.575 -13.071)" fill="#fff"/></g></svg>