<svg xmlns="http://www.w3.org/2000/svg" width="175" height="35" viewBox="0 0 175 35"><g transform="translate(-0.005 -0.007)"><g transform="translate(0.005 0.007)"><g transform="translate(0.015 0.094)"><g transform="translate(99.149 0.955)"><path d="M228.323,15.564l-2.873,9.785c.289.044.447.673.425,1.106-.035.616.031,14.042.031,14.413a1.507,1.507,0,0,0,.342.887l5.483-7.368V13.2l-3.407,2.364Z" transform="translate(-225.45 -8.47)" fill="#fff"/><path d="M246.71,3.161a2.96,2.96,0,0,0-.123-.761l-6.8,4.721V28.314l.061-.087,6.854,6.951a9.262,9.262,0,0,0,.035-1.119c0-1.482.061-29.512-.031-30.9Z" transform="translate(-233.51 -2.4)" fill="#fff"/></g><g transform="translate(119.452 0.153)"><path d="M283.672,32.426a3.267,3.267,0,0,1-.048-.7c.031-.876-.026-9.136-.057-10.31a2.739,2.739,0,0,1,.031-.591c-3.8-3.311-7.432-5.037-12.118-5.054a7.877,7.877,0,0,0-.219,1.813s.022,16.52.022,18a9.093,9.093,0,0,0,1.077,3.6c7.45-2.317,10.257-5.146,11.313-6.762Z" transform="translate(-271.26 -9.174)" fill="#fff"/><path d="M318.122,54.4c-3.053.009-31.73.031-32.317.031a.668.668,0,0,1-.723-.626c-1.055,1.616-3.863,4.445-11.312,6.762a8.39,8.39,0,0,0,7.441,4.45c1.835-.013,37.682-.07,38.453-.031,1.147.057,1.235-.556,1.3-1.419a67.547,67.547,0,0,0,0-7.594c-.276-1.419-.241-1.581-2.838-1.572Z" transform="translate(-272.671 -30.548)" fill="#fff"/><path d="M283.878,12.281a.988.988,0,0,1,1.077-.92c3.149.031,32.067,0,33.3,0,1.086,0,1.235-.215,1.511-1.577a48.725,48.725,0,0,0,.127-7.051c-.136-1.419-.565-2.155-2.133-2.164-1.756,0-37.559.057-38.343.088a8.831,8.831,0,0,0-7.66,6.565c4.686.018,8.321,1.743,12.118,5.054Z" transform="translate(-271.541 -0.569)" fill="#fff"/></g><g transform="translate(58.156)"><path d="M196.76,44.783c.149-.193.337-.455.622-.815.955-1.2,7.931-14.015,8.7-15.219.171-.263.315-.35.442-.333L209.4,18.61,191.78,37.258l4.98,7.524Z" transform="translate(-165.621 -10.617)" fill="#fff"/><path d="M154.975,27.709c.254-.136.591-.061.845.412.491.928,7.962,14.225,8.61,15.276a3.044,3.044,0,0,0,.758.85L169.9,37.7,151.55,17.43,154.975,27.7Z" transform="translate(-143.01 -9.954)" fill="#fff"/><path d="M217.868.65C217.1.62,204.751.62,204.195.65a2.826,2.826,0,0,0-2.562,1.572c-.512.771-1.975,3.3-3.561,6.114-2.142,3.806-4.507,8.12-5.019,9.258-.469,1.034-.679.924-.837.955a.312.312,0,0,1-.145.009l-.3,8.588L209.389,8.5l10.2-7.1c-.2-.609-.653-.709-1.73-.753Z" transform="translate(-165.615 -0.449)" fill="#fff"/><path d="M157.728,17.244c-.315-.688-2.882-5.339-5.089-9.307-1.66-2.974-3.114-5.566-3.272-5.816A3.04,3.04,0,0,0,146.56.238c-.219.009-12.806-.061-13.459.031a4.479,4.479,0,0,0-1.051.267l8.54,7.226,17.619,19.161.3-8.588C158.358,18.308,158.135,18.12,157.728,17.244Z" transform="translate(-132.05 -0.22)" fill="#fff"/></g><g transform="translate(57.039 0.315)"><path d="M182.684,69.554a2.1,2.1,0,0,0,1.34.447c.587-.031,5.339,0,6.385-.031.736-.022.885-.088,1.231-.543l-4.112-6.977-4.848,7.108Z" transform="translate(-159.392 -35.572)" fill="#fff"/><path d="M227.27,68.952a1.368,1.368,0,0,0,1.077.561c1.55,0,9.631.031,9.876,0,1.055-.131,1.362-.42,1.445-1.069l-6.854-6.964-5.545,7.472Z" transform="translate(-184.453 -35.027)" fill="#fff"/><path d="M130,69.654a1.112,1.112,0,0,0,1.02.618c1.235.044,9.447.026,10.279,0,.876-.035,1.126-.342,1.209-.788l-6.543-6.543L130,69.65Z" transform="translate(-129.783 -35.848)" fill="#fff"/><path d="M130.62.94a1.9,1.9,0,0,0-.495.293,1.859,1.859,0,0,0-.613,1.443c.061.769-.031,30.13,0,31.118a2.177,2.177,0,0,0,.21.953l5.965-6.7,6.543,6.531h0a6.98,6.98,0,0,0,.057-.787c.153-2.8.031-14.112-.031-14.54a.777.777,0,0,1,.328-.844L139.16,8.153Z" transform="translate(-129.505 -0.94)" fill="#fff"/></g><g transform="translate(0 0.127)"><path d="M12.714,32.39c.079-2.877-.031-9.67-.053-11.593L.263,15.66a5.865,5.865,0,0,0-.184,1.528c.026,1.051-.14,9.626.061,17.1A10.069,10.069,0,0,0,2.1,40.3L12.71,32.631v-.245Z" transform="translate(-0.039 -9.086)" fill="#fff"/><path d="M109.1,12.169c.368-.1.508-.364.508-.863,0,0,.044-6.6.018-8.045a1.688,1.688,0,0,0-.1-.591l-3.793,4.8,3.359,4.7Z" transform="translate(-59.447 -1.724)" fill="#fff"/><path d="M12.944,11.976a.936.936,0,0,1,1-1.016c2.238,0,35.015.031,35.615.044a1.461,1.461,0,0,0,.416-.044l-3.359-4.7,3.793-4.8C50.1.593,49.1.541,48.2.51c-3.21.031-38.83.114-39.32.145C3.489.987,1.181,4.566.55,7.145l12.394,5.137v-.311Z" transform="translate(-0.326 -0.51)" fill="#fff"/><path d="M98.174,29.65l-9.447,7L85.99,39.933c.031.3.035.657.035.9l10.91,7.086a13.323,13.323,0,0,0,1.607-6.175c.061-1.143.053-9.95.009-11.037A1.63,1.63,0,0,0,98.174,29.65Z" transform="translate(-48.347 -16.949)" fill="#fff"/><path d="M40.355,54.775c0,.311-.206.39-.473.412h-24c-.447,0-.534-.25-.534-.766L4.74,62.093a8.6,8.6,0,0,0,6.683,3.3c4.231,0,24.968-.031,32.935.031a7.409,7.409,0,0,0,6.907-3.578l-10.91-7.086v.018Z" transform="translate(-2.681 -30.871)" fill="#fff"/></g><g transform="translate(25.324 12.28)"><path d="M81.271,28.467c-3.578-.2-19.051-.162-21.026,0a2.7,2.7,0,0,0-2.615,2.47l4.222,1.5-3.626,5.146a2.666,2.666,0,0,0,2.365,1.069s8.558-.018,8.764,0,.6,0,.657.333c.013.066.022.14.031.215l2.737-3.285,9.447-7a1.379,1.379,0,0,0-.964-.442Z" transform="translate(-57.613 -28.332)" fill="#fff"/><path d="M57.609,34.274v.035c.013,1.112-.083,3.026.079,4.958a3.42,3.42,0,0,0,.521,1.647l3.626-5.146-4.222-1.5Z" transform="translate(-57.592 -31.669)" fill="#fff"/></g></g><path d="M49.52,5.9c.311.009,1.029-.149,1.091,1.106s-.022,3.532-.022,4.065-.35.8-.924.826-33.99,0-33.99,0a2.514,2.514,0,0,0-2.632,2.6c.026,1.416.079,12.767.1,13.082a2.574,2.574,0,0,0,2.7,2.522c2.028.044,22.787.061,23.93.022a2.547,2.547,0,0,0,2.615-2.749c.022-1.971.022-2.671,0-2.959s-.022-.616-.723-.634-10,0-10.717,0-.985-.249-1.029-1.027-.057-3.47-.039-3.881c.022-.6.206-.817,1.152-.822l18.745-.022c.473,0,.771.061.81,1.088s.009,9.305.009,9.86a6.932,6.932,0,0,1-6.727,6.84c-5.207.166-31.792.083-32.3.083a7.383,7.383,0,0,1-6.749-6.674c-.158-1.735-.131-15.582-.123-16.447.013-1.294,1.432-6.766,6.8-6.888s37.231-.022,38.032.013Z" transform="translate(-2.635 -3.282)" fill="#fff"/><path d="M275.868,13.457a7.119,7.119,0,0,1,6.915-7.146c4.415-.092,35.151-.061,35.9-.031s1.266.306,1.235,1.228,0,2.71-.061,3.636-.123,1.11-1.2,1.136-29.97,0-31.94,0a2.708,2.708,0,0,0-2.9,2.649c.026,1.171.092,11.98.184,12.723a2.446,2.446,0,0,0,2.505,2.369c2.006.031,31.665-.031,32.374-.031s.959.433.99,1.294,0,3.02-.031,3.7-.153.922-1.174.953-32.19.214-36.079.122a6.894,6.894,0,0,1-6.727-7.146c0-3.942.061-13.462.031-15.463Z" transform="translate(-154.373 -3.516)" fill="#fff"/><path d="M134.534,7.132c0-1.193.885-.927,1.13-.944s11.645-.044,12.075,0,.6.328,1.029,1.071,10.283,18.2,10.494,18.6c.289.555.762.983,1.235.166S171.134,7.215,171.424,6.764s.591-.472,1.064-.494,12.079.022,12.079.022c.556.022.8.367.841,1.128s.013,27.885.013,27.885a.8.8,0,0,1-.88.9h-6.731c-.372,0-.758,0-.74-1.211s0-22.011,0-22.011-.162-.8-.613,0-7.883,14.747-13.029,23a.723.723,0,0,1-.657.271c-.683,0-5.724-.022-5.724-.022-.245,0-.407.031-.718-.463s-12.609-22.549-12.937-23-.679-.328-.679.227c0,2.732.022,21.827.039,22.278s0,.922-.885.966-6.565.066-6.977-.079-.412-.376-.434-.844.061-27,.061-28.2Z" transform="translate(-75.251 -3.466)" fill="#fff"/><g transform="translate(2.813 3.32)"><path d="M50.763,19.782h0L32.014,19.8a3.031,3.031,0,0,0-.381.022v.057c-.013.385,0,3.055.044,3.811a1.309,1.309,0,0,0,.039.284,1.066,1.066,0,0,0,.219.017h1.218c4.423-.009,9.013-.017,9.521,0a1.322,1.322,0,0,1,1.467,1.324v.026c.022.3.026.9,0,3.02a3.319,3.319,0,0,1-3.359,3.514c-1.2.039-22.029.022-23.974-.017a3.343,3.343,0,0,1-3.451-3.243c-.013-.17-.026-2.141-.053-6.6-.018-2.876-.039-5.847-.048-6.52a3.285,3.285,0,0,1,3.4-3.387c11.514.009,33.425.013,33.964,0a.478.478,0,0,0,.18-.026v-.031c0-.149,0-.415.013-.756.018-.892.053-2.377,0-3.273a1,1,0,0,0-.066-.371H50.47c-1.051-.039-33.009-.122-37.989-.009-4.888.114-6.039,5.192-6.048,6.123-.009,1.149-.026,14.728.123,16.371.482,5.432,5.926,5.97,5.983,5.97h.587c8.094.022,27.377.057,31.7-.083C49.787,35.869,50.8,31.2,50.8,29.96v-.747c0-2.037.022-8.225-.013-9.077a2.837,2.837,0,0,0-.035-.345Z" transform="translate(-6.427 -7.588)" fill="#fff"/><path d="M185.676,8.437a1.374,1.374,0,0,0-.066-.4h-.031c-4.642-.017-11.658-.035-12.022-.022q-.377.017-.451.135c-.219.358-4.8,8.435-7.818,13.775L162.2,27.382a1.4,1.4,0,0,1-1.248.843c-.368-.009-.9-.192-1.34-1.036-.223-.42-10.012-17.774-10.48-18.578a4.949,4.949,0,0,0-.434-.677c-.683-.035-11.51-.017-11.956,0h.018a1.681,1.681,0,0,1-.258,0c-.039,0-.1,0-.149,0a.925.925,0,0,0-.013.184l-.018,6.009c-.022,7.587-.061,21.7-.044,22.153V36.3a1.143,1.143,0,0,0,0,.122c1.02.087,5.619.087,6.591.039a.641.641,0,0,0,.153-.017V36.3c-.022-.516-.039-22.092-.039-22.31a1.1,1.1,0,0,1,2.072-.682c.193.267,2.785,4.877,8.518,15.112,2.22,3.964,4.314,7.7,4.454,7.932a.866.866,0,0,0,.066.1h0l5.72.022h.066c4.371-7.023,10.345-18.075,12.315-21.72.35-.647.561-1.036.631-1.158.394-.7.858-.787,1.178-.734a1.109,1.109,0,0,1,.863.966l.013.074v.074c0,.848.018,20.82,0,22.026a3.072,3.072,0,0,0,.022.428h6.679a.564.564,0,0,0,.1,0,.655.655,0,0,0,.013-.127c0-7.521.018-27.183-.013-27.843Z" transform="translate(-79.065 -7.771)" fill="#fff"/><path d="M320.075,32.278a1.381,1.381,0,0,0-.088-.538.508.508,0,0,0-.127-.013h-2.413c-7,.017-28.288.057-29.974.031a3.188,3.188,0,0,1-3.254-3.046c-.061-.5-.105-4.34-.149-9.3-.018-1.744-.035-3.125-.044-3.5a3.346,3.346,0,0,1,.959-2.364,3.68,3.68,0,0,1,2.715-1.075h3.491c8.247.009,27.561.026,28.432,0a3.931,3.931,0,0,0,.42-.031c.018-.122.026-.3.035-.389.035-.529.044-1.39.044-2.159,0-.551,0-1.066.018-1.451.013-.328.013-.415-.495-.437-.766-.031-31.437-.061-35.847.031a6.334,6.334,0,0,0-6.158,6.372c.018,1.228,0,5.253-.013,9.147l-.018,6.319a6.144,6.144,0,0,0,5.974,6.376c3.775.087,34.713-.083,36.035-.127a2.483,2.483,0,0,0,.412-.035c0-.044.009-.1.018-.179.026-.69.057-2.827.026-3.636Z" transform="translate(-158.175 -7.808)" fill="#fff"/></g><path d="M8.57,11.362A6.032,6.032,0,0,1,13.458,8.02H51.481c.237.039.267.162.39.784-.145-.346-.131-.4-.39-.4H13.5A6.156,6.156,0,0,0,8.57,11.362Z" transform="translate(-4.819 -4.51)" fill="#fff"/><path d="M303.963,8.412H284.8c-1.1,0-3.035.556-4.923,2.917a6.172,6.172,0,0,1,4.879-3.3h35.768c.377-.031.591-.044.67.731-.258-.254-.3-.346-.67-.342H303.963Z" transform="translate(-156.638 -4.508)" fill="#fff"/><g transform="translate(123.089 3.551)"><path d="M284.777,8.507c-1.069,0-3.044.534-4.927,2.895a6.176,6.176,0,0,1,4.888-3.276h35.768c.372-.035.6-.031.674.723-.258-.254-.311-.342-.674-.337H284.777Z" transform="translate(-279.71 -8.115)" fill="#fff"/><path d="M284.771,8.6c-1.038,0-3.048.512-4.931,2.869a6.216,6.216,0,0,1,4.892-3.254H320.5c.363-.035.609-.018.679.723-.258-.258-.324-.337-.679-.337H284.776Z" transform="translate(-279.704 -8.167)" fill="#fff"/><path d="M284.75,8.7a6.661,6.661,0,0,0-4.94,2.842,6.243,6.243,0,0,1,4.9-3.232h35.777c.355-.035.618,0,.683.723-.258-.258-.333-.337-.683-.333H284.755Z" transform="translate(-279.687 -8.219)" fill="#fff"/><path d="M284.733,8.8a6.672,6.672,0,0,0-4.953,2.82,6.259,6.259,0,0,1,4.91-3.206h35.777c.35-.039.622.009.683.714-.254-.258-.342-.333-.683-.328Z" transform="translate(-279.67 -8.279)" fill="#fff"/><path d="M284.712,8.894a6.674,6.674,0,0,0-4.962,2.8,6.281,6.281,0,0,1,4.914-3.184h35.781c.342-.039.626.026.688.709a.769.769,0,0,0-.688-.328H284.708Z" transform="translate(-279.654 -8.331)" fill="#fff"/><path d="M284.706,8.995a6.665,6.665,0,0,0-4.966,2.777,6.314,6.314,0,0,1,4.923-3.162h35.781c.342-.039.635.044.7.709a.775.775,0,0,0-.7-.32H284.706Z" transform="translate(-279.648 -8.388)" fill="#fff"/><path d="M284.68,9.09a6.7,6.7,0,0,0-4.98,2.75,6.363,6.363,0,0,1,4.936-3.14h35.781c.328-.039.644.057.7.705a.8.8,0,0,0-.7-.315H284.675Z" transform="translate(-279.626 -8.44)" fill="#fff"/><path d="M284.664,9.186a6.692,6.692,0,0,0-4.984,2.728A6.393,6.393,0,0,1,284.62,8.8h35.786c.324-.039.648.07.705.7a.8.8,0,0,0-.705-.315Z" transform="translate(-279.614 -8.496)" fill="#fff"/><path d="M284.648,9.287a6.693,6.693,0,0,0-4.988,2.7A6.413,6.413,0,0,1,284.609,8.9h35.786c.311-.039.661.083.709.7a.822.822,0,0,0-.709-.311H284.648Z" transform="translate(-279.603 -8.553)" fill="#fff"/><path d="M284.637,9.387a6.691,6.691,0,0,0-5,2.68A6.438,6.438,0,0,1,284.593,9h35.79c.307-.039.661.1.714.692a.835.835,0,0,0-.714-.307H284.633Z" transform="translate(-279.592 -8.61)" fill="#fff"/><path d="M284.616,9.482a6.709,6.709,0,0,0-5.006,2.654,6.491,6.491,0,0,1,4.962-3.044h35.794c.3-.039.67.114.718.688a.851.851,0,0,0-.718-.3H284.612Z" transform="translate(-279.575 -8.661)" fill="#fff"/><path d="M284.6,9.578a6.715,6.715,0,0,0-5.015,2.632,6.507,6.507,0,0,1,4.971-3.018h35.8a.646.646,0,0,1,.718.688.836.836,0,0,0-.718-.3H284.6Z" transform="translate(-279.564 -8.718)" fill="#fff"/><path d="M284.589,9.679a6.708,6.708,0,0,0-5.019,2.61,6.547,6.547,0,0,1,4.975-3h35.8a.662.662,0,0,1,.727.679.869.869,0,0,0-.727-.3H284.593Z" transform="translate(-279.552 -8.774)" fill="#fff"/><path d="M284.568,9.762a6.714,6.714,0,0,0-5.028,2.584,6.572,6.572,0,0,1,4.984-2.974h35.8a.668.668,0,0,1,.727.679.869.869,0,0,0-.727-.293H284.568Z" transform="translate(-279.536 -8.818)" fill="#fff"/><path d="M284.562,9.868a6.705,6.705,0,0,0-5.032,2.562,6.6,6.6,0,0,1,4.993-2.947H320.33a.685.685,0,0,1,.731.674.887.887,0,0,0-.731-.289H284.567Z" transform="translate(-279.53 -8.881)" fill="#fff"/></g><path d="M143.663,8.56l-6.171-.009c-.745-.105-.788.955-.788.955-.07-1.1.153-1.454.674-1.437l11.133.013c.416,0,.556.377.736.758-.272-.193-.25-.276-.635-.276-.166,0-2.606,0-4.953,0Z" transform="translate(-76.581 -4.538)" fill="#fff"/><path d="M230.081,15.292c.061-.736-.547-.762-1.305-.762l-12.994.512c-.1.013-.061.109-.482.736a2.218,2.218,0,0,1,1.143-.355c-.031,0,12.513-.512,12.513-.512a2.687,2.687,0,0,1,1.126.381Z" transform="translate(-120.615 -8.181)" fill="#fff"/><path d="M225.6,8.576c3.009,0,6.153-.044,6.153-.044.5,0,.788.959.788.959,0-1.353-.193-1.441-.674-1.441l-11.26.031c-.42,0-.565.324-.71.758a1.834,1.834,0,0,1,1.047-.254c.166,0,2.308,0,4.656,0Z" transform="translate(-123.197 -4.527)" fill="#fff"/><g transform="translate(94.742 4.175)"><path d="M215.43,15.6a2.228,2.228,0,0,1,1.143-.35l4.787-.188c3.162-.127,6.858-.272,7.555-.3a.85.85,0,0,1,.123,0,2.556,2.556,0,0,1,1.112.4c.061-.749-.53-.784-1.274-.784h-.018l-12.894.495h-.039c-.105.018-.079.118-.49.74Z" transform="translate(-215.43 -12.255)" fill="#fff"/><path d="M215.56,15.4a2.228,2.228,0,0,1,1.147-.346s2.225-.088,4.787-.184c3.158-.123,6.841-.263,7.511-.293.079,0,.123,0,.123,0a2.481,2.481,0,0,1,1.095.42c.061-.762-.521-.806-1.248-.806h-.026l-12.845.473h-.044c-.109.013-.1.123-.5.736Z" transform="translate(-215.503 -12.153)" fill="#fff"/><path d="M215.684,15.211a2.238,2.238,0,0,1,1.143-.346s2.234-.083,4.791-.175c3.149-.118,6.819-.254,7.463-.28h.123a2.4,2.4,0,0,1,1.077.438c.057-.775-.5-.828-1.218-.828h-.031l-12.8.455h-.044c-.127.013-.123.136-.512.736Z" transform="translate(-215.57 -12.058)" fill="#fff"/><path d="M215.82,15.008a2.235,2.235,0,0,1,1.147-.337l4.791-.171c3.145-.114,6.8-.245,7.419-.272h.123a2.317,2.317,0,0,1,1.064.455c.057-.793-.491-.85-1.187-.854h-.039l-12.753.442h-.039c-.136.018-.145.14-.521.74Z" transform="translate(-215.649 -11.951)" fill="#fff"/><path d="M215.95,14.821a2.248,2.248,0,0,1,1.147-.337c.022,0,2.247-.074,4.8-.166,3.136-.105,6.771-.236,7.371-.258h.123a2.232,2.232,0,0,1,1.047.477c.053-.8-.477-.872-1.161-.876h-.044l-12.7.42h-.044C216.335,14.1,216.322,14.229,215.95,14.821Z" transform="translate(-215.722 -11.856)" fill="#fff"/><path d="M216.08,14.623a2.245,2.245,0,0,1,1.147-.333l4.8-.158c3.131-.105,6.753-.228,7.323-.25h.123a2.164,2.164,0,0,1,1.034.495c.053-.819-.464-.889-1.13-.9h-.053l-12.653.4h-.044C216.465,13.9,216.439,14.041,216.08,14.623Z" transform="translate(-215.795 -11.754)" fill="#fff"/><path d="M216.2,14.426a2.23,2.23,0,0,1,1.147-.328c.035,0,2.264-.07,4.8-.149,3.123-.1,6.731-.219,7.279-.241h.123a2.092,2.092,0,0,1,1.016.517c.048-.832-.451-.911-1.1-.924H229.4l-12.609.39h-.044c-.162.018-.2.166-.552.74Z" transform="translate(-215.863 -11.653)" fill="#fff"/><path d="M216.33,14.232a2.259,2.259,0,0,1,1.152-.328c.039,0,2.269-.066,4.8-.145,3.114-.1,6.705-.21,7.231-.232h.118a2.033,2.033,0,0,1,1,.534c.048-.845-.434-.933-1.073-.942H229.5l-12.556.368h-.044c-.175.018-.223.171-.565.74Z" transform="translate(-215.936 -11.552)" fill="#fff"/><path d="M216.454,14.035a2.244,2.244,0,0,1,1.152-.324c.044,0,2.273-.066,4.8-.14,3.105-.092,6.683-.2,7.183-.219h.123a1.974,1.974,0,0,1,.985.556c.044-.863-.42-.955-1.042-.968h-.074l-12.508.35h-.048c-.184.018-.241.184-.574.745Z" transform="translate(-216.003 -11.451)" fill="#fff"/><path d="M216.59,13.836a2.256,2.256,0,0,1,1.152-.324c.053,0,2.286-.061,4.8-.131,3.1-.088,6.661-.188,7.134-.21h.123a1.924,1.924,0,0,1,.972.574c.039-.876-.407-.977-1.016-.994h-.079l-12.46.333h-.044c-.2.018-.263.188-.587.745Z" transform="translate(-216.082 -11.344)" fill="#fff"/><path d="M216.72,13.644a2.241,2.241,0,0,1,1.152-.32c.057,0,2.291-.057,4.809-.123,3.092-.083,6.644-.18,7.091-.2h.123a1.849,1.849,0,0,1,.955.591c.044-.889-.39-1-.99-1.016h-.083l-12.412.315h-.044c-.206.018-.285.2-.6.745Z" transform="translate(-216.155 -11.249)" fill="#fff"/><path d="M216.85,13.441a2.243,2.243,0,0,1,1.156-.315c.066,0,2.3-.053,4.8-.118,3.083-.079,6.622-.171,7.042-.188h.123a1.835,1.835,0,0,1,.937.613c.039-.9-.377-1.02-.959-1.038-.026,0-.057,0-.088,0l-12.364.3h-.048c-.219.018-.3.206-.6.745Z" transform="translate(-216.228 -11.142)" fill="#fff"/><path d="M216.98,13.259a2.265,2.265,0,0,1,1.156-.311c.074,0,2.308-.053,4.813-.114,3.074-.074,6.6-.162,6.994-.175a.689.689,0,0,1,.118,0,1.77,1.77,0,0,1,.924.631c.035-.915-.364-1.038-.928-1.06a.742.742,0,0,0-.1,0l-12.315.28h-.048c-.223.018-.324.215-.613.745Z" transform="translate(-216.301 -11.052)" fill="#fff"/><path d="M217.11,13.067a2.251,2.251,0,0,1,1.156-.307c.079,0,2.312-.048,4.813-.105,3.07-.07,6.578-.153,6.946-.166a.689.689,0,0,1,.118,0,1.779,1.779,0,0,1,.911.653c.035-.933-.35-1.064-.9-1.086h-.105l-12.267.263h-.048c-.232.022-.342.223-.622.745Z" transform="translate(-216.374 -10.956)" fill="#fff"/><path d="M217.23,12.859a2.279,2.279,0,0,1,1.161-.307c.083,0,2.321-.044,4.818-.1,3.061-.066,6.552-.14,6.9-.158a.853.853,0,0,1,.123,0c.464.066.893.67.893.67.031-.946-.333-1.086-.876-1.108-.031,0-.074,0-.109,0l-12.219.245h-.048c-.25.022-.363.232-.635.749Z" transform="translate(-216.442 -10.844)" fill="#fff"/><path d="M217.349,12.671a2.261,2.261,0,0,1,1.156-.3c.092,0,2.33-.044,4.818-.092,3.053-.061,6.534-.136,6.854-.145a.72.72,0,0,1,.118,0c.464.07.876.692.876.692.031-.959-.32-1.1-.845-1.13a.933.933,0,0,0-.118-.009l-12.171.232h-.048c-.258.022-.381.236-.648.749Z" transform="translate(-216.503 -10.748)" fill="#fff"/><path d="M217.494,12.479a2.258,2.258,0,0,1,1.156-.3c.1,0,2.334-.039,4.818-.088,3.048-.057,6.512-.123,6.806-.136a.4.4,0,0,1,.118.009c.464.07.863.709.863.709.026-.972-.307-1.126-.815-1.152a1.189,1.189,0,0,0-.127,0l-12.118.21h-.048c-.267.022-.4.245-.657.745Z" transform="translate(-216.588 -10.653)" fill="#fff"/><path d="M217.62,12.286a2.237,2.237,0,0,1,1.165-.3c.105,0,2.343-.035,4.822-.079,3.039-.053,6.486-.114,6.758-.127a.4.4,0,0,1,.118.009c.46.079.845.727.845.727.026-.985-.293-1.147-.784-1.174a1.232,1.232,0,0,0-.131,0l-12.075.193h-.048c-.276.022-.425.254-.67.749Z" transform="translate(-216.661 -10.552)" fill="#fff"/><path d="M217.75,12.088a2.289,2.289,0,0,1,1.165-.293c.109,0,2.352-.035,4.822-.074,3.031-.048,6.469-.105,6.714-.114a.413.413,0,0,1,.118.009c.455.083.828.749.828.749.022-1-.28-1.165-.758-1.2-.039,0-.088,0-.14,0l-12.022.175h-.048c-.285.022-.442.263-.679.749Z" transform="translate(-216.734 -10.451)" fill="#fff"/><path d="M217.88,11.885a2.287,2.287,0,0,1,1.165-.289c.114,0,2.356-.026,4.826-.066,3.022-.044,6.442-.1,6.666-.105a.43.43,0,0,1,.118.009c.455.088.815.766.815.766.022-1.012-.263-1.187-.727-1.222a.777.777,0,0,0-.145-.009l-11.974.162h-.053c-.293.022-.46.272-.688.749Z" transform="translate(-216.807 -10.344)" fill="#fff"/><path d="M218,11.688a2.286,2.286,0,0,1,1.165-.285c.123,0,2.365-.026,4.826-.061,3.013-.039,6.421-.088,6.622-.092a.43.43,0,0,1,.118.009c.455.092.8.784.8.784.022-1.029-.25-1.209-.7-1.244a1.53,1.53,0,0,0-.153-.009l-11.93.145H218.7c-.307.026-.482.28-.7.753Z" transform="translate(-216.874 -10.243)" fill="#fff"/><path d="M218.134,11.506a2.284,2.284,0,0,1,1.165-.28c.127,0,2.374-.026,4.831-.053,3-.035,6.4-.079,6.574-.083a.315.315,0,0,1,.118.013c.451.1.784.806.784.806.018-1.042-.236-1.231-.674-1.27a1.545,1.545,0,0,0-.158-.009l-11.882.127h-.053c-.315.022-.5.285-.709.749Z" transform="translate(-216.948 -10.153)" fill="#fff"/><path d="M218.26,11.3a2.3,2.3,0,0,1,1.169-.28c.136,0,2.378-.022,4.831-.048,3-.026,6.377-.066,6.526-.074a.314.314,0,0,1,.118.013c.447.1.766.823.766.823.013-1.055-.223-1.253-.644-1.292-.048,0-.105,0-.162,0l-11.829.105h-.053c-.324.026-.526.293-.718.753Z" transform="translate(-217.021 -10.046)" fill="#fff"/><path d="M218.39,11.105a2.288,2.288,0,0,1,1.169-.276c.145,0,2.387-.018,4.831-.039,3-.026,6.359-.057,6.482-.061a.279.279,0,0,1,.114.013c.447.105.753.841.753.841.009-1.073-.21-1.274-.613-1.314-.053,0-.109-.009-.171-.009l-11.781.088h-.053c-.337.026-.543.3-.731.753Z" transform="translate(-217.094 -9.945)" fill="#fff"/><path d="M218.52,10.918a2.314,2.314,0,0,1,1.174-.272c.145,0,2.391-.018,4.835-.035,2.987-.022,6.333-.048,6.434-.053a.3.3,0,0,1,.114.013c.442.109.736.863.736.863.009-1.086-.193-1.3-.587-1.336-.053,0-.114-.009-.175-.009l-11.737.07h-.053c-.346.026-.565.311-.74.753Z" transform="translate(-217.167 -9.849)" fill="#fff"/><path d="M218.65,10.726a2.285,2.285,0,0,1,1.169-.267l4.839-.026c2.978-.018,6.311-.039,6.385-.044a.744.744,0,0,1,.114.013c.438.114.723.885.723.885,0-1.1-.18-1.318-.556-1.358a1.2,1.2,0,0,0-.184-.009l-11.685.053H219.4c-.355.026-.582.315-.749.753Z" transform="translate(-217.24 -9.754)" fill="#fff"/><path d="M218.774,10.528a2.313,2.313,0,0,1,1.174-.267l4.839-.018c2.974-.013,6.293-.031,6.337-.031a.428.428,0,0,1,.114.013c.434.118.705.9.705.9,0-1.112-.166-1.34-.53-1.38a1.326,1.326,0,0,0-.193-.009l-11.637.035h-.053c-.364.026-.6.324-.762.753Z" transform="translate(-217.307 -9.652)" fill="#fff"/><path d="M218.91,10.324a2.3,2.3,0,0,1,1.174-.267c.166,0,2.418,0,4.844-.013,2.961-.009,6.267-.022,6.293-.022a.394.394,0,0,1,.109.013c.438.123.692.92.692.92,0-1.126-.153-1.362-.5-1.406-.057,0-.127-.009-.2-.009l-11.588.018h-.057c-.377.026-.622.333-.771.753Z" transform="translate(-217.386 -9.54)" fill="#fff"/></g><g transform="translate(96.326 3.566)"><path d="M225.591,8.667c3,0,6.158-.039,6.158-.039.5,0,.788.959.788.959,0-1.353-.193-1.437-.674-1.437l-11.277.031c-.416,0-.561.32-.705.758a1.828,1.828,0,0,1,1.042-.254c.171,0,2.317,0,4.669,0Z" transform="translate(-219.512 -8.15)" fill="#fff"/><path d="M225.554,8.737c3,0,6.167-.035,6.167-.035.5,0,.788.955.788.955,0-1.353-.193-1.437-.674-1.437l-11.295.026c-.42,0-.565.324-.71.753a1.844,1.844,0,0,1,1.047-.258c.171,0,2.321,0,4.677-.009Z" transform="translate(-219.484 -8.189)" fill="#fff"/><path d="M225.527,8.817c3,0,6.171-.035,6.171-.035.508,0,.788.959.788.959,0-1.353-.193-1.441-.674-1.441L220.5,8.326c-.416,0-.565.32-.71.753a1.843,1.843,0,0,1,1.047-.254C221,8.826,223.167,8.826,225.527,8.817Z" transform="translate(-219.462 -8.234)" fill="#fff"/><path d="M225.506,8.9c3,0,6.175-.035,6.175-.035.5,0,.788.955.788.955,0-1.353-.193-1.437-.674-1.437l-11.33.022c-.416,0-.561.324-.705.758a1.835,1.835,0,0,1,1.047-.258c.166,0,2.334,0,4.7,0Z" transform="translate(-219.445 -8.279)" fill="#fff"/><path d="M225.478,8.977c2.991,0,6.18-.031,6.18-.031.5,0,.788.955.788.955,0-1.353-.2-1.441-.679-1.441l-11.348.022c-.416,0-.561.324-.709.758a1.852,1.852,0,0,1,1.047-.254c.171,0,2.343,0,4.712,0Z" transform="translate(-219.417 -8.324)" fill="#fff"/><path d="M225.457,9.062c2.987,0,6.188-.031,6.188-.031.5,0,.788.959.788.959,0-1.353-.193-1.441-.679-1.441l-11.365.022c-.416,0-.561.32-.709.758a1.852,1.852,0,0,1,1.047-.254c.171,0,2.352,0,4.726-.009Z" transform="translate(-219.4 -8.375)" fill="#fff"/><path d="M225.441,9.148c2.982,0,6.193-.026,6.193-.026.5,0,.788.955.788.955,0-1.353-.2-1.437-.674-1.437l-11.383.018c-.416,0-.561.32-.705.758a1.853,1.853,0,0,1,1.047-.258l4.739-.009Z" transform="translate(-219.388 -8.425)" fill="#fff"/><path d="M225.414,9.228c2.982,0,6.2-.026,6.2-.026.5,0,.788.959.788.959,0-1.353-.193-1.441-.674-1.441l-11.4.018c-.416,0-.561.32-.71.753a1.852,1.852,0,0,1,1.047-.254C220.838,9.237,223.032,9.237,225.414,9.228Z" transform="translate(-219.366 -8.47)" fill="#fff"/><path d="M225.387,9.314c2.978,0,6.206-.026,6.206-.026.5,0,.788.959.788.959,0-1.353-.193-1.437-.679-1.437l-11.413.013c-.42,0-.565.324-.71.753a1.828,1.828,0,0,1,1.042-.254c.171,0,2.369,0,4.761-.009Z" transform="translate(-219.343 -8.521)" fill="#fff"/><path d="M225.361,9.384c2.978,0,6.21-.022,6.21-.022.5,0,.788.955.788.955,0-1.349-.193-1.437-.679-1.437l-11.431.013c-.42,0-.565.32-.709.753a1.828,1.828,0,0,1,1.042-.254l4.774-.009Z" transform="translate(-219.321 -8.56)" fill="#fff"/><path d="M225.339,9.458c2.974,0,6.219-.022,6.219-.022.5,0,.788.955.788.955,0-1.353-.193-1.441-.674-1.441l-11.453.013c-.42,0-.565.32-.71.758a1.844,1.844,0,0,1,1.047-.258c.175,0,2.387,0,4.783-.009Z" transform="translate(-219.304 -8.6)" fill="#fff"/><path d="M225.312,9.549c2.969,0,6.223-.018,6.223-.018.5,0,.784.955.784.955,0-1.353-.193-1.437-.674-1.437l-11.47.009c-.416,0-.561.32-.705.758a1.8,1.8,0,0,1,1.042-.258c.171,0,2.4,0,4.8,0Z" transform="translate(-219.282 -8.656)" fill="#fff"/><path d="M225.291,9.624c2.965,0,6.228-.018,6.228-.018.5,0,.788.955.788.955,0-1.353-.193-1.441-.674-1.441l-11.488.009c-.416,0-.561.32-.705.753a1.828,1.828,0,0,1,1.042-.254c.171,0,2.4,0,4.809,0Z" transform="translate(-219.265 -8.695)" fill="#fff"/><path d="M225.264,9.709c2.965,0,6.237-.013,6.237-.013.5,0,.788.955.788.955,0-1.353-.193-1.441-.674-1.441H220.11c-.42,0-.565.328-.709.762a1.837,1.837,0,0,1,1.042-.254C220.618,9.718,222.851,9.718,225.264,9.709Z" transform="translate(-219.242 -8.746)" fill="#fff"/><path d="M225.237,9.8c2.961,0,6.241-.013,6.241-.013.5,0,.788.959.788.959,0-1.353-.193-1.437-.674-1.437H220.07c-.416,0-.561.324-.71.758a1.853,1.853,0,0,1,1.047-.258c.175,0,2.418,0,4.831,0Z" transform="translate(-219.22 -8.802)" fill="#fff"/><path d="M225.058,9.871c2.956,0,6.245-.009,6.245-.009.5,0,.788.959.788.959,0-1.353-.193-1.441-.674-1.441h-11.54c-.416,0-.692.328-.836.762a2.3,2.3,0,0,1,1.174-.258l4.844-.009Z" transform="translate(-219.04 -8.841)" fill="#fff"/></g><g transform="translate(3.659 3.562)"><path d="M13.446,8.14h38c.241.039.307.136.412.78-.153-.337-.158-.394-.412-.394H13.49a6.192,6.192,0,0,0-4.94,2.921A6.065,6.065,0,0,1,13.446,8.14Z" transform="translate(-8.467 -8.14)" fill="#fff"/><path d="M13.435,8.264H51.411c.25.035.346.118.442.771-.162-.333-.184-.385-.442-.385H13.479A6.226,6.226,0,0,0,8.53,11.532,6.109,6.109,0,0,1,13.435,8.26Z" transform="translate(-8.456 -8.207)" fill="#fff"/><path d="M13.424,8.4H51.378c.254.035.385.1.469.766-.171-.328-.21-.381-.469-.381H13.468A6.284,6.284,0,0,0,8.51,11.632,6.153,6.153,0,0,1,13.424,8.4Z" transform="translate(-8.444 -8.286)" fill="#fff"/><path d="M13.413,8.53H51.344c.258.035.425.074.495.758-.18-.32-.241-.372-.495-.372H13.456A6.328,6.328,0,0,0,8.49,11.723,6.185,6.185,0,0,1,13.413,8.53Z" transform="translate(-8.433 -8.359)" fill="#fff"/><path d="M13.407,8.66h37.91c.267.035.464.053.521.749-.188-.311-.267-.364-.521-.364H13.451A6.349,6.349,0,0,0,8.48,11.818,6.224,6.224,0,0,1,13.411,8.66Z" transform="translate(-8.427 -8.432)" fill="#fff"/><path d="M13.39,8.79H51.274c.267.031.5.031.547.74-.193-.3-.289-.355-.547-.355H13.434A6.408,6.408,0,0,0,8.45,11.908,6.274,6.274,0,0,1,13.39,8.79Z" transform="translate(-8.411 -8.505)" fill="#fff"/><path d="M13.379,8.91H51.241c.276.031.547.009.574.736-.206-.3-.315-.346-.574-.346H13.423A6.429,6.429,0,0,0,8.43,12a6.327,6.327,0,0,1,4.949-3.083Z" transform="translate(-8.399 -8.573)" fill="#fff"/><path d="M13.368,9.034H51.2c.28.026.587-.013.6.723a.633.633,0,0,0-.6-.342H13.412a6.462,6.462,0,0,0-5,2.663A6.363,6.363,0,0,1,13.368,9.03Z" transform="translate(-8.388 -8.64)" fill="#fff"/><path d="M13.356,9.17H51.17c.289.031.626-.035.631.718a.676.676,0,0,0-.631-.333H13.4a6.493,6.493,0,0,0-5.01,2.623A6.4,6.4,0,0,1,13.356,9.17Z" transform="translate(-8.377 -8.719)" fill="#fff"/><path d="M13.351,9.294H51.142c.293.026.666-.057.657.709a.738.738,0,0,0-.657-.328H13.395A6.515,6.515,0,0,0,8.38,12.264,6.475,6.475,0,0,1,13.355,9.29Z" transform="translate(-8.371 -8.786)" fill="#fff"/><path d="M13.34,9.43h37.77c.3.026.705-.079.683.705a.8.8,0,0,0-.683-.315H13.383A6.547,6.547,0,0,0,8.36,12.369,6.512,6.512,0,0,1,13.34,9.43Z" transform="translate(-8.36 -8.865)" fill="#fff"/></g><path d="M13.328,9.56H51.076c.307.026.745-.1.709.7a.858.858,0,0,0-.709-.311h-37.7A6.566,6.566,0,0,0,8.34,12.459,6.561,6.561,0,0,1,13.328,9.56Z" transform="translate(-4.69 -5.376)" fill="#fff"/><g transform="translate(3.558 4.219)"><path d="M13.3,9.688,51.059,9.64c.307.026.749-.105.714.7a.866.866,0,0,0-.714-.307l-18.67.022-19.038.022h-.009a6.631,6.631,0,0,0-5.032,2.47,6.6,6.6,0,0,1,5-2.856Z" transform="translate(-8.231 -9.64)" fill="#fff"/><path d="M13.262,9.836l37.765-.1c.307.026.758-.105.718.7a.869.869,0,0,0-.718-.307l-18.67.044-19.047.048H13.3A6.665,6.665,0,0,0,8.26,12.648a6.624,6.624,0,0,1,5.006-2.812Z" transform="translate(-8.203 -9.696)" fill="#fff"/><path d="M13.225,9.98l37.77-.14c.307.026.766-.109.723.692a.9.9,0,0,0-.723-.307l-18.67.07-19.056.074H13.26a6.724,6.724,0,0,0-5.05,2.383,6.655,6.655,0,0,1,5.015-2.768Z" transform="translate(-8.175 -9.752)" fill="#fff"/><path d="M13.189,10.113,50.967,9.92c.311.026.771-.114.727.692a.9.9,0,0,0-.727-.307L32.3,10.4l-19.064.1h-.013A6.773,6.773,0,0,0,8.17,12.832a6.689,6.689,0,0,1,5.019-2.724Z" transform="translate(-8.152 -9.797)" fill="#fff"/><path d="M13.158,10.251l37.787-.241c.311.026.78-.114.731.692a.917.917,0,0,0-.731-.307l-18.666.118-19.073.118h-.013A6.834,6.834,0,0,0,8.13,12.927a6.711,6.711,0,0,1,5.028-2.68Z" transform="translate(-8.13 -9.848)" fill="#fff"/></g><path d="M13.122,10.395l37.8-.285c.311.026.788-.123.74.688a.943.943,0,0,0-.74-.3l-18.666.14-19.078.145h-.018A6.9,6.9,0,0,0,8.09,13.031a6.772,6.772,0,0,1,5.032-2.637Z" transform="translate(-4.549 -5.685)" fill="#fff"/><g transform="translate(3.037 4.46)"><path d="M13.087,10.527,50.9,10.19c.311.022.784-.123.736.688a.92.92,0,0,0-.736-.3l-18.653.166-19.1.171h-.013A6.959,6.959,0,0,0,8.05,13.12c.924-1.48,3.07-2.422,5.041-2.6Z" transform="translate(-7.564 -10.19)" fill="#fff"/><path d="M13.04,10.664l37.822-.394c.311.022.784-.123.74.688a.929.929,0,0,0-.74-.3l-18.64.193-19.13.2h-.018A7.042,7.042,0,0,0,7.99,13.217c.911-1.458,3.074-2.383,5.045-2.553Z" transform="translate(-7.53 -10.235)" fill="#fff"/><path d="M13,10.807l37.835-.447c.311.026.784-.123.736.688a.935.935,0,0,0-.736-.3l-18.626.219L13.055,11.2h-.022A7.139,7.139,0,0,0,7.94,13.321c.907-1.437,3.083-2.339,5.054-2.51Z" transform="translate(-7.502 -10.286)" fill="#fff"/><path d="M12.968,10.934l37.853-.5c.311.026.784-.118.736.688a.94.94,0,0,0-.736-.3l-18.613.245-19.178.258h-.022a7.229,7.229,0,0,0-5.1,2.08C8.8,11.985,11,11.1,12.973,10.929Z" transform="translate(-7.485 -10.325)" fill="#fff"/><path d="M12.922,11.071l37.866-.561c.311.026.784-.118.736.688a.935.935,0,0,0-.736-.3l-18.6.272-19.2.289h-.026c-.569,0-3.442.145-5.107,2.041.885-1.388,3.1-2.255,5.067-2.422Z" transform="translate(-7.451 -10.37)" fill="#fff"/><path d="M12.886,11.213,50.765,10.6c.311.026.784-.118.74.688a.923.923,0,0,0-.74-.3l-18.587.3L12.947,11.6h-.022c-.569,0-3.473.145-5.115,2,.876-1.371,3.1-2.207,5.076-2.383Z" transform="translate(-7.429 -10.42)" fill="#fff"/><path d="M12.845,11.346l37.892-.666c.311.022.788-.118.74.688a.929.929,0,0,0-.74-.3l-18.574.324-19.253.346h-.026c-.569,0-3.5.149-5.124,1.953.867-1.345,3.114-2.168,5.085-2.339Z" transform="translate(-7.401 -10.465)" fill="#fff"/><path d="M12.8,11.483l37.905-.723c.311.022.784-.123.736.688a.926.926,0,0,0-.736-.3l-18.561.35-19.279.372h-.031c-.565,0-3.526.149-5.129,1.91.854-1.323,3.118-2.124,5.089-2.295Z" transform="translate(-7.373 -10.51)" fill="#fff"/><path d="M12.768,11.62l37.919-.78c.311.026.784-.118.736.688a.929.929,0,0,0-.736-.3L32.139,11.6,12.834,12H12.8c-.565,0-3.556.149-5.133,1.866.845-1.3,3.127-2.085,5.1-2.251Z" transform="translate(-7.35 -10.555)" fill="#fff"/><path d="M12.727,11.752l37.932-.832c.311.022.788-.123.736.688a.92.92,0,0,0-.736-.3l-18.53.4L12.8,12.138h-.035c-.565,0-3.583.149-5.142,1.822.832-1.274,3.131-2.037,5.1-2.212Z" transform="translate(-7.322 -10.6)" fill="#fff"/><path d="M12.691,11.889,50.64,11c.311.026.784-.118.736.692a.915.915,0,0,0-.736-.3l-18.521.429-19.353.46H12.73c-.565,0-3.613.153-5.15,1.778.823-1.248,3.14-2,5.111-2.168Z" transform="translate(-7.3 -10.645)" fill="#fff"/><path d="M12.655,12.032l37.962-.942c.311.026.784-.118.736.692a.915.915,0,0,0-.736-.3l-18.5.455-19.38.486H12.7c-.565,0-3.644.158-5.159,1.739.815-1.226,3.149-1.953,5.12-2.124Z" transform="translate(-7.277 -10.696)" fill="#fff"/><path d="M12.614,12.164,50.59,11.17c.311.022.784-.123.736.688a.915.915,0,0,0-.736-.3L32.1,12.037l-19.406.517h-.039c-.565,0-3.67.158-5.164,1.695.806-1.2,3.153-1.91,5.124-2.08Z" transform="translate(-7.249 -10.741)" fill="#fff"/><path d="M12.579,12.3,50.572,11.25c.311.022.788-.123.736.688a.92.92,0,0,0-.736-.3l-18.478.508-19.432.543h-.039c-.565,0-3.7.158-5.172,1.655.793-1.178,3.162-1.866,5.129-2.041Z" transform="translate(-7.227 -10.786)" fill="#fff"/><path d="M12.543,12.438,50.549,11.33c.311.026.784-.123.736.688a.92.92,0,0,0-.736-.3l-18.464.534-19.454.574h-.044c-.565,0-3.727.162-5.177,1.612.784-1.156,3.166-1.826,5.137-1.993Z" transform="translate(-7.204 -10.831)" fill="#fff"/><path d="M12.5,12.581,50.521,11.42c.311.026.784-.118.736.688a.92.92,0,0,0-.736-.3l-18.451.561-19.48.6h-.044c-.565,0-3.758.162-5.185,1.568.775-1.134,3.175-1.782,5.146-1.953Z" transform="translate(-7.176 -10.881)" fill="#fff"/><path d="M12.46,12.713,50.493,11.5c.311.022.784-.123.736.688a.915.915,0,0,0-.736-.3l-18.438.587-19.5.626H12.5c-.565,0-3.784.158-5.194,1.524C8.076,13.51,10.49,12.884,12.46,12.713Z" transform="translate(-7.148 -10.926)" fill="#fff"/><path d="M12.419,12.85l38.046-1.27c.311.026.784-.118.736.688a.926.926,0,0,0-.736-.3l-18.425.613-19.533.657h-.048c-.565,0-3.81.166-5.2,1.485.753-1.091,3.184-1.7,5.159-1.87Z" transform="translate(-7.12 -10.971)" fill="#fff"/><path d="M12.378,12.987,50.437,11.66c.311.026.784-.118.736.692a.926.926,0,0,0-.736-.3l-18.412.639-19.555.683h-.053c-.561,0-3.841.166-5.207,1.441.745-1.06,3.193-1.651,5.168-1.822Z" transform="translate(-7.092 -11.016)" fill="#fff"/><path d="M12.342,13.12l38.072-1.38c.311.022.784-.123.736.688a.915.915,0,0,0-.736-.3l-18.4.666L12.439,13.5h-.053c-.561,0-3.867.166-5.216,1.4.736-1.042,3.2-1.612,5.172-1.782Z" transform="translate(-7.069 -11.061)" fill="#fff"/><path d="M12.311,13.257,50.4,11.82c.311.026.784-.118.736.688a.935.935,0,0,0-.736-.3L32.011,12.9l-19.6.745H12.35c-.561,0-3.893.166-5.22,1.349.727-1.016,3.21-1.568,5.181-1.739Z" transform="translate(-7.047 -11.106)" fill="#fff"/><path d="M12.275,13.393l38.1-1.493c.311.026.784-.118.736.688a.94.94,0,0,0-.736-.3L32.006,13l-19.629.771h-.057c-.561,0-3.924.171-5.229,1.309.714-.994,3.215-1.524,5.185-1.695Z" transform="translate(-7.024 -11.151)" fill="#fff"/><path d="M12.24,13.526,50.355,11.98c.311.022.784-.118.736.688a.92.92,0,0,0-.736-.3L32,13.11l-19.656.8h-.057c-.561,0-3.95.171-5.234,1.27.705-.968,3.223-1.48,5.194-1.651Z" transform="translate(-7.002 -11.196)" fill="#fff"/><path d="M12.189,13.663l38.129-1.6c.311.026.784-.118.736.692a.92.92,0,0,0-.736-.3l-18.342.766-19.682.828h-.061c-.561,0-3.981.171-5.242,1.226.7-.946,3.228-1.437,5.2-1.607Z" transform="translate(-6.968 -11.241)" fill="#fff"/><path d="M12.147,13.805,50.289,12.15c.311.022.784-.123.736.688a.92.92,0,0,0-.736-.3l-18.329.8-19.7.858h-.066c-.561,0-4.007.175-5.251,1.187.683-.924,3.237-1.4,5.207-1.568Z" transform="translate(-6.94 -11.292)" fill="#fff"/></g><path d="M6.894,15.472c.674-.9,3.245-1.353,5.216-1.524L50.266,12.24c.311.022.784-.118.736.688a.92.92,0,0,0-.736-.3L12.15,14.333c-.556,0-4.034.175-5.26,1.139Z" transform="translate(-3.875 -6.893)" fill="#fff"/><g transform="translate(60.105 3.566)"><path d="M137.39,8.149l11.15.018c.42,0,.552.372.74.753-.267-.188-.258-.267-.639-.272h-.1l-4.87-.009L137.5,8.631c-.7-.092-.784.85-.788.95v0c-.066-1.112.158-1.454.679-1.437Z" transform="translate(-136.693 -8.149)" fill="#fff"/><path d="M137.392,8.23l11.172.018c.42,0,.552.368.74.758-.263-.184-.267-.267-.639-.267h-.118c-.438,0-2.676,0-4.87,0-3,0-6.166-.009-6.166-.009-.683-.088-.788.858-.793.95v0c-.061-1.126.162-1.454.679-1.437Z" transform="translate(-136.694 -8.194)" fill="#fff"/><path d="M137.4,8.31l11.19.013c.416,0,.547.364.736.758-.254-.18-.276-.258-.639-.263-.035,0-.083,0-.136,0-.42,0-2.663,0-4.87,0L137.51,8.8c-.674-.083-.788.867-.793.95h0c-.061-1.143.166-1.45.683-1.441Z" transform="translate(-136.695 -8.239)" fill="#fff"/><path d="M137.4,8.4l11.207.013c.416,0,.547.355.74.753A.867.867,0,0,0,148.7,8.9c-.039,0-.1,0-.158,0-.4,0-2.645,0-4.866,0-3,0-6.166-.009-6.166-.009-.657-.074-.793.872-.793.95h0c-.053-1.156.171-1.445.683-1.437Z" transform="translate(-136.698 -8.29)" fill="#fff"/><path d="M137.388,8.474l11.229.013c.416,0,.543.35.736.753a.9.9,0,0,0-.648-.258,1.035,1.035,0,0,0-.175-.009l-4.866-.009L137.5,8.956c-.648-.07-.793.88-.8.95h0c-.053-1.169.175-1.445.683-1.437Z" transform="translate(-136.686 -8.329)" fill="#fff"/><path d="M137.389,8.56l11.247.009c.416,0,.539.346.74.758a.927.927,0,0,0-.653-.258c-.057,0-.118-.009-.193-.009-.368,0-2.61,0-4.866,0-2.987-.009-6.166-.009-6.166-.009-.635-.066-.793.885-.8.955h0c-.048-1.187.18-1.445.683-1.432Z" transform="translate(-136.688 -8.38)" fill="#fff"/><path d="M137.392,8.64l11.269.013c.416,0,.534.342.74.753a.967.967,0,0,0-.653-.258c-.061,0-.136-.009-.21-.009-.35,0-2.6,0-4.866-.009-2.987,0-6.166-.009-6.166-.009-.622-.057-.8.893-.8.955h0C136.665,8.876,136.888,8.631,137.392,8.64Z" transform="translate(-136.69 -8.424)" fill="#fff"/><path d="M137.386,8.73l11.286.009c.42,0,.534.337.74.758a1,1,0,0,0-.657-.254,1.847,1.847,0,0,0-.232-.013c-.328,0-2.58,0-4.861,0-2.982,0-6.166-.009-6.166-.009-.613-.053-.8.9-.8.955h0c-.039-1.213.184-1.445.692-1.437Z" transform="translate(-136.685 -8.475)" fill="#fff"/><path d="M137.387,8.81l11.308.009c.416,0,.53.333.736.758a1.035,1.035,0,0,0-.657-.25,2.262,2.262,0,0,0-.25-.013L143.663,9.3c-2.978,0-6.162-.009-6.162-.009-.6-.044-.806.911-.806.959h0c-.035-1.231.193-1.445.692-1.437Z" transform="translate(-136.686 -8.52)" fill="#fff"/><path d="M137.384,8.89l11.326.009c.416,0,.526.324.74.758a1.112,1.112,0,0,0-.666-.25,2.538,2.538,0,0,0-.267-.013c-.3,0-2.545,0-4.861,0l-6.162-.009c-.587-.044-.806.911-.806.955h0c-.026-1.244.2-1.445.7-1.441Z" transform="translate(-136.682 -8.565)" fill="#fff"/><path d="M137.384,8.97h11.343c.416,0,.526.328.74.762a1.149,1.149,0,0,0-.666-.245c-.092-.009-.188-.018-.285-.018-.28,0-2.527,0-4.861,0l-6.162-.009c-.578-.035-.806.92-.806.955v0c-.026-1.257.2-1.441.7-1.437Z" transform="translate(-136.682 -8.61)" fill="#fff"/><path d="M137.385,9.05H148.75c.416,0,.521.32.74.762a1.192,1.192,0,0,0-.666-.245,2.287,2.287,0,0,0-.3-.018c-.263,0-2.514,0-4.861-.009-2.969,0-6.162-.009-6.162-.009-.565-.026-.806.928-.81.959v-.009C136.671,9.212,136.895,9.046,137.385,9.05Z" transform="translate(-136.683 -8.655)" fill="#fff"/><path d="M137.38,9.14h11.383c.42,0,.517.311.74.758a1.188,1.188,0,0,0-.666-.241,2.585,2.585,0,0,0-.324-.018l-4.861-.009c-2.965,0-6.162-.009-6.162-.009-.552-.022-.81.937-.81.959v-.009c-.018-1.279.21-1.437.7-1.432Z" transform="translate(-136.678 -8.706)" fill="#fff"/><path d="M137.386,9.22h11.4c.416,0,.512.307.74.758a1.286,1.286,0,0,0-.67-.241,2.919,2.919,0,0,0-.342-.022c-.228,0-2.479,0-4.857,0C140.7,9.71,137.5,9.7,137.5,9.7c-.539-.018-.815.942-.815.964v-.013c-.009-1.3.215-1.437.7-1.432Z" transform="translate(-136.684 -8.751)" fill="#fff"/><path d="M137.39,9.3h11.422c.416,0,.512.3.74.758a1.38,1.38,0,0,0-.674-.236,3.293,3.293,0,0,0-.359-.022c-.21,0-2.466,0-4.857,0L137.5,9.786c-.526-.013-.815.95-.815.959v-.009c-.009-1.314.219-1.437.7-1.432Z" transform="translate(-136.684 -8.796)" fill="#fff"/><path d="M137.391,9.38h11.444c.416,0,.508.3.74.758A1.474,1.474,0,0,0,148.9,9.9a2.716,2.716,0,0,0-.377-.022c-.193,0-2.448,0-4.853-.009l-6.158-.009c-.517,0-.819.959-.819.964v-.013c0-1.323.223-1.432.705-1.432Z" transform="translate(-136.685 -8.841)" fill="#fff"/></g><path d="M136.58,10.98c0-1.353.307-1.48.788-1.48h11.645c.32,0,.46.258.74.758A1.9,1.9,0,0,0,148.676,10c-.175,0-2.615,0-5.037,0-2.952,0-6.158-.009-6.158-.009-.5,0-.9,1-.9,1Z" transform="translate(-76.518 -5.342)" fill="#fff"/><path d="M137.463,10.53c-.337,0-.618.425-.766.688-.083.14-.131.245-.127.236.009-.819.158-1.143.385-1.3a.677.677,0,0,1,.438-.109L149.122,10c.315,0,.464.258.745.758a1.658,1.658,0,0,0-1.095-.258h-.061c-.337,0-2.667,0-5.006.013-2.987.009-6.237.022-6.237.022Z" transform="translate(-76.512 -5.623)" fill="#fff"/><g transform="translate(60.014 4.512)"><path d="M137.419,10.389,149.2,10.31c.307,0,.473.267.749.758a1.745,1.745,0,0,0-1.1-.263h-.127c-.447,0-2.685.013-4.949.031-3,.018-6.276.039-6.307.044h-.057c-.32.039-.582.434-.714.679-.013.022-.026.044-.039.061-.053.092-.088.162-.083.149.009-.81.171-1.126.412-1.274A.711.711,0,0,1,137.419,10.389Z" transform="translate(-136.524 -10.31)" fill="#fff"/><path d="M137.426,10.759l11.838-.109c.3,0,.477.267.749.758a1.765,1.765,0,0,0-1.112-.263h-.136c-.416,0-2.654.022-4.94.044-3.009.026-6.315.057-6.381.061h-.057c-.328.039-.591.434-.723.67-.013.022-.026.044-.035.061-.053.083-.079.14-.079.127.013-.806.18-1.1.434-1.244A.79.79,0,0,1,137.426,10.759Z" transform="translate(-136.513 -10.501)" fill="#fff"/><path d="M137.447,11.13l11.9-.14c.3,0,.482.267.749.758a1.884,1.884,0,0,0-1.121-.263h-.153c-.385,0-2.619.026-4.927.053-3.022.039-6.355.079-6.456.083h-.053c-.337.035-.6.434-.731.666-.013.022-.026.044-.035.057-.048.07-.074.118-.07.1.018-.8.193-1.082.455-1.218a.827.827,0,0,1,.442-.1Z" transform="translate(-136.512 -10.692)" fill="#fff"/><path d="M137.465,11.5l11.956-.175c.293,0,.491.276.753.762a1.979,1.979,0,0,0-1.13-.267h-.162c-.35,0-2.588.035-4.918.07-3.035.044-6.394.1-6.526.105h-.053c-.346.031-.618.438-.74.657-.013.022-.022.039-.031.057-.044.061-.07.1-.066.079.018-.793.2-1.064.477-1.191a1,1,0,0,1,.442-.1Z" transform="translate(-136.512 -10.878)" fill="#fff"/><path d="M137.476,11.856l12.018-.206c.289,0,.491.276.753.762a2.02,2.02,0,0,0-1.139-.267h-.175c-.32,0-2.558.039-4.91.083-3.048.057-6.438.118-6.6.127h-.057c-.35.031-.626.438-.745.648-.013.022-.022.039-.031.053-.039.048-.061.079-.061.053.018-.788.215-1.042.5-1.165a1,1,0,0,1,.442-.092Z" transform="translate(-136.502 -11.063)" fill="#fff"/><path d="M137.488,12.226l12.079-.236c.28,0,.5.28.758.762a2.117,2.117,0,0,0-1.147-.267h-.188c-.289,0-2.527.044-4.9.1-3.061.066-6.477.14-6.675.149h-.057c-.359.026-.639.438-.753.639a.425.425,0,0,1-.031.053c-.035.035-.053.057-.053.031.022-.78.228-1.025.521-1.134a1.1,1.1,0,0,1,.447-.088Z" transform="translate(-136.496 -11.254)" fill="#fff"/><path d="M137.509,12.6l12.132-.267c.28,0,.508.28.762.762a2.208,2.208,0,0,0-1.161-.267h-.2c-.254,0-2.492.053-4.888.114-3.074.07-6.517.153-6.745.166h-.057c-.372.022-.653.438-.758.635-.013.022-.026.039-.031.048-.031.026-.048.039-.044,0,.022-.775.236-1,.543-1.108a1.375,1.375,0,0,1,.447-.083Z" transform="translate(-136.495 -11.445)" fill="#fff"/><path d="M137.515,12.952l12.193-.3c.272,0,.508.285.762.766a2.236,2.236,0,0,0-1.165-.267h-.07c-.053,0-.1,0-.145,0-.219,0-2.461.057-4.879.123-3.088.083-6.556.175-6.819.188h-.057c-.372.018-.657.442-.766.626a.314.314,0,0,1-.031.048c-.026.013-.044.018-.039-.018.026-.771.25-.985.565-1.082a1.727,1.727,0,0,1,.447-.079Z" transform="translate(-136.484 -11.625)" fill="#fff"/><path d="M137.538,13.323l12.25-.333c.267,0,.517.289.771.766a2.475,2.475,0,0,0-1.178-.272.4.4,0,0,1-.07,0h-.158c-.193,0-2.431.066-4.874.136-3.1.092-6.6.2-6.889.21h-.053c-.385.018-.674.442-.775.622-.013.022-.022.039-.026.044-.022,0-.035,0-.035-.044.031-.762.263-.964.591-1.055a1.731,1.731,0,0,1,.447-.074Z" transform="translate(-136.485 -11.816)" fill="#fff"/><path d="M137.554,13.694l12.311-.364c.263,0,.521.293.766.766a2.547,2.547,0,0,0-1.182-.272h-.07c-.061,0-.118,0-.171,0-.158,0-2.4.07-4.861.153-3.114.1-6.639.215-6.964.232h-.053c-.394.018-.683.447-.78.613-.013.022-.022.039-.026.044s-.031-.026-.026-.066c.031-.753.272-.946.609-1.029a2.266,2.266,0,0,1,.451-.07Z" transform="translate(-136.484 -12.007)" fill="#fff"/><path d="M137.566,14.049l12.368-.4c.254,0,.526.293.771.766a2.664,2.664,0,0,0-1.2-.272.377.377,0,0,1-.07,0c-.066,0-.127,0-.18,0-.123,0-2.369.074-4.853.162-3.127.109-6.679.236-7.038.25h-.053c-.4.013-.7.442-.788.609a.28.28,0,0,1-.026.044.13.13,0,0,1-.022-.092c.035-.749.285-.924.631-1a2.722,2.722,0,0,1,.451-.066Z" transform="translate(-136.474 -12.187)" fill="#fff"/><path d="M137.586,14.419l12.425-.429c.254,0,.534.3.775.766a2.777,2.777,0,0,0-1.2-.276h-.07c-.07,0-.136-.009-.193-.009-.1,0-2.339.083-4.844.18-3.14.118-6.718.254-7.108.272h-.057c-.407.009-.705.447-.793.6-.013.018-.022.035-.026.039a.227.227,0,0,1-.013-.114c.035-.745.3-.9.657-.972a4.169,4.169,0,0,1,.451-.061Z" transform="translate(-136.472 -12.378)" fill="#fff"/><path d="M137.6,14.79l12.486-.46c.245,0,.534.3.775.766a2.935,2.935,0,0,0-1.213-.276.451.451,0,0,1-.074,0c-.074,0-.145-.009-.2-.009s-2.308.092-4.831.2c-3.149.127-6.758.272-7.183.293H137.3c-.416,0-.714.447-.8.591a.26.26,0,0,0-.022.035.662.662,0,0,1-.009-.136c.035-.736.307-.885.679-.946.14-.026.293-.035.451-.057Z" transform="translate(-136.468 -12.569)" fill="#fff"/><path d="M137.619,15.151l12.548-.491c.241,0,.543.3.78.771a3.053,3.053,0,0,0-1.222-.276.425.425,0,0,1-.074,0c-.079,0-.153-.009-.215-.009-.026,0-2.273.1-4.826.206-3.162.136-6.8.293-7.253.315H137.3c-.42,0-.727.447-.81.587l-.022.035c0-.053,0-.105,0-.158.039-.731.324-.863.7-.92.14-.022.293-.031.451-.053Z" transform="translate(-136.466 -12.755)" fill="#fff"/></g><path d="M136.45,16.631c0-1.191.547-1.029,1.178-1.126l12.6-.526c.236,0,.552.307.784.771a3.888,3.888,0,0,0-1.533-.289l-12.2.556C136.783,16.018,136.45,16.631,136.45,16.631Z" transform="translate(-76.443 -8.434)" fill="#fff"/><g transform="translate(122.62 4.184)"><path d="M279.47,12.512a6.359,6.359,0,0,1,4.147-2.759,6.978,6.978,0,0,1,.832-.131l35.834-.057a.692.692,0,0,1,.736.674.9.9,0,0,0-.736-.289L303.72,9.98l-19.222.035c-.048,0-.109,0-.18,0A6.738,6.738,0,0,0,279.47,12.512Z" transform="translate(-279.028 -9.56)" fill="#fff"/><path d="M279.44,12.592a6.212,6.212,0,0,1,4.169-2.7,7.331,7.331,0,0,1,.806-.127l35.86-.109a.694.694,0,0,1,.736.674.909.909,0,0,0-.736-.289l-16.529.053-19.288.07c-.044,0-.114,0-.175,0a6.715,6.715,0,0,0-4.839,2.422Z" transform="translate(-279.011 -9.609)" fill="#fff"/><path d="M279.39,12.683a6.1,6.1,0,0,1,4.187-2.645,5.268,5.268,0,0,1,.775-.118l35.882-.166a.691.691,0,0,1,.736.674.886.886,0,0,0-.736-.289l-16.489.079-19.345.105c-.044,0-.118,0-.18,0a6.719,6.719,0,0,0-4.831,2.361Z" transform="translate(-278.983 -9.665)" fill="#fff"/><path d="M279.344,12.753a6.018,6.018,0,0,1,4.209-2.593,6.247,6.247,0,0,1,.745-.114l35.913-.223a.689.689,0,0,1,.731.67.9.9,0,0,0-.731-.289l-16.454.105-19.41.14h-.18a6.755,6.755,0,0,0-4.826,2.295Z" transform="translate(-278.955 -9.705)" fill="#fff"/><path d="M279.3,12.834a5.914,5.914,0,0,1,4.231-2.536,5.676,5.676,0,0,1,.71-.109l35.939-.276a.694.694,0,0,1,.736.67.891.891,0,0,0-.736-.285l-16.415.131-19.472.175c-.039,0-.127,0-.184,0a6.741,6.741,0,0,0-4.813,2.225Z" transform="translate(-278.932 -9.755)" fill="#fff"/><path d="M279.26,12.91a5.843,5.843,0,0,1,4.253-2.483,6.223,6.223,0,0,1,.679-.105l35.965-.337a.7.7,0,0,1,.736.674.909.909,0,0,0-.736-.285l-16.375.158-19.533.21c-.035,0-.127,0-.184,0a6.733,6.733,0,0,0-4.8,2.159Z" transform="translate(-278.91 -9.796)" fill="#fff"/><path d="M279.224,12.99c.749-1.38,2.457-2.133,4.27-2.426a4.74,4.74,0,0,1,.648-.1l35.992-.39a.7.7,0,0,1,.736.674.891.891,0,0,0-.736-.285l-16.345.184-19.59.241c-.035,0-.136,0-.184,0-.758.031-3.355.293-4.8,2.1Z" transform="translate(-278.887 -9.845)" fill="#fff"/><path d="M279.18,13.081c.736-1.375,2.457-2.093,4.292-2.369a5.13,5.13,0,0,1,.618-.092l36.018-.447a.69.69,0,0,1,.736.674.891.891,0,0,0-.736-.285l-16.3.21-19.656.28c-.031,0-.136,0-.184,0-.745.031-3.39.28-4.787,2.032Z" transform="translate(-278.865 -9.901)" fill="#fff"/><path d="M279.14,13.158c.727-1.366,2.461-2.045,4.314-2.317a4.521,4.521,0,0,1,.587-.088l36.049-.5a.7.7,0,0,1,.736.674.9.9,0,0,0-.736-.285l-16.266.236-19.717.315c-.031,0-.145,0-.188,0-.736.026-3.42.267-4.778,1.962Z" transform="translate(-278.842 -9.948)" fill="#fff"/><path d="M279.09,13.232c.714-1.362,2.466-2.006,4.34-2.26a3.963,3.963,0,0,1,.556-.083l36.07-.556a.7.7,0,0,1,.74.674.9.9,0,0,0-.74-.289l-16.231.263-19.778.35c-.031,0-.145,0-.184,0-.727.026-3.456.258-4.769,1.9Z" transform="translate(-278.814 -9.991)" fill="#fff"/><path d="M279.05,13.308c.7-1.358,2.461-1.962,4.358-2.2a4.283,4.283,0,0,1,.521-.079l36.1-.613a.7.7,0,0,1,.736.67.9.9,0,0,0-.736-.285l-16.2.289L284,11.473a1.419,1.419,0,0,0-.188.009C283.1,11.5,280.324,11.723,279.05,13.308Z" transform="translate(-278.792 -10.036)" fill="#fff"/><path d="M279,13.394c.692-1.353,2.466-1.918,4.38-2.15a4.821,4.821,0,0,1,.495-.074L320,10.5a.7.7,0,0,1,.736.67.89.89,0,0,0-.736-.285l-16.156.315-19.9.416-.193,0c-.7.022-3.521.228-4.752,1.765Z" transform="translate(-278.764 -10.087)" fill="#fff"/><path d="M278.964,13.475c.679-1.345,2.466-1.87,4.4-2.089a4.244,4.244,0,0,1,.464-.07l36.149-.723a.7.7,0,0,1,.74.67.9.9,0,0,0-.74-.285l-16.113.342-19.967.451c-.022,0-.162.009-.193.009-.7.018-3.556.215-4.743,1.695Z" transform="translate(-278.741 -10.138)" fill="#fff"/><path d="M278.92,13.555c.666-1.34,2.47-1.831,4.419-2.041.136-.026.3-.053.434-.066l36.18-.775a.7.7,0,0,1,.74.67.908.908,0,0,0-.74-.285l-16.082.368-20.024.491c-.022,0-.162,0-.193,0C282.967,11.939,280.063,12.127,278.92,13.555Z" transform="translate(-278.719 -10.183)" fill="#fff"/><path d="M278.88,13.632c.657-1.336,2.47-1.787,4.445-1.98a3.257,3.257,0,0,1,.4-.061l36.206-.837a.707.707,0,0,1,.74.67.9.9,0,0,0-.74-.285l-16.042.394-20.089.521s-.162,0-.193,0c-.67.018-3.622.193-4.726,1.564Z" transform="translate(-278.696 -10.229)" fill="#fff"/><path d="M278.84,13.722c.644-1.331,2.47-1.743,4.463-1.927a2.626,2.626,0,0,1,.372-.053l36.232-.889a.7.7,0,0,1,.74.67.9.9,0,0,0-.74-.285l-16.012.42-20.146.556s-.166.009-.193.009c-.661.013-3.657.175-4.712,1.5Z" transform="translate(-278.674 -10.284)" fill="#fff"/><path d="M278.8,13.8c.631-1.327,2.474-1.7,4.485-1.87a2.915,2.915,0,0,1,.342-.048l36.259-.946a.707.707,0,0,1,.74.67.9.9,0,0,0-.74-.285l-15.968.447-20.212.591s-.171.009-.2.009c-.653.018-3.688.166-4.708,1.432Z" transform="translate(-278.651 -10.329)" fill="#fff"/><path d="M278.76,13.873c.618-1.318,2.474-1.655,4.507-1.818.088-.018.219-.035.307-.044l36.285-1a.713.713,0,0,1,.745.67.926.926,0,0,0-.745-.285l-15.933.473-20.269.626-.2.009c-.639.013-3.723.153-4.695,1.366Z" transform="translate(-278.629 -10.374)" fill="#fff"/><path d="M278.71,13.959c.609-1.314,2.474-1.612,4.524-1.761.079-.018.2-.031.28-.039L319.826,11.1a.709.709,0,0,1,.74.67.9.9,0,0,0-.74-.285l-15.894.5-20.335.661s-.18,0-.2.009c-.631.013-3.758.14-4.686,1.3Z" transform="translate(-278.6 -10.424)" fill="#fff"/><path d="M278.67,14.04c.534-1.178,2.536-1.572,4.546-1.7a2.343,2.343,0,0,1,.245-.031L319.8,11.193a.712.712,0,0,1,.745.666.917.917,0,0,0-.745-.28L303.94,12.1l-20.391.7s-.184,0-.2.009c-.618.009-3.788.127-4.677,1.235Z" transform="translate(-278.578 -10.475)" fill="#fff"/><path d="M278.63,14.11c.587-1.305,2.479-1.524,4.568-1.651.053-.013.162-.022.215-.031l36.368-1.165a.719.719,0,0,1,.745.67.912.912,0,0,0-.745-.285l-15.819.552-20.461.731-.2.009c-.609.009-3.828.114-4.669,1.165Z" transform="translate(-278.556 -10.514)" fill="#fff"/><path d="M278.574,14.2c.569-1.3,2.479-1.485,4.59-1.594.044-.009.14-.018.184-.022l36.39-1.222a.718.718,0,0,1,.745.666.926.926,0,0,0-.745-.28l-15.788.578-20.518.766-.2,0c-.6.009-3.858.1-4.66,1.1Z" transform="translate(-278.522 -10.571)" fill="#fff"/><path d="M278.54,14.277c.561-1.292,2.479-1.441,4.607-1.537a.968.968,0,0,1,.153-.018l36.421-1.279a.719.719,0,0,1,.745.67.921.921,0,0,0-.745-.28l-15.749.6-20.58.8-.2.009c-.587,0-3.893.092-4.651,1.034Z" transform="translate(-278.505 -10.616)" fill="#fff"/><path d="M278.494,14.364c.547-1.288,2.483-1.393,4.629-1.485a1.165,1.165,0,0,0,.123-.013l36.447-1.331a.721.721,0,0,1,.745.666.907.907,0,0,0-.745-.28l-15.714.631-20.641.837-.206.009c-.578,0-3.924.079-4.642.972Z" transform="translate(-278.477 -10.667)" fill="#fff"/><path d="M278.46,14.438c.539-1.283,2.483-1.349,4.651-1.428.013,0,.083-.009.1-.009l36.469-1.388a.719.719,0,0,1,.749.666.916.916,0,0,0-.749-.28l-15.67.657-20.707.872-.206.009c-.569,0-3.959.066-4.634.9Z" transform="translate(-278.46 -10.711)" fill="#fff"/></g><path d="M278.41,14.524c.526-1.279,2.488-1.31,4.673-1.375L319.644,11.7a.725.725,0,0,1,.749.666.92.92,0,0,0-.749-.28l-36.609,1.594c-.556,0-3.99.053-4.625.837Z" transform="translate(-155.812 -6.578)" fill="#fff"/><g transform="translate(2.967 1.432)"><path d="M12.644,3.523c4.988-.114,37.008-.031,38.089.013h.057a2,2,0,0,1,1.437.416,1.787,1.787,0,0,0-1.437-.609h-.053c-1.121-.039-33.114-.123-38.1-.013A7.385,7.385,0,0,0,6.78,6.4a7.413,7.413,0,0,1,5.864-2.869Z" transform="translate(-6.78 -3.276)" fill="#fff"/><path d="M27.1,57.69a1.488,1.488,0,0,0,1.353.683c1.936.044,22.691.061,23.878.022a1.691,1.691,0,0,0,.876-.311,2.355,2.355,0,0,1-.885.118c-1.187.039-21.933.022-23.869-.022A1.838,1.838,0,0,1,27.1,57.69Z" transform="translate(-18.201 -33.859)" fill="#fff"/><path d="M81.345,31.179l-9.372.009-6.447.009H62.6a2.22,2.22,0,0,0-1.726.657,2.367,2.367,0,0,1,1.726-.469l18.745-.022a2.4,2.4,0,0,1,.959.114,1.859,1.859,0,0,0-.959-.307Z" transform="translate(-37.181 -18.953)" fill="#fff"/></g><g transform="translate(58.827 1.572)"><path d="M149.314,5.533c-.482-.832-1.055-1.625-1.958-1.717-.674-.066-12.158,0-12.241,0l-.018-.193h.066v.193H135.1a1.882,1.882,0,0,0-1.5.346,1.981,1.981,0,0,1,1.515-.539h.053v.193h-.053l-.018-.193c.066,0,11.619-.061,12.272,0,1,.1,1.467,1.091,1.945,1.905Z" transform="translate(-133.6 -3.595)" fill="#fff"/><path d="M188.785,9.811c-1.419,2.5-3.736,6.8-6.32,11.378L179.7,26.073l-.083.149-.083-.149C178,23.327,171.03,10.748,169.48,8.02c1.537,2.7,8.9,15.587,10.222,17.956h-.166l2.759-4.883c2.553-4.52,5.072-8.772,6.491-11.282Z" transform="translate(-153.766 -6.082)" fill="#fff"/><path d="M203.85,55.513c.6-1.064,2.387-4.121,2.387-4.121,2.553-4.52,5.072-8.772,6.491-11.282-1.419,2.505-3.736,6.8-6.324,11.374l-2.409,4.169-.145-.14Z" transform="translate(-173.083 -24.179)" fill="#fff"/><path d="M170.207,55.679c-1.765-3.166-7.34-13.231-8.847-15.889,1.485,2.615,7.327,12.8,8.991,15.758Z" transform="translate(-149.202 -23.999)" fill="#fff"/><path d="M229.788,4.107a2.34,2.34,0,0,0-.71-.061h-.031c-1.191,0-11.641-.044-12.123-.022a1.981,1.981,0,0,0-1.813.928c-.066.1-.806,1.2-1.542,2.5.749-1.318,1.31-2.5,1.38-2.606a2.155,2.155,0,0,1,1.971-1.016c.486-.022,10.94.018,12.132.022h.039a2.008,2.008,0,0,1,.705.254Z" transform="translate(-178.546 -3.724)" fill="#fff"/></g><path d="M276.55,7.56a7.973,7.973,0,0,1,6.6-3.819c4.489-.092,35.216-.061,35.965-.031a2.639,2.639,0,0,1,.758.219,3.938,3.938,0,0,0-.766-.026c-.749-.031-31.467-.066-35.952.031a7.817,7.817,0,0,0-6.6,3.626Z" transform="translate(-154.767 -2.071)" fill="#fff"/><path d="M300.01,58.064c1.669.026,23.019-.031,30.013-.044l2.413.092-2.413.1c-6.166.009-23.44.039-28.586.031a3.638,3.638,0,0,1-1.428-.184Z" transform="translate(-167.952 -32.657)" fill="#fff"/><path d="M111.693,30.66c.083,1.454.455,10.84-.385,13.844a4.7,4.7,0,0,1-.688,1.673s.841-1.826.714-7.656.359-7.861.359-7.861Z" transform="translate(-61.988 -17.277)" fill="#fff"/><path d="M113.093,3.15c.193.793,0,7.091.083,8.317.061.832-.127.088-.105.258a10.63,10.63,0,0,1-.193-3,36.28,36.28,0,0,1,.215-5.571Z" transform="translate(-63.25 -1.773)" fill="#fff"/><path d="M322.41,57.165a2.986,2.986,0,0,0-.337-1.13c-.342-.276-.771.035-1.257.438-.547.455-.7.67-.653.8.469,0,1.4-.289,1.476.429a16.638,16.638,0,0,1,.245,3.219c-.153,2.054.035,3.272-.543,4.034s-10.756.385-20.343.442c-18.666.105-21.648.547-24.648-2.4l.631,1.025a7.581,7.581,0,0,0,4.721,2.146c2.431.123,39.04-.048,39.035-.039l1.13-.048c.438-.21.5-.7.543-1.314A67.54,67.54,0,0,0,322.41,57.165Z" transform="translate(-154.654 -31.499)" fill="#fff"/><g transform="translate(0.019 0.575)"><path d="M228.481,52.7a2.232,2.232,0,0,1-1.406-.048,1.726,1.726,0,0,1-.648-1.191c0-.372-.066-13.826-.031-14.444.263,1.261.136,11.505.263,13.222.6-2.531,1.073-18.521-.088-13.932l1.073-4.371s.333,16.607.333,16.8c0,.889,1,1.288.837,1.568.061.46.727.451.543.618-.394.28-1.993-.674-1.831,1.191.289.434.653.377,1.06.394s-.105.193-.105.193Z" transform="translate(-126.857 -18.591)" fill="#fff"/><path d="M144.1,24.828a17.158,17.158,0,0,1-.9-3.968l-.118.425s.022,21.872.039,22.323,0,.924-.885.968-6.565.066-6.977-.079c-.166.044-.333.009.153.276,1.415.14,6.421.079,6.845.057a1.431,1.431,0,0,0,1.226-.508c.972.092,1.756,2.08,1.651,2,.289-.289.254-.749.285-1.27.153-2.807.031-14.137-.031-14.567L145.31,42.04c-.044,1.888-1.055-10.739-1.134-11.339-.473-3.407.228-4.511,1.458-1.305,0,0-.644-1.577-1.542-4.564Z" transform="translate(-75.693 -12.363)" fill="#fff"/><path d="M202.824,28.441c1.327-5.7-.771-.193-2.22,1.866-1.984,3.674-4.239,7.029-8.637,14.1l-.092.109a1.2,1.2,0,0,1-1,.4l-5.724-.022h-.035c-.372-.131-.4-.188-.683-.718.311.495.473.464.718.464,0,0,5.041.022,5.724.022a.722.722,0,0,0,.657-.272c5.146-8.273,12.574-22.248,13.029-23.05a.822.822,0,0,1,.285-.342l-2.019,7.441Z" transform="translate(-103.311 -12.442)" fill="#fff"/><path d="M26.818,37.2a1.21,1.21,0,0,0-1.511.867,2.54,2.54,0,0,1-.267-.977c-.009-.206-.031-3.569-.053-6.539-.018-2.886-.035-5.869-.048-6.548a2.152,2.152,0,0,1,.4-1.288,2.162,2.162,0,0,0,1.476,1.112,1.145,1.145,0,0,0-.166.626c.013,1.331.14,8.834.057,11.9a2.057,2.057,0,0,0,.066.762" transform="translate(-14.038 -13.378)" fill="#fff"/><path d="M113.6,11.305a.864.864,0,0,0,.267-.758s.044-6.6.018-8.045a1.318,1.318,0,0,0-.552-1.182,2.869,2.869,0,0,0,.053.845c.066.688-.066,7.739.039,8.273.092.451,0,.666.171.872Z" transform="translate(-63.51 -1.32)" fill="#fff"/><path d="M129.9,35.4a1.834,1.834,0,0,1-.4-1.224c-.031-.988.061-30.349,0-31.118a1.893,1.893,0,0,1,.543-1.386c.6-.319.81.957,1.134,1.534-.9-.835-1.161-.192-1.095,1.027s-.066,17.072.031,27c-.048,3.642.885-.271,1.047-1.172v2.754a1.353,1.353,0,0,0,.35,1.04c-.534.1-.425.31-.657.682-.171.328-1.182.306,1.327.372s7.546,0,7.673,0,1.638.682-.018.769-7.826.114-8.772.07-.736-.118-1.2-.4" transform="translate(-72.56 -1.491)" fill="#fff"/><path d="M59.285,38.872a2.349,2.349,0,0,1-.158-.771c-.044-.788-.061-3.512-.044-3.937-.258-1.117-1.226-1.62-1.485-.556.013,1.112-.083,3.026.079,4.958a4,4,0,0,0,.258,1.143c.5.631,1,.118,1.349-.841Z" transform="translate(-32.385 -19.168)" fill="#fff"/><path d="M86.3,53.417a2.02,2.02,0,0,0,1.218-2.067c.018-1.831.022-2.65,0-2.93h0a5.272,5.272,0,0,1-1.607,1.844,7.118,7.118,0,0,1,.061,1.13c.477.9.819,1.353.328,2.019Z" transform="translate(-48.155 -27.835)" fill="#fff"/><path d="M47.739,16.276a1.641,1.641,0,0,0-.578-.087l-18.745.017c-.434.066-.451-.031-.924.7a1.561,1.561,0,0,1,.924-.188L47.161,16.7c.473,0,.771.061.81,1.089s.009,9.307.009,9.862a6.933,6.933,0,0,1-6.727,6.841c-5.207.166-31.792.083-32.3.083A7.384,7.384,0,0,1,2.2,27.9c-.158-1.736-.131-15.585-.123-16.45.013-1.294,1.432-6.767,6.8-6.89s37.231-.022,38.032.013c.311.009,1.029-.149,1.091,1.106s-.022,3.532-.022,4.066-.272,1.228-.845,1.246a1.572,1.572,0,0,0,.99-.315c.521.232.442.568,1.3,1.036-.985-1.027-.815-1.027-.924-1.967,0-.136,0-.4.013-.73.022-.966.053-2.422.009-3.362A7.508,7.508,0,0,0,49.6,3.45c-1.077,2.2-1.415.94-1.642.861a1.482,1.482,0,0,0-.942-.258h-.079c-1.055-.039-33.079-.127-38.067-.009A7.073,7.073,0,0,0,2.782,7.7c-1.7.922-1.257.293-2.291.358a6.569,6.569,0,0,0-.4,2.256c.026,1.049-.14,9.609.061,17.067a10.068,10.068,0,0,0,1.945,6,8.751,8.751,0,0,0,6.727,3.261c.635,0,4.6-.079,9.013-.074,10.651,0,24.272.052,25.59-.131.622-.083,3.578-1,4.437-2.457l-.109-.49c-1.585,1.478-3.149,2.675-5.724,2.4H40.355c-8.181-.24-29,.066-33.438-.319-.416-.035-3.153-1.207-3.793-2.439-.018-.442-.184-.337.8-.332a7.76,7.76,0,0,0,5.019,2.033h.582c8.1.022,27.4.052,31.739-.083a6.959,6.959,0,0,0,4.953-1.788c.241.1.749-1.521,1.524,1.377,2.383-2.636,2.444-6.605,2.488-7.349.061-1.141.053-9.932.009-11.016a1.459,1.459,0,0,0-.718-1.329,12.956,12.956,0,0,0,.092,1.932c.127,1.351.372,9.818-.709,13.416a2.9,2.9,0,0,1-1.6,2.1,10.816,10.816,0,0,0,.53-1.552,7.578,7.578,0,0,0,.653-2.881v-.748c0-2.256.022-8.253-.013-9.132-.293-1.683.491-1.395.618-2.492-.578,1.093-.385.577-1.366,1" transform="translate(-0.049 -2.517)" fill="#fff"/><path d="M135.1,5.777c.241-.473.5-.723.889-.727" transform="translate(-75.716 -3.416)" fill="#fff"/><path d="M135.06,3.705c.276-.35.771-.219.946-.232.25-.022,11.645-.044,12.075,0s.6.328,1.029,1.071,10.283,18.2,10.494,18.606c.289.555.762.984,1.235.166S171.476,4.5,171.765,4.051s.591-.472,1.064-.494,12.079.022,12.079.022c.556.022.8.367.841,1.128s.013,27.892.013,27.892a.8.8,0,0,1-.88.9h-6.731c-.245,0-.5,0-.635-.354.166.516.289.533.635.612h6.731a1.957,1.957,0,0,0,.867-.162,1.11,1.11,0,0,1,1.564,1.062c-.031.437-.657.219-1.831.284s-8.58.017-8.939-.066-.771.28-1.029.149.3.577.893.612,9.753.013,9.753.013a2.044,2.044,0,0,0,1.4-.428,2.9,2.9,0,0,0,.307-1.766c0-1.482.061-29.514-.031-30.9-.044-.647-.149-1.01-.425-1.215-.6.057-.889,1.259-.219,2.453.171,3.978.429,28.968-1.283,29.182,0-1.11.136-27.538.092-28.3a3.792,3.792,0,0,0-.131-.909c-.206-.546.639-.568.766-1.255.206-1.084.026.175-1.2.612a1.288,1.288,0,0,0-.512-.061h-.018c-.473,0-11.623-.039-12.105-.017a1.566,1.566,0,0,0-1.476.73c-.184.284-3.666,6.431-7.853,13.832l-3.088,5.452a2.214,2.214,0,0,0-.114.21c.022-.013-.022-.013,0,0-.031-.013-.088-.109-.215-.35-.193-.376-10.012-17.789-10.511-18.641-.455-.778-.727-1.242-1.419-1.312-.569-.057-12.1,0-12.167,0h.009" transform="translate(-75.585 -1.331)" fill="#fff"/><path d="M318.042,28.9c-.109,2.544.232,3.274-.473,4.332-.228.358-.688.424-1.493.446-1.331.039-32.33.214-36.11.127a7.405,7.405,0,0,1-3.534-.979,4.895,4.895,0,0,0-3.942-1.32,8.938,8.938,0,0,1-1.218-3.842c0-1.477-.022-17.97-.022-17.97a8.149,8.149,0,0,1,.355-2.3c1.555-1.154,1.712-.525,2.1-.144a7.516,7.516,0,0,1,4.2-3.589l.035.529a7.24,7.24,0,0,0-4.66,6.74c.031,2-.031,11.523-.031,15.466a6.9,6.9,0,0,0,6.727,7.147c3.885.092,35.063-.092,36.079-.122s1.143-.275,1.174-.953.066-2.837.031-3.7-.28-1.294-.99-1.294-30.368.061-32.374.031a2.452,2.452,0,0,1-2.505-2.369c-.092-.739-.153-11.553-.184-12.725a2.706,2.706,0,0,1,2.9-2.649c1.975,0,30.863.031,31.94,0s1.143-.214,1.2-1.137.031-2.715.061-3.637-.491-1.2-1.235-1.228-31.481-.066-35.9.031a7.079,7.079,0,0,0-2.251.407l-.035-.529a7.488,7.488,0,0,1,2.277-.389c4.485-.1,35.181-.061,35.926-.031,1.353-.275,2.47-.5,2.943-1.477a2.725,2.725,0,0,1,.552,1.635,48.535,48.535,0,0,1-.127,7.038c-.18.9-.311,1.3-.7,1.469a1.139,1.139,0,0,0-.149-.9c-.105-.192.92-9.254-.867-7.505-.491.481-.289.428.022.935-.07,1.215.035,4.148-.1,4.594a4.6,4.6,0,0,1-.285.612,1.91,1.91,0,0,1-1.327.376c-.889.026-20.216.013-28.472,0H284.1a2.439,2.439,0,0,0-1.8.686c.079.988.21,1.377,1.52,1.63a1.722,1.722,0,0,0-.276,1.185c.031,1.171.088,9.416.057,10.29a2.016,2.016,0,0,0,.158,1.01c-.648.608-1.1,1.985.131,2.173,1.673.026,22.958-.013,29.952-.026h2.413a1.821,1.821,0,0,1,1.769,1.932Z" transform="translate(-151.807 -1.573)" fill="#fff"/><path d="M132.435,23.5c.1,4.235.289,8.054.289,8.054l.175-18.99.013-6.013a2.5,2.5,0,0,1,.508-1.441A1.333,1.333,0,0,0,132.4,6.59l-.136,6.022S132.308,18.354,132.435,23.5Z" transform="translate(-74.124 -3.45)" fill="#fff"/><path d="M4.567,38.888a7.74,7.74,0,0,1-1.209-3.823c-.158-1.774-.131-15.841-.127-16.52,0,.013.018-.14.018-.14a6.633,6.633,0,0,1,.442-2.334,10.034,10.034,0,0,0-.88,2.308l-.018.153c0,.7-.035,14.772.127,16.559a7.887,7.887,0,0,0,1.651,3.8Z" transform="translate(-1.589 -9.671)" fill="#fff"/><path d="M274.887,38.321a8.158,8.158,0,0,1-.766-3.739l.018-6.324c.013-3.883.031-7.9.013-9.124a7.493,7.493,0,0,1,.4-2.8,8.381,8.381,0,0,0-1.034,2.8c.013,1.223,0,5.237-.013,9.119l-.018,6.324A8.6,8.6,0,0,0,274.887,38.321Z" transform="translate(-153.251 -9.762)" fill="#fff"/><path d="M376.734,6.79a1.451,1.451,0,0,1,.258,1.042c.009.368-.018.88-.018,1.423a19.012,19.012,0,0,1-.162,3.031s.565-.674.674-3.031c.013-.232-.057-.276-.035-.955a1.748,1.748,0,0,0-.723-1.511Z" transform="translate(-211.091 -4.394)" fill="#fff"/><path d="M375.85,59.85c.495.206.648,1.182.653,1.52,0,.911-.079,3.9-.109,4.55.018-.328.526.022.574-2.588.013-.745.074-1.52.057-1.971A1.554,1.554,0,0,0,375.85,59.85Z" transform="translate(-210.596 -34.277)" fill="#fff"/><path d="M295.23,23.58a3.1,3.1,0,0,0-.35,1.1c.009.385.022,1.769.039,3.521.031,3.254.083,8.711.145,9.188a2.087,2.087,0,0,0,.99,1.607c-.442-.285-.456-.718-.547-1.45-.057-.464-.109-5.9-.14-9.158-.018-1.756-.031-3.14-.039-3.526,0-.307-.236-.946-.092-1.283Z" transform="translate(-165.236 -13.862)" fill="#fff"/><path d="M26.223,19.714a2.664,2.664,0,0,0-2,.646,2.724,2.724,0,0,0-.766,1.955c.013.8.031,3.6.048,6.517.022,3.282.044,6.382.053,6.552a2.6,2.6,0,0,0,2.825,2.51,2.547,2.547,0,0,1-2.566-2.532c-.009-.161-.031-3.4-.053-6.539-.018-2.872-.039-5.845-.053-6.521a2.461,2.461,0,0,1,.7-1.768,2.551,2.551,0,0,1,1.809-.825Z" transform="translate(-13.206 -11.656)" fill="#fff"/><path d="M182.741,77.3c.622.455.784.245,2.47.245s5.566.2,5.895-.088c.359-.324.521-.543.438-.7a6.3,6.3,0,0,0-.39-.644,1.69,1.69,0,0,1-1.52.867,18.119,18.119,0,0,1-2.383-.127,17.377,17.377,0,0,1-2.7,0s-1.445.3-1.222-.272a3.682,3.682,0,0,0,.171-.569,1.537,1.537,0,0,0-.477.455c-.464.578-.819.434-.285.832Z" transform="translate(-102.239 -43.36)" fill="#fff"/><path d="M159.44,30.95l.495,2.667s-.175-1.472.985.556c.657,1.156,7.581,13.152,7.581,13.152L159.444,30.95Z" transform="translate(-89.338 -18.034)" fill="#fff"/></g><path d="M64.053,35.155c-.451,0-.569.131-.569.539,0,.3-.114-.018-.114-.018l.035-.626h.666Z" transform="translate(-35.619 -19.73)" fill="#fff"/><path d="M64.6,35.92c-.219,0-.355.074-.355.289l.018-.28Z" transform="translate(-36.113 -20.219)" fill="#fff"/><path d="M106.48,35.122a.682.682,0,0,1,.657.552c0,.307.114-.018.114-.018l-.031-.626h-.67l-.07.088Z" transform="translate(-59.669 -19.719)" fill="#fff"/><path d="M106.48,35.894c.215,0,.394.066.394.285l.022-.289h-.416Z" transform="translate(-59.669 -20.202)" fill="#fff"/><path d="M373.34,62.569c.219,0,.394.066.394.28l.026-.289Z" transform="translate(-209.166 -35.212)" fill="#fff"/><path d="M50.381,13.968a1.5,1.5,0,0,0-1.428-1.591c-3.6-.2-19.051-.162-21.044,0a2.778,2.778,0,0,0-2.7,2.6c0,.306-.039,3.559.079,4.958a2.73,2.73,0,0,0,2.983,2.8c2.956-.009,8.812,0,8.838,0,.258.017.451.044.491.245a6.906,6.906,0,0,1,.061,1.11c0,.21-.1.293-.381.315H13.29a.431.431,0,0,1-.32-.092c-.114-.118-.131-.38-.118-.813.07-2.645-.057-11.887-.057-11.887a.977.977,0,0,1,.241-.682A.89.89,0,0,1,13.7,10.7c2.128,0,35.028.031,35.615.039a1.04,1.04,0,0,0,.784-.227,1.037,1.037,0,0,0,.237-.774c0-.066.039-6.61.018-8.031-.026-1.548-1.34-1.6-2.4-1.635C46.483.083,8.9.2,8.631.214A9.041,9.041,0,0,0,1.812,3.537,7.946,7.946,0,0,0,.029,8.329c0,.28-.088,11.612.061,17.068A9.642,9.642,0,0,0,3.2,32.658a8.68,8.68,0,0,0,5.632,2.133s26.4-.017,32.93.031c3.447.026,5.912-1.4,7.34-4.245a13.8,13.8,0,0,0,1.27-5.447s.053-10.125.018-11.161Zm-.4,11.153a13.486,13.486,0,0,1-1.226,5.286,7.154,7.154,0,0,1-6.994,4.035c-6.46-.048-32.672-.031-32.935-.031A8.313,8.313,0,0,1,3.45,32.374,9.282,9.282,0,0,1,.476,25.392C.353,20.924.4,12.6.41,9.465c0-.774,0-1.089,0-1.141,0-.188.018-.49.031-.625A8.525,8.525,0,0,1,7.851.682,5.629,5.629,0,0,1,8.661.6C8.95.595,21.629.551,31.812.516,40.1.49,47.263.463,47.959.459c1.248.048,2,.157,2.019,1.255.022,1.4-.018,7.756-.018,8.027a.707.707,0,0,1-.123.5.749.749,0,0,1-.508.118c-.587-.009-33.5-.044-35.624-.044a1.26,1.26,0,0,0-.937.35,1.375,1.375,0,0,0-.355.962c0,.092.131,9.264.061,11.87a1.464,1.464,0,0,0,.228,1.089.779.779,0,0,0,.591.214H37.313c.613-.048.74-.407.74-.7a7.381,7.381,0,0,0-.066-1.18c-.1-.512-.618-.542-.841-.56-.066,0-6.21-.013-8.864-.009a2.359,2.359,0,0,1-2.6-2.444c-.1-1.141-.083-3.607-.079-4.534v-.4a2.4,2.4,0,0,1,2.347-2.212c1.988-.162,17.4-.2,20.991,0a1.1,1.1,0,0,1,1.064,1.22c.035,1.01-.018,10.838-.018,11.135Z" transform="translate(-0.005 -0.042)" fill="#fff"/><path d="M129.3,21.326c.018-8.342.031-18.721,0-19.167h0V2.15c.07-1.482.946-1.911,2.242-2.094.5-.07,7.669-.048,11.523-.039,1.1,0,1.9,0,1.945,0A3,3,0,0,1,147.8,1.783c.035.061,7.875,13.986,8.47,15.267.5,1.089.7,1.049.8,1.027h.018a.182.182,0,0,1,.066-.009c.123-.013.307-.026.7-.892.858-1.9,7.362-13.522,8.588-15.359A2.91,2.91,0,0,1,169,.209s13.021-.035,13.765,0c1.472.061,1.853.254,1.945,1.6.083,1.2.035,31.054.035,31.054,0,1.373,0,1.941-1.568,2.138-.175.022-9.889,0-9.889,0a1.423,1.423,0,0,1-1.012-.437,1.663,1.663,0,0,1-.5-1.106s-.053-13.916-.026-14.423c.022-.4-.123-.936-.324-1-.1-.031-.223.07-.364.284-.285.446-9.039,15.625-9.153,15.778-.495.665-.587.783-1.48.809-.526.017-6.1.017-6.385.031a2.471,2.471,0,0,1-2.185-1.338c-.613-.992-8.015-14.139-8.615-15.258-.175-.332-.42-.481-.653-.4a.652.652,0,0,0-.337.769c.061.442.022,14.79.022,14.79-.026.713-.057,1.386-1.349,1.434-.911.031-9.092.044-10.283,0-.582-.022-1.288-.328-1.327-1.666-.013-.415,0-5.758,0-11.949Zm.385,11.935c.035,1.128.565,1.277.955,1.29,1.191.048,9.35.035,10.257,0,.937-.035.946-.358.977-1.067,0,0,.039-14.2-.018-14.716v.022a1.043,1.043,0,0,1,.591-1.211c.333-.118.8-.026,1.126.581.6,1.124,7.988,14.248,8.6,15.236a2.076,2.076,0,0,0,1.839,1.159c.3-.017,5.873-.017,6.394-.031a1.5,1.5,0,0,0,1.182-.656c.118-.157,8.847-15.3,9.136-15.757.311-.481.609-.512.806-.446.491.157.609,1,.587,1.386-.022.5.031,14.4.031,14.4a1.3,1.3,0,0,0,.39.835,1.033,1.033,0,0,0,.74.328h2.26c2.912.009,7.318.026,7.577,0,1.231-.153,1.231-.393,1.231-1.753,0,0,.048-29.843-.035-31.028-.07-1.071-.219-1.185-1.572-1.242-.745-.031-13.113-.031-13.647,0a3.232,3.232,0,0,0-2.339,1.443c-1.222,1.832-7.7,13.413-8.553,15.3-.407.9-.67,1.084-1.016,1.119h-.026s.232-.048-.013,0c-.447.1-.758-.219-1.235-1.242-.591-1.281-8.413-15.175-8.448-15.232A2.639,2.639,0,0,0,145.01.406c-.053,0-12.946-.039-13.428.031-1.375.2-1.861.634-1.909,1.736V2.128c.035.424-.013,30.722,0,31.133Z" transform="translate(-72.336 -0.007)" fill="#fff"/><path d="M271.034,8.9a8.4,8.4,0,0,1,2.724-6.059,8.5,8.5,0,0,1,5.251-2.4c.775-.031,36.189-.1,38.348-.087,1.673,0,2.089.866,2.225,2.243a49.538,49.538,0,0,1-.127,7.069c-.28,1.36-.451,1.648-1.607,1.648h-2.269c-7.012.009-28.362.026-31.029,0-.635.026-1.051.275-1.02,1.412.026,1.093.092,9.369.061,10.3a1.491,1.491,0,0,0,.223,1.067.6.6,0,0,0,.451.157c.228,0,29.129-.022,32.317-.031,2.527-.009,2.641.144,2.912,1.548l.018.1a68.727,68.727,0,0,1,0,7.6c-.053.774-.109,1.574-1.4,1.508-.836-.044-38.107.031-38.449.031a8.365,8.365,0,0,1-5.886-2.348,9.022,9.022,0,0,1-2.728-5.784c0-.009-.022-17.977-.022-17.977Zm.4,17.964v-.017a8.629,8.629,0,0,0,2.61,5.535,8,8,0,0,0,5.619,2.238c.337,0,37.63-.074,38.47-.031.872.044.928-.3.99-1.15a69.221,69.221,0,0,0,0-7.507s.009.057-.022-.1c-.236-1.215-.236-1.242-2.531-1.233-3.184.009-32.089.031-32.317.031a.968.968,0,0,1-.727-.275A1.761,1.761,0,0,1,283.2,23c.035-.922-.031-9.181-.061-10.274-.031-1.189.407-1.762,1.384-1.806h.013s24.009.009,31.016,0h2.286c.876,0,.964-.039,1.231-1.342a50.423,50.423,0,0,0,.118-6.956c-.123-1.25-.442-1.889-1.844-1.9-2.164-.009-37.555.057-38.33.087a8.12,8.12,0,0,0-5,2.291,8.018,8.018,0,0,0-2.6,5.78s.022,17.973.018,17.96Z" transform="translate(-151.664 -0.199)" fill="#fff"/><g transform="translate(2.749 3.264)"><path d="M50.8,11.239c.018-.9.136-2.054.092-2.95a3.008,3.008,0,0,0-.166-.743V7.529l-.013-.013-.009.009a.97.97,0,0,0-.162,0h-.145C49.337,7.485,17.379,7.4,12.4,7.516,7.46,7.63,6.295,12.765,6.29,13.7c-.013,1.149-.026,14.737.118,16.375.491,5.485,5.991,6.031,6.044,6.031h.587c8.094.022,27.381.052,31.7-.083,5.019-.162,6.044-4.877,6.044-6.132v-.747c.009-2.037.026-8.225-.009-9.081a1.326,1.326,0,0,1,.031-.275h0l.026-.127a.222.222,0,0,1-.127-.1l-.114.057a.1.1,0,0,0,.009.035c-1.235,0-18.67.022-18.67.022a2.848,2.848,0,0,0-.311.013v-.013l-.123-.035a.191.191,0,0,1-.079.087l.053.118h.009c-.013.459,0,3.05.044,3.789a1.447,1.447,0,0,0,.044.306v.009l-.009.013h0a.144.144,0,0,1,.026.026l.022-.013a1.272,1.272,0,0,0,.241.017h1.222c4.423-.009,9.009-.017,9.521,0a1.261,1.261,0,0,1,1.4,1.263v.026c.026.3.026.892,0,3.015a3.263,3.263,0,0,1-3.3,3.453c-1.191.039-22.025.022-23.97-.022a3.283,3.283,0,0,1-3.385-3.186c-.013-.17-.026-2.141-.053-6.595-.018-2.876-.035-5.847-.048-6.52a3.218,3.218,0,0,1,3.337-3.321c11.514,0,33.43.013,33.968,0a.593.593,0,0,0,.228-.044h0a.014.014,0,0,0,.009,0h0s0-.039,0-.074c0-.149.009-.415.013-.752Zm-.263.743c-.539.017-22.454,0-33.964,0a3.421,3.421,0,0,0-2.5.988,3.46,3.46,0,0,0-.972,2.465c.013.673.031,3.645.048,6.52.031,4.453.044,6.429.053,6.6a3.408,3.408,0,0,0,3.512,3.3c1.94.044,22.783.061,23.974.017A3.378,3.378,0,0,0,44.1,28.3c.022-2.128.022-2.718,0-3.029V25.25a1.376,1.376,0,0,0-1.528-1.381c-.508-.017-5.1-.013-9.521,0H31.832a1.611,1.611,0,0,1-.166,0,1.552,1.552,0,0,1-.026-.232c-.039-.752-.057-3.422-.039-3.807h0a2.537,2.537,0,0,1,.32-.017s17.685-.017,18.7-.022q.013.1.026.288c.031.852.018,7.041.013,9.073V29.9c0,1.228-1.007,5.847-5.921,6-4.314.14-23.6.1-31.691.083h-.587c-.053,0-5.439-.524-5.917-5.913C6.4,28.432,6.409,14.854,6.422,13.7c.009-.922,1.147-5.948,5.987-6.062,4.98-.114,36.929-.031,37.984.009h.241a1.261,1.261,0,0,1,.048.315c.039.892.009,2.377-.009,3.269,0,.328-.013.586-.013.739a.636.636,0,0,1-.118.013Z" transform="translate(-6.283 -7.458)" fill="#fff"/><path d="M185.555,7.906V7.9l-.013-.013h-.07c-4.642-.017-11.654-.039-12.018-.022-.381.017-.412.017-.5.162-.223.358-4.8,8.435-7.822,13.78l-3.092,5.459a1.336,1.336,0,0,1-1.2.809c-.35-.009-.858-.188-1.279-1-.223-.42-10.016-17.787-10.485-18.583a5.7,5.7,0,0,0-.412-.651l.018-.057h-.07l0,0h0c-.547-.035-11.334-.017-11.961,0h0a2.315,2.315,0,0,1-.25,0c-.053,0-.1,0-.136,0L136.2,7.74a.5.5,0,0,1-.044.035l.018.066a.936.936,0,0,0-.013.179l-.018,6.009c-.022,7.587-.061,21.7-.048,22.153v.026c0,.24.14.227.14.192,1.161.083,5.575.079,6.526.031a.712.712,0,0,0,.1,0l.048.009s.1-.035.109-.044l-.044-.087v-.1c-.026-.507-.039-22.092-.039-22.31a1.042,1.042,0,0,1,1.958-.642c.193.262,2.781,4.873,8.514,15.1l.009.017c2.216,3.955,4.305,7.687,4.445,7.915a.077.077,0,0,0,.018.022l.053.114h.105l5.619.017.171-.009h0l.022-.066c4.371-7.027,10.327-18.041,12.294-21.677.346-.651.556-1.036.626-1.158.381-.669.815-.752,1.112-.7a1.045,1.045,0,0,1,.81.913.506.506,0,0,1,.013.07v.07c0,.848.022,20.824,0,22.022a2.855,2.855,0,0,0,.013.367c-.035,0,0,.14.149.127h6.6a.577.577,0,0,0,.158-.022,1.348,1.348,0,0,0,.013-.175c0-7.521.018-27.183-.013-27.848a1.255,1.255,0,0,0-.079-.441Zm-36.9-.079a.32.32,0,0,0-.039-.039h0l.035.026v.013Zm-.053-.044ZM178.85,36.261a2.678,2.678,0,0,1-.013-.363c.018-1.2,0-21.174,0-22.022V13.8h0v-.013l-.013-.074a1.169,1.169,0,0,0-.915-1.014c-.342-.057-.832.035-1.244.765-.074.122-.28.516-.631,1.158-1.971,3.64-7.931,14.667-12.3,21.69h-.026s-5.247-.017-5.685-.022a.424.424,0,0,1-.044-.066c-.14-.223-2.229-3.959-4.445-7.91l-.009-.017C147.79,18.063,145.2,13.448,145,13.177a1.17,1.17,0,0,0-2.19.721c0,.219.018,21.795.044,22.315V36.3c-.026,0-.057,0-.092,0-.959.048-5.418.048-6.53-.031v-.1c-.013-.446.022-14.562.044-22.149L136.3,8.02a1.026,1.026,0,0,1,0-.122.48.48,0,0,1,.088,0,2.315,2.315,0,0,0,.25,0h0c.442-.017,11.041-.039,11.926,0a6.092,6.092,0,0,1,.407.651c.464.791,10.257,18.154,10.48,18.574.451.87,1.007,1.062,1.393,1.066a1.458,1.458,0,0,0,1.309-.874l3.092-5.458c3.026-5.345,7.6-13.417,7.818-13.775q.057-.087.4-.1c.359-.013,7.362,0,12,.022a1.433,1.433,0,0,1,.048.341c.031.66.022,20.318.013,27.839a.353.353,0,0,1,0,.07h-6.661Z" transform="translate(-78.902 -7.617)" fill="#fff"/><path d="M374.44,62.25Z" transform="translate(-212.534 -38.315)" fill="#fff"/><path d="M319.541,7.891c-.771-.031-31.446-.061-35.851.031a6.393,6.393,0,0,0-6.219,6.433c.018,1.228,0,5.253-.013,9.142l-.018,6.324a6.211,6.211,0,0,0,6.035,6.442c3.771.092,34.717-.083,36.04-.122a2.675,2.675,0,0,0,.35-.026l.118-.031c0-.035.013-.175.018-.223.035-.69.061-2.832.031-3.636a1.156,1.156,0,0,0-.109-.59h0a.671.671,0,0,0-.171-.022h-2.409c-7,.022-28.288.057-29.974.031a3.129,3.129,0,0,1-3.193-2.989c-.061-.5-.1-4.335-.149-9.291-.018-1.744-.026-3.125-.039-3.5a3.262,3.262,0,0,1,.942-2.316,3.6,3.6,0,0,1,2.667-1.058h3.491c8.247.009,27.561.022,28.432,0a2.807,2.807,0,0,0,.337-.022h0v.009h0l.14-.074.018-.087h0c.009-.087.013-.2.026-.306.035-.529.039-1.394.044-2.159,0-.551,0-1.071.018-1.451.009-.363-.009-.481-.556-.5Zm-.026,4.471c-.872.026-20.181.009-28.432,0h-3.491a3.75,3.75,0,0,0-2.764,1.093,3.386,3.386,0,0,0-.972,2.408c.009.371.022,1.752.039,3.5.048,4.96.088,8.8.153,9.3a3.245,3.245,0,0,0,3.315,3.1c1.686.026,22.98-.013,29.978-.026h2.413a.516.516,0,0,1,.083,0,1.482,1.482,0,0,1,.07.485c.026.8,0,2.937-.031,3.627a1.04,1.04,0,0,1-.009.131,3.109,3.109,0,0,1-.355.031c-1.327.039-32.26.214-36.035.122a6.084,6.084,0,0,1-5.912-6.311l.022-6.324c.013-3.889.026-7.914.009-9.147a6.263,6.263,0,0,1,6.092-6.3c4.406-.092,35.072-.061,35.843-.031.447.017.447.052.434.371-.013.385-.013.9-.018,1.455,0,.765-.009,1.63-.044,2.15,0,.066-.018.219-.031.341-.074.009-.188.017-.363.022Z" transform="translate(-158.016 -7.684)" fill="#fff"/></g><g transform="translate(2.686 3.002)"><g transform="translate(0 0.204)"><path d="M8.11,33.925a6.077,6.077,0,0,1-1.59-3.941c-.145-1.639-.131-15.206-.118-16.355.009-.913,1.134-5.886,5.921-6,4.086-.1,27-.031,37.139,0h.416a1.4,1.4,0,0,1,.582.07c.1.1.118,3.391.123,4.151l.21-2.049c-.048-1.647-.14-2.29-.258-2.316a6.492,6.492,0,0,0-.657-.114c-9.911-.031-33.416-.1-37.559,0-4.993.114-6.166,5.3-6.175,6.253-.009,1.149-.022,14.734.123,16.377a6.318,6.318,0,0,0,1.848,3.919Z" transform="translate(-6.139 -7.325)" fill="#fff"/><path d="M51.233,29.832a1.289,1.289,0,0,1,1.336,1.332v.026c.022.3.022.886,0,3.008a3.194,3.194,0,0,1-3.232,3.384c-1.2.035-22.021.022-23.965-.022a3.216,3.216,0,0,1-3.324-3.122c-.009-.118-.035-3.9-.061-7.243-.022-2.855-.039-5.549-.048-5.855a3.246,3.246,0,0,1,.915-2.323,3.326,3.326,0,0,1,2.361-1.057,3.391,3.391,0,0,0-2.545.878,3.5,3.5,0,0,0-.99,2.506c0,.306.026,3,.044,5.851.031,4.327.053,7.169.057,7.261a3.467,3.467,0,0,0,3.578,3.362c1.945.044,22.783.061,23.978.022A3.444,3.444,0,0,0,52.823,34.2c.022-2.126.022-2.72,0-3.03v-.026c-.066-.913-.618-1.284-1.594-1.31Z" transform="translate(-14.873 -13.302)" fill="#fff"/><path d="M82.8,35.546c0,1.139.031,7.261.039,10.025a6.941,6.941,0,0,1-2.619,5.107,6.593,6.593,0,0,0,2.877-5.107c-.013-3.46-.026-10.3-.026-10.3s-19.213.013-19.292.022c-.053,0-.123-.031-.114.127-.013.508-.009,3.162.039,3.889.018.272.083.293.385.293-.083,0-.1-.14-.1-.14a.4.4,0,0,1-.031-.171c-.044-.661-.044-2.974-.031-3.723,1.607-.009,17.194-.013,18.872-.018Z" transform="translate(-38.347 -23.092)" fill="#fff"/><path d="M153.483,19.368c-.582-.8-1.165-.731-1.362-.666a1.29,1.29,0,0,0-.841,1.349c0,.2.14,17.536.162,21.679-.022-3.272.1-21.478.1-21.679a1.034,1.034,0,0,1,.666-1.1A1.089,1.089,0,0,1,153.483,19.368Z" transform="translate(-87.448 -13.76)" fill="#fff"/><path d="M154.25,17.693c-.631-1.11-1.156-2.3-1.761-3.369-1.826-3.221-3.25-5.755-3.543-6.271a.6.6,0,0,0-.254-.376,2.1,2.1,0,0,0-.631-.074c-1.353-.031-9.78-.009-9.885-.009a8.331,8.331,0,0,0-2.028.044,6.224,6.224,0,0,0-.031,1.058c0,.227.088,22.436.088,26.766,0,0,.158-25.473.175-27.6,1.279,0,10.721-.026,12.07,0,.109,0,.1.044.1.044C148.6,8,149.6,9.766,149.6,9.766l2.654,4.689c.609,1.071,1.353,2.124,1.984,3.238Z" transform="translate(-78.922 -7.452)" fill="#fff"/><path d="M227.261,39.413c0-6.018.127-19.257.127-19.257v-.1l-.018-.07a1.245,1.245,0,0,0-.968-1.073c-.359-.057-.876.035-1.309.8,0,0-1.086,2.2-2.733,5.111l2.956-4.984c.285-.5.648-.736,1.042-.674a.982.982,0,0,1,.758.867l.013.074v.053s.131,12.876.131,19.253Z" transform="translate(-127.26 -13.891)" fill="#fff"/><path d="M195.382,31.98c-2.4,4.248-4.988,8.562-5.19,8.917a1.281,1.281,0,0,1-1.134.78c-.337-.009-.819-.18-1.226-.968-.048-.1-.7-.981-1.542-2.483.815,1.445,1.266,2.51,1.314,2.6a1.7,1.7,0,0,0,1.45,1.108,1.528,1.528,0,0,0,1.366-.907c.053-.092,2.312-4.358,4.966-9.044Z" transform="translate(-107.045 -21.218)" fill="#fff"/><path d="M207.05,18.356c2.72-4.8,5.829-10.022,5.943-10.2.009-.017.026-.039.031-.048h0a1.811,1.811,0,0,1,.315-.026c.355-.013,11.891.022,12.009.022-.044,0-.066-.022-.066-.035a1.269,1.269,0,0,1,.039.31c.018.393.022,10.359.026,18.367l.131,6.068c0-1.665.127-3.814.127-6.068,0-8.008-.009-17.83-.026-18.232a.913.913,0,0,0-.609-.668c-.482,0-11.19-.07-11.553-.057a1.338,1.338,0,0,0-.858.6C212.441,8.579,209.914,13.306,207.05,18.356Z" transform="translate(-118.648 -7.584)" fill="#fff"/><path d="M319.892,11.924c.022-.345.118-3.032.136-3.164.066-.642-.447-.983-1.025-1.009-.771-.031-30.99-.061-35.392.031a6.457,6.457,0,0,0-6.285,6.5c.022,1.215-.026,15.32-.026,15.464a5.736,5.736,0,0,0,1.949,4.592,7.431,7.431,0,0,1-1.695-4.592c0-.14.048-14.249.035-15.468a6.2,6.2,0,0,1,6.031-6.235c4.406-.092,35.072-.061,35.838-.031q.381.017.377.306c0,.135.092,3.277.066,3.614Z" transform="translate(-157.874 -7.547)" fill="#fff"/><path d="M328.1,41.789c.026-.692.188-2.834.158-3.644-.013-.442-.039-.6-.175-.648a.942.942,0,0,0-.171-.031c-.3,0-30.719.057-32.383.035a3.067,3.067,0,0,1-3.127-2.939c-.048-.377-.188-12.81-.188-12.81a3.221,3.221,0,0,1,.92-2.273,3.566,3.566,0,0,1,2.628-1.169,3.8,3.8,0,0,0-2.807.99,3.471,3.471,0,0,0-.994,2.461s.145,12.442.193,12.832a3.306,3.306,0,0,0,3.381,3.162c1.664.026,32.12-.044,32.427-.044h0a1.278,1.278,0,0,1,.053.442c.031.806.127,2.947.1,3.635Z" transform="translate(-166.112 -13.56)" fill="#fff"/></g><path d="M157.282,40.4c-.193-.74-.626-1.2-.758-.2s.758,10.905.819,11.549L157.277,40.4Z" transform="translate(-90.381 -25.336)" fill="#fff"/><path d="M226.76,42.9c-.123.35.263-2.536.526-.429.1.771.469,3.815-.4,12.613L226.76,42.9Z" transform="translate(-129.722 -26.501)" fill="#fff"/><path d="M252.117,8.359s-.088,18.448-.127,25.021a6.3,6.3,0,0,1-.6,2.736,14.277,14.277,0,0,0,.175-1.521c.048-5.865.048-27.079.048-27.079l-.048-.656A4.015,4.015,0,0,1,252.117,8.359Z" transform="translate(-143.534 -6.86)" fill="#fff"/></g><path d="M321.476,7.911a.738.738,0,0,0-.683-.771H284.718a6.82,6.82,0,0,0-4.888,3.215,7.376,7.376,0,0,1,4.931-2.829h36.031c.644,0,.342,2.873.6,3.127C321.427,9.413,321.519,8.511,321.476,7.911Z" transform="translate(-156.61 -4.016)" fill="#fff"/><path d="M148.347,7.25H136.886c-.578.031-.736.193-.736.793,0,.526.066,1.892.066,3.131,0,0,.109-1.594.2-2.637a.481.481,0,0,1,.009-.079c.035-.837.385-.872.613-.872h6.35c2.339,0,4.493-.013,4.66-.013.328,0,.723.381.968.758s.289.473.455.565c-.145-.434-.709-1.638-1.13-1.638Z" transform="translate(-76.277 -4.078)" fill="#fff"/><path d="M51.481,7.13H13.458A6.812,6.812,0,0,0,8.57,10.345,7.376,7.376,0,0,1,13.5,7.515h37.98c.644,0,.342,2.873.6,3.127.035-1.239.131-2.142.083-2.742a.741.741,0,0,0-.683-.771Z" transform="translate(-4.819 -4.01)" fill="#fff"/><path d="M231.685,7.28H220.224c-.416,0-.819.745-.964,1.178a.976.976,0,0,0,.293-.258c-.013.039.328-.442.315-.4a1.517,1.517,0,0,1,.95-.14h4.515c3.009,0,6.364-.022,6.364-.022.569.079.46.837.451.885.079.569.053,1.31.074,1.542a7.831,7.831,0,0,0,.14,1.147c.035-1.274.061-2.6.061-3.131a.723.723,0,0,0-.731-.793Z" transform="translate(-122.837 -4.095)" fill="#fff"/><path d="M135.8,8.416c0-.149-.061-1.2.582-1.2h-.815Z" transform="translate(-75.969 -4.061)" fill="#fff"/><path d="M385.8,65.745a2.685,2.685,0,0,1,5.369,0,2.685,2.685,0,1,1-5.369,0Zm5.041,0a2.354,2.354,0,1,0-4.708,0,2.354,2.354,0,1,0,4.708,0Zm-1.914.145a.685.685,0,0,0,.736-.771.793.793,0,0,0-.293-.7,1.239,1.239,0,0,0-.771-.145h-1.1v3.018h.368v-1.4h.622l.885,1.4h.477Zm-1.064-.328v-1h.81c.512,0,.587.223.587.482,0,.477-.219.517-.661.517Z" transform="translate(-216.169 -35.506)" fill="#fff"/></g></g></svg>