<svg xmlns="http://www.w3.org/2000/svg" width="183.994" height="116.193" viewBox="0 0 183.994 116.193"><g transform="translate(-948.73 -2078)"><path d="M185.729,163.4a51.106,51.106,0,0,0-1.359,5.369c-.058.362-.189.53-.566.507-.395-.025-.8.1-1.025-.434a12.816,12.816,0,0,1-.458-2.342,33.122,33.122,0,0,1-.893-3.789c-.022-.236-.359-.64.137-.72.428-.068.849.111.846.645-.007,1.4.622,2.668.82,4.023a1.469,1.469,0,0,0,.473.93c.816-1.323.763-2.807,1.112-4.179a4.154,4.154,0,0,1,.234-.944c.179-.348.4-.656.846-.578a.857.857,0,0,1,.758.823c.206,1.535.9,2.974.919,4.574a6.064,6.064,0,0,0,1.323-3.121c.12-.616.465-1.146.535-1.77a.545.545,0,0,1,.695-.416c.268.055.166.355.126.555a53.561,53.561,0,0,1-1.738,6.132c-.109.331-.159.591-.619.632-.549.048-.635-.322-.727-.646-.471-1.658-.913-3.324-1.437-5.251" transform="translate(891.402 2024.851)" fill="#fff"/><path d="M32.272,167.671c.073-1.778-.323-3.314-.146-4.865.044-.384-.074-.84.58-.847.678-.008.626.415.654.876.119,1.941-.35,3.86-.2,5.8.021.266.08.621-.387.65-.384.025-.743.036-.982-.357-.831-1.366-1.677-2.724-2.524-4.08a7.145,7.145,0,0,0-.951-1.251c.1,1.67,0,3.292.031,4.911.006.34.149.765-.481.774-.566.008-.6-.358-.594-.732.05-2.046.119-4.09.174-6.136.007-.241.07-.486.312-.518a.95.95,0,0,1,.849.393c.9,1,1.423,2.227,2.221,3.287.463.614.874,1.264,1.442,2.093" transform="translate(944.582 2024.847)" fill="#fff"/><path d="M153.062,167.021a32.035,32.035,0,0,0,.151-4.291c.014-.377-.04-.75.545-.729.547.021.574.376.569.762-.024,1.936-.038,3.873-.089,5.809-.007.243.067.628-.372.694a.841.841,0,0,1-.974-.389c-.856-1.641-2.182-3.018-2.874-4.751-.088-.221-.1-.573-.469-.48-.287.071-.164.37-.168.567-.021,1.462-.02,2.925-.043,4.388,0,.258.131.635-.352.664-.5.031-.517-.313-.519-.66-.01-1.937-.03-3.874-.026-5.812,0-.335-.172-.83.343-.923a1.1,1.1,0,0,1,1.158.544,43.2,43.2,0,0,0,2.379,3.669c.183.266.4.509.74.938" transform="translate(902.756 2024.861)" fill="#fff"/><path d="M164.35,169.259c-3.079.439-4.538-2.031-4.057-4.6.318-1.7,2.381-3.165,4.825-2.8a1.264,1.264,0,0,1,.32.111c.316.141.995-.128.839.549-.122.529-.665.407-1.053.322a2.841,2.841,0,0,0-1.333-.046c-1.794.43-2.279.8-2.384,2.541-.126,2.092.709,3.4,3.093,3.268.671-.038.992-.314.882-.962-.086-.508.416-1.378-.786-1.246-.34.037-.628-.094-.629-.463s.31-.466.617-.537c1.486-.342,1.937.011,1.938,1.511,0,.073,0,.146,0,.219-.037,2.315.4,2.129-2.271,2.13" transform="translate(898.686 2024.879)" fill="#fff"/><path d="M226.306,165.482c0-.948.024-1.9-.01-2.846-.016-.452.155-.583.6-.7a5.609,5.609,0,0,1,3.012.152,1.939,1.939,0,0,1,.715,3.1c-.467.529-.573.88-.106,1.451a3.79,3.79,0,0,1,.632,2.061c.026.226.108.444-.2.525-.281.074-.541.03-.646-.274a4.64,4.64,0,0,1-.376-1.358,1.372,1.372,0,0,0-1.065-1.264c-1.132-.392-1.423-.212-1.431.921,0,.511-.009,1.022,0,1.532.009.4-.221.478-.574.479s-.559-.111-.556-.5c.011-1.094,0-2.189,0-3.284Zm2.114-2.8c-.7-.144-1.157.1-.959.775.193.662-.716,1.775.589,1.951s2.152-.515,2.091-1.424c-.068-1.026-.91-1.195-1.721-1.3" transform="translate(875.865 2024.885)" fill="#fff"/><path d="M132.814,165.561a18.845,18.845,0,0,0-.024-2.516c-.126-.922.418-1.129,1.128-1.22a5.321,5.321,0,0,1,2.553.295c1.313.5,1.561,2.113.466,3.278-.379.4-.469.506-.048,1a3.41,3.41,0,0,1,.69,2.34c-.006.212.049.456-.274.5a.5.5,0,0,1-.61-.363c-.176-.587-.342-1.176-.5-1.767-.257-.938-1.053-.89-1.8-.91-.425-.011-.453.3-.456.608-.006.547,0,1.1-.02,1.642-.012.342.1.781-.492.8-.65.02-.589-.444-.593-.836-.012-.949,0-1.9,0-2.847Zm1.1-1.512c.111.594-.34,1.451.854,1.408,1.132-.04,1.709-.5,1.721-1.437.01-.813-.731-1.371-1.763-1.369-1.207,0-.645.895-.813,1.4" transform="translate(908.156 2024.888)" fill="#fff"/><path d="M64.45,164.969c0-.808.006-1.538,0-2.268,0-.393.144-.619.587-.627.41-.008.667.134.653.558-.055,1.668.2,3.351-.323,5-.435,1.38-1.135,1.834-2.885,1.772-1.577-.056-2.127-.517-2.441-1.954a30.438,30.438,0,0,1-.181-4.8c-.026-.427.142-.585.591-.567s.567.216.573.614a31.1,31.1,0,0,0,.159,4.911,1.142,1.142,0,0,0,1.149,1.073c.729.055,1.532.172,1.884-.757a10.115,10.115,0,0,0,.238-2.956" transform="translate(933.336 2024.779)" fill="#fff"/><path d="M216.6,165.631c0-.987.02-1.975-.007-2.962-.017-.589.187-.9.841-.868a13.62,13.62,0,0,1,2.94.151c.252.068.632.088.6.383a.655.655,0,0,1-.646.525c-.568.016-1.137.024-1.706.022-1.07-.006-.632.789-.706,1.278s-.05.983.714.934c.491-.032.985-.021,1.478-.013.255,0,.557-.028.554.364s-.313.372-.56.392a4,4,0,0,1-1.018-.008c-.936-.17-1.312.148-1.3,1.09.024,1.476.052,1.553,1.277,1.535a13.776,13.776,0,0,1,1.585.077c.2.021.473.05.474.361s-.213.356-.453.358c-1.175.005-2.35,0-3.525.005-.591,0-.532-.42-.537-.772-.014-.95-.005-1.9,0-2.852" transform="translate(879.217 2024.882)" fill="#fff"/><path d="M72.366,165.538c0-.951.048-1.9-.018-2.851-.042-.6.259-.773.761-.838a5.969,5.969,0,0,1,2.682.268c1.29.438,1.505,2.012.465,3.3-.305.378-.5.483-.095,1.016a8.476,8.476,0,0,1,.94,2.389.294.294,0,0,1-.259.405c-.3.043-.622.079-.8-.246a1.835,1.835,0,0,1-.27-1.051,2.107,2.107,0,0,0-.447-1.323c-.412-.682-1.082-.429-1.637-.388-.6.045-.4.61-.427.973-.036.509-.011,1.023,0,1.535.01.359-.123.54-.526.523s-.374-.278-.374-.535q0-1.59,0-3.181m.878-1.475c.168.51-.346,1.411.776,1.45,1.358.047,1.767-.329,1.765-1.476,0-.981-.513-1.371-1.655-1.39-1.174-.02-.786.8-.886,1.416" transform="translate(929.021 2024.881)" fill="#fff"/><path d="M122.738,165.574c0-.912.057-1.829-.017-2.736-.066-.805.328-1,1.043-1.026a5.112,5.112,0,0,1,2.633.411,2.1,2.1,0,0,1,.829,2.622,1.933,1.933,0,0,1-1.979,1.509c-1.4-.13-1.56.483-1.387,1.54a5.574,5.574,0,0,1,0,.875c0,.381-.219.49-.581.493-.383,0-.539-.146-.535-.515.01-1.058,0-2.117,0-3.175h-.01m1.823-2.915c-.244.035-.628-.075-.646.265a22.527,22.527,0,0,0,.01,2.5c.018.308.354.317.626.324a1.658,1.658,0,0,0,1.852-1.6,1.607,1.607,0,0,0-1.842-1.484" transform="translate(911.629 2024.88)" fill="#fff"/><path d="M202.242,168.683c.009.37.021.666-.434.669-.332,0-.6-.047-.678-.42a4.6,4.6,0,0,0-.187-.728c-.511-1.329-.744-1.437-2.557-1.269-1,.092-.8.863-.929,1.469a2.205,2.205,0,0,1-.363.783.591.591,0,0,1-.731.106c-.315-.123-.12-.38-.044-.556.835-1.929,1.269-3.981,1.968-5.951.137-.385.348-.794.963-.756.577.035.723.358.882.8.621,1.736,1.279,3.46,1.92,5.191.087.236.285.447.19.661m-3.321-2.227c.871-.067,1.613-.1,1-1.13-.345-.574.112-1.751-.718-1.75-.682,0-.589,1.2-.924,1.836-.356.675-.118,1.142.646,1.044" transform="translate(886.26 2024.796)" fill="#fff"/><path d="M45.379,169.261c-.6.162-.943.182-1.176-.552-.276-.87-.416-2.039-1.983-1.814-.776.112-1.4.121-1.556,1.026-.061.344-.386.644-.451.989-.107.566-.521.527-.843.4-.543-.222-.051-.5.041-.758.644-1.835,1.3-3.667,1.9-5.515.172-.53.328-.96,1-.973.649-.012.71.378.871.887.665,2.088,1.431,4.146,2.195,6.315m-3.348-5.751c-.241.766-.543,1.52-.7,2.3-.154.741.456.665.948.654.469-.01.967.138.944-.657-.027-.924-.8-1.462-1.188-2.3" transform="translate(940.494 2024.785)" fill="#fff"/><path d="M82.334,169.321c-.51-.156-.283-.6-.163-.928.394-1.089.839-2.161,1.254-3.242.311-.809.641-1.614.889-2.441.1-.324.06-.622.531-.676a.911.911,0,0,1,.981.367c.082.123.225.23.251.361.424,2.095,1.329,4.046,1.925,6.09.047.161.186.37-.082.449-.251.075-.555.116-.7-.17a5.319,5.319,0,0,1-.57-1.3c-.111-.531-.285-.964-.9-.9-.689.072-1.534-.41-2.03.482a5.416,5.416,0,0,0-.566,1.3.734.734,0,0,1-.816.606m2.532-5.958c-.53.754-.4,1.629-.676,2.394-.1.27-.137.571.182.622a4.78,4.78,0,0,0,1.551.026c.363-.064.327-.529.192-.739-.462-.725-.578-1.627-1.25-2.3" transform="translate(925.682 2024.799)" fill="#fff"/><path d="M115.417,161.751a6.261,6.261,0,0,1,.778.129c.318.088.678.179.578.64-.116.534-.506.289-.809.262a7,7,0,0,0-1-.118,1.287,1.287,0,0,0-1.247.96c-.118.49.329.782.718,1.094.766.612,1.918.6,2.47,1.582a1.876,1.876,0,0,1-1.492,2.949,11.019,11.019,0,0,1-1.916,0c-.433-.021-.839-.128-.775-.565.065-.452.492-.3.828-.207a2.647,2.647,0,0,0,1.666-.015,1.114,1.114,0,0,0,.346-2.044,5.3,5.3,0,0,0-1.158-.65c-1.356-.558-1.862-1.275-1.621-2.377.244-1.119,1.083-1.666,2.635-1.642" transform="translate(915.082 2024.899)" fill="#fff"/><path d="M208.041,165.907c0-.328,0-.657,0-.985.014-1.756.012-1.75-1.731-2.122-.3-.065-.8-.02-.731-.486.054-.38.495-.228.771-.258a20.369,20.369,0,0,1,4.634,0c.226.028.517.006.541.276.023.241-.225.348-.457.4-.111.024-.223.043-.333.066-1.683.356-1.681.356-1.681,2.031,0,1.239.008,2.479-.02,3.717-.007.288.1.718-.424.748-.6.036-.528-.419-.536-.762-.02-.875-.007-1.75-.007-2.626h-.027" transform="translate(883.02 2024.835)" fill="#fff"/><path d="M51.03,166.151a17.02,17.02,0,0,1,.019-2.186c.119-.909-.335-1.137-1.133-1.132a4.38,4.38,0,0,1-.888-.082.335.335,0,0,1-.24-.433c.031-.165.177-.219.337-.224a40.5,40.5,0,0,1,5.1,0c.192.019.433.046.427.258,0,.141-.179.3-.312.407-.073.062-.216.045-.326.067-.577.118-1.34-.213-1.708.3-.383.539-.123,1.278-.139,1.927-.028,1.2-.013,2.408-.02,3.612,0,.326.049.657-.49.667s-.632-.243-.624-.671c.014-.839,0-1.678,0-2.517H51.03" transform="translate(937.158 2024.803)" fill="#fff"/><path d="M95.419,165.2c0,.768.012,1.537,0,2.3-.017.8.221,1.25,1.2,1.086a6.993,6.993,0,0,1,1.581.065c.249.016.445.1.4.4-.036.24-.232.263-.418.264-1.1.006-2.2,0-3.3,0-.6,0-.533-.427-.513-.772a41.747,41.747,0,0,0,.028-6.023c-.036-.411.189-.547.519-.542.352,0,.518.216.51.581-.018.878-.006,1.756-.006,2.634Z" transform="translate(921.422 2024.812)" fill="#fff"/><path d="M144.388,165.79q0,1.422,0,2.844c0,.378.019.738-.566.718-.481-.016-.543-.282-.541-.647.011-1.969.007-3.938.038-5.907.005-.319-.079-.789.544-.746.558.038.516.411.514.783,0,.984,0,1.969,0,2.954Z" transform="translate(904.527 2024.788)" fill="#fff"/><g transform="translate(948.73 2078)"><g transform="translate(0 46.814)"><path d="M351.438,186.028a2.482,2.482,0,1,0,2.289,2.477A2.406,2.406,0,0,0,351.438,186.028Zm2.939,2.477a2.961,2.961,0,1,1,0-.034c0,.011,0,.023,0,.034Z" transform="translate(-170.384 -137.509)" fill="#fff" fill-rule="evenodd"/><path d="M353.433,189.739l-.893.018v-.976h.653l.261.013.235.057.091.06.078.07.047.117.018.222-.039.138-.052.1-.136.107-.052.026-.06.018Zm.157.431.183-.026a.95.95,0,0,0-.522-1.827h-1.258v3.318h.54v-1.42h.522l.861,1.423h.619Z" transform="translate(-172.091 -138.879)" fill="#fff" fill-rule="evenodd"/><path d="M73.322,113.767,90,155.977h5.785l16.761-42.209h-7.343L93.283,144.674,82.129,113.767Z" transform="translate(-35.847 -102.436)" fill="#fff" fill-rule="evenodd"/><path d="M29.1,130.562H8.424c.835-6.771,4.667-10.64,10.8-10.64C24.879,119.917,28.672,124.2,29.1,130.562Zm-20.948,6,29.28-.026.013-.086c0-14.96-8.011-22.788-18.21-22.788C7.857,113.676-.018,122.611,0,134.874c0,12.5,6.051,22.175,19.807,22.175,6.988,0,11.707-2.146,16.67-5.388v-7.768c-4.563,3.563-10.327,6.829-15.281,6.829-7.883,0-13.041-5.119-13.041-14.146Z" transform="translate(0 -102.386)" fill="#fff" fill-rule="evenodd"/><path d="M166.442,156.051l.008-42.223h-7.361l-.034,42.223Z" transform="translate(-77.763 -102.466)" fill="#fff" fill-rule="evenodd"/><path d="M166.442,98.934l.008-7.338h-7.361l-.034,7.338Z" transform="translate(-77.763 -91.596)" fill="#fff" fill-rule="evenodd"/><path d="M307.345,154.984V129.64c0-5.221-1.41-9.724-4.1-12.921a14.693,14.693,0,0,0-11.645-5.072,14.956,14.956,0,0,0-11.018,4.644v-3.6h-7.335V155h7.57V129.24c.018-5.9,4.145-10.274,9.862-10.293,6,.039,9.136,4.291,9.173,10.441v25.582h-.013Z" transform="translate(-133.592 -101.398)" fill="#fff" fill-rule="evenodd"/><path d="M194.294,144.627a5.044,5.044,0,0,1-.522-1.71v-.044l-.018-.078-.039-.653c.057-3.2,1.584-6.053,10.144-6.672,4.049-.295,8.15-.723,11-2.464l.392-.261.12-.073v5.393a11.715,11.715,0,0,1-.321,2.48c-.091.339-.209.671-.326.989l-.031.112a8.774,8.774,0,0,1-2.263,3.247l-.2.2-.188.144c-2.42,1.971-5.894,2.871-9.546,2.871-3.835,0-6.983-1.109-8.2-3.477Zm29.46,9.136a23.025,23.025,0,0,1-1.115-6.32v-23a12.046,12.046,0,0,0-4.177-9.619c-2.775-2.31-6.884-3.621-12.256-3.621h-.039l-.018-.013c-8.593.013-14.754,3.879-16.808,10.16l-.073.261-.117.326h8.257l.138-.183c1.877-2.647,5.521-3.422,8.546-3.422h.026c6.63.044,9.251,2.391,9.259,5.341v.018c-.021,1.444-.673,2.532-2.569,3.42s-5.054,1.472-9.859,1.7c-10.274.522-16.586,4.545-16.586,13.271v.091c.026,9.2,7.661,13.161,15.91,13.161h.042c5.685,0,10.131-1.772,13.1-4.9l.125-.131.018.17a12.4,12.4,0,0,0,.932,3.634l.052.1.065.149h7.4Z" transform="translate(-91.115 -101.175)" fill="#fff" fill-rule="evenodd"/></g><path d="M163.248,33.008,159.2,28.294l-.2-4.907L152.063,13.2l-1.545-4.907-5.79-5.662V0l-5.946,3.36L134.892,9.8l-3.863-.193-4.046,5.1-5.973,6.487-2.253,3.164,10.34-1.164,11.5,3.876,3.944,7.445,8.938,5.829,11.807-.086,8.191,2.2-10.039-6.421Z" transform="translate(-58.061 0)" fill="#fff" fill-rule="evenodd"/><path d="M78.9,44.194l-4.769-9.152,1.337-2.824-1.423-4.164L75.18,24.4,74.862,16.8l-9.523,6.839-4.08,6.589L56.683,31.45,49.86,36.914l-7.635,9.711-6.181,4.735,9.416.42L56,46.909l6.628,3.918L74.407,50.6l3.832,1.911L81.508,51l-2.036-1.013Z" transform="translate(-17.622 -8.213)" fill="#fff" fill-rule="evenodd"/><path d="M242.682,49.615l-2.349-11.287-5.685-8.445L232.3,23.749l-5.672,3.276-4.845,4.915-8.22,1.177-6.129,3.1,2.409,3.375,9.935,5.623,6.659,6.307,5.868.585,9.4,5.169h12.913s-6.484-5.315-6.85-5.56-5.082-2.1-5.082-2.1Z" transform="translate(-101.415 -11.611)" fill="#fff" fill-rule="evenodd"/></g></g></svg>