<svg xmlns="http://www.w3.org/2000/svg" xmlns:xlink="http://www.w3.org/1999/xlink" width="255" height="33.056" viewBox="0 0 255 33.056"><defs><clipPath id="a"><rect width="255" height="33.056" fill="#fff"/></clipPath></defs><g transform="translate(0 0)" clip-path="url(#a)"><path d="M0,33,20.716,13.488c.339,1.14-.22,1.873-.445,2.689-.893,3.228-1.684,6.485-2.6,9.706-.329,1.155,0,1.434,1.116,1.4a3.678,3.678,0,0,0,3.722-3c1.561-5.629,3.243-11.225,4.754-16.867.56-2.09,1.107-4.181,1.762-6.244.107-.339-.01-.762.566-.827,2.217-.25,6.84.406,8.2,2.637,1.511,2.479.969,4.912.167,7.363-1.006,3.078-3.39,4.626-6.364,5.451-.349.1-.835.1-.832.6,0,.43.48.353.751.493,3.489,1.8,4.163,4.456,3.006,8.548a9.652,9.652,0,0,1-5.09,6.4A13.9,13.9,0,0,1,23.4,33.127c-7.555.1-15.112.046-22.668.045A4.765,4.765,0,0,1,0,33" transform="translate(0 -0.217)" fill="#fff"/><path d="M284.673,51.058c-1.752,0-3.5.005-5.257,0-1.947-.007-2.054-.127-1.417-1.893,1.2-3.318,1.953-6.759,2.9-10.146,1.238-4.429,2.419-8.874,3.64-13.307a1.275,1.275,0,0,1,1.382-1.119c4.263.167,8.533-.228,12.8.214a5.5,5.5,0,0,1,4.7,7.423c-1.354,3.326-1.931,6.964-2.9,10.45-.788,2.821-1.5,5.745-4.545,7.1a16.9,16.9,0,0,1-6.2,1.262c-1.694.075-3.395.015-5.092.013m3.984-5.39a2.725,2.725,0,0,0,3.029-2.187c1.117-3.838,2.194-7.688,3.288-11.532q.751-2.639,1.505-5.277c.106-.37.255-.763,0-1.1-.129-.166-.414-.11-.573.073-1.168,1.345-2.877,2.21-3.6,3.945-2.034,4.9-2.727,10.2-4.554,15.17-.274.743.291.94.9.9" transform="translate(-204.724 -18.129)" fill="#fff"/><path d="M804.574,25.353c-1.752,1.34-3.7,2.533-4.368,4.773-1.834,6.164-3.569,12.357-5.094,18.607-.356,1.459-.861,2.509-2.8,2.226a38.362,38.362,0,0,0-5.416-.065c-.648,0-.959-.063-.706-.939,1.276-4.415,2.446-8.861,3.657-13.295.784-2.872,1.641-5.726,2.325-8.622a12.383,12.383,0,0,0,.8-2.813c0-.532.479-.824,1.056-.814,4.978.087,9.966-.323,14.932.214,1.963.212,2.85,1.454,3,3.4.184,2.362-.629,4.51-1.22,6.7-.984,3.654-2.063,7.281-3.074,10.927-.39,1.406-.7,2.834-1.052,4.25a1.135,1.135,0,0,1-1.256,1c-2.191-.039-4.383-.014-6.574,0-.739,0-1.06-.1-.8-1.038,1.427-5.047,2.65-10.155,4.171-15.173.925-3.051,1.6-6.158,2.4-9.343" transform="translate(-579.632 -17.95)" fill="#fff"/><path d="M155.2,37.4c3.5,2.354,4.007,3.992,2.584,7.8a29.328,29.328,0,0,0-1.283,4.688c-.158.82-.414,1.125-1.24,1.112-2.192-.036-4.385-.03-6.577,0-.935.013-1.049-.235-.785-1.159,1.381-4.84,2.652-9.712,3.98-14.568.813-2.976,1.66-5.944,2.49-8.915.082-.294.433-.63.081-.882-.408-.291-.668.143-.973.356-3.509,2.453-4.3,6.281-5.265,10.088-1.217,4.821-2.639,9.59-3.943,14.39-.208.765-.75.674-1.285.677-1.973.011-3.948-.042-5.919.031-1.271.047-1.5-.412-1.162-1.564,1.136-3.9,2.206-7.816,3.3-11.727,1.14-4.07,2.314-8.13,3.392-12.216.189-.718.4-1.049,1.147-1.021,4.651.173,9.311-.265,13.96.234,3.162.34,4.9,2.623,4.209,5.686a15.112,15.112,0,0,1-.822,3.131c-1.147,2.485-2.892,4.035-5.889,3.856" transform="translate(-100.102 -18.051)" fill="#fff"/><path d="M708.375,50.857a13.485,13.485,0,0,1-5.332-.577,4.869,4.869,0,0,1-3.066-5.61q2.158-7.812,4.3-15.629a6.3,6.3,0,0,1,4.977-4.38,41.891,41.891,0,0,1,9.975-.034c3.779.531,5.546,3.3,4.631,6.98-1.149,4.615-2.368,9.208-3.785,13.747a6.879,6.879,0,0,1-5.689,4.932,20.432,20.432,0,0,1-6.007.572m8.767-25.763c-2.007,1.257-4.1,3.476-4.448,4.675q-2.081,7.148-4.1,14.311a1.3,1.3,0,0,0,.519,1.563,1.31,1.31,0,0,0,1.644.009c1.238-.71,1.389-2.015,1.727-3.191.85-2.96,1.657-5.933,2.455-8.907.723-2.7,1.412-5.4,2.209-8.46" transform="translate(-516.018 -17.948)" fill="#fff"/><path d="M392.3,32.691c.621-2.282,1.2-4.361,1.746-6.446.088-.335.529-.735.082-1.027-.474-.309-.757.2-1.106.444-3.479,2.429-4.181,6.267-5.134,10q-.986,3.859-2.13,7.677c-.284.952-.242,1.741.837,1.853.794.082,1.845.854,2.384-.693.821-2.356,1.159-4.843,2.111-7.164.28-.683.474-.953,1.2-.937,2.082.046,4.166.081,6.246.008,1.055-.037,1.155.323.9,1.213-.916,3.167-1.781,6.349-2.672,9.524-.058.207-.2.392-.259.6-.862,3.007-.86,3.005-3.977,3s-6.247-.016-9.371-.007a7.7,7.7,0,0,1-4.2-1.169c-2.137-1.357-2.313-3.558-1.777-5.682,1.314-5.2,2.779-10.364,4.3-15.508a5.434,5.434,0,0,1,4.7-3.811,42,42,0,0,1,10.489-.175c4.012.439,5.376,2.633,4.643,6.61-.264,1.435-.849,1.808-2.229,1.732-2.22-.122-4.452-.033-6.79-.033" transform="translate(-277.922 -17.796)" fill="#fff"/><path d="M562.757,25.232c-2.281,1.827-4.682,3.472-4.99,6.707-.1,1.027.237,1.607,1.2,1.776a43.691,43.691,0,0,1,4.7,1.26c3.663,1.072,4.438,2.628,3.846,5.825-.564,3.048-1.422,6-4.005,8.112a7.913,7.913,0,0,1-4.082,1.46c-3.523.535-7.069.886-10.553-.235a4.7,4.7,0,0,1-2.986-6.012c.151-.461.222-.95.33-1.425a1.2,1.2,0,0,1,1.344-1.112c2.19.048,4.382.032,6.573.007.742-.008,1.042.207.709.953-.066.149-.094.314-.153.467-.45,1.151-.718,2.289.819,2.81.949.322,2.236-.808,2.493-2.073.509-2.5.057-3.311-2.484-3.666a24.867,24.867,0,0,1-3.475-.868c-2.078-.6-3.522-1.735-3.261-4.374.307-3.093.869-6.112,3.018-8.579a4.946,4.946,0,0,1,3.1-1.659,42.153,42.153,0,0,1,11.454-.046c3.061.477,4.753,4.411,3.231,7.095-.3.526-.672.468-1.086.47-2.027.009-4.055-.035-6.08.018-1.188.031-1.223-.458-.9-1.4a16.641,16.641,0,0,0,1.239-5.513" transform="translate(-402.324 -17.835)" fill="#fff"/><path d="M900.762,24.4c1.644,0,3.287.018,4.931-.007.99-.014,1.316.367.9,1.3-.023.05-.048.1-.07.148-.56,1.211-.264,3.037-1.454,3.629-1.058.526-2.575.151-3.889.134-4.6-.058-4.657-.333-5.856,4.762-.185.787-1.187,1.762-.429,2.338.456.345,1.418-.693,2.168-1.076,1.985-1.014,4.139-.827,6.267-.781.455.01.534.337.445.683-.34,1.312-.687,2.623-1.069,3.923-.2.7-.826.6-1.367.6-2.137-.01-4.275,0-6.41-.057-.827-.024-1.3.07-1.407,1.071-.077.724-.484,1.4-.618,2.176-.345,1.985-.239,2.224,1.714,2.245,1.7.018,3.4-.006,5.1-.032.841-.013,1.285.021.984,1.178-1.121,4.309-1.064,4.324-5.536,4.314-1.808,0-3.619.045-5.425-.023-4.362-.165-6.721-3.665-5.447-7.829,1.171-3.827,2.193-7.7,3.14-11.589.679-2.795,1.639-5.546,4.863-6.543a17.272,17.272,0,0,1,4.2-.521c1.42-.08,2.848-.018,4.273-.018Z" transform="translate(-651.769 -17.989)" fill="#fff"/><path d="M484.728,24.524c1.7,0,3.4.018,5.1-.008.836-.013,1.237.185.921,1.133a27.6,27.6,0,0,0-.9,3.289c-.152.755-.606.764-1.183.76-1.864-.013-3.727-.006-5.591,0a2.575,2.575,0,0,0-2.926,2.4,34.212,34.212,0,0,1-1.057,3.919c-.081.286-.465.594-.043.843.312.185.6-.051.87-.27,2.105-1.706,4.6-1.742,7.137-1.7,1.076.017,1.229.438.849,1.3a4.214,4.214,0,0,0-.261.6c-.295,1.136-.349,2.681-1.242,3.189-.914.52-2.344.135-3.548.141-.658,0-1.316,0-1.973,0-3.185-.023-3.737.532-3.989,3.736-.1,1.21.353,1.751,1.537,1.742,1.754-.014,3.508,0,5.261-.043,1.026-.023,1.784,0,1.192,1.416a25.683,25.683,0,0,0-.832,3.136,1.178,1.178,0,0,1-1.332.925c-2.959-.042-5.923.068-8.878-.058-4.1-.176-6.347-3.108-5.4-7.141.851-3.637,1.945-7.217,2.948-10.818.548-1.969.756-4.038,2.046-5.774a6.333,6.333,0,0,1,4.405-2.461,49.692,49.692,0,0,1,6.893-.257" transform="translate(-345.241 -18.077)" fill="#fff"/><path d="M647.322,29.9a42.918,42.918,0,0,0-6.361-.217c-.764-.014-1.306,0-.868-1.072a21.279,21.279,0,0,0,.848-3.125,1.119,1.119,0,0,1,1.274-.969q7.727.02,15.454-.024c.829,0,1.042.236.74,1.074a22.769,22.769,0,0,0-.866,3.276c-.184.926-.814.828-1.476.838-3.579.056-3.465.093-4.367,3.482-1.505,5.652-3.187,11.257-4.753,16.894-.193.693-.421.986-1.19.964-2.136-.061-4.274-.027-6.411-.031-.646,0-1.124.069-.823-.963,1.292-4.418,2.658-8.829,3.612-13.324.647-3.048,2.544-4.906,5.187-6.8" transform="translate(-470.743 -18.062)" fill="#fff"/><path d="M232.508,50.965c-1.039,0-2.08-.037-3.118.011-.963.044-1.151-.449-.929-1.224,1.235-4.309,2.518-8.6,3.724-12.922q1.46-5.227,2.766-10.5c.315-1.275.765-2,2.282-1.869a44.45,44.45,0,0,0,5.412,0c1.086-.041,1.36.382,1.083,1.361-2.131,7.544-4.239,15.094-6.392,22.631-.724,2.533-.774,2.519-4.828,2.5" transform="translate(-168.392 -18.028)" fill="#fff"/><path d="M45.877.118,23.265,21.25a12.92,12.92,0,0,1,.906-4.027c1.273-4.47,2.328-9,3.81-13.411.017-.052.044-.1.06-.153C28.39,2.492,28.015.816,29.163.267,30.2-.226,31.633.114,32.892.113Q38.4.105,43.909.118h1.968" transform="translate(-17.154 0)" fill="#fff"/></g></svg>