<svg xmlns="http://www.w3.org/2000/svg" xmlns:xlink="http://www.w3.org/1999/xlink" width="266" height="190" viewBox="0 0 266 190"><defs><clipPath id="a"><rect width="100" height="190" fill="#fff"/></clipPath></defs><g transform="translate(-123 -3188)"><g transform="translate(1 441)"><g transform="translate(288 2747)"><g clip-path="url(#a)"><path d="M38.51,0c.334.813,1.1.622,1.716.7,9.119,1.128,15.645,5.421,19.134,15.53a14.084,14.084,0,0,0,3.259,5.514C63.844,23,64.955,24.372,66.11,25.7c.179.206.3.482.71.448a43.983,43.983,0,0,1-1.766-6.882,10.722,10.722,0,0,1,.376-5.779A4.969,4.969,0,0,1,66,12.446c.517-.694,1.032-.9,1.706-.084a24.426,24.426,0,0,1,5.611,11.732,12.857,12.857,0,0,1-.254,6.74,1.984,1.984,0,0,1-.26.666c-1.387,1.445-.66,2.636.309,3.947a51.306,51.306,0,0,1,4.833,8.411,2.134,2.134,0,0,0,.835,1.15,16.62,16.62,0,0,0-.032-3.349,17.118,17.118,0,0,1,.8-7.678,5.932,5.932,0,0,1,1.582-2.364c.679-.639,1.157-.657,1.653.243a24.148,24.148,0,0,1,2.92,13.73c-.165,2.242-.456,4.55-2.158,6.051C82,53.009,82.4,54.147,83,55.646A42.372,42.372,0,0,1,85.9,65.98a.742.742,0,0,0,.386.692c.334-1.905.607-3.781,1-5.631a18.381,18.381,0,0,1,3.14-7.553,4.622,4.622,0,0,1,2.167-1.636c.741-.259,1.2-.005,1.356.694,1.273,5.743,1.564,11.468-.718,17.044-1,2.441-2.4,4.627-5.032,5.663a.7.7,0,0,0-.456.863c.739,4.274.669,8.6.841,12.908.005.1.108.2.191.349.514-.39.495-.976.659-1.48a23.766,23.766,0,0,1,5.085-9.276,7.393,7.393,0,0,1,2.692-1.958c1.388-.532,2.03-.175,2.026,1.278a26.737,26.737,0,0,1-2.708,12.625,18,18,0,0,1-4.279,5.872,7.978,7.978,0,0,1-3.405,1.675c-.405.089-.843.138-.9.764A89.035,89.035,0,0,1,85.1,113.844a3.042,3.042,0,0,0,1.34-1.378A38.859,38.859,0,0,1,92.3,105.2a13.048,13.048,0,0,1,5.059-3.112A3.84,3.84,0,0,1,98.4,101.9c1.449-.017,1.805.4,1.493,1.789a30.707,30.707,0,0,1-2.089,6.467c-2.217,4.671-5.142,8.751-9.713,11.433a7.667,7.667,0,0,1-5.391,1.094c-.493-.089-.783.009-.931.466a50.974,50.974,0,0,1-4.207,8.859c-.163.292-.443.587-.168,1.032,1.708-1.39,3.36-2.822,5.1-4.133,2.563-1.928,5.239-3.675,8.481-4.265a3.828,3.828,0,0,1,1.183-.081c2.032.278,2.345.9,1.406,2.7a29.059,29.059,0,0,1-12.244,12.809c-2.763,1.457-5.675,2.445-8.825,1.06a.6.6,0,0,0-.825.246A90.491,90.491,0,0,1,61.368,153.7a3,3,0,0,0-.312.612,8.392,8.392,0,0,0,3-1.26c3.4-1.586,6.8-3.191,10.569-3.659,2.164-.268,4.392-.544,6.288,1.068.6.506.609.894.107,1.465-4.957,5.628-10.945,9.595-18.4,10.9-2.942.514-6.02.515-8.512-1.747a.534.534,0,0,0-.828-.03,84.182,84.182,0,0,1-9.632,7.121l-.511.325a8.371,8.371,0,0,0,3.667-.649,38.318,38.318,0,0,1,11.253-1.268,7.723,7.723,0,0,1,5.188,1.846c1.051.985,1.007,1.363-.124,2.221a32.986,32.986,0,0,1-15.548,6.391c-3.529.5-7.022.406-10.206-1.55a4.422,4.422,0,0,1-1.546-1.306c-.538-.882-1.039-.651-1.77-.272a74.552,74.552,0,0,1-12.086,5.481c-.393.121-.8.2-1.471.368a6.648,6.648,0,0,0,2.927.358,50.381,50.381,0,0,1,11.721.4c2.624.517,5.226,1.235,7.116,3.367,1.309,1.475,1.214,2-.577,2.8a35.821,35.821,0,0,1-18.792,3.106,17.655,17.655,0,0,1-8.246-2.98,6.2,6.2,0,0,1-2.338-2.669c-.384-.922-.993-1.031-1.822-.732-2.93,1.055-6.01,1.525-9.016,2.284-.449.113-1.316.562-1.362-.506-.035-.786-.52-1.749.878-2.075,3.131-.729,6.232-1.594,9.351-2.379a.688.688,0,0,0,.607-.751c-.058-6.3,4.144-10.339,7.854-14.592a41.051,41.051,0,0,1,8.329-6.828c.757-.508,1.127-.3,1.521.358a7.151,7.151,0,0,1,.631,6.189A22.387,22.387,0,0,1,23.1,174.67c-.693.651-1.382,1.306-2.229,2.108a4.041,4.041,0,0,0,2.071-.439c3.547-1.465,6.952-3.228,10.39-4.924a.846.846,0,0,0,.594-.91c-.01-.12.012-.243-.009-.361-.781-4.519,1-8.394,3.126-12.151a41.314,41.314,0,0,1,7.466-9.94c.75-.7,1.17-.559,1.729.147,1.689,2.132,1.723,4.544,1.3,7.063-.612,3.6-2.453,6.623-4.447,9.577a3.428,3.428,0,0,0-.223.4c-.013.026.013.073.045.222a3.488,3.488,0,0,0,1.482-.84c2.46-1.854,4.882-3.755,7.319-5.639.328-.254.682-.509.345-.976-1.442-2-1.134-4.309-.914-6.494.615-6.109,3.124-11.579,6.127-16.835.9-1.569,1.255-1.565,2.57-.268a8.04,8.04,0,0,1,2.186,5.063,20.545,20.545,0,0,1-1.878,10.371c-.156.367-.757.857-.346,1.135.509.344.874-.335,1.2-.683a110.927,110.927,0,0,0,8.269-9.967c.7-.934.9-1.518.116-2.609-1.588-2.2-1.912-4.867-2.045-7.521a49.485,49.485,0,0,1,1.218-12.835c.517-2.415,1.406-2.727,3.281-1.1,2.038,1.767,2.865,4.192,3.375,6.719a35.266,35.266,0,0,1,.309,7.231c.571-1.108,1.172-2.2,1.7-3.326.835-1.77,1.618-3.565,2.44-5.341.152-.329.235-.6-.12-.828-2.248-1.414-3.228-3.715-4.079-6.047a39.717,39.717,0,0,1-2.333-14.8c.044-1.615.368-1.828,1.945-1.451a7.11,7.11,0,0,1,3.833,2.719,16.546,16.546,0,0,1,3.294,8.233,7.336,7.336,0,0,0,.759,2.4c.589-2.768,1.188-5.25,1.627-7.759.364-2.08.527-4.2.808-6.292.067-.495.087-.786-.535-.948a7.217,7.217,0,0,1-3.7-2.73c-3.483-4.334-5.336-9.41-6.589-14.742-.307-1.308.137-1.787,1.489-1.637a8.085,8.085,0,0,1,4.594,2.4,19.978,19.978,0,0,1,4.211,6.223c.2.419.412.832.62,1.247l.294-.055c0-1.082.061-2.167-.012-3.244-.195-2.91-.455-5.815-.669-8.724-.035-.482-.221-.734-.708-.782a9.377,9.377,0,0,1-5.227-2.717A36.208,36.208,0,0,1,70.377,60c-.606-1.291-.559-1.349.781-1.661a7.365,7.365,0,0,1,5.984,1.439,19.373,19.373,0,0,1,5.572,5.72,2.8,2.8,0,0,1,.186.442l.288-.2c-.239-.933-.44-1.877-.724-2.8-.98-3.16-1.757-6.384-3.053-9.444-.151-.354-.217-.657-.695-.64-3.426.12-6.079-1.7-8.7-3.546a29.881,29.881,0,0,1-6.755-6.6c-.789-1.064-.722-1.372.474-1.816a7.747,7.747,0,0,1,5.7.358,22.849,22.849,0,0,1,5.212,3.161.6.6,0,0,0,.664.156c-.373-.739-.692-1.492-1.11-2.182-1.615-2.668-3.273-5.31-4.887-7.978a.91.91,0,0,0-1.073-.527c-3.76.823-7.072-.591-10.339-2.12A31.833,31.833,0,0,1,51,27.261c-1-.84-.987-1.167.03-1.937,1.748-1.327,3.758-1.139,5.75-.92,1.973.216,3.711,1.175,5.534,1.859.183.068.354.2.625.018a15.067,15.067,0,0,0-1.9-2.365c-1.677-2.366-3.99-3.531-6.783-4.444A28.219,28.219,0,0,1,38.915,7.6q-1.941-3.032-3.891-6.056A3.016,3.016,0,0,1,34.427,0Z" transform="translate(0)" fill="#fff"/></g></g><g transform="translate(122 2747)"><g transform="translate(0)" clip-path="url(#a)"><path d="M61.491,0c-.334.813-1.1.622-1.716.7C50.656,1.827,44.129,6.119,40.64,16.228a14.084,14.084,0,0,1-3.259,5.514C36.156,23,35.045,24.372,33.89,25.7c-.179.206-.3.482-.71.448a43.983,43.983,0,0,0,1.766-6.882,10.722,10.722,0,0,0-.376-5.779A4.969,4.969,0,0,0,34,12.446c-.517-.694-1.032-.9-1.706-.084a24.426,24.426,0,0,0-5.611,11.732,12.857,12.857,0,0,0,.254,6.74,1.984,1.984,0,0,0,.26.666c1.387,1.445.66,2.636-.309,3.947a51.306,51.306,0,0,0-4.833,8.411,2.134,2.134,0,0,1-.835,1.15,16.62,16.62,0,0,1,.032-3.349,17.118,17.118,0,0,0-.8-7.678,5.932,5.932,0,0,0-1.582-2.364c-.679-.639-1.157-.657-1.653.243a24.148,24.148,0,0,0-2.92,13.73c.165,2.242.456,4.55,2.158,6.051C18,53.009,17.6,54.147,17,55.646A42.372,42.372,0,0,0,14.1,65.98a.742.742,0,0,1-.386.692c-.334-1.905-.607-3.781-1-5.631a18.381,18.381,0,0,0-3.14-7.553,4.622,4.622,0,0,0-2.167-1.636c-.741-.259-1.2-.005-1.356.694C4.779,58.29,4.489,64.014,6.77,69.591c1,2.441,2.4,4.627,5.032,5.663a.7.7,0,0,1,.456.863c-.739,4.274-.669,8.6-.841,12.908-.005.1-.108.2-.191.349-.514-.39-.495-.976-.659-1.48a23.766,23.766,0,0,0-5.085-9.276A7.393,7.393,0,0,0,2.791,76.66C1.4,76.128.761,76.484.765,77.937A26.737,26.737,0,0,0,3.472,90.562a18,18,0,0,0,4.279,5.872,7.978,7.978,0,0,0,3.405,1.675c.405.089.843.138.9.764A89.035,89.035,0,0,0,14.9,113.844a3.042,3.042,0,0,1-1.34-1.378A38.859,38.859,0,0,0,7.7,105.2a13.048,13.048,0,0,0-5.059-3.112A3.84,3.84,0,0,0,1.6,101.9c-1.449-.017-1.805.4-1.493,1.789a30.707,30.707,0,0,0,2.089,6.467c2.217,4.671,5.142,8.751,9.713,11.433a7.667,7.667,0,0,0,5.391,1.094c.493-.089.783.009.931.466a50.974,50.974,0,0,0,4.207,8.859c.163.292.443.587.168,1.032-1.708-1.39-3.36-2.822-5.1-4.133-2.563-1.928-5.239-3.675-8.481-4.265a3.828,3.828,0,0,0-1.183-.081c-2.032.278-2.345.9-1.406,2.7a29.059,29.059,0,0,0,12.244,12.809c2.763,1.457,5.675,2.445,8.825,1.06a.6.6,0,0,1,.825.246A90.491,90.491,0,0,0,38.633,153.7a3,3,0,0,1,.312.612,8.392,8.392,0,0,1-3-1.26c-3.4-1.586-6.8-3.191-10.569-3.659-2.164-.268-4.392-.544-6.288,1.068-.6.506-.609.894-.107,1.465,4.957,5.628,10.945,9.595,18.4,10.9,2.942.514,6.02.515,8.512-1.747a.534.534,0,0,1,.828-.03,84.182,84.182,0,0,0,9.632,7.121l.511.325a8.371,8.371,0,0,1-3.667-.649,38.318,38.318,0,0,0-11.253-1.268,7.723,7.723,0,0,0-5.188,1.846c-1.051.985-1.007,1.363.124,2.221a32.986,32.986,0,0,0,15.548,6.391c3.529.5,7.022.406,10.206-1.55a4.422,4.422,0,0,0,1.546-1.306c.538-.882,1.039-.651,1.77-.272a74.552,74.552,0,0,0,12.086,5.481c.393.121.8.2,1.471.368a6.648,6.648,0,0,1-2.927.358,50.381,50.381,0,0,0-11.721.4c-2.624.517-5.226,1.235-7.116,3.367-1.309,1.475-1.214,2,.577,2.8a35.821,35.821,0,0,0,18.792,3.106,17.655,17.655,0,0,0,8.246-2.98,6.2,6.2,0,0,0,2.338-2.669c.384-.922.993-1.031,1.822-.732,2.93,1.055,6.01,1.525,9.016,2.284.449.113,1.316.562,1.362-.506.035-.786.52-1.749-.878-2.075-3.131-.729-6.232-1.594-9.351-2.379a.688.688,0,0,1-.607-.751c.058-6.3-4.144-10.339-7.854-14.592a41.051,41.051,0,0,0-8.329-6.828c-.757-.508-1.127-.3-1.521.358a7.151,7.151,0,0,0-.631,6.189A22.387,22.387,0,0,0,76.9,174.67c.693.651,1.382,1.306,2.229,2.108a4.041,4.041,0,0,1-2.071-.439c-3.547-1.465-6.952-3.228-10.39-4.924a.846.846,0,0,1-.594-.91c.01-.12-.012-.243.009-.361.781-4.519-1-8.394-3.126-12.151a41.314,41.314,0,0,0-7.466-9.94c-.75-.7-1.17-.559-1.729.147-1.689,2.132-1.723,4.544-1.3,7.063.612,3.6,2.453,6.623,4.447,9.577a3.428,3.428,0,0,1,.223.4c.013.026-.013.073-.045.222a3.488,3.488,0,0,1-1.482-.84c-2.46-1.854-4.882-3.755-7.319-5.639-.328-.254-.682-.509-.345-.976,1.442-2,1.134-4.309.914-6.494-.615-6.109-3.124-11.579-6.127-16.835-.9-1.569-1.255-1.565-2.57-.268a8.04,8.04,0,0,0-2.186,5.063,20.545,20.545,0,0,0,1.878,10.371c.156.367.757.857.346,1.135-.509.344-.874-.335-1.2-.683a110.927,110.927,0,0,1-8.269-9.967c-.7-.934-.9-1.518-.116-2.609,1.588-2.2,1.912-4.867,2.045-7.521a49.485,49.485,0,0,0-1.218-12.835c-.517-2.415-1.406-2.727-3.281-1.1-2.038,1.767-2.865,4.192-3.375,6.719a35.266,35.266,0,0,0-.309,7.231c-.571-1.108-1.172-2.2-1.7-3.326-.835-1.77-1.618-3.565-2.44-5.341-.152-.329-.235-.6.12-.828,2.248-1.414,3.228-3.715,4.079-6.047a39.717,39.717,0,0,0,2.333-14.8c-.044-1.615-.368-1.828-1.945-1.451a7.11,7.11,0,0,0-3.833,2.719,16.546,16.546,0,0,0-3.294,8.233,7.336,7.336,0,0,1-.759,2.4c-.589-2.768-1.188-5.25-1.627-7.759-.364-2.08-.527-4.2-.808-6.292-.067-.495-.087-.786.535-.948a7.217,7.217,0,0,0,3.7-2.73c3.483-4.334,5.336-9.41,6.589-14.742.307-1.308-.137-1.787-1.489-1.637a8.085,8.085,0,0,0-4.594,2.4,19.978,19.978,0,0,0-4.211,6.223c-.2.419-.412.832-.62,1.247l-.294-.055c0-1.082-.061-2.167.012-3.244.195-2.91.455-5.815.669-8.724.035-.482.221-.734.708-.782a9.377,9.377,0,0,0,5.227-2.717A36.208,36.208,0,0,0,29.623,60c.606-1.291.559-1.349-.781-1.661a7.365,7.365,0,0,0-5.984,1.439,19.373,19.373,0,0,0-5.572,5.72,2.8,2.8,0,0,0-.186.442l-.288-.2c.239-.933.44-1.877.724-2.8.98-3.16,1.757-6.384,3.053-9.444.151-.354.217-.657.695-.64,3.426.12,6.079-1.7,8.7-3.546a29.881,29.881,0,0,0,6.755-6.6c.789-1.064.722-1.372-.474-1.816a7.747,7.747,0,0,0-5.7.358,22.849,22.849,0,0,0-5.212,3.161.6.6,0,0,1-.664.156c.373-.739.692-1.492,1.11-2.182,1.615-2.668,3.273-5.31,4.887-7.978a.91.91,0,0,1,1.073-.527c3.76.823,7.072-.591,10.339-2.12A31.833,31.833,0,0,0,49,27.261c1-.84.987-1.167-.03-1.937-1.748-1.327-3.758-1.139-5.75-.92-1.973.216-3.711,1.175-5.534,1.859-.183.068-.354.2-.625.018a15.067,15.067,0,0,1,1.9-2.365c1.677-2.366,3.99-3.531,6.783-4.444A28.219,28.219,0,0,0,61.085,7.6q1.941-3.032,3.891-6.056A3.016,3.016,0,0,0,65.574,0Z" transform="translate(0)" fill="#fff"/></g></g></g><text transform="translate(256 3249)" fill="#fff" font-size="26" font-family="Gellix-Regular, Gellix"><tspan x="-57.948" y="0">Grand Pix</tspan><tspan x="-97.456" y="30">Dubai Lynx 2021 </tspan><tspan x="-90.956" y="60">Film Campaign</tspan><tspan x="-25.956" y="90">IKEA</tspan></text></g></svg>